<?xml version="1.0" encoding="utf-8" standalone="no"?>
<!DOCTYPE svg PUBLIC "-//W3C//DTD SVG 1.1//EN"
  "http://www.w3.org/Graphics/SVG/1.1/DTD/svg11.dtd">
<svg xmlns:xlink="http://www.w3.org/1999/xlink" width="864pt" height="288pt" viewBox="0 0 864 288" xmlns="http://www.w3.org/2000/svg" version="1.1">
 <metadata>
  <rdf:RDF xmlns:dc="http://purl.org/dc/elements/1.1/" xmlns:cc="http://creativecommons.org/ns#" xmlns:rdf="http://www.w3.org/1999/02/22-rdf-syntax-ns#">
   <cc:Work>
    <dc:type rdf:resource="http://purl.org/dc/dcmitype/StillImage"/>
    <dc:date>2026-05-25T00:02:17.089619</dc:date>
    <dc:format>image/svg+xml</dc:format>
    <dc:creator>
     <cc:Agent>
      <dc:title>Matplotlib v3.10.8, https://matplotlib.org/</dc:title>
     </cc:Agent>
    </dc:creator>
   </cc:Work>
  </rdf:RDF>
 </metadata>
 <defs>
  <style type="text/css">*{stroke-linejoin: round; stroke-linecap: butt}</style>
 </defs>
 <g id="figure_1">
  <g id="patch_1">
   <path d="M 0 288 
L 864 288 
L 864 0 
L 0 0 
z
" style="fill: #ffffff"/>
  </g>
  <g id="axes_1">
   <g id="patch_2">
    <path d="M 64.37 242.08 
L 851.04 242.08 
L 851.04 31.5825 
L 64.37 31.5825 
z
" style="fill: #ffffff"/>
   </g>
   <g id="matplotlib.axis_1">
    <g id="xtick_1">
     <g id="line2d_1">
      <defs>
       <path id="m83e1c35f48" d="M 0 0 
L 0 3.5 
" style="stroke: #000000; stroke-width: 0.8"/>
      </defs>
      <g>
       <use xlink:href="#m83e1c35f48" x="100.127727" y="242.08" style="stroke: #000000; stroke-width: 0.8"/>
      </g>
     </g>
     <g id="text_1">
      <!-- 0 -->
      <g transform="translate(97.127727 257.40875) scale(0.12 -0.12)">
       <defs>
        <path id="NewCM10-Regular-30" d="M 2944 2048 
C 2944 2560 2912 3072 2688 3546 
C 2394 4160 1869 4262 1600 4262 
C 1216 4262 749 4096 486 3501 
C 282 3059 250 2560 250 2048 
C 250 1568 275 992 538 506 
C 813 -13 1280 -141 1594 -141 
C 1939 -141 2426 -6 2707 602 
C 2912 1043 2944 1542 2944 2048 
z
M 2413 2125 
C 2413 1645 2413 1210 2342 800 
C 2246 192 1882 0 1594 0 
C 1344 0 966 160 851 774 
C 781 1158 781 1747 781 2125 
C 781 2534 781 2957 832 3302 
C 954 4064 1434 4122 1594 4122 
C 1805 4122 2227 4006 2349 3373 
C 2413 3014 2413 2528 2413 2125 
z
" transform="scale(0.015625)"/>
       </defs>
       <use xlink:href="#NewCM10-Regular-30"/>
      </g>
     </g>
    </g>
    <g id="xtick_2">
     <g id="line2d_2">
      <g>
       <use xlink:href="#m83e1c35f48" x="243.172941" y="242.08" style="stroke: #000000; stroke-width: 0.8"/>
      </g>
     </g>
     <g id="text_2">
      <!-- 2000 -->
      <g transform="translate(231.172941 257.40875) scale(0.12 -0.12)">
       <defs>
        <path id="NewCM10-Regular-32" d="M 2874 1114 
L 2714 1114 
C 2682 922 2637 640 2573 544 
C 2528 493 2106 493 1965 493 
L 813 493 
L 1491 1152 
C 2490 2035 2874 2381 2874 3021 
C 2874 3750 2298 4262 1517 4262 
C 794 4262 320 3674 320 3104 
C 320 2746 640 2746 659 2746 
C 768 2746 992 2822 992 3085 
C 992 3251 877 3418 653 3418 
C 602 3418 589 3418 570 3411 
C 717 3827 1062 4064 1434 4064 
C 2016 4064 2291 3546 2291 3021 
C 2291 2509 1971 2003 1619 1606 
L 390 237 
C 320 166 320 154 320 0 
L 2694 0 
L 2874 1114 
z
" transform="scale(0.015625)"/>
       </defs>
       <use xlink:href="#NewCM10-Regular-32"/>
       <use xlink:href="#NewCM10-Regular-30" transform="translate(49.999985 0)"/>
       <use xlink:href="#NewCM10-Regular-30" transform="translate(99.999969 0)"/>
       <use xlink:href="#NewCM10-Regular-30" transform="translate(149.999954 0)"/>
      </g>
     </g>
    </g>
    <g id="xtick_3">
     <g id="line2d_3">
      <g>
       <use xlink:href="#m83e1c35f48" x="386.218154" y="242.08" style="stroke: #000000; stroke-width: 0.8"/>
      </g>
     </g>
     <g id="text_3">
      <!-- 4000 -->
      <g transform="translate(374.218154 257.40875) scale(0.12 -0.12)">
       <defs>
        <path id="NewCM10-Regular-34" d="M 3014 1056 
L 3014 1254 
L 2374 1254 
L 2374 4166 
C 2374 4294 2374 4333 2272 4333 
C 2214 4333 2195 4333 2144 4256 
L 179 1254 
L 179 1056 
L 1882 1056 
L 1882 499 
C 1882 269 1869 198 1395 198 
L 1261 198 
L 1261 0 
C 1523 19 1856 19 2125 19 
C 2394 19 2733 19 2995 0 
L 2995 198 
L 2861 198 
C 2387 198 2374 269 2374 499 
L 2374 1056 
L 3014 1056 
z
M 1920 1254 
L 358 1254 
L 1920 3642 
L 1920 1254 
z
" transform="scale(0.015625)"/>
       </defs>
       <use xlink:href="#NewCM10-Regular-34"/>
       <use xlink:href="#NewCM10-Regular-30" transform="translate(49.999985 0)"/>
       <use xlink:href="#NewCM10-Regular-30" transform="translate(99.999969 0)"/>
       <use xlink:href="#NewCM10-Regular-30" transform="translate(149.999954 0)"/>
      </g>
     </g>
    </g>
    <g id="xtick_4">
     <g id="line2d_4">
      <g>
       <use xlink:href="#m83e1c35f48" x="529.263368" y="242.08" style="stroke: #000000; stroke-width: 0.8"/>
      </g>
     </g>
     <g id="text_4">
      <!-- 6000 -->
      <g transform="translate(517.263368 257.40875) scale(0.12 -0.12)">
       <defs>
        <path id="NewCM10-Regular-36" d="M 2925 1306 
C 2925 2118 2355 2733 1645 2733 
C 1210 2733 973 2406 845 2099 
L 845 2253 
C 845 3872 1638 4102 1965 4102 
C 2118 4102 2387 4064 2528 3846 
C 2432 3846 2176 3846 2176 3558 
C 2176 3360 2330 3264 2470 3264 
C 2573 3264 2765 3322 2765 3571 
C 2765 3955 2483 4262 1952 4262 
C 1133 4262 269 3437 269 2022 
C 269 314 1011 -141 1606 -141 
C 2317 -141 2925 461 2925 1306 
z
M 2349 1312 
C 2349 1005 2349 685 2240 454 
C 2048 70 1754 38 1606 38 
C 1203 38 1011 422 973 518 
C 858 819 858 1331 858 1446 
C 858 1946 1062 2586 1638 2586 
C 1741 2586 2035 2586 2234 2189 
C 2349 1952 2349 1626 2349 1312 
z
" transform="scale(0.015625)"/>
       </defs>
       <use xlink:href="#NewCM10-Regular-36"/>
       <use xlink:href="#NewCM10-Regular-30" transform="translate(49.999985 0)"/>
       <use xlink:href="#NewCM10-Regular-30" transform="translate(99.999969 0)"/>
       <use xlink:href="#NewCM10-Regular-30" transform="translate(149.999954 0)"/>
      </g>
     </g>
    </g>
    <g id="xtick_5">
     <g id="line2d_5">
      <g>
       <use xlink:href="#m83e1c35f48" x="672.308582" y="242.08" style="stroke: #000000; stroke-width: 0.8"/>
      </g>
     </g>
     <g id="text_5">
      <!-- 8000 -->
      <g transform="translate(660.308582 257.40875) scale(0.12 -0.12)">
       <defs>
        <path id="NewCM10-Regular-38" d="M 2925 1075 
C 2925 1306 2854 1594 2611 1862 
C 2490 1997 2387 2061 1978 2317 
C 2438 2554 2752 2886 2752 3309 
C 2752 3898 2182 4262 1600 4262 
C 960 4262 442 3789 442 3194 
C 442 3078 454 2790 723 2490 
C 794 2413 1030 2253 1190 2144 
C 819 1958 269 1600 269 966 
C 269 288 922 -141 1594 -141 
C 2317 -141 2925 390 2925 1075 
z
M 2470 3309 
C 2470 2944 2221 2637 1837 2413 
L 1043 2925 
C 749 3117 723 3334 723 3443 
C 723 3834 1139 4102 1594 4102 
C 2061 4102 2470 3770 2470 3309 
z
M 2605 845 
C 2605 371 2125 38 1600 38 
C 1050 38 589 435 589 966 
C 589 1338 794 1747 1338 2048 
L 2125 1549 
C 2304 1427 2605 1235 2605 845 
z
" transform="scale(0.015625)"/>
       </defs>
       <use xlink:href="#NewCM10-Regular-38"/>
       <use xlink:href="#NewCM10-Regular-30" transform="translate(49.999985 0)"/>
       <use xlink:href="#NewCM10-Regular-30" transform="translate(99.999969 0)"/>
       <use xlink:href="#NewCM10-Regular-30" transform="translate(149.999954 0)"/>
      </g>
     </g>
    </g>
    <g id="xtick_6">
     <g id="line2d_6">
      <g>
       <use xlink:href="#m83e1c35f48" x="815.353795" y="242.08" style="stroke: #000000; stroke-width: 0.8"/>
      </g>
     </g>
     <g id="text_6">
      <!-- 10000 -->
      <g transform="translate(800.353795 257.40875) scale(0.12 -0.12)">
       <defs>
        <path id="NewCM10-Regular-31" d="M 2682 0 
L 2682 198 
L 2477 198 
C 1901 198 1882 269 1882 506 
L 1882 4096 
C 1882 4250 1882 4262 1734 4262 
C 1338 3853 774 3853 570 3853 
L 570 3654 
C 698 3654 1075 3654 1408 3821 
L 1408 506 
C 1408 275 1389 198 813 198 
L 608 198 
L 608 0 
C 832 19 1389 19 1645 19 
C 1901 19 2458 19 2682 0 
z
" transform="scale(0.015625)"/>
       </defs>
       <use xlink:href="#NewCM10-Regular-31"/>
       <use xlink:href="#NewCM10-Regular-30" transform="translate(49.999985 0)"/>
       <use xlink:href="#NewCM10-Regular-30" transform="translate(99.999969 0)"/>
       <use xlink:href="#NewCM10-Regular-30" transform="translate(149.999954 0)"/>
       <use xlink:href="#NewCM10-Regular-30" transform="translate(199.999939 0)"/>
      </g>
     </g>
    </g>
    <g id="text_7">
     <!-- Step -->
     <g transform="translate(446.035 272.1975) scale(0.12 -0.12)">
      <defs>
       <path id="NewCM10-Regular-53" d="M 3194 1190 
C 3194 1830 2771 2355 2234 2483 
L 1414 2682 
C 1018 2778 768 3123 768 3494 
C 768 3942 1114 4333 1613 4333 
C 2682 4333 2822 3283 2861 2995 
C 2867 2957 2867 2918 2938 2918 
C 3021 2918 3021 2950 3021 3072 
L 3021 4358 
C 3021 4467 3021 4512 2950 4512 
C 2906 4512 2899 4506 2854 4429 
L 2630 4064 
C 2438 4250 2176 4512 1606 4512 
C 896 4512 358 3949 358 3270 
C 358 2739 698 2272 1197 2099 
C 1267 2074 1594 1997 2042 1888 
C 2214 1843 2406 1798 2586 1562 
C 2720 1395 2784 1184 2784 973 
C 2784 518 2464 58 1926 58 
C 1741 58 1254 90 915 403 
C 544 749 525 1158 518 1389 
C 512 1453 461 1453 442 1453 
C 358 1453 358 1408 358 1293 
L 358 13 
C 358 -96 358 -141 429 -141 
C 474 -141 480 -128 525 -58 
C 525 -58 544 -32 755 307 
C 954 90 1363 -141 1933 -141 
C 2682 -141 3194 486 3194 1190 
z
" transform="scale(0.015625)"/>
       <path id="NewCM10-Regular-74" d="M 2125 794 
L 2125 1158 
L 1965 1158 
L 1965 806 
C 1965 333 1773 90 1536 90 
C 1107 90 1107 672 1107 781 
L 1107 2560 
L 2022 2560 
L 2022 2758 
L 1107 2758 
L 1107 3936 
L 947 3936 
C 941 3411 749 2726 122 2701 
L 122 2560 
L 666 2560 
L 666 794 
C 666 6 1261 -70 1491 -70 
C 1946 -70 2125 384 2125 794 
z
" transform="scale(0.015625)"/>
       <path id="NewCM10-Regular-65" d="M 2656 762 
C 2656 826 2605 838 2573 838 
C 2515 838 2502 800 2490 749 
C 2266 90 1690 90 1626 90 
C 1306 90 1050 282 902 518 
C 710 826 710 1248 710 1478 
L 2496 1478 
C 2637 1478 2656 1478 2656 1613 
C 2656 2246 2310 2867 1510 2867 
C 768 2867 179 2208 179 1408 
C 179 550 851 -70 1587 -70 
C 2368 -70 2656 640 2656 762 
z
M 2234 1613 
L 717 1613 
C 755 2566 1293 2726 1510 2726 
C 2170 2726 2234 1862 2234 1613 
z
" transform="scale(0.015625)"/>
       <path id="NewCM10-Regular-70" d="M 3334 1382 
C 3334 2195 2714 2829 1997 2829 
C 1498 2829 1229 2547 1101 2406 
L 1101 2829 
L 179 2758 
L 179 2560 
C 634 2560 678 2522 678 2240 
L 678 -755 
C 678 -1043 608 -1043 179 -1043 
L 179 -1242 
L 896 -1222 
L 1619 -1242 
L 1619 -1043 
C 1190 -1043 1120 -1043 1120 -755 
L 1120 320 
L 1120 378 
C 1152 275 1421 -70 1907 -70 
C 2669 -70 3334 557 3334 1382 
z
M 2803 1382 
C 2803 608 2355 70 1882 70 
C 1626 70 1382 198 1210 461 
C 1120 595 1120 602 1120 730 
L 1120 2157 
C 1306 2483 1619 2669 1946 2669 
C 2413 2669 2803 2106 2803 1382 
z
" transform="scale(0.015625)"/>
      </defs>
      <use xlink:href="#NewCM10-Regular-53"/>
      <use xlink:href="#NewCM10-Regular-74" transform="translate(55.599991 0)"/>
      <use xlink:href="#NewCM10-Regular-65" transform="translate(94.499985 0)"/>
      <use xlink:href="#NewCM10-Regular-70" transform="translate(138.899979 0)"/>
     </g>
    </g>
   </g>
   <g id="matplotlib.axis_2">
    <g id="ytick_1">
     <g id="line2d_7">
      <defs>
       <path id="m796344f33a" d="M 0 0 
L -3.5 0 
" style="stroke: #000000; stroke-width: 0.8"/>
      </defs>
      <g>
       <use xlink:href="#m796344f33a" x="64.37" y="241.943904" style="stroke: #000000; stroke-width: 0.8"/>
      </g>
     </g>
     <g id="text_8">
      <!-- −400 -->
      <g transform="translate(30.034375 246.108279) scale(0.12 -0.12)">
       <defs>
        <path id="NewCM10-Regular-2212" d="M 4614 1600 
C 4614 1728 4493 1728 4403 1728 
L 570 1728 
C 480 1728 358 1728 358 1600 
C 358 1472 480 1472 576 1472 
L 4397 1472 
C 4493 1472 4614 1472 4614 1600 
z
" transform="scale(0.015625)"/>
       </defs>
       <use xlink:href="#NewCM10-Regular-2212"/>
       <use xlink:href="#NewCM10-Regular-34" transform="translate(77.799988 0)"/>
       <use xlink:href="#NewCM10-Regular-30" transform="translate(127.799973 0)"/>
       <use xlink:href="#NewCM10-Regular-30" transform="translate(177.799957 0)"/>
      </g>
     </g>
    </g>
    <g id="ytick_2">
     <g id="line2d_8">
      <g>
       <use xlink:href="#m796344f33a" x="64.37" y="197.705328" style="stroke: #000000; stroke-width: 0.8"/>
      </g>
     </g>
     <g id="text_9">
      <!-- −300 -->
      <g transform="translate(30.034375 201.869703) scale(0.12 -0.12)">
       <defs>
        <path id="NewCM10-Regular-33" d="M 2925 1094 
C 2925 1619 2522 2118 1856 2253 
C 2381 2426 2752 2874 2752 3379 
C 2752 3904 2189 4262 1574 4262 
C 928 4262 442 3878 442 3392 
C 442 3181 582 3059 768 3059 
C 966 3059 1094 3200 1094 3386 
C 1094 3706 794 3706 698 3706 
C 896 4019 1318 4102 1549 4102 
C 1811 4102 2163 3962 2163 3386 
C 2163 3309 2150 2938 1984 2656 
C 1792 2349 1574 2330 1414 2323 
C 1363 2317 1210 2304 1165 2304 
C 1114 2298 1069 2291 1069 2227 
C 1069 2157 1114 2157 1222 2157 
L 1504 2157 
C 2029 2157 2266 1722 2266 1094 
C 2266 224 1824 38 1542 38 
C 1267 38 787 147 563 525 
C 787 493 986 634 986 877 
C 986 1107 813 1235 627 1235 
C 474 1235 269 1146 269 864 
C 269 282 864 -141 1562 -141 
C 2342 -141 2925 442 2925 1094 
z
" transform="scale(0.015625)"/>
       </defs>
       <use xlink:href="#NewCM10-Regular-2212"/>
       <use xlink:href="#NewCM10-Regular-33" transform="translate(77.799988 0)"/>
       <use xlink:href="#NewCM10-Regular-30" transform="translate(127.799973 0)"/>
       <use xlink:href="#NewCM10-Regular-30" transform="translate(177.799957 0)"/>
      </g>
     </g>
    </g>
    <g id="ytick_3">
     <g id="line2d_9">
      <g>
       <use xlink:href="#m796344f33a" x="64.37" y="153.466752" style="stroke: #000000; stroke-width: 0.8"/>
      </g>
     </g>
     <g id="text_10">
      <!-- −200 -->
      <g transform="translate(30.034375 157.631127) scale(0.12 -0.12)">
       <use xlink:href="#NewCM10-Regular-2212"/>
       <use xlink:href="#NewCM10-Regular-32" transform="translate(77.799988 0)"/>
       <use xlink:href="#NewCM10-Regular-30" transform="translate(127.799973 0)"/>
       <use xlink:href="#NewCM10-Regular-30" transform="translate(177.799957 0)"/>
      </g>
     </g>
    </g>
    <g id="ytick_4">
     <g id="line2d_10">
      <g>
       <use xlink:href="#m796344f33a" x="64.37" y="109.228176" style="stroke: #000000; stroke-width: 0.8"/>
      </g>
     </g>
     <g id="text_11">
      <!-- −100 -->
      <g transform="translate(30.034375 113.392551) scale(0.12 -0.12)">
       <use xlink:href="#NewCM10-Regular-2212"/>
       <use xlink:href="#NewCM10-Regular-31" transform="translate(77.799988 0)"/>
       <use xlink:href="#NewCM10-Regular-30" transform="translate(127.799973 0)"/>
       <use xlink:href="#NewCM10-Regular-30" transform="translate(177.799957 0)"/>
      </g>
     </g>
    </g>
    <g id="ytick_5">
     <g id="line2d_11">
      <g>
       <use xlink:href="#m796344f33a" x="64.37" y="64.9896" style="stroke: #000000; stroke-width: 0.8"/>
      </g>
     </g>
     <g id="text_12">
      <!-- 0 -->
      <g transform="translate(51.37 69.153975) scale(0.12 -0.12)">
       <use xlink:href="#NewCM10-Regular-30"/>
      </g>
     </g>
    </g>
    <g id="text_13">
     <!-- Wind angle (°) -->
     <g transform="translate(23.034375 175.920312) rotate(-90) scale(0.12 -0.12)">
      <defs>
       <path id="NewCM10-Regular-57" d="M 6458 4173 
L 6458 4371 
C 6266 4358 6067 4352 5875 4352 
L 5114 4371 
L 5114 4173 
C 5542 4166 5670 3955 5670 3834 
C 5670 3795 5651 3744 5638 3706 
L 4678 749 
L 3654 3885 
C 3648 3910 3635 3949 3635 3981 
C 3635 4173 4006 4173 4173 4173 
L 4173 4371 
C 3942 4352 3507 4352 3264 4352 
L 2483 4371 
L 2483 4173 
C 2848 4173 2982 4173 3059 3942 
L 3200 3494 
L 2310 749 
L 1280 3898 
C 1274 3917 1267 3962 1267 3981 
C 1267 4173 1638 4173 1805 4173 
L 1805 4371 
C 1574 4352 1139 4352 896 4352 
L 115 4371 
L 115 4173 
C 595 4173 621 4141 698 3904 
L 1978 -19 
C 1997 -77 2016 -141 2099 -141 
C 2189 -141 2202 -96 2227 -13 
L 3283 3238 
L 4346 -19 
C 4365 -77 4384 -141 4467 -141 
C 4557 -141 4570 -96 4595 -13 
L 5818 3744 
C 5933 4109 6208 4173 6458 4173 
z
" transform="scale(0.015625)"/>
       <path id="NewCM10-Regular-69" d="M 1581 0 
L 1581 198 
C 1158 198 1133 230 1133 480 
L 1133 2829 
L 237 2758 
L 237 2560 
C 653 2560 710 2522 710 2208 
L 710 486 
C 710 198 640 198 211 198 
L 211 0 
L 915 19 
C 1139 19 1363 6 1581 0 
z
M 1229 3866 
C 1229 4038 1082 4205 890 4205 
C 672 4205 544 4026 544 3866 
C 544 3693 691 3526 883 3526 
C 1101 3526 1229 3706 1229 3866 
z
" transform="scale(0.015625)"/>
       <path id="NewCM10-Regular-6e" d="M 3424 0 
L 3424 198 
C 3091 198 2931 198 2925 390 
L 2925 1613 
C 2925 2163 2925 2362 2726 2592 
C 2637 2701 2426 2829 2054 2829 
C 1587 2829 1286 2554 1107 2157 
L 1107 2829 
L 205 2758 
L 205 2560 
C 653 2560 704 2515 704 2202 
L 704 486 
C 704 198 634 198 205 198 
L 205 0 
L 928 19 
L 1645 0 
L 1645 198 
C 1216 198 1146 198 1146 486 
L 1146 1664 
C 1146 2330 1600 2688 2010 2688 
C 2413 2688 2483 2342 2483 1978 
L 2483 486 
C 2483 198 2413 198 1984 198 
L 1984 0 
L 2707 19 
L 3424 0 
z
" transform="scale(0.015625)"/>
       <path id="NewCM10-Regular-64" d="M 3373 0 
L 3373 198 
C 2925 198 2874 243 2874 557 
L 2874 4442 
L 1952 4371 
L 1952 4173 
C 2400 4173 2451 4128 2451 3814 
L 2451 2432 
C 2266 2662 1990 2829 1645 2829 
C 890 2829 218 2202 218 1376 
C 218 563 845 -70 1574 -70 
C 1984 -70 2272 147 2432 352 
L 2432 -70 
L 3373 0 
z
M 2432 755 
C 2432 640 2432 627 2362 518 
C 2170 211 1882 70 1606 70 
C 1318 70 1088 237 934 480 
C 768 742 749 1107 749 1370 
C 749 1606 762 1990 947 2278 
C 1082 2477 1325 2688 1670 2688 
C 1894 2688 2163 2592 2362 2304 
C 2432 2195 2432 2182 2432 2067 
L 2432 755 
z
" transform="scale(0.015625)"/>
       <path id="NewCM10-Regular-20" transform="scale(0.015625)"/>
       <path id="NewCM10-Regular-61" d="M 3091 570 
L 3091 928 
L 2931 928 
L 2931 570 
C 2931 198 2771 160 2701 160 
C 2490 160 2464 448 2464 480 
L 2464 1760 
C 2464 2029 2464 2278 2234 2515 
C 1984 2765 1664 2867 1357 2867 
C 832 2867 390 2566 390 2144 
C 390 1952 518 1843 685 1843 
C 864 1843 979 1971 979 2138 
C 979 2214 947 2426 653 2432 
C 826 2656 1139 2726 1344 2726 
C 1658 2726 2022 2477 2022 1907 
L 2022 1670 
C 1696 1651 1248 1632 845 1440 
C 365 1222 205 890 205 608 
C 205 90 826 -70 1229 -70 
C 1651 -70 1946 186 2067 486 
C 2093 230 2266 -38 2566 -38 
C 2701 -38 3091 51 3091 570 
z
M 2022 896 
C 2022 288 1562 70 1274 70 
C 960 70 698 294 698 614 
C 698 966 966 1498 2022 1536 
L 2022 896 
z
" transform="scale(0.015625)"/>
       <path id="NewCM10-Regular-67" d="M 3104 2586 
C 3104 2694 3027 2899 2778 2899 
C 2650 2899 2368 2861 2099 2598 
C 1830 2810 1562 2829 1421 2829 
C 826 2829 384 2387 384 1894 
C 384 1613 525 1370 685 1235 
C 602 1139 486 928 486 704 
C 486 506 570 262 768 134 
C 384 26 179 -250 179 -506 
C 179 -966 813 -1318 1594 -1318 
C 2349 -1318 3014 -992 3014 -493 
C 3014 -269 2925 58 2598 237 
C 2259 416 1888 416 1498 416 
C 1338 416 1062 416 1018 422 
C 813 448 678 646 678 851 
C 678 877 678 1024 787 1152 
C 1037 973 1299 954 1421 954 
C 2016 954 2458 1395 2458 1888 
C 2458 2125 2355 2362 2195 2509 
C 2426 2726 2656 2758 2771 2758 
C 2771 2758 2816 2758 2835 2752 
C 2765 2726 2733 2656 2733 2579 
C 2733 2470 2816 2394 2918 2394 
C 2982 2394 3104 2438 3104 2586 
z
M 1978 1894 
C 1978 1722 1971 1517 1875 1357 
C 1824 1280 1677 1101 1421 1101 
C 864 1101 864 1741 864 1888 
C 864 2061 870 2266 966 2426 
C 1018 2502 1165 2682 1421 2682 
C 1978 2682 1978 2042 1978 1894 
z
M 2682 -506 
C 2682 -851 2227 -1171 1600 -1171 
C 954 -1171 512 -845 512 -506 
C 512 -211 755 26 1037 45 
L 1414 45 
C 1965 45 2682 45 2682 -506 
z
" transform="scale(0.015625)"/>
       <path id="NewCM10-Regular-6c" d="M 1632 0 
L 1632 198 
C 1203 198 1133 198 1133 486 
L 1133 4442 
L 211 4371 
L 211 4173 
C 659 4173 710 4128 710 3814 
L 710 486 
C 710 198 640 198 211 198 
L 211 0 
L 922 19 
L 1632 0 
z
" transform="scale(0.015625)"/>
       <path id="NewCM10-Regular-28" d="M 2118 -1536 
C 2118 -1517 2118 -1504 2010 -1395 
C 1210 -589 1005 621 1005 1600 
C 1005 2714 1248 3827 2035 4627 
C 2118 4704 2118 4717 2118 4736 
C 2118 4781 2093 4800 2054 4800 
C 1990 4800 1414 4365 1037 3552 
C 710 2848 634 2138 634 1600 
C 634 1101 704 326 1056 -397 
C 1440 -1184 1990 -1600 2054 -1600 
C 2093 -1600 2118 -1581 2118 -1536 
z
" transform="scale(0.015625)"/>
       <path id="NewCM10-Regular-b0" d="M 2086 3482 
C 2086 3974 1690 4371 1203 4371 
C 710 4371 314 3974 314 3482 
C 314 2995 710 2598 1203 2598 
C 1690 2598 2086 2995 2086 3482 
z
M 1830 3482 
C 1830 3136 1549 2854 1203 2854 
C 851 2854 570 3136 570 3482 
C 570 3834 851 4115 1203 4115 
C 1549 4115 1830 3834 1830 3482 
z
" transform="scale(0.015625)"/>
       <path id="NewCM10-Regular-29" d="M 1850 1600 
C 1850 2099 1779 2874 1427 3597 
C 1043 4384 493 4800 429 4800 
C 390 4800 365 4774 365 4736 
C 365 4717 365 4704 486 4589 
C 1114 3955 1478 2938 1478 1600 
C 1478 506 1242 -621 448 -1427 
C 365 -1504 365 -1517 365 -1536 
C 365 -1574 390 -1600 429 -1600 
C 493 -1600 1069 -1165 1446 -352 
C 1773 352 1850 1062 1850 1600 
z
" transform="scale(0.015625)"/>
      </defs>
      <use xlink:href="#NewCM10-Regular-57"/>
      <use xlink:href="#NewCM10-Regular-69" transform="translate(102.799988 0)"/>
      <use xlink:href="#NewCM10-Regular-6e" transform="translate(130.599976 0)"/>
      <use xlink:href="#NewCM10-Regular-64" transform="translate(186.199966 0)"/>
      <use xlink:href="#NewCM10-Regular-20" transform="translate(241.799957 0)"/>
      <use xlink:href="#NewCM10-Regular-61" transform="translate(275.099945 0)"/>
      <use xlink:href="#NewCM10-Regular-6e" transform="translate(325.09993 0)"/>
      <use xlink:href="#NewCM10-Regular-67" transform="translate(380.699921 0)"/>
      <use xlink:href="#NewCM10-Regular-6c" transform="translate(430.699905 0)"/>
      <use xlink:href="#NewCM10-Regular-65" transform="translate(458.499893 0)"/>
      <use xlink:href="#NewCM10-Regular-20" transform="translate(502.899887 0)"/>
      <use xlink:href="#NewCM10-Regular-28" transform="translate(536.199875 0)"/>
      <use xlink:href="#NewCM10-Regular-b0" transform="translate(575.099869 0)"/>
      <use xlink:href="#NewCM10-Regular-29" transform="translate(612.599854 0)"/>
     </g>
    </g>
   </g>
   <g id="line2d_12">
    <path d="M 100.127727 62.488164 
L 100.270772 58.018445 
L 103.846903 58.203403 
L 109.354144 58.759124 
L 113.216364 59.028228 
L 115.934223 58.982083 
L 123.372574 58.487211 
L 130.596358 57.689292 
L 136.032076 56.901736 
L 146.474376 55.243929 
L 150.265075 54.961962 
L 155.772315 54.641671 
L 157.774948 54.584168 
L 160.063672 54.574995 
L 161.637169 54.805308 
L 166.000048 55.480489 
L 168.574862 55.602894 
L 171.650334 55.580577 
L 171.793379 104.906546 
L 180.662183 105.119065 
L 185.311152 105.33682 
L 187.242262 105.158417 
L 193.75082 104.144682 
L 195.252794 103.553325 
L 196.611724 102.975138 
L 198.828925 102.771725 
L 201.546784 102.578576 
L 204.19312 103.070076 
L 206.124231 103.450388 
L 209.271225 103.848309 
L 211.202336 103.811966 
L 213.061923 103.548876 
L 215.136079 103.034048 
L 217.424802 102.234486 
L 221.716159 100.653304 
L 223.432701 101.253529 
L 226.079038 102.587764 
L 226.722741 103.448274 
L 228.367761 106.195713 
L 229.297555 107.547802 
L 230.298872 108.592609 
L 233.088253 111.182599 
L 233.946525 112.777333 
L 236.163725 117.627836 
L 238.023313 121.439481 
L 238.452449 121.95907 
L 239.596811 122.789805 
L 243.029896 124.677592 
L 243.172941 124.779067 
L 243.315986 193.853566 
L 244.317303 194.442757 
L 245.175574 194.70002 
L 246.319936 194.764608 
L 247.321252 194.552166 
L 248.465614 194.046656 
L 249.681498 193.223806 
L 251.827176 191.512275 
L 253.829809 189.628821 
L 255.832442 187.437784 
L 259.05096 183.901172 
L 260.69598 182.366266 
L 262.62709 180.405284 
L 263.413839 179.995192 
L 263.986019 179.790732 
L 265.702562 179.390515 
L 266.632356 178.850378 
L 267.705195 177.902658 
L 268.634989 176.805834 
L 269.993918 174.788577 
L 272.926345 170.018381 
L 275.215069 166.440895 
L 278.719676 161.05759 
L 281.079922 157.553172 
L 282.438852 155.933616 
L 283.511691 154.971149 
L 284.369962 154.466635 
L 285.085188 154.287346 
L 285.728892 154.358086 
L 286.372595 154.684587 
L 287.516957 155.334516 
L 288.947409 155.875822 
L 290.020248 156.281439 
L 291.379178 157.307695 
L 293.238766 158.92363 
L 297.315554 162.97225 
L 298.817529 164.043234 
L 300.033413 164.642062 
L 300.677117 164.736739 
L 304.753905 164.42661 
L 311.119417 163.407004 
L 313.551186 163.407736 
L 314.695548 163.388217 
L 314.838593 109.811697 
L 324.279577 109.346755 
L 327.998753 109.700501 
L 332.290109 110.306529 
L 336.223852 110.879432 
L 341.65957 111.270757 
L 343.590681 111.816294 
L 345.593314 112.451036 
L 347.309856 112.745381 
L 348.954876 113.079617 
L 354.891253 114.984515 
L 355.821047 115.745591 
L 357.179976 117.169445 
L 362.258081 123.245871 
L 363.402443 125.47698 
L 365.118985 129.353726 
L 367.479232 134.522009 
L 369.124251 137.591006 
L 371.055362 140.739399 
L 373.844744 145.288389 
L 377.85001 152.637277 
L 383.285728 162.464651 
L 383.857908 163.128813 
L 384.287044 163.37398 
L 384.71618 163.382862 
L 385.145315 163.185814 
L 385.717496 162.686292 
L 386.218154 162.100415 
L 386.3612 106.861433 
L 388.00622 105.082986 
L 390.581034 103.069707 
L 392.154531 102.210983 
L 392.655189 102.242665 
L 393.441938 102.580494 
L 395.587616 103.588669 
L 398.520043 104.366879 
L 402.453786 105.436556 
L 407.102756 106.914516 
L 408.533208 107.12836 
L 410.178228 107.137692 
L 411.251067 106.881945 
L 412.681519 106.625416 
L 414.970242 106.292524 
L 419.476167 105.368453 
L 420.191393 105.051767 
L 421.76489 103.958649 
L 425.269498 101.405192 
L 428.130402 99.525158 
L 432.779372 96.115518 
L 438.358135 92.218388 
L 439.931632 90.693911 
L 441.075994 90.231017 
L 444.795169 88.81233 
L 448.800435 86.894201 
L 450.230888 86.139674 
L 451.66134 85.061336 
L 453.735495 83.474039 
L 454.808334 82.999954 
L 456.095741 82.639588 
L 457.025535 82.812432 
L 457.740761 82.952444 
L 457.812284 50.214614 
L 457.883807 50.228679 
L 460.17253 50.500504 
L 461.173846 50.614652 
L 463.74866 51.198441 
L 471.330057 53.051769 
L 473.90487 53.423663 
L 475.835981 53.495688 
L 479.912769 53.250919 
L 480.627995 52.661384 
L 482.12997 51.073895 
L 484.132603 48.665051 
L 486.993507 44.923077 
L 488.209392 43.834135 
L 489.210708 43.260472 
L 490.498115 42.825197 
L 492.429226 42.481547 
L 494.002723 42.3727 
L 495.218607 42.492454 
L 498.294079 42.885125 
L 505.44634 43.527824 
L 507.305928 43.3776 
L 517.390615 41.842854 
L 519.607816 41.258151 
L 523.112424 41.177144 
L 529.263368 41.554999 
L 529.406413 80.759991 
L 531.266001 80.998538 
L 535.271267 81.95282 
L 542.352005 83.850994 
L 546.285749 84.785484 
L 548.645995 85.154359 
L 551.220808 85.244321 
L 552.937351 85.35452 
L 560.518747 86.101352 
L 563.594219 86.146607 
L 566.383601 85.97625 
L 569.816686 85.487981 
L 579.25767 84.110758 
L 584.836434 84.497338 
L 588.484087 84.441996 
L 596.280051 84.125447 
L 597.066799 84.187313 
L 598.282684 84.601356 
L 600.785975 85.555916 
L 600.92902 129.220875 
L 604.576673 130.496308 
L 609.082597 132.218889 
L 613.803089 134.052667 
L 614.875928 134.043454 
L 617.236174 133.925827 
L 619.167285 133.931714 
L 620.883827 133.647017 
L 623.101028 133.01534 
L 626.391068 131.737619 
L 627.106294 131.334874 
L 628.107611 130.41289 
L 630.038721 128.727947 
L 635.76053 124.291639 
L 639.122092 121.554881 
L 641.982996 119.183749 
L 644.772378 116.661084 
L 647.418715 115.122912 
L 648.777644 114.709643 
L 651.066368 114.153969 
L 652.425297 114.088209 
L 653.927272 114.236959 
L 655.286201 114.581654 
L 656.287518 114.803764 
L 656.931221 114.497739 
L 658.361673 113.531942 
L 659.076899 112.808744 
L 659.64908 112.075614 
L 660.292784 111.453716 
L 660.936487 110.406321 
L 662.724552 107.41571 
L 663.511301 106.175729 
L 665.585457 102.195548 
L 666.658296 100.074676 
L 667.158954 99.559807 
L 668.160271 98.269465 
L 668.589406 98.054052 
L 669.090064 98.055558 
L 669.948336 98.317693 
L 670.949652 98.83601 
L 671.950969 99.627564 
L 672.308582 99.977381 
L 672.380104 62.993712 
L 672.451627 63.067269 
L 673.524466 64.010288 
L 674.096647 64.628709 
L 674.883396 65.963742 
L 676.242325 68.523895 
L 677.672777 72.166107 
L 679.031707 76.020867 
L 680.176068 80.035712 
L 682.393269 88.86671 
L 686.756148 106.462056 
L 688.472691 112.011823 
L 690.332279 117.279769 
L 694.122977 127.103213 
L 694.623635 127.652579 
L 695.267339 128.184259 
L 696.483223 128.409191 
L 698.05672 128.262361 
L 700.059353 127.841549 
L 701.203715 127.518818 
L 702.419599 127.09119 
L 703.778529 126.086211 
L 704.136142 126.053471 
L 704.493755 126.270333 
L 705.208981 127.107343 
L 706.138775 128.453506 
L 707.140091 130.355691 
L 708.642066 133.76343 
L 710.215563 137.913239 
L 712.289719 144.06957 
L 718.154573 161.934043 
L 720.085683 166.897293 
L 724.162472 176.384371 
L 726.451195 180.457214 
L 726.951853 181.070783 
L 728.23926 182.224676 
L 729.169054 182.791571 
L 729.59819 182.785591 
L 730.671029 182.430575 
L 731.600823 181.874751 
L 732.673662 180.958691 
L 733.961069 179.530927 
L 738.323948 174.734054 
L 740.541149 172.240181 
L 742.829872 169.535653 
L 743.831189 168.590305 
L 743.974234 148.779993 
L 748.051022 144.553013 
L 750.196701 141.827176 
L 756.276122 133.888228 
L 757.778097 132.436421 
L 759.280072 131.279378 
L 761.139659 130.14128 
L 762.856202 129.338767 
L 763.428383 129.009172 
L 763.929041 128.381883 
L 764.71579 126.95064 
L 767.719739 120.688736 
L 768.649533 118.155795 
L 769.579327 114.925571 
L 770.580643 110.548072 
L 771.86805 103.773778 
L 774.013729 92.416302 
L 775.086568 87.941711 
L 777.089201 80.934653 
L 778.018995 78.655313 
L 779.163356 76.461738 
L 780.593808 74.233797 
L 782.811009 71.249323 
L 786.172572 67.033452 
L 790.463928 62.897414 
L 793.5394 60.174462 
L 795.041375 59.999184 
L 800.11948 57.311959 
L 803.266475 56.760735 
L 805.05454 56.845064 
L 814.710092 58.016512 
L 815.282273 58.100572 
L 815.282273 58.100572 
" clip-path="url(#p02da2d336a)" style="fill: none; stroke: #000000; stroke-linecap: square"/>
   </g>
   <g id="line2d_13">
    <path d="M 100.127727 133.349579 
L 101.415134 132.952289 
L 103.274722 132.46822 
L 105.706491 131.654928 
L 106.421717 131.443514 
L 113.93159 128.30846 
L 114.432249 128.084914 
L 114.718339 127.968423 
L 115.075952 127.799253 
L 115.505088 127.689162 
L 116.148791 127.451821 
L 117.22163 127.047485 
L 117.650766 126.882973 
L 118.008379 126.721321 
L 118.437515 126.578455 
L 124.230846 123.84081 
L 124.946072 123.578487 
L 127.09175 122.35003 
L 127.950021 121.75007 
L 128.522202 121.34513 
L 131.168539 119.083777 
L 132.3129 118.427972 
L 137.24796 115.868689 
L 138.177754 115.456685 
L 139.894297 114.677328 
L 141.467794 113.997812 
L 145.18697 112.309503 
L 146.331331 111.938491 
L 149.192236 110.595983 
L 153.340547 108.72437 
L 155.62927 109.298468 
L 156.201451 109.172325 
L 157.27429 108.645652 
L 157.703426 108.152717 
L 158.776265 106.402778 
L 159.062355 106.379889 
L 159.419968 106.600836 
L 159.777581 106.914207 
L 160.635853 108.740688 
L 160.85042 108.730418 
L 161.064988 108.581386 
L 161.780214 107.442789 
L 162.423918 106.407368 
L 163.639802 105.292527 
L 163.997415 105.532169 
L 164.498073 105.767306 
L 165.213299 105.614742 
L 165.713958 105.298418 
L 167.072887 104.232195 
L 167.4305 104.070642 
L 167.716591 103.953593 
L 172.294038 102.694455 
L 172.580128 102.854773 
L 173.72449 103.999783 
L 174.368193 104.791865 
L 174.582761 104.966324 
L 174.868851 105.368634 
L 175.083419 105.525392 
L 175.36951 105.875682 
L 175.584077 105.912764 
L 175.870168 106.302258 
L 176.156258 106.340846 
L 176.442349 106.594859 
L 176.585394 106.688853 
L 177.01453 107.004091 
L 177.157575 107.03546 
L 177.872801 107.378654 
L 178.015846 107.409288 
L 178.516504 107.618762 
L 178.65955 107.618274 
L 178.802595 107.754186 
L 179.017163 107.887043 
L 179.374776 107.86093 
L 179.660866 108.092292 
L 180.090002 108.06342 
L 180.376092 108.2162 
L 180.733705 108.203035 
L 181.091318 108.65904 
L 181.448931 108.706499 
L 181.878067 109.333794 
L 182.23568 109.554272 
L 182.736338 110.298052 
L 183.093951 110.722446 
L 183.737655 111.697685 
L 184.238313 112.483436 
L 185.168107 113.619049 
L 185.740288 114.118662 
L 186.026378 114.269493 
L 186.312468 114.420656 
L 186.741604 114.579723 
L 187.027695 114.726137 
L 187.885966 115.126854 
L 188.744237 115.565727 
L 189.602508 116.132527 
L 190.389257 116.612187 
L 191.104483 116.962083 
L 191.605141 117.035301 
L 192.248845 118.058653 
L 192.463413 118.046801 
L 192.892548 118.372771 
L 193.250161 117.940966 
L 193.536252 118.114535 
L 193.75082 118.27024 
L 194.179955 117.36884 
L 194.466046 117.569014 
L 194.609091 117.663695 
L 195.038227 116.343481 
L 195.181272 116.386319 
L 195.39584 116.891119 
L 195.96802 118.65263 
L 196.182588 118.843922 
L 196.397156 119.719838 
L 196.754769 122.468484 
L 197.255427 123.845754 
L 197.32695 123.766536 
L 197.541518 124.137244 
L 197.756086 124.073845 
L 197.899131 124.169023 
L 198.185221 123.565076 
L 198.256744 123.643282 
L 198.399789 123.618786 
L 198.471312 123.51941 
L 198.542834 123.647039 
L 198.614357 123.555645 
L 198.97197 122.345425 
L 199.043492 122.423828 
L 199.329583 122.789783 
L 199.615673 123.81372 
L 199.687196 123.794597 
L 200.116332 122.392094 
L 200.187854 122.244309 
L 200.473945 122.934949 
L 200.61699 123.397332 
L 200.90308 124.324269 
L 201.046125 124.388027 
L 201.403739 123.996848 
L 201.689829 124.299522 
L 201.832874 124.478395 
L 202.047442 124.990763 
L 202.190487 124.945009 
L 202.619623 123.825597 
L 202.762668 123.86352 
L 203.406372 124.63622 
L 203.692462 124.627069 
L 203.978552 124.322123 
L 204.121598 124.326975 
L 204.479211 124.068583 
L 204.765301 124.205195 
L 205.480527 124.782171 
L 205.695095 124.780688 
L 206.195753 125.077467 
L 206.410321 125.188152 
L 206.624889 125.305735 
L 206.767934 125.380005 
L 207.054024 125.588188 
L 207.912296 125.925655 
L 208.126864 125.832944 
L 208.484477 125.869248 
L 210.272542 125.835918 
L 211.702994 125.364671 
L 213.348014 125.016445 
L 217.496325 124.405409 
L 218.855255 123.707864 
L 219.785048 122.988059 
L 220.92941 121.729099 
L 221.000933 121.64485 
L 221.072455 121.801086 
L 221.215501 123.017016 
L 221.716159 130.918312 
L 221.787681 130.701443 
L 222.002249 129.656531 
L 222.073772 129.688406 
L 222.28834 130.591897 
L 222.57443 132.95868 
L 222.717475 134.286765 
L 222.788998 134.156328 
L 222.932043 133.766477 
L 223.003566 133.853059 
L 223.218134 135.10179 
L 223.289656 134.836226 
L 223.432701 134.322297 
L 223.504224 134.424462 
L 223.647269 135.276856 
L 223.718792 135.095816 
L 223.861837 134.91266 
L 224.004882 135.657615 
L 224.076405 135.518378 
L 224.147927 135.373001 
L 224.21945 135.454105 
L 224.362495 136.303214 
L 224.434018 136.219552 
L 224.505541 136.103009 
L 224.577063 136.200098 
L 224.720108 137.035488 
L 224.791631 136.960553 
L 224.863154 136.85945 
L 224.934676 136.94322 
L 225.006199 137.228903 
L 225.077721 137.096868 
L 225.149244 137.018545 
L 225.435334 137.556284 
L 225.57838 138.885752 
L 226.651219 153.807466 
L 227.080354 156.182785 
L 227.294922 156.440561 
L 227.581013 156.355891 
L 227.938626 156.063506 
L 228.725374 153.306306 
L 229.226033 151.503492 
L 229.798213 149.981334 
L 230.012781 149.814157 
L 230.298872 149.46597 
L 230.513439 149.453106 
L 231.08562 149.723778 
L 231.228666 149.804486 
L 231.586279 150.02198 
L 231.872369 150.109825 
L 232.158459 150.159921 
L 232.373027 150.153456 
L 232.587595 150.530832 
L 233.088253 151.730341 
L 233.588912 152.586505 
L 234.161092 153.488018 
L 234.447183 153.837751 
L 234.876318 154.254584 
L 235.806112 154.772117 
L 236.735906 155.041127 
L 237.808745 155.325185 
L 237.951791 154.782708 
L 238.309404 153.129718 
L 238.595494 152.792808 
L 239.668333 151.222342 
L 239.954424 151.273808 
L 241.098785 151.684692 
L 241.456398 151.703988 
L 242.88685 151.873571 
L 243.101418 152.733613 
L 243.530554 154.408855 
L 244.388825 154.858401 
L 244.53187 154.825466 
L 244.674916 155.286309 
L 245.247096 158.746936 
L 245.318619 158.728836 
L 245.8908 158.171867 
L 246.105368 158.165391 
L 246.391458 158.182035 
L 246.963639 157.879664 
L 247.53582 157.960493 
L 248.036478 157.679808 
L 248.251046 157.746986 
L 248.680182 157.985753 
L 249.395408 157.897849 
L 249.538453 158.419473 
L 250.253679 162.684015 
L 250.396724 162.742199 
L 250.611292 163.363197 
L 250.968905 164.554944 
L 251.183473 164.92866 
L 251.755654 166.339267 
L 253.472196 169.586509 
L 253.686764 170.035809 
L 253.972855 170.644615 
L 254.187422 170.973369 
L 256.762236 176.845398 
L 257.334417 177.412367 
L 257.763553 177.796454 
L 258.335734 178.167051 
L 258.621824 178.682484 
L 258.979437 179.043517 
L 259.265527 179.053156 
L 260.409889 178.220309 
L 261.053593 177.110511 
L 261.125115 177.06093 
L 261.339683 177.608676 
L 261.697296 178.472933 
L 261.911864 178.509214 
L 262.484045 178.239705 
L 263.127748 179.330448 
L 263.413839 178.97806 
L 263.485361 179.086577 
L 264.27211 180.970565 
L 264.629723 180.920207 
L 264.915813 181.531959 
L 265.201904 182.083254 
L 265.344949 182.020657 
L 265.91713 181.280657 
L 266.20322 181.222183 
L 266.560833 180.822643 
L 267.490627 179.821503 
L 267.776718 179.826367 
L 268.134331 180.145002 
L 268.634989 181.049521 
L 272.425687 189.552389 
L 273.570049 191.342751 
L 274.070707 192.061327 
L 275.000501 193.486819 
L 275.715727 194.514108 
L 277.074657 196.483092 
L 277.932928 197.639593 
L 278.648154 198.585481 
L 280.793832 201.021756 
L 281.938194 201.894509 
L 282.796465 202.342019 
L 283.511691 202.547644 
L 284.942143 202.496294 
L 286.301073 202.080477 
L 286.515641 201.393433 
L 287.016299 198.303391 
L 287.516957 195.612671 
L 287.87457 194.468789 
L 288.232183 193.752906 
L 288.732841 193.247332 
L 288.875887 193.185484 
L 289.2335 192.824817 
L 289.448067 192.78038 
L 289.734158 192.249274 
L 290.091771 191.71039 
L 290.377861 191.6158 
L 290.87852 191.546878 
L 291.522223 190.950192 
L 294.383127 187.737654 
L 295.312921 186.772444 
L 297.74469 184.746566 
L 299.747323 181.688163 
L 300.033413 180.811821 
L 300.891685 177.746938 
L 301.463865 176.802859 
L 302.107569 174.28421 
L 303.466498 169.547691 
L 305.039996 164.979757 
L 306.327403 162.030842 
L 308.043945 158.991746 
L 309.402875 157.325963 
L 310.404191 156.348198 
L 311.691598 155.683213 
L 312.549869 155.613232 
L 313.408141 155.851166 
L 315.339251 156.53326 
L 317.914065 158.435327 
L 318.486246 158.873608 
L 319.41604 159.37851 
L 320.345834 158.925804 
L 320.989537 158.031902 
L 321.490195 156.681363 
L 321.919331 155.87226 
L 322.205421 155.708779 
L 322.419989 155.582616 
L 322.70608 155.476005 
L 322.99217 155.57231 
L 323.349783 155.409409 
L 323.635874 155.521666 
L 323.993487 155.29696 
L 324.279577 155.373695 
L 324.565667 155.181039 
L 324.994803 155.411284 
L 325.209371 155.39222 
L 325.566984 155.50799 
L 325.781552 155.571838 
L 326.139165 155.702901 
L 326.782868 155.548346 
L 327.068959 155.413015 
L 327.426572 155.09949 
L 327.712662 154.932197 
L 328.356366 154.69849 
L 328.785501 154.58547 
L 330.287476 154.667827 
L 330.931179 154.661692 
L 331.21727 154.591117 
L 331.50336 154.66641 
L 333.005335 154.533606 
L 333.219903 154.539317 
L 333.505993 154.492821 
L 333.935129 154.532507 
L 334.435787 154.511818 
L 337.368214 154.295939 
L 339.227802 154.734544 
L 339.585415 154.773097 
L 340.729777 155.279953 
L 341.015867 155.466715 
L 341.301957 155.465319 
L 341.588048 155.739711 
L 341.874138 156.012864 
L 342.160229 156.007971 
L 342.446319 156.348014 
L 342.803932 156.812611 
L 343.090023 156.75866 
L 343.30459 156.972625 
L 343.805249 157.662013 
L 344.234384 157.364929 
L 344.520475 157.548481 
L 344.878088 157.735874 
L 345.450269 157.209402 
L 346.022449 157.294738 
L 346.380063 157.019694 
L 346.59463 157.104571 
L 347.238334 157.548373 
L 347.524424 157.503975 
L 347.810515 157.793028 
L 348.168128 158.152884 
L 348.525741 158.107702 
L 348.811831 158.421937 
L 349.097922 158.720515 
L 349.455535 158.631974 
L 349.741625 158.870742 
L 349.956193 159.028635 
L 350.313806 158.985951 
L 350.671419 159.292292 
L 350.814464 159.348096 
L 351.172077 159.274342 
L 351.815781 159.447129 
L 352.101871 159.550009 
L 352.316439 159.648796 
L 352.674052 159.605762 
L 353.031665 159.682324 
L 353.317755 159.661104 
L 353.675368 159.734125 
L 354.032981 159.674222 
L 354.247549 159.834396 
L 355.534956 161.328353 
L 356.250182 161.613814 
L 357.323021 161.795962 
L 360.899152 161.241292 
L 362.329604 161.473999 
L 365.190508 162.578175 
L 367.550754 162.770353 
L 367.908367 162.722457 
L 368.695116 162.584321 
L 370.197091 162.309188 
L 371.55602 162.184812 
L 373.987789 162.519419 
L 375.489763 162.463072 
L 375.775854 162.455176 
L 377.277829 162.467894 
L 377.85001 162.49593 
L 379.423507 162.738559 
L 383.285728 163.464743 
L 384.358567 160.735279 
L 384.644657 159.945896 
L 385.645974 157.511154 
L 386.146632 157.034142 
L 386.3612 157.347111 
L 386.861858 158.276969 
L 387.505561 159.078698 
L 387.791652 158.692775 
L 388.149265 158.187366 
L 388.435355 157.496643 
L 389.150581 155.568256 
L 389.293627 155.576672 
L 389.508194 155.684233 
L 389.794285 155.444238 
L 390.294943 155.085872 
L 390.509511 154.983663 
L 391.153214 154.234325 
L 391.439305 154.166771 
L 392.226053 154.119945 
L 392.512144 154.250739 
L 392.726712 154.208148 
L 393.370415 154.158616 
L 394.085641 154.325952 
L 394.371732 154.350513 
L 395.015435 154.04678 
L 395.373048 153.870262 
L 395.587616 153.762256 
L 396.016752 153.477309 
L 397.232636 152.793881 
L 398.090907 152.305553 
L 398.806133 151.949317 
L 399.092224 151.82718 
L 399.80745 151.42832 
L 403.312058 149.696477 
L 403.669671 149.553524 
L 404.241851 149.730466 
L 404.814032 149.819481 
L 405.958394 149.797272 
L 406.888188 149.831967 
L 407.817982 149.953589 
L 409.96366 150.142214 
L 410.178228 149.849632 
L 410.964976 148.59316 
L 411.394112 148.292444 
L 412.395429 147.312778 
L 413.611313 146.649409 
L 414.612629 146.10765 
L 416.901353 145.090201 
L 417.044398 145.02351 
L 417.402011 144.780431 
L 417.759624 144.57894 
L 418.045715 144.430563 
L 418.403328 144.330735 
L 418.760941 144.105314 
L 419.118554 143.990159 
L 420.048348 142.539075 
L 420.405961 142.098922 
L 421.907935 141.333897 
L 422.408594 141.186552 
L 422.766207 141.021429 
L 423.195342 140.842479 
L 423.552955 140.658548 
L 424.196659 140.561615 
L 424.482749 140.656304 
L 425.126453 140.638306 
L 425.627111 140.883997 
L 426.485382 141.041338 
L 426.771473 141.021829 
L 427.057563 140.970701 
L 427.629744 140.819968 
L 428.63106 140.638388 
L 428.845628 140.630853 
L 429.203241 140.567913 
L 429.489332 140.555681 
L 429.846945 140.517022 
L 430.133035 140.473936 
L 430.347603 140.482645 
L 430.562171 140.492371 
L 430.776739 140.455031 
L 431.134352 140.492693 
L 431.992623 140.391777 
L 432.278713 140.376669 
L 432.493281 140.347397 
L 432.779372 140.29765 
L 432.993939 140.296428 
L 433.780688 140.179105 
L 433.923733 140.196758 
L 434.352869 140.103469 
L 435.139618 139.977101 
L 436.927683 139.390298 
L 437.428341 139.794843 
L 437.642909 139.965286 
L 437.928999 139.419864 
L 438.644225 138.055535 
L 438.858793 137.83867 
L 439.001838 137.982366 
L 439.645542 139.105421 
L 440.003155 139.593251 
L 440.217723 139.732362 
L 440.646858 139.794722 
L 441.147517 139.843178 
L 442.721014 139.749757 
L 443.007104 139.784378 
L 443.364717 139.781355 
L 443.865376 139.841441 
L 444.151466 139.679971 
L 444.795169 139.247227 
L 445.36735 139.141535 
L 446.654757 139.320784 
L 449.301094 140.089793 
L 450.087842 141.041266 
L 450.373933 141.1145 
L 451.017636 141.559695 
L 451.375249 141.389483 
L 451.66134 141.723276 
L 452.376566 142.792206 
L 452.519611 142.744095 
L 452.591134 142.905825 
L 453.020269 145.037565 
L 453.30636 145.538121 
L 453.735495 147.463446 
L 453.878541 147.907422 
L 454.093108 148.536231 
L 454.236154 148.50701 
L 454.307676 148.425018 
L 454.593767 148.708465 
L 454.736812 148.559077 
L 455.022902 148.859969 
L 455.23747 148.791522 
L 455.452038 148.930587 
L 455.595083 148.757094 
L 456.024219 149.627948 
L 456.238787 150.379249 
L 456.381832 150.345754 
L 456.453354 150.233247 
L 456.524877 150.294732 
L 456.739445 150.60805 
L 457.454671 149.527166 
L 457.597716 149.210431 
L 457.812284 149.395909 
L 458.384465 148.409378 
L 458.599033 148.459002 
L 458.8136 148.224571 
L 458.956646 148.231983 
L 459.743394 147.081034 
L 459.88644 146.903916 
L 460.244053 146.058103 
L 460.45862 146.186838 
L 460.601666 145.981648 
L 460.744711 145.815921 
L 460.887756 145.92221 
L 461.030801 145.687771 
L 461.173846 145.436087 
L 461.316892 145.388961 
L 462.604299 142.771684 
L 463.176479 142.112246 
L 463.391047 141.685491 
L 463.891705 140.860906 
L 464.034751 140.591361 
L 464.249319 140.552735 
L 464.678454 139.69428 
L 464.821499 139.421421 
L 465.036067 139.061429 
L 465.179112 138.939641 
L 465.465203 138.113779 
L 465.536725 138.143119 
L 465.679771 138.090317 
L 466.180429 137.213907 
L 466.394997 137.083588 
L 466.75261 136.67013 
L 467.110223 135.951384 
L 468.040017 134.532115 
L 469.470469 132.057463 
L 473.547257 125.281287 
L 474.262483 124.58464 
L 475.692936 123.507924 
L 476.122071 125.811896 
L 476.265116 125.81655 
L 476.479684 125.251862 
L 476.694252 124.265282 
L 476.90882 125.84481 
L 477.266433 128.165546 
L 477.624046 129.135878 
L 477.910136 129.329426 
L 478.196227 129.193384 
L 478.482317 128.769121 
L 478.83993 127.725481 
L 479.126021 126.254403 
L 480.270382 118.793278 
L 481.343222 115.992997 
L 482.273015 113.875632 
L 483.846513 110.819588 
L 484.919352 109.077884 
L 486.421327 106.587524 
L 486.921985 106.337377 
L 487.565688 106.234345 
L 487.923301 106.322202 
L 488.280914 106.714912 
L 489.210708 108.675828 
L 491.070296 112.41788 
L 491.714 113.400056 
L 492.929884 114.657732 
L 493.502065 115.142107 
L 494.431859 115.990654 
L 494.717949 115.988889 
L 494.932517 115.776153 
L 495.647743 114.775199 
L 496.005356 114.621219 
L 496.577537 114.94231 
L 497.22124 115.473246 
L 498.294079 115.745733 
L 499.796054 115.472289 
L 501.083461 115.291915 
L 502.370868 114.773462 
L 503.51523 113.891541 
L 506.519179 110.311613 
L 507.162883 109.554644 
L 508.235722 108.333323 
L 508.593335 107.871671 
L 509.165516 107.20006 
L 509.594651 107.044814 
L 511.668807 106.655743 
L 512.02642 106.555669 
L 512.598601 106.477897 
L 512.956214 106.437393 
L 513.385349 106.412703 
L 513.742962 106.299018 
L 515.31646 106.192511 
L 516.746912 105.762393 
L 517.176048 105.998748 
L 517.748228 105.894866 
L 518.248887 105.62482 
L 518.678022 105.628 
L 518.964113 106.311091 
L 519.607816 107.757083 
L 519.822384 107.790605 
L 520.179997 107.763341 
L 521.610449 106.409757 
L 522.111107 106.348901 
L 522.325675 106.481658 
L 523.040901 107.081205 
L 523.684605 107.215914 
L 526.903122 106.876775 
L 527.11769 106.860237 
L 527.332258 106.86068 
L 528.76271 106.850753 
L 529.120323 106.943411 
L 529.263368 106.961668 
L 529.549459 107.047425 
L 529.764026 107.060998 
L 530.050117 107.166486 
L 530.193162 107.205763 
L 530.479252 107.288509 
L 530.69382 107.288294 
L 530.979911 107.364579 
L 531.194478 107.346215 
L 531.409046 107.397657 
L 532.267318 107.147093 
L 532.553408 107.122382 
L 532.911021 107.00029 
L 533.197111 106.903999 
L 533.483202 106.82348 
L 533.769292 106.719833 
L 534.126905 106.576575 
L 534.412996 106.479977 
L 534.770609 106.333884 
L 535.056699 106.223436 
L 535.414312 106.060721 
L 535.700403 105.933843 
L 536.129538 105.709522 
L 536.415629 105.62396 
L 536.916287 105.380249 
L 537.202377 105.337219 
L 537.774558 105.148828 
L 538.203694 105.071858 
L 538.561307 105.00072 
L 539.133488 104.903446 
L 540.492417 104.773715 
L 541.136121 104.783227 
L 541.493734 104.86554 
L 541.92287 104.898966 
L 542.280483 104.882011 
L 542.852663 105.03394 
L 543.210276 104.879347 
L 543.925503 104.918796 
L 544.211593 104.764723 
L 545.499 104.764397 
L 546.142703 104.59566 
L 547.930768 103.57818 
L 548.073814 103.976684 
L 548.574472 106.013895 
L 549.146653 107.210437 
L 549.647311 107.817324 
L 550.219492 108.216287 
L 551.435376 108.728769 
L 551.792989 108.797082 
L 552.007557 108.596964 
L 552.222125 108.087737 
L 553.080396 105.693817 
L 553.366487 105.555067 
L 553.581054 105.766673 
L 553.938667 106.30825 
L 554.582371 107.39941 
L 555.297597 107.708889 
L 555.583687 107.596934 
L 556.012823 107.381078 
L 556.585004 107.089932 
L 556.871094 107.124418 
L 557.085662 107.073269 
L 557.371753 107.224436 
L 557.58632 107.236812 
L 558.158501 107.504323 
L 558.373069 107.610467 
L 559.159818 107.82213 
L 559.803521 107.826145 
L 560.018089 107.844272 
L 560.304179 107.819066 
L 560.87636 107.776847 
L 561.162451 107.741889 
L 561.663109 107.652421 
L 562.735948 107.129347 
L 562.950516 107.025657 
L 563.451174 106.727953 
L 563.737265 106.3577 
L 563.951832 106.20454 
L 564.237923 105.97205 
L 564.452491 105.854479 
L 564.738581 105.611284 
L 565.024672 105.391704 
L 565.310762 105.16185 
L 565.596852 104.948313 
L 565.882943 104.726652 
L 566.240556 104.439338 
L 566.526646 104.251189 
L 566.884259 104.000693 
L 567.17035 103.866145 
L 567.671008 103.593889 
L 568.028621 103.444938 
L 568.314711 103.338893 
L 568.81537 103.265876 
L 569.10146 103.238979 
L 573.964997 103.46179 
L 576.396766 101.826535 
L 576.754379 101.602594 
L 577.111992 101.325599 
L 577.469605 101.05953 
L 577.755696 100.839011 
L 577.898741 101.032127 
L 578.613967 102.850271 
L 579.043102 104.009208 
L 579.400715 104.357247 
L 579.615283 104.291822 
L 579.901374 104.078745 
L 581.260303 102.832668 
L 581.904007 102.801242 
L 582.833801 102.853891 
L 583.191414 102.732055 
L 583.549027 102.694963 
L 583.763594 102.614518 
L 584.264253 102.47693 
L 584.478821 102.5315 
L 584.836434 102.434042 
L 585.051001 102.420396 
L 585.265569 102.326675 
L 585.480137 102.321586 
L 585.623182 102.317271 
L 585.83775 102.316126 
L 586.052318 102.254527 
L 586.266886 102.304482 
L 586.409931 102.32955 
L 586.624499 102.376442 
L 586.910589 102.382997 
L 587.411247 102.371854 
L 588.770177 101.905062 
L 589.556926 101.417229 
L 590.343674 100.838692 
L 591.0589 100.32451 
L 592.70392 99.267734 
L 594.420463 97.708439 
L 595.99396 96.650174 
L 596.208528 96.736412 
L 596.566141 97.255643 
L 596.780709 97.567679 
L 596.923754 97.428379 
L 597.495935 96.29369 
L 597.996593 94.904312 
L 598.783342 93.165732 
L 599.284 92.548338 
L 599.570091 92.203133 
L 599.856181 91.907314 
L 600.142271 91.710904 
L 601.429678 91.239637 
L 601.858814 91.205275 
L 602.430995 91.016551 
L 602.788608 90.663803 
L 603.217744 89.8369 
L 603.503834 89.021386 
L 603.575357 168.413486 
L 603.646879 168.161775 
L 604.21906 165.632438 
L 604.648196 162.812978 
L 605.077331 158.314504 
L 605.935603 148.616417 
L 606.436261 145.669122 
L 606.793874 144.43266 
L 607.294532 143.2095 
L 608.653462 141.457294 
L 609.15412 141.328595 
L 609.726301 140.8645 
L 610.942185 139.712049 
L 611.156753 139.795743 
L 611.871979 140.898024 
L 612.158069 140.920339 
L 612.515682 140.657054 
L 612.944818 140.014305 
L 614.732883 136.876788 
L 615.090496 136.68363 
L 615.376587 136.631009 
L 615.591155 136.807254 
L 615.877245 137.465161 
L 616.878561 140.193856 
L 617.164652 140.483716 
L 617.951401 140.801194 
L 618.523581 140.65372 
L 619.381853 140.090944 
L 621.026873 139.546659 
L 624.24539 139.502948 
L 626.605636 139.901104 
L 626.820204 139.666926 
L 627.392385 138.913184 
L 627.749998 138.735763 
L 628.250656 138.799603 
L 628.751314 138.993494 
L 629.681108 139.390164 
L 630.396334 139.543484 
L 631.612218 139.767126 
L 632.613535 139.97 
L 633.328761 140.076251 
L 634.973781 140.868139 
L 635.617484 140.978824 
L 636.475756 141.088382 
L 637.477072 141.27726 
L 638.406866 141.591866 
L 638.907524 141.946943 
L 641.196248 142.670909 
L 641.696906 142.488518 
L 642.054519 142.426576 
L 642.340609 142.442548 
L 642.6267 142.405481 
L 643.055836 142.488003 
L 643.413449 142.48251 
L 643.985629 142.651641 
L 644.414765 142.777335 
L 644.843901 142.943626 
L 645.201514 142.976757 
L 646.918056 142.975581 
L 647.418715 143.737409 
L 647.919373 144.285573 
L 648.563076 144.553921 
L 649.421348 144.692944 
L 650.923322 144.790865 
L 651.853116 144.912134 
L 653.855749 144.910969 
L 654.785543 144.975552 
L 655.572292 145.488246 
L 657.145789 145.723534 
L 657.861015 146.13711 
L 658.647764 146.73179 
L 658.790809 146.770963 
L 659.076899 146.423988 
L 659.219945 146.730678 
L 659.64908 148.408942 
L 659.792126 148.382289 
L 660.364306 147.625113 
L 660.650397 147.294184 
L 661.079532 147.483348 
L 661.2941 147.587429 
L 661.651713 147.927746 
L 661.866281 148.086499 
L 662.152372 148.391871 
L 662.65303 148.503992 
L 662.867598 148.459386 
L 663.082165 148.356171 
L 663.368256 148.423073 
L 663.582824 148.456195 
L 663.797392 148.578215 
L 664.155005 148.599234 
L 664.369572 148.732059 
L 664.870231 148.694993 
L 665.585457 148.754477 
L 665.871547 148.274028 
L 665.94307 148.344741 
L 666.22916 149.776956 
L 666.658296 151.451688 
L 666.801341 151.199847 
L 667.301999 150.001153 
L 667.516567 150.059661 
L 667.945703 150.60286 
L 669.161587 152.932175 
L 669.590723 153.133601 
L 670.949652 153.514487 
L 672.594672 154.114062 
L 673.023808 154.123482 
L 673.309898 154.439583 
L 673.739034 155.289358 
L 674.597305 157.242464 
L 675.097963 157.487954 
L 675.384054 157.763848 
L 675.670144 158.314538 
L 676.170802 159.36011 
L 676.886029 160.276516 
L 677.672777 160.859856 
L 677.958868 160.879117 
L 678.316481 161.232288 
L 679.103229 162.515723 
L 679.818455 163.493438 
L 680.605204 164.357318 
L 680.819772 165.142768 
L 680.962817 165.961523 
L 681.105862 205.842469 
L 681.32043 208.179435 
L 682.035656 209.743948 
L 683.466108 212.43887 
L 684.968083 214.864031 
L 685.111128 214.80207 
L 685.397219 215.06027 
L 687.399852 217.242353 
L 688.973349 218.610343 
L 690.618369 219.740751 
L 692.549479 220.769097 
L 694.051454 221.420693 
L 694.266022 214.10012 
L 694.409067 213.494611 
L 694.552112 213.503498 
L 694.981248 213.85483 
L 695.267339 212.688627 
L 695.624952 212.813566 
L 696.197132 213.086061 
L 696.340178 212.689914 
L 696.554745 212.714814 
L 698.485856 213.600917 
L 698.700424 212.800055 
L 698.986514 212.88912 
L 700.345444 213.56722 
L 700.560011 212.307795 
L 700.774579 212.343622 
L 701.847418 212.797804 
L 701.990464 212.293239 
L 702.348077 209.627733 
L 702.70569 207.170918 
L 702.848735 207.065575 
L 703.349393 207.414158 
L 703.778529 207.836289 
L 704.136142 208.6437 
L 704.92289 210.494345 
L 705.781162 211.512354 
L 706.496388 212.882549 
L 707.92684 215.648664 
L 709.285769 218.346352 
L 710.644699 220.905798 
L 712.003628 222.970473 
L 713.004945 224.099742 
L 713.863216 224.755629 
L 714.649965 225.075059 
L 715.651281 225.377901 
L 716.938688 225.494243 
L 717.153256 231.69475 
L 717.367824 232.33838 
L 717.653914 232.189088 
L 719.012844 231.369832 
L 720.371773 230.809164 
L 721.087 230.600954 
L 721.301567 232.502115 
L 721.444613 232.470486 
L 722.803542 231.484328 
L 724.090949 231.100513 
L 724.305517 229.488094 
L 724.520085 229.392606 
L 725.879014 229.477771 
L 726.522718 229.534707 
L 726.737286 227.145688 
L 726.951853 226.975264 
L 727.810125 227.126214 
L 728.954486 227.337839 
L 729.097532 226.693399 
L 729.669712 222.669689 
L 729.88428 222.51406 
L 730.671029 222.487633 
L 730.957119 222.401615 
L 731.5293 222.244846 
L 732.173004 222.139769 
L 734.175637 221.699089 
L 734.390204 221.502246 
L 734.81934 221.251953 
L 735.033908 221.112599 
L 735.463044 220.961315 
L 735.677611 220.896115 
L 735.892179 220.847198 
L 736.17827 220.749958 
L 736.75045 220.568967 
L 737.322631 220.359929 
L 737.751767 220.231247 
L 739.396787 219.644636 
L 741.68551 218.890779 
L 742.615304 217.755066 
L 742.972917 217.773538 
L 743.259008 217.514963 
L 743.759666 216.642257 
L 744.331847 215.75949 
L 744.617937 215.639409 
L 744.97555 215.751785 
L 746.119912 216.308953 
L 746.62057 216.217729 
L 747.192751 215.856343 
L 751.26954 212.725602 
L 752.986082 211.617664 
L 756.419167 208.488711 
L 757.778097 207.175065 
L 758.636368 206.686167 
L 759.566162 206.446268 
L 760.424433 206.471491 
L 761.211182 206.681349 
L 762.069453 207.179152 
L 763.07077 207.721838 
L 763.35686 207.633485 
L 763.929041 207.25214 
L 764.072086 207.288681 
L 764.930358 206.315818 
L 765.216448 206.343699 
L 765.574061 206.664566 
L 766.146242 207.595868 
L 767.576694 210.046943 
L 768.721056 211.433332 
L 770.151508 213.216764 
L 774.514387 219.126188 
L 775.658749 220.127275 
L 775.730271 220.179489 
L 776.016362 213.648629 
L 776.087884 213.647861 
L 776.373975 214.420942 
L 777.232246 216.635268 
L 778.090517 218.228292 
L 779.020311 219.501447 
L 780.09315 220.604699 
L 781.380557 221.603764 
L 782.954054 222.531299 
L 784.74212 223.331193 
L 785.171255 223.493298 
L 785.3143 221.086479 
L 785.528868 220.752061 
L 786.029527 220.79005 
L 792.251993 221.632228 
L 793.396355 221.759621 
L 793.610923 222.934758 
L 793.897013 223.082635 
L 794.683762 223.185826 
L 794.89833 221.836281 
L 795.112898 221.736475 
L 796.471827 221.8376 
L 798.116847 221.968689 
L 798.331415 221.73178 
L 799.046641 221.761412 
L 799.332731 221.90075 
L 799.618822 221.993869 
L 800.047957 222.090043 
L 800.977751 222.060366 
L 801.335364 221.965816 
L 802.265158 221.896047 
L 803.12343 221.969344 
L 803.624088 222.073344 
L 805.626721 222.285707 
L 805.841289 222.120036 
L 809.703509 221.924123 
L 810.27569 221.85351 
L 811.92071 221.831577 
L 813.923343 221.863017 
L 814.495524 221.824341 
L 815.282273 221.804145 
L 815.282273 221.804145 
" clip-path="url(#p02da2d336a)" style="fill: none; stroke: #ff0000; stroke-opacity: 0.7; stroke-linecap: square"/>
   </g>
   <g id="patch_3">
    <path d="M 64.37 242.08 
L 64.37 31.5825 
" style="fill: none; stroke: #000000; stroke-width: 0.5; stroke-linejoin: miter; stroke-linecap: square"/>
   </g>
   <g id="patch_4">
    <path d="M 64.37 242.08 
L 851.04 242.08 
" style="fill: none; stroke: #000000; stroke-width: 0.5; stroke-linejoin: miter; stroke-linecap: square"/>
   </g>
   <g id="text_14">
    <!-- Angle estimate vs true wind angle — with wind direction jumps and locomotion noise -->
    <g transform="translate(118.212344 25.5825) scale(0.18 -0.18)">
     <defs>
      <path id="NewCM10-Regular-41" d="M 4589 0 
L 4589 198 
L 4474 198 
C 4090 198 4000 243 3930 454 
L 2547 4454 
C 2515 4538 2502 4582 2400 4582 
C 2298 4582 2278 4544 2246 4454 
L 922 627 
C 806 301 550 205 205 198 
L 205 0 
L 858 19 
L 1594 0 
L 1594 198 
C 1274 198 1114 358 1114 525 
C 1114 544 1120 608 1126 621 
L 1421 1459 
L 3002 1459 
L 3341 480 
C 3347 454 3360 416 3360 390 
C 3360 198 3002 198 2829 198 
L 2829 0 
C 3059 19 3507 19 3750 19 
L 4589 0 
z
M 2931 1658 
L 1491 1658 
L 2208 3738 
L 2931 1658 
z
" transform="scale(0.015625)"/>
      <path id="NewCM10-Regular-73" d="M 2304 819 
C 2304 1158 2112 1350 2035 1427 
C 1824 1632 1574 1683 1306 1734 
C 947 1805 518 1888 518 2259 
C 518 2483 685 2746 1235 2746 
C 1939 2746 1971 2170 1984 1971 
C 1990 1914 2061 1914 2061 1914 
C 2144 1914 2144 1946 2144 2067 
L 2144 2714 
C 2144 2822 2144 2867 2074 2867 
C 2042 2867 2029 2867 1946 2790 
C 1926 2765 1862 2707 1837 2688 
C 1594 2867 1331 2867 1235 2867 
C 454 2867 211 2438 211 2080 
C 211 1856 314 1677 486 1536 
C 691 1370 870 1331 1331 1242 
C 1472 1216 1997 1114 1997 653 
C 1997 326 1773 70 1274 70 
C 736 70 506 435 384 979 
C 365 1062 358 1088 294 1088 
C 211 1088 211 1043 211 928 
L 211 83 
C 211 -26 211 -70 282 -70 
C 314 -70 320 -64 442 58 
C 454 70 454 83 570 205 
C 851 -64 1139 -70 1274 -70 
C 2010 -70 2304 358 2304 819 
z
" transform="scale(0.015625)"/>
      <path id="NewCM10-Regular-6d" d="M 5203 0 
L 5203 198 
C 4870 198 4710 198 4704 390 
L 4704 1613 
C 4704 2163 4704 2362 4506 2592 
C 4416 2701 4205 2829 3834 2829 
C 3296 2829 3014 2445 2906 2202 
C 2816 2758 2342 2829 2054 2829 
C 1587 2829 1286 2554 1107 2157 
L 1107 2829 
L 205 2758 
L 205 2560 
C 653 2560 704 2515 704 2202 
L 704 486 
C 704 198 634 198 205 198 
L 205 0 
L 928 19 
L 1645 0 
L 1645 198 
C 1216 198 1146 198 1146 486 
L 1146 1664 
C 1146 2330 1600 2688 2010 2688 
C 2413 2688 2483 2342 2483 1978 
L 2483 486 
C 2483 198 2413 198 1984 198 
L 1984 0 
L 2707 19 
L 3424 0 
L 3424 198 
C 2995 198 2925 198 2925 486 
L 2925 1664 
C 2925 2330 3379 2688 3789 2688 
C 4192 2688 4262 2342 4262 1978 
L 4262 486 
C 4262 198 4192 198 3763 198 
L 3763 0 
L 4486 19 
L 5203 0 
z
" transform="scale(0.015625)"/>
      <path id="NewCM10-Regular-76" d="M 3251 2560 
L 3251 2758 
C 3104 2746 2918 2739 2771 2739 
L 2214 2758 
L 2214 2560 
C 2451 2554 2522 2406 2522 2285 
C 2522 2227 2509 2202 2483 2131 
L 1830 499 
L 1114 2285 
C 1075 2368 1075 2394 1075 2394 
C 1075 2560 1325 2560 1440 2560 
L 1440 2758 
L 742 2739 
C 570 2739 314 2746 122 2758 
L 122 2560 
C 525 2560 550 2522 634 2323 
L 1555 51 
C 1594 -38 1606 -70 1690 -70 
C 1773 -70 1798 -13 1824 51 
L 2662 2131 
C 2720 2278 2829 2554 3251 2560 
z
" transform="scale(0.015625)"/>
      <path id="NewCM10-Regular-72" d="M 2330 2438 
C 2330 2643 2131 2829 1856 2829 
C 1389 2829 1158 2400 1069 2125 
L 1069 2829 
L 179 2758 
L 179 2560 
C 627 2560 678 2515 678 2202 
L 678 486 
C 678 198 608 198 179 198 
L 179 0 
L 909 19 
C 1165 19 1466 19 1722 0 
L 1722 198 
L 1587 198 
C 1114 198 1101 269 1101 499 
L 1101 1485 
C 1101 2118 1370 2688 1856 2688 
C 1901 2688 1914 2688 1926 2682 
C 1907 2675 1779 2598 1779 2432 
C 1779 2253 1914 2157 2054 2157 
C 2170 2157 2330 2234 2330 2438 
z
" transform="scale(0.015625)"/>
      <path id="NewCM10-Regular-75" d="M 3424 0 
L 3424 198 
C 2976 198 2925 243 2925 557 
L 2925 2829 
L 1984 2758 
L 1984 2560 
C 2432 2560 2483 2515 2483 2202 
L 2483 1062 
C 2483 506 2176 70 1709 70 
C 1171 70 1146 371 1146 704 
L 1146 2829 
L 205 2758 
L 205 2560 
C 704 2560 704 2541 704 1971 
L 704 1011 
C 704 512 704 -70 1677 -70 
C 2035 -70 2317 109 2502 506 
L 2502 -70 
L 3424 0 
z
" transform="scale(0.015625)"/>
      <path id="NewCM10-Regular-77" d="M 4499 2560 
L 4499 2758 
C 4358 2746 4173 2739 4032 2739 
L 3437 2758 
L 3437 2560 
C 3667 2554 3808 2438 3808 2253 
C 3808 2214 3808 2202 3776 2118 
L 3194 480 
L 2560 2266 
C 2534 2342 2528 2355 2528 2387 
C 2528 2560 2778 2560 2906 2560 
L 2906 2758 
L 2240 2739 
C 2048 2739 1862 2746 1670 2758 
L 1670 2560 
C 1907 2560 2010 2547 2074 2464 
C 2106 2426 2176 2234 2221 2112 
L 1670 563 
L 1062 2272 
C 1030 2349 1030 2362 1030 2387 
C 1030 2560 1280 2560 1408 2560 
L 1408 2758 
L 710 2739 
L 115 2758 
L 115 2560 
C 435 2560 512 2541 589 2336 
L 1395 70 
C 1427 -19 1446 -70 1530 -70 
C 1613 -70 1626 -32 1658 58 
L 2304 1869 
L 2957 51 
C 2982 -19 3002 -70 3085 -70 
C 3168 -70 3187 -13 3213 51 
L 3962 2150 
C 4077 2470 4275 2554 4499 2560 
z
" transform="scale(0.015625)"/>
      <path id="NewCM10-Regular-2014" d="M 0 1626 
L 6394 1626 
L 6394 1773 
L 0 1773 
L 0 1626 
z
" transform="scale(0.015625)"/>
      <path id="NewCM10-Regular-68" d="M 3424 0 
L 3424 198 
C 3091 198 2931 198 2925 390 
L 2925 1613 
C 2925 2163 2925 2362 2726 2592 
C 2637 2701 2426 2829 2054 2829 
C 1517 2829 1235 2445 1133 2214 
L 1126 2214 
L 1126 4442 
L 205 4371 
L 205 4173 
C 653 4173 704 4128 704 3814 
L 704 486 
C 704 198 634 198 205 198 
L 205 0 
L 928 19 
L 1645 0 
L 1645 198 
C 1216 198 1146 198 1146 486 
L 1146 1664 
C 1146 2330 1600 2688 2010 2688 
C 2413 2688 2483 2342 2483 1978 
L 2483 486 
C 2483 198 2413 198 1984 198 
L 1984 0 
L 2707 19 
L 3424 0 
z
" transform="scale(0.015625)"/>
      <path id="NewCM10-Regular-63" d="M 2656 762 
C 2656 826 2592 826 2573 826 
C 2515 826 2502 800 2490 762 
C 2304 166 1888 90 1651 90 
C 1312 90 749 365 749 1395 
C 749 2438 1274 2707 1613 2707 
C 1670 2707 2074 2701 2298 2470 
C 2035 2451 1997 2259 1997 2176 
C 1997 2010 2112 1882 2291 1882 
C 2458 1882 2586 1990 2586 2182 
C 2586 2618 2099 2867 1606 2867 
C 806 2867 218 2176 218 1382 
C 218 563 851 -70 1594 -70 
C 2451 -70 2656 698 2656 762 
z
" transform="scale(0.015625)"/>
      <path id="NewCM10-Regular-6f" d="M 3014 1370 
C 3014 2189 2374 2867 1600 2867 
C 800 2867 179 2170 179 1370 
C 179 544 845 -70 1594 -70 
C 2368 -70 3014 557 3014 1370 
z
M 2483 1421 
C 2483 1190 2483 845 2342 563 
C 2202 275 1920 90 1600 90 
C 1325 90 1043 224 870 518 
C 710 800 710 1190 710 1421 
C 710 1670 710 2016 864 2298 
C 1037 2592 1338 2726 1594 2726 
C 1875 2726 2150 2586 2317 2310 
C 2483 2035 2483 1664 2483 1421 
z
" transform="scale(0.015625)"/>
      <path id="NewCM10-Regular-6a" d="M 1344 -320 
L 1344 2829 
L 371 2758 
L 371 2560 
C 864 2560 922 2515 922 2202 
L 922 -333 
C 922 -621 864 -1171 454 -1171 
C 422 -1171 275 -1171 109 -1088 
C 205 -1062 333 -973 333 -800 
C 333 -634 218 -506 38 -506 
C -141 -506 -256 -634 -256 -800 
C -256 -1133 102 -1312 467 -1312 
C 947 -1312 1344 -902 1344 -320 
z
M 1344 3866 
C 1344 4038 1197 4205 1005 4205 
C 787 4205 659 4026 659 3866 
C 659 3693 806 3526 998 3526 
C 1216 3526 1344 3706 1344 3866 
z
" transform="scale(0.015625)"/>
     </defs>
     <use xlink:href="#NewCM10-Regular-41"/>
     <use xlink:href="#NewCM10-Regular-6e" transform="translate(74.999985 0)"/>
     <use xlink:href="#NewCM10-Regular-67" transform="translate(130.599976 0)"/>
     <use xlink:href="#NewCM10-Regular-6c" transform="translate(180.59996 0)"/>
     <use xlink:href="#NewCM10-Regular-65" transform="translate(208.399948 0)"/>
     <use xlink:href="#NewCM10-Regular-20" transform="translate(252.799942 0)"/>
     <use xlink:href="#NewCM10-Regular-65" transform="translate(286.09993 0)"/>
     <use xlink:href="#NewCM10-Regular-73" transform="translate(330.499924 0)"/>
     <use xlink:href="#NewCM10-Regular-74" transform="translate(369.899918 0)"/>
     <use xlink:href="#NewCM10-Regular-69" transform="translate(408.799911 0)"/>
     <use xlink:href="#NewCM10-Regular-6d" transform="translate(436.599899 0)"/>
     <use xlink:href="#NewCM10-Regular-61" transform="translate(519.899887 0)"/>
     <use xlink:href="#NewCM10-Regular-74" transform="translate(569.899872 0)"/>
     <use xlink:href="#NewCM10-Regular-65" transform="translate(608.799866 0)"/>
     <use xlink:href="#NewCM10-Regular-20" transform="translate(653.19986 0)"/>
     <use xlink:href="#NewCM10-Regular-76" transform="translate(686.499847 0)"/>
     <use xlink:href="#NewCM10-Regular-73" transform="translate(739.299835 0)"/>
     <use xlink:href="#NewCM10-Regular-20" transform="translate(778.699829 0)"/>
     <use xlink:href="#NewCM10-Regular-74" transform="translate(811.999817 0)"/>
     <use xlink:href="#NewCM10-Regular-72" transform="translate(850.899811 0)"/>
     <use xlink:href="#NewCM10-Regular-75" transform="translate(890.099808 0)"/>
     <use xlink:href="#NewCM10-Regular-65" transform="translate(945.699799 0)"/>
     <use xlink:href="#NewCM10-Regular-20" transform="translate(990.099792 0)"/>
     <use xlink:href="#NewCM10-Regular-77" transform="translate(1023.39978 0)"/>
     <use xlink:href="#NewCM10-Regular-69" transform="translate(1095.599762 0)"/>
     <use xlink:href="#NewCM10-Regular-6e" transform="translate(1123.39975 0)"/>
     <use xlink:href="#NewCM10-Regular-64" transform="translate(1178.999741 0)"/>
     <use xlink:href="#NewCM10-Regular-20" transform="translate(1234.599731 0)"/>
     <use xlink:href="#NewCM10-Regular-61" transform="translate(1267.899719 0)"/>
     <use xlink:href="#NewCM10-Regular-6e" transform="translate(1317.899704 0)"/>
     <use xlink:href="#NewCM10-Regular-67" transform="translate(1373.499695 0)"/>
     <use xlink:href="#NewCM10-Regular-6c" transform="translate(1423.49968 0)"/>
     <use xlink:href="#NewCM10-Regular-65" transform="translate(1451.299667 0)"/>
     <use xlink:href="#NewCM10-Regular-20" transform="translate(1495.699661 0)"/>
     <use xlink:href="#NewCM10-Regular-2014" transform="translate(1528.999649 0)"/>
     <use xlink:href="#NewCM10-Regular-20" transform="translate(1628.999634 0)"/>
     <use xlink:href="#NewCM10-Regular-77" transform="translate(1662.299622 0)"/>
     <use xlink:href="#NewCM10-Regular-69" transform="translate(1734.499603 0)"/>
     <use xlink:href="#NewCM10-Regular-74" transform="translate(1762.299591 0)"/>
     <use xlink:href="#NewCM10-Regular-68" transform="translate(1801.199585 0)"/>
     <use xlink:href="#NewCM10-Regular-20" transform="translate(1856.799576 0)"/>
     <use xlink:href="#NewCM10-Regular-77" transform="translate(1890.099564 0)"/>
     <use xlink:href="#NewCM10-Regular-69" transform="translate(1962.299545 0)"/>
     <use xlink:href="#NewCM10-Regular-6e" transform="translate(1990.099533 0)"/>
     <use xlink:href="#NewCM10-Regular-64" transform="translate(2045.699524 0)"/>
     <use xlink:href="#NewCM10-Regular-20" transform="translate(2101.299515 0)"/>
     <use xlink:href="#NewCM10-Regular-64" transform="translate(2134.599503 0)"/>
     <use xlink:href="#NewCM10-Regular-69" transform="translate(2190.199493 0)"/>
     <use xlink:href="#NewCM10-Regular-72" transform="translate(2217.999481 0)"/>
     <use xlink:href="#NewCM10-Regular-65" transform="translate(2257.199478 0)"/>
     <use xlink:href="#NewCM10-Regular-63" transform="translate(2301.599472 0)"/>
     <use xlink:href="#NewCM10-Regular-74" transform="translate(2345.999466 0)"/>
     <use xlink:href="#NewCM10-Regular-69" transform="translate(2384.89946 0)"/>
     <use xlink:href="#NewCM10-Regular-6f" transform="translate(2412.699448 0)"/>
     <use xlink:href="#NewCM10-Regular-6e" transform="translate(2462.699432 0)"/>
     <use xlink:href="#NewCM10-Regular-20" transform="translate(2518.299423 0)"/>
     <use xlink:href="#NewCM10-Regular-6a" transform="translate(2551.599411 0)"/>
     <use xlink:href="#NewCM10-Regular-75" transform="translate(2582.199402 0)"/>
     <use xlink:href="#NewCM10-Regular-6d" transform="translate(2637.799393 0)"/>
     <use xlink:href="#NewCM10-Regular-70" transform="translate(2721.09938 0)"/>
     <use xlink:href="#NewCM10-Regular-73" transform="translate(2776.699371 0)"/>
     <use xlink:href="#NewCM10-Regular-20" transform="translate(2816.099365 0)"/>
     <use xlink:href="#NewCM10-Regular-61" transform="translate(2849.399353 0)"/>
     <use xlink:href="#NewCM10-Regular-6e" transform="translate(2899.399338 0)"/>
     <use xlink:href="#NewCM10-Regular-64" transform="translate(2954.999329 0)"/>
     <use xlink:href="#NewCM10-Regular-20" transform="translate(3010.599319 0)"/>
     <use xlink:href="#NewCM10-Regular-6c" transform="translate(3043.899307 0)"/>
     <use xlink:href="#NewCM10-Regular-6f" transform="translate(3071.699295 0)"/>
     <use xlink:href="#NewCM10-Regular-63" transform="translate(3121.69928 0)"/>
     <use xlink:href="#NewCM10-Regular-6f" transform="translate(3166.099274 0)"/>
     <use xlink:href="#NewCM10-Regular-6d" transform="translate(3216.099258 0)"/>
     <use xlink:href="#NewCM10-Regular-6f" transform="translate(3299.399246 0)"/>
     <use xlink:href="#NewCM10-Regular-74" transform="translate(3349.399231 0)"/>
     <use xlink:href="#NewCM10-Regular-69" transform="translate(3388.299225 0)"/>
     <use xlink:href="#NewCM10-Regular-6f" transform="translate(3416.099213 0)"/>
     <use xlink:href="#NewCM10-Regular-6e" transform="translate(3466.099197 0)"/>
     <use xlink:href="#NewCM10-Regular-20" transform="translate(3521.699188 0)"/>
     <use xlink:href="#NewCM10-Regular-6e" transform="translate(3554.999176 0)"/>
     <use xlink:href="#NewCM10-Regular-6f" transform="translate(3610.599167 0)"/>
     <use xlink:href="#NewCM10-Regular-69" transform="translate(3660.599152 0)"/>
     <use xlink:href="#NewCM10-Regular-73" transform="translate(3688.399139 0)"/>
     <use xlink:href="#NewCM10-Regular-65" transform="translate(3727.799133 0)"/>
    </g>
   </g>
   <g id="legend_1">
    <g id="line2d_14">
     <path d="M 72.47 215.926562 
L 81.47 215.926562 
L 90.47 215.926562 
" style="fill: none; stroke: #000000; stroke-linecap: square"/>
    </g>
    <g id="text_15">
     <!-- true wind angle (°) -->
     <g transform="translate(97.67 219.076562) scale(0.09 -0.09)">
      <use xlink:href="#NewCM10-Regular-74"/>
      <use xlink:href="#NewCM10-Regular-72" transform="translate(38.899994 0)"/>
      <use xlink:href="#NewCM10-Regular-75" transform="translate(78.099991 0)"/>
      <use xlink:href="#NewCM10-Regular-65" transform="translate(133.699982 0)"/>
      <use xlink:href="#NewCM10-Regular-20" transform="translate(178.099976 0)"/>
      <use xlink:href="#NewCM10-Regular-77" transform="translate(211.399963 0)"/>
      <use xlink:href="#NewCM10-Regular-69" transform="translate(283.599945 0)"/>
      <use xlink:href="#NewCM10-Regular-6e" transform="translate(311.399933 0)"/>
      <use xlink:href="#NewCM10-Regular-64" transform="translate(366.999924 0)"/>
      <use xlink:href="#NewCM10-Regular-20" transform="translate(422.599915 0)"/>
      <use xlink:href="#NewCM10-Regular-61" transform="translate(455.899902 0)"/>
      <use xlink:href="#NewCM10-Regular-6e" transform="translate(505.899887 0)"/>
      <use xlink:href="#NewCM10-Regular-67" transform="translate(561.499878 0)"/>
      <use xlink:href="#NewCM10-Regular-6c" transform="translate(611.499863 0)"/>
      <use xlink:href="#NewCM10-Regular-65" transform="translate(639.29985 0)"/>
      <use xlink:href="#NewCM10-Regular-20" transform="translate(683.699844 0)"/>
      <use xlink:href="#NewCM10-Regular-28" transform="translate(716.999832 0)"/>
      <use xlink:href="#NewCM10-Regular-b0" transform="translate(755.899826 0)"/>
      <use xlink:href="#NewCM10-Regular-29" transform="translate(793.399811 0)"/>
     </g>
    </g>
    <g id="line2d_15">
     <path d="M 72.47 228.976562 
L 81.47 228.976562 
L 90.47 228.976562 
" style="fill: none; stroke: #ff0000; stroke-opacity: 0.7; stroke-linecap: square"/>
    </g>
    <g id="text_16">
     <!-- estimated angle -->
     <g transform="translate(97.67 232.126562) scale(0.09 -0.09)">
      <use xlink:href="#NewCM10-Regular-65"/>
      <use xlink:href="#NewCM10-Regular-73" transform="translate(44.399994 0)"/>
      <use xlink:href="#NewCM10-Regular-74" transform="translate(83.799988 0)"/>
      <use xlink:href="#NewCM10-Regular-69" transform="translate(122.699982 0)"/>
      <use xlink:href="#NewCM10-Regular-6d" transform="translate(150.499969 0)"/>
      <use xlink:href="#NewCM10-Regular-61" transform="translate(233.799957 0)"/>
      <use xlink:href="#NewCM10-Regular-74" transform="translate(283.799942 0)"/>
      <use xlink:href="#NewCM10-Regular-65" transform="translate(322.699936 0)"/>
      <use xlink:href="#NewCM10-Regular-64" transform="translate(367.09993 0)"/>
      <use xlink:href="#NewCM10-Regular-20" transform="translate(422.699921 0)"/>
      <use xlink:href="#NewCM10-Regular-61" transform="translate(455.999908 0)"/>
      <use xlink:href="#NewCM10-Regular-6e" transform="translate(505.999893 0)"/>
      <use xlink:href="#NewCM10-Regular-67" transform="translate(561.599884 0)"/>
      <use xlink:href="#NewCM10-Regular-6c" transform="translate(611.599869 0)"/>
      <use xlink:href="#NewCM10-Regular-65" transform="translate(639.399857 0)"/>
     </g>
    </g>
   </g>
  </g>
 </g>
 <defs>
  <clipPath id="p02da2d336a">
   <rect x="64.37" y="31.5825" width="786.67" height="210.4975"/>
  </clipPath>
 </defs>
</svg>
