<?xml version="1.0" encoding="utf-8" standalone="no"?>
<!DOCTYPE svg PUBLIC "-//W3C//DTD SVG 1.1//EN"
  "http://www.w3.org/Graphics/SVG/1.1/DTD/svg11.dtd">
<svg xmlns:xlink="http://www.w3.org/1999/xlink" width="864pt" height="288pt" viewBox="0 0 864 288" xmlns="http://www.w3.org/2000/svg" version="1.1">
 <metadata>
  <rdf:RDF xmlns:dc="http://purl.org/dc/elements/1.1/" xmlns:cc="http://creativecommons.org/ns#" xmlns:rdf="http://www.w3.org/1999/02/22-rdf-syntax-ns#">
   <cc:Work>
    <dc:type rdf:resource="http://purl.org/dc/dcmitype/StillImage"/>
    <dc:date>2026-05-25T01:02:18.090737</dc:date>
    <dc:format>image/svg+xml</dc:format>
    <dc:creator>
     <cc:Agent>
      <dc:title>Matplotlib v3.10.8, https://matplotlib.org/</dc:title>
     </cc:Agent>
    </dc:creator>
   </cc:Work>
  </rdf:RDF>
 </metadata>
 <defs>
  <style type="text/css">*{stroke-linejoin: round; stroke-linecap: butt}</style>
 </defs>
 <g id="figure_1">
  <g id="patch_1">
   <path d="M 0 288 
L 864 288 
L 864 0 
L 0 0 
z
" style="fill: #ffffff"/>
  </g>
  <g id="axes_1">
   <g id="patch_2">
    <path d="M 63.2 240.955 
L 425.565 240.955 
L 425.565 54.96 
L 63.2 54.96 
z
" style="fill: #ffffff"/>
   </g>
   <g id="FillBetweenPolyCollection_1">
    <defs>
     <path id="ma5e5ce42df" d="M 79.671136 -140.194904 
L 79.671136 -140.113125 
L 89.083214 -113.383446 
L 89.083214 -128.315458 
L 89.083214 -128.315458 
L 79.671136 -140.194904 
z
" style="stroke: #ff1200; stroke-opacity: 0.3"/>
    </defs>
    <g clip-path="url(#ped8d7788a5)">
     <use xlink:href="#ma5e5ce42df" x="0" y="288" style="fill: #ff1200; fill-opacity: 0.3; stroke: #ff1200; stroke-opacity: 0.3"/>
    </g>
   </g>
   <g id="FillBetweenPolyCollection_2">
    <defs>
     <path id="m673b0a91ff" d="M 89.083214 -128.315458 
L 89.083214 -113.383446 
L 98.495292 -89.520758 
L 98.495292 -116.802627 
L 98.495292 -116.802627 
L 89.083214 -128.315458 
z
" style="stroke: #ff3b00; stroke-opacity: 0.3"/>
    </defs>
    <g clip-path="url(#ped8d7788a5)">
     <use xlink:href="#m673b0a91ff" x="0" y="288" style="fill: #ff3b00; fill-opacity: 0.3; stroke: #ff3b00; stroke-opacity: 0.3"/>
    </g>
   </g>
   <g id="FillBetweenPolyCollection_3">
    <defs>
     <path id="m285e2cd942" d="M 98.495292 -116.802627 
L 98.495292 -89.520758 
L 107.90737 -71.552693 
L 107.90737 -108.009541 
L 107.90737 -108.009541 
L 98.495292 -116.802627 
z
" style="stroke: #ff6a00; stroke-opacity: 0.3"/>
    </defs>
    <g clip-path="url(#ped8d7788a5)">
     <use xlink:href="#m285e2cd942" x="0" y="288" style="fill: #ff6a00; fill-opacity: 0.3; stroke: #ff6a00; stroke-opacity: 0.3"/>
    </g>
   </g>
   <g id="FillBetweenPolyCollection_4">
    <defs>
     <path id="mb1b213a5e9" d="M 107.90737 -108.009541 
L 107.90737 -71.552693 
L 117.319448 -61.211139 
L 117.319448 -102.79446 
L 117.319448 -102.79446 
L 107.90737 -108.009541 
z
" style="stroke: #ff9400; stroke-opacity: 0.3"/>
    </defs>
    <g clip-path="url(#ped8d7788a5)">
     <use xlink:href="#mb1b213a5e9" x="0" y="288" style="fill: #ff9400; fill-opacity: 0.3; stroke: #ff9400; stroke-opacity: 0.3"/>
    </g>
   </g>
   <g id="FillBetweenPolyCollection_5">
    <defs>
     <path id="mba01d9c0f3" d="M 117.319448 -102.79446 
L 117.319448 -61.211139 
L 126.731526 -56.202497 
L 126.731526 -100.176936 
L 126.731526 -100.176936 
L 117.319448 -102.79446 
z
" style="stroke: #ffbd00; stroke-opacity: 0.3"/>
    </defs>
    <g clip-path="url(#ped8d7788a5)">
     <use xlink:href="#mba01d9c0f3" x="0" y="288" style="fill: #ffbd00; fill-opacity: 0.3; stroke: #ffbd00; stroke-opacity: 0.3"/>
    </g>
   </g>
   <g id="FillBetweenPolyCollection_6">
    <defs>
     <path id="mfa957dc859" d="M 126.731526 -100.176936 
L 126.731526 -56.202497 
L 136.143604 -55.499318 
L 136.143604 -99.666921 
L 136.143604 -99.666921 
L 126.731526 -100.176936 
z
" style="stroke: #ffec00; stroke-opacity: 0.3"/>
    </defs>
    <g clip-path="url(#ped8d7788a5)">
     <use xlink:href="#mfa957dc859" x="0" y="288" style="fill: #ffec00; fill-opacity: 0.3; stroke: #ffec00; stroke-opacity: 0.3"/>
    </g>
   </g>
   <g id="FillBetweenPolyCollection_7">
    <defs>
     <path id="mc978cc145b" d="M 136.143604 -99.666921 
L 136.143604 -55.499318 
L 145.555682 -55.54216 
L 145.555682 -99.674741 
L 145.555682 -99.674741 
L 136.143604 -99.666921 
z
" style="stroke: #e8ff00; stroke-opacity: 0.3"/>
    </defs>
    <g clip-path="url(#ped8d7788a5)">
     <use xlink:href="#mc978cc145b" x="0" y="288" style="fill: #e8ff00; fill-opacity: 0.3; stroke: #e8ff00; stroke-opacity: 0.3"/>
    </g>
   </g>
   <g id="FillBetweenPolyCollection_8">
    <defs>
     <path id="m87ff5544d2" d="M 145.555682 -99.674741 
L 145.555682 -55.54216 
L 154.96776 -55.731562 
L 154.96776 -99.769077 
L 154.96776 -99.769077 
L 145.555682 -99.674741 
z
" style="stroke: #bfff00; stroke-opacity: 0.3"/>
    </defs>
    <g clip-path="url(#ped8d7788a5)">
     <use xlink:href="#m87ff5544d2" x="0" y="288" style="fill: #bfff00; fill-opacity: 0.3; stroke: #bfff00; stroke-opacity: 0.3"/>
    </g>
   </g>
   <g id="FillBetweenPolyCollection_9">
    <defs>
     <path id="mfea2c9666b" d="M 154.96776 -99.769077 
L 154.96776 -55.731562 
L 164.379838 -55.874807 
L 164.379838 -99.849312 
L 164.379838 -99.849312 
L 154.96776 -99.769077 
z
" style="stroke: #90ff00; stroke-opacity: 0.3"/>
    </defs>
    <g clip-path="url(#ped8d7788a5)">
     <use xlink:href="#mfea2c9666b" x="0" y="288" style="fill: #90ff00; fill-opacity: 0.3; stroke: #90ff00; stroke-opacity: 0.3"/>
    </g>
   </g>
   <g id="FillBetweenPolyCollection_10">
    <defs>
     <path id="m74c0fafec3" d="M 164.379838 -99.849312 
L 164.379838 -55.874807 
L 173.791916 -55.880337 
L 173.791916 -99.832689 
L 173.791916 -99.832689 
L 164.379838 -99.849312 
z
" style="stroke: #66ff00; stroke-opacity: 0.3"/>
    </defs>
    <g clip-path="url(#ped8d7788a5)">
     <use xlink:href="#m74c0fafec3" x="0" y="288" style="fill: #66ff00; fill-opacity: 0.3; stroke: #66ff00; stroke-opacity: 0.3"/>
    </g>
   </g>
   <g id="FillBetweenPolyCollection_11">
    <defs>
     <path id="m64483dcbf2" d="M 173.791916 -99.832689 
L 173.791916 -55.880337 
L 183.203994 -56.164011 
L 183.203994 -99.881193 
L 183.203994 -99.881193 
L 173.791916 -99.832689 
z
" style="stroke: #3dff00; stroke-opacity: 0.3"/>
    </defs>
    <g clip-path="url(#ped8d7788a5)">
     <use xlink:href="#m64483dcbf2" x="0" y="288" style="fill: #3dff00; fill-opacity: 0.3; stroke: #3dff00; stroke-opacity: 0.3"/>
    </g>
   </g>
   <g id="FillBetweenPolyCollection_12">
    <defs>
     <path id="m28f8c70da1" d="M 183.203994 -99.881193 
L 183.203994 -56.164011 
L 192.616071 -56.780237 
L 192.616071 -100.048681 
L 192.616071 -100.048681 
L 183.203994 -99.881193 
z
" style="stroke: #0eff00; stroke-opacity: 0.3"/>
    </defs>
    <g clip-path="url(#ped8d7788a5)">
     <use xlink:href="#m28f8c70da1" x="0" y="288" style="fill: #0eff00; fill-opacity: 0.3; stroke: #0eff00; stroke-opacity: 0.3"/>
    </g>
   </g>
   <g id="FillBetweenPolyCollection_13">
    <defs>
     <path id="m78a448b03b" d="M 192.616071 -100.048681 
L 192.616071 -56.780237 
L 202.028149 -58.168047 
L 202.028149 -100.562072 
L 202.028149 -100.562072 
L 192.616071 -100.048681 
z
" style="stroke: #00ff1b; stroke-opacity: 0.3"/>
    </defs>
    <g clip-path="url(#ped8d7788a5)">
     <use xlink:href="#m78a448b03b" x="0" y="288" style="fill: #00ff1b; fill-opacity: 0.3; stroke: #00ff1b; stroke-opacity: 0.3"/>
    </g>
   </g>
   <g id="FillBetweenPolyCollection_14">
    <defs>
     <path id="mcb83356898" d="M 202.028149 -100.562072 
L 202.028149 -58.168047 
L 211.440227 -63.567782 
L 211.440227 -102.914983 
L 211.440227 -102.914983 
L 202.028149 -100.562072 
z
" style="stroke: #00ff45; stroke-opacity: 0.3"/>
    </defs>
    <g clip-path="url(#ped8d7788a5)">
     <use xlink:href="#mcb83356898" x="0" y="288" style="fill: #00ff45; fill-opacity: 0.3; stroke: #00ff45; stroke-opacity: 0.3"/>
    </g>
   </g>
   <g id="FillBetweenPolyCollection_15">
    <defs>
     <path id="m0d32b03cc4" d="M 211.440227 -102.914983 
L 211.440227 -63.567782 
L 220.852305 -73.535528 
L 220.852305 -107.521547 
L 220.852305 -107.521547 
L 211.440227 -102.914983 
z
" style="stroke: #00ff74; stroke-opacity: 0.3"/>
    </defs>
    <g clip-path="url(#ped8d7788a5)">
     <use xlink:href="#m0d32b03cc4" x="0" y="288" style="fill: #00ff74; fill-opacity: 0.3; stroke: #00ff74; stroke-opacity: 0.3"/>
    </g>
   </g>
   <g id="FillBetweenPolyCollection_16">
    <defs>
     <path id="m89b5415834" d="M 220.852305 -107.521547 
L 220.852305 -73.535528 
L 230.264383 -90.745531 
L 230.264383 -115.561893 
L 230.264383 -115.561893 
L 220.852305 -107.521547 
z
" style="stroke: #00ff9d; stroke-opacity: 0.3"/>
    </defs>
    <g clip-path="url(#ped8d7788a5)">
     <use xlink:href="#m89b5415834" x="0" y="288" style="fill: #00ff9d; fill-opacity: 0.3; stroke: #00ff9d; stroke-opacity: 0.3"/>
    </g>
   </g>
   <g id="FillBetweenPolyCollection_17">
    <defs>
     <path id="m188a594dee" d="M 230.264383 -115.561893 
L 230.264383 -90.745531 
L 239.676461 -113.757227 
L 239.676461 -126.471791 
L 239.676461 -126.471791 
L 230.264383 -115.561893 
z
" style="stroke: #00ffc7; stroke-opacity: 0.3"/>
    </defs>
    <g clip-path="url(#ped8d7788a5)">
     <use xlink:href="#m188a594dee" x="0" y="288" style="fill: #00ffc7; fill-opacity: 0.3; stroke: #00ffc7; stroke-opacity: 0.3"/>
    </g>
   </g>
   <g id="FillBetweenPolyCollection_18">
    <defs>
     <path id="m66b5f45534" d="M 239.676461 -126.471791 
L 239.676461 -113.757227 
L 249.088539 -138.9417 
L 249.088539 -139.757571 
L 249.088539 -139.757571 
L 239.676461 -126.471791 
z
" style="stroke: #00fff6; stroke-opacity: 0.3"/>
    </defs>
    <g clip-path="url(#ped8d7788a5)">
     <use xlink:href="#m66b5f45534" x="0" y="288" style="fill: #00fff6; fill-opacity: 0.3; stroke: #00fff6; stroke-opacity: 0.3"/>
    </g>
   </g>
   <g id="FillBetweenPolyCollection_19">
    <defs>
     <path id="m0da5666fef" d="M 249.088539 -139.757571 
L 249.088539 -138.9417 
L 258.500617 -151.539427 
L 258.500617 -165.795239 
L 258.500617 -165.795239 
L 249.088539 -139.757571 
z
" style="stroke: #00dfff; stroke-opacity: 0.3"/>
    </defs>
    <g clip-path="url(#ped8d7788a5)">
     <use xlink:href="#m0da5666fef" x="0" y="288" style="fill: #00dfff; fill-opacity: 0.3; stroke: #00dfff; stroke-opacity: 0.3"/>
    </g>
   </g>
   <g id="FillBetweenPolyCollection_20">
    <defs>
     <path id="mfa5ecea3fb" d="M 258.500617 -165.795239 
L 258.500617 -151.539427 
L 267.912695 -162.827024 
L 267.912695 -188.917403 
L 267.912695 -188.917403 
L 258.500617 -165.795239 
z
" style="stroke: #00b5ff; stroke-opacity: 0.3"/>
    </defs>
    <g clip-path="url(#ped8d7788a5)">
     <use xlink:href="#mfa5ecea3fb" x="0" y="288" style="fill: #00b5ff; fill-opacity: 0.3; stroke: #00b5ff; stroke-opacity: 0.3"/>
    </g>
   </g>
   <g id="FillBetweenPolyCollection_21">
    <defs>
     <path id="mefc3fb7ff2" d="M 267.912695 -188.917403 
L 267.912695 -162.827024 
L 277.324773 -171.43146 
L 277.324773 -206.290685 
L 277.324773 -206.290685 
L 267.912695 -188.917403 
z
" style="stroke: #008cff; stroke-opacity: 0.3"/>
    </defs>
    <g clip-path="url(#ped8d7788a5)">
     <use xlink:href="#mefc3fb7ff2" x="0" y="288" style="fill: #008cff; fill-opacity: 0.3; stroke: #008cff; stroke-opacity: 0.3"/>
    </g>
   </g>
   <g id="FillBetweenPolyCollection_22">
    <defs>
     <path id="mac35ce0533" d="M 277.324773 -206.290685 
L 277.324773 -171.43146 
L 286.736851 -176.54996 
L 286.736851 -216.392325 
L 286.736851 -216.392325 
L 277.324773 -206.290685 
z
" style="stroke: #005dff; stroke-opacity: 0.3"/>
    </defs>
    <g clip-path="url(#ped8d7788a5)">
     <use xlink:href="#mac35ce0533" x="0" y="288" style="fill: #005dff; fill-opacity: 0.3; stroke: #005dff; stroke-opacity: 0.3"/>
    </g>
   </g>
   <g id="FillBetweenPolyCollection_23">
    <defs>
     <path id="mc61f74e920" d="M 286.736851 -216.392325 
L 286.736851 -176.54996 
L 296.148929 -179.275921 
L 296.148929 -221.876853 
L 296.148929 -221.876853 
L 286.736851 -216.392325 
z
" style="stroke: #0033ff; stroke-opacity: 0.3"/>
    </defs>
    <g clip-path="url(#ped8d7788a5)">
     <use xlink:href="#mc61f74e920" x="0" y="288" style="fill: #0033ff; fill-opacity: 0.3; stroke: #0033ff; stroke-opacity: 0.3"/>
    </g>
   </g>
   <g id="FillBetweenPolyCollection_24">
    <defs>
     <path id="m72ba6aad99" d="M 296.148929 -221.876853 
L 296.148929 -179.275921 
L 305.561006 -179.995905 
L 305.561006 -223.31209 
L 305.561006 -223.31209 
L 296.148929 -221.876853 
z
" style="stroke: #020cff; stroke-opacity: 0.3"/>
    </defs>
    <g clip-path="url(#ped8d7788a5)">
     <use xlink:href="#m72ba6aad99" x="0" y="288" style="fill: #020cff; fill-opacity: 0.3; stroke: #020cff; stroke-opacity: 0.3"/>
    </g>
   </g>
   <g id="FillBetweenPolyCollection_25">
    <defs>
     <path id="m4a94756f4a" d="M 305.561006 -223.31209 
L 305.561006 -179.995905 
L 314.973084 -180.206237 
L 314.973084 -223.940964 
L 314.973084 -223.940964 
L 305.561006 -223.31209 
z
" style="stroke: #2500ff; stroke-opacity: 0.3"/>
    </defs>
    <g clip-path="url(#ped8d7788a5)">
     <use xlink:href="#m4a94756f4a" x="0" y="288" style="fill: #2500ff; fill-opacity: 0.3; stroke: #2500ff; stroke-opacity: 0.3"/>
    </g>
   </g>
   <g id="FillBetweenPolyCollection_26">
    <defs>
     <path id="mc853ead631" d="M 314.973084 -223.940964 
L 314.973084 -180.206237 
L 324.385162 -180.274506 
L 324.385162 -224.235865 
L 324.385162 -224.235865 
L 314.973084 -223.940964 
z
" style="stroke: #4f00ff; stroke-opacity: 0.3"/>
    </defs>
    <g clip-path="url(#ped8d7788a5)">
     <use xlink:href="#mc853ead631" x="0" y="288" style="fill: #4f00ff; fill-opacity: 0.3; stroke: #4f00ff; stroke-opacity: 0.3"/>
    </g>
   </g>
   <g id="FillBetweenPolyCollection_27">
    <defs>
     <path id="m32ea1c7d9c" d="M 324.385162 -224.235865 
L 324.385162 -180.274506 
L 333.79724 -180.256714 
L 333.79724 -224.240193 
L 333.79724 -224.240193 
L 324.385162 -224.235865 
z
" style="stroke: #7800ff; stroke-opacity: 0.3"/>
    </defs>
    <g clip-path="url(#ped8d7788a5)">
     <use xlink:href="#m32ea1c7d9c" x="0" y="288" style="fill: #7800ff; fill-opacity: 0.3; stroke: #7800ff; stroke-opacity: 0.3"/>
    </g>
   </g>
   <g id="FillBetweenPolyCollection_28">
    <defs>
     <path id="m7d75463f27" d="M 333.79724 -224.240193 
L 333.79724 -180.256714 
L 343.209318 -180.316851 
L 343.209318 -224.368948 
L 343.209318 -224.368948 
L 333.79724 -224.240193 
z
" style="stroke: #a700ff; stroke-opacity: 0.3"/>
    </defs>
    <g clip-path="url(#ped8d7788a5)">
     <use xlink:href="#m7d75463f27" x="0" y="288" style="fill: #a700ff; fill-opacity: 0.3; stroke: #a700ff; stroke-opacity: 0.3"/>
    </g>
   </g>
   <g id="FillBetweenPolyCollection_29">
    <defs>
     <path id="m7f026fdad5" d="M 343.209318 -224.368948 
L 343.209318 -180.316851 
L 352.621396 -180.396196 
L 352.621396 -224.544593 
L 352.621396 -224.544593 
L 343.209318 -224.368948 
z
" style="stroke: #d000ff; stroke-opacity: 0.3"/>
    </defs>
    <g clip-path="url(#ped8d7788a5)">
     <use xlink:href="#m7f026fdad5" x="0" y="288" style="fill: #d000ff; fill-opacity: 0.3; stroke: #d000ff; stroke-opacity: 0.3"/>
    </g>
   </g>
   <g id="FillBetweenPolyCollection_30">
    <defs>
     <path id="ma35a4740f6" d="M 352.621396 -224.544593 
L 352.621396 -180.396196 
L 362.033474 -180.425805 
L 362.033474 -224.585682 
L 362.033474 -224.585682 
L 352.621396 -224.544593 
z
" style="stroke: #f800fd; stroke-opacity: 0.3"/>
    </defs>
    <g clip-path="url(#ped8d7788a5)">
     <use xlink:href="#ma35a4740f6" x="0" y="288" style="fill: #f800fd; fill-opacity: 0.3; stroke: #f800fd; stroke-opacity: 0.3"/>
    </g>
   </g>
   <g id="FillBetweenPolyCollection_31">
    <defs>
     <path id="m5b664f8158" d="M 362.033474 -224.585682 
L 362.033474 -180.425805 
L 371.445552 -180.141073 
L 371.445552 -223.948214 
L 371.445552 -223.948214 
L 362.033474 -224.585682 
z
" style="stroke: #ff00d5; stroke-opacity: 0.3"/>
    </defs>
    <g clip-path="url(#ped8d7788a5)">
     <use xlink:href="#m5b664f8158" x="0" y="288" style="fill: #ff00d5; fill-opacity: 0.3; stroke: #ff00d5; stroke-opacity: 0.3"/>
    </g>
   </g>
   <g id="FillBetweenPolyCollection_32">
    <defs>
     <path id="m37774e7eb5" d="M 371.445552 -223.948214 
L 371.445552 -180.141073 
L 380.85763 -177.969745 
L 380.85763 -219.071427 
L 380.85763 -219.071427 
L 371.445552 -223.948214 
z
" style="stroke: #ff00ac; stroke-opacity: 0.3"/>
    </defs>
    <g clip-path="url(#ped8d7788a5)">
     <use xlink:href="#m37774e7eb5" x="0" y="288" style="fill: #ff00ac; fill-opacity: 0.3; stroke: #ff00ac; stroke-opacity: 0.3"/>
    </g>
   </g>
   <g id="FillBetweenPolyCollection_33">
    <defs>
     <path id="m1aeb634770" d="M 380.85763 -219.071427 
L 380.85763 -177.969745 
L 390.269708 -173.326614 
L 390.269708 -208.882171 
L 390.269708 -208.882171 
L 380.85763 -219.071427 
z
" style="stroke: #ff0082; stroke-opacity: 0.3"/>
    </defs>
    <g clip-path="url(#ped8d7788a5)">
     <use xlink:href="#m1aeb634770" x="0" y="288" style="fill: #ff0082; fill-opacity: 0.3; stroke: #ff0082; stroke-opacity: 0.3"/>
    </g>
   </g>
   <g id="FillBetweenPolyCollection_34">
    <defs>
     <path id="maee8687180" d="M 390.269708 -208.882171 
L 390.269708 -173.326614 
L 399.681786 -165.105058 
L 399.681786 -191.050745 
L 399.681786 -191.050745 
L 390.269708 -208.882171 
z
" style="stroke: #ff0053; stroke-opacity: 0.3"/>
    </defs>
    <g clip-path="url(#ped8d7788a5)">
     <use xlink:href="#maee8687180" x="0" y="288" style="fill: #ff0053; fill-opacity: 0.3; stroke: #ff0053; stroke-opacity: 0.3"/>
    </g>
   </g>
   <g id="FillBetweenPolyCollection_35">
    <defs>
     <path id="mbbc0a4eb1c" d="M 399.681786 -191.050745 
L 399.681786 -165.105058 
L 409.093864 -153.963764 
L 409.093864 -167.273558 
L 409.093864 -167.273558 
L 399.681786 -191.050745 
z
" style="stroke: #ff002a; stroke-opacity: 0.3"/>
    </defs>
    <g clip-path="url(#ped8d7788a5)">
     <use xlink:href="#mbbc0a4eb1c" x="0" y="288" style="fill: #ff002a; fill-opacity: 0.3; stroke: #ff002a; stroke-opacity: 0.3"/>
    </g>
   </g>
   <g id="matplotlib.axis_1">
    <g id="xtick_1">
     <g id="line2d_1">
      <defs>
       <path id="ma6db86476e" d="M 0 0 
L 0 3.5 
" style="stroke: #000000; stroke-width: 0.8"/>
      </defs>
      <g>
       <use xlink:href="#ma6db86476e" x="79.671136" y="240.955" style="stroke: #000000; stroke-width: 0.8"/>
      </g>
     </g>
     <g id="text_1">
      <!-- 0 -->
      <g transform="translate(76.671136 256.2875) scale(0.12 -0.12)">
       <defs>
        <path id="TimesNewRomanPSMT-30" d="M 231 2094 
Q 231 2819 450 3342 
Q 669 3866 1031 4122 
Q 1313 4325 1613 4325 
Q 2100 4325 2488 3828 
Q 2972 3213 2972 2159 
Q 2972 1422 2759 906 
Q 2547 391 2217 158 
Q 1888 -75 1581 -75 
Q 975 -75 572 641 
Q 231 1244 231 2094 
z
M 844 2016 
Q 844 1141 1059 588 
Q 1238 122 1591 122 
Q 1759 122 1940 273 
Q 2122 425 2216 781 
Q 2359 1319 2359 2297 
Q 2359 3022 2209 3506 
Q 2097 3866 1919 4016 
Q 1791 4119 1609 4119 
Q 1397 4119 1231 3928 
Q 1006 3669 925 3112 
Q 844 2556 844 2016 
z
" transform="scale(0.015625)"/>
       </defs>
       <use xlink:href="#TimesNewRomanPSMT-30"/>
      </g>
     </g>
    </g>
    <g id="xtick_2">
     <g id="line2d_2">
      <g>
       <use xlink:href="#ma6db86476e" x="126.731526" y="240.955" style="stroke: #000000; stroke-width: 0.8"/>
      </g>
     </g>
     <g id="text_2">
      <!-- 50 -->
      <g transform="translate(120.731526 256.2875) scale(0.12 -0.12)">
       <defs>
        <path id="TimesNewRomanPSMT-35" d="M 2778 4238 
L 2534 3706 
L 1259 3706 
L 981 3138 
Q 1809 3016 2294 2522 
Q 2709 2097 2709 1522 
Q 2709 1188 2573 903 
Q 2438 619 2231 419 
Q 2025 219 1772 97 
Q 1413 -75 1034 -75 
Q 653 -75 479 54 
Q 306 184 306 341 
Q 306 428 378 495 
Q 450 563 559 563 
Q 641 563 702 538 
Q 763 513 909 409 
Q 1144 247 1384 247 
Q 1750 247 2026 523 
Q 2303 800 2303 1197 
Q 2303 1581 2056 1914 
Q 1809 2247 1375 2428 
Q 1034 2569 447 2591 
L 1259 4238 
L 2778 4238 
z
" transform="scale(0.015625)"/>
       </defs>
       <use xlink:href="#TimesNewRomanPSMT-35"/>
       <use xlink:href="#TimesNewRomanPSMT-30" transform="translate(50 0)"/>
      </g>
     </g>
    </g>
    <g id="xtick_3">
     <g id="line2d_3">
      <g>
       <use xlink:href="#ma6db86476e" x="173.791916" y="240.955" style="stroke: #000000; stroke-width: 0.8"/>
      </g>
     </g>
     <g id="text_3">
      <!-- 100 -->
      <g transform="translate(164.791916 256.2875) scale(0.12 -0.12)">
       <defs>
        <path id="TimesNewRomanPSMT-31" d="M 750 3822 
L 1781 4325 
L 1884 4325 
L 1884 747 
Q 1884 391 1914 303 
Q 1944 216 2037 169 
Q 2131 122 2419 116 
L 2419 0 
L 825 0 
L 825 116 
Q 1125 122 1212 167 
Q 1300 213 1334 289 
Q 1369 366 1369 747 
L 1369 3034 
Q 1369 3497 1338 3628 
Q 1316 3728 1258 3775 
Q 1200 3822 1119 3822 
Q 1003 3822 797 3725 
L 750 3822 
z
" transform="scale(0.015625)"/>
       </defs>
       <use xlink:href="#TimesNewRomanPSMT-31"/>
       <use xlink:href="#TimesNewRomanPSMT-30" transform="translate(50 0)"/>
       <use xlink:href="#TimesNewRomanPSMT-30" transform="translate(100 0)"/>
      </g>
     </g>
    </g>
    <g id="xtick_4">
     <g id="line2d_4">
      <g>
       <use xlink:href="#ma6db86476e" x="220.852305" y="240.955" style="stroke: #000000; stroke-width: 0.8"/>
      </g>
     </g>
     <g id="text_4">
      <!-- 150 -->
      <g transform="translate(211.852305 256.2875) scale(0.12 -0.12)">
       <use xlink:href="#TimesNewRomanPSMT-31"/>
       <use xlink:href="#TimesNewRomanPSMT-35" transform="translate(50 0)"/>
       <use xlink:href="#TimesNewRomanPSMT-30" transform="translate(100 0)"/>
      </g>
     </g>
    </g>
    <g id="xtick_5">
     <g id="line2d_5">
      <g>
       <use xlink:href="#ma6db86476e" x="267.912695" y="240.955" style="stroke: #000000; stroke-width: 0.8"/>
      </g>
     </g>
     <g id="text_5">
      <!-- 200 -->
      <g transform="translate(258.912695 256.2875) scale(0.12 -0.12)">
       <defs>
        <path id="TimesNewRomanPSMT-32" d="M 2934 816 
L 2638 0 
L 138 0 
L 138 116 
Q 1241 1122 1691 1759 
Q 2141 2397 2141 2925 
Q 2141 3328 1894 3587 
Q 1647 3847 1303 3847 
Q 991 3847 742 3664 
Q 494 3481 375 3128 
L 259 3128 
Q 338 3706 661 4015 
Q 984 4325 1469 4325 
Q 1984 4325 2329 3994 
Q 2675 3663 2675 3213 
Q 2675 2891 2525 2569 
Q 2294 2063 1775 1497 
Q 997 647 803 472 
L 1909 472 
Q 2247 472 2383 497 
Q 2519 522 2628 598 
Q 2738 675 2819 816 
L 2934 816 
z
" transform="scale(0.015625)"/>
       </defs>
       <use xlink:href="#TimesNewRomanPSMT-32"/>
       <use xlink:href="#TimesNewRomanPSMT-30" transform="translate(50 0)"/>
       <use xlink:href="#TimesNewRomanPSMT-30" transform="translate(100 0)"/>
      </g>
     </g>
    </g>
    <g id="xtick_6">
     <g id="line2d_6">
      <g>
       <use xlink:href="#ma6db86476e" x="314.973084" y="240.955" style="stroke: #000000; stroke-width: 0.8"/>
      </g>
     </g>
     <g id="text_6">
      <!-- 250 -->
      <g transform="translate(305.973084 256.2875) scale(0.12 -0.12)">
       <use xlink:href="#TimesNewRomanPSMT-32"/>
       <use xlink:href="#TimesNewRomanPSMT-35" transform="translate(50 0)"/>
       <use xlink:href="#TimesNewRomanPSMT-30" transform="translate(100 0)"/>
      </g>
     </g>
    </g>
    <g id="xtick_7">
     <g id="line2d_7">
      <g>
       <use xlink:href="#ma6db86476e" x="362.033474" y="240.955" style="stroke: #000000; stroke-width: 0.8"/>
      </g>
     </g>
     <g id="text_7">
      <!-- 300 -->
      <g transform="translate(353.033474 256.2875) scale(0.12 -0.12)">
       <defs>
        <path id="TimesNewRomanPSMT-33" d="M 325 3431 
Q 506 3859 782 4092 
Q 1059 4325 1472 4325 
Q 1981 4325 2253 3994 
Q 2459 3747 2459 3466 
Q 2459 3003 1878 2509 
Q 2269 2356 2469 2072 
Q 2669 1788 2669 1403 
Q 2669 853 2319 450 
Q 1863 -75 997 -75 
Q 569 -75 414 31 
Q 259 138 259 259 
Q 259 350 332 419 
Q 406 488 509 488 
Q 588 488 669 463 
Q 722 447 909 348 
Q 1097 250 1169 231 
Q 1284 197 1416 197 
Q 1734 197 1970 444 
Q 2206 691 2206 1028 
Q 2206 1275 2097 1509 
Q 2016 1684 1919 1775 
Q 1784 1900 1550 2001 
Q 1316 2103 1072 2103 
L 972 2103 
L 972 2197 
Q 1219 2228 1467 2375 
Q 1716 2522 1828 2728 
Q 1941 2934 1941 3181 
Q 1941 3503 1739 3701 
Q 1538 3900 1238 3900 
Q 753 3900 428 3381 
L 325 3431 
z
" transform="scale(0.015625)"/>
       </defs>
       <use xlink:href="#TimesNewRomanPSMT-33"/>
       <use xlink:href="#TimesNewRomanPSMT-30" transform="translate(50 0)"/>
       <use xlink:href="#TimesNewRomanPSMT-30" transform="translate(100 0)"/>
      </g>
     </g>
    </g>
    <g id="xtick_8">
     <g id="line2d_8">
      <g>
       <use xlink:href="#ma6db86476e" x="409.093864" y="240.955" style="stroke: #000000; stroke-width: 0.8"/>
      </g>
     </g>
     <g id="text_8">
      <!-- 350 -->
      <g transform="translate(400.093864 256.2875) scale(0.12 -0.12)">
       <use xlink:href="#TimesNewRomanPSMT-33"/>
       <use xlink:href="#TimesNewRomanPSMT-35" transform="translate(50 0)"/>
       <use xlink:href="#TimesNewRomanPSMT-30" transform="translate(100 0)"/>
      </g>
     </g>
    </g>
    <g id="text_9">
     <!-- Wind angle (deg) -->
     <g transform="translate(202.639375 271.186875) scale(0.12 -0.12)">
      <defs>
       <path id="TimesNewRomanPSMT-57" d="M 5991 4238 
L 5991 4122 
Q 5825 4122 5722 4062 
Q 5619 4003 5525 3841 
Q 5463 3731 5328 3319 
L 4147 -97 
L 4022 -97 
L 3056 2613 
L 2097 -97 
L 1984 -97 
L 725 3422 
Q 584 3816 547 3888 
Q 484 4006 376 4064 
Q 269 4122 84 4122 
L 84 4238 
L 1653 4238 
L 1653 4122 
L 1578 4122 
Q 1413 4122 1325 4047 
Q 1238 3972 1238 3866 
Q 1238 3756 1375 3363 
L 2209 984 
L 2913 3006 
L 2788 3363 
L 2688 3647 
Q 2622 3803 2541 3922 
Q 2500 3981 2441 4022 
Q 2363 4078 2284 4103 
Q 2225 4122 2097 4122 
L 2097 4238 
L 3747 4238 
L 3747 4122 
L 3634 4122 
Q 3459 4122 3378 4047 
Q 3297 3972 3297 3844 
Q 3297 3684 3438 3288 
L 4250 984 
L 5056 3319 
Q 5194 3706 5194 3856 
Q 5194 3928 5148 3990 
Q 5103 4053 5034 4078 
Q 4916 4122 4725 4122 
L 4725 4238 
L 5991 4238 
z
" transform="scale(0.015625)"/>
       <path id="TimesNewRomanPSMT-69" d="M 928 4444 
Q 1059 4444 1151 4351 
Q 1244 4259 1244 4128 
Q 1244 3997 1151 3903 
Q 1059 3809 928 3809 
Q 797 3809 703 3903 
Q 609 3997 609 4128 
Q 609 4259 701 4351 
Q 794 4444 928 4444 
z
M 1188 2947 
L 1188 647 
Q 1188 378 1227 289 
Q 1266 200 1342 156 
Q 1419 113 1622 113 
L 1622 0 
L 231 0 
L 231 113 
Q 441 113 512 153 
Q 584 194 626 287 
Q 669 381 669 647 
L 669 1750 
Q 669 2216 641 2353 
Q 619 2453 572 2492 
Q 525 2531 444 2531 
Q 356 2531 231 2484 
L 188 2597 
L 1050 2947 
L 1188 2947 
z
" transform="scale(0.015625)"/>
       <path id="TimesNewRomanPSMT-6e" d="M 1034 2341 
Q 1538 2947 1994 2947 
Q 2228 2947 2397 2830 
Q 2566 2713 2666 2444 
Q 2734 2256 2734 1869 
L 2734 647 
Q 2734 375 2778 278 
Q 2813 200 2889 156 
Q 2966 113 3172 113 
L 3172 0 
L 1756 0 
L 1756 113 
L 1816 113 
Q 2016 113 2095 173 
Q 2175 234 2206 353 
Q 2219 400 2219 647 
L 2219 1819 
Q 2219 2209 2117 2386 
Q 2016 2563 1775 2563 
Q 1403 2563 1034 2156 
L 1034 647 
Q 1034 356 1069 288 
Q 1113 197 1189 155 
Q 1266 113 1500 113 
L 1500 0 
L 84 0 
L 84 113 
L 147 113 
Q 366 113 442 223 
Q 519 334 519 647 
L 519 1709 
Q 519 2225 495 2337 
Q 472 2450 423 2490 
Q 375 2531 294 2531 
Q 206 2531 84 2484 
L 38 2597 
L 900 2947 
L 1034 2947 
L 1034 2341 
z
" transform="scale(0.015625)"/>
       <path id="TimesNewRomanPSMT-64" d="M 2222 322 
Q 2013 103 1813 7 
Q 1613 -88 1381 -88 
Q 913 -88 563 304 
Q 213 697 213 1313 
Q 213 1928 600 2439 
Q 988 2950 1597 2950 
Q 1975 2950 2222 2709 
L 2222 3238 
Q 2222 3728 2198 3840 
Q 2175 3953 2125 3993 
Q 2075 4034 2000 4034 
Q 1919 4034 1784 3984 
L 1744 4094 
L 2597 4444 
L 2738 4444 
L 2738 1134 
Q 2738 631 2761 520 
Q 2784 409 2836 365 
Q 2888 322 2956 322 
Q 3041 322 3181 375 
L 3216 266 
L 2366 -88 
L 2222 -88 
L 2222 322 
z
M 2222 541 
L 2222 2016 
Q 2203 2228 2109 2403 
Q 2016 2578 1861 2667 
Q 1706 2756 1559 2756 
Q 1284 2756 1069 2509 
Q 784 2184 784 1559 
Q 784 928 1059 592 
Q 1334 256 1672 256 
Q 1956 256 2222 541 
z
" transform="scale(0.015625)"/>
       <path id="TimesNewRomanPSMT-20" transform="scale(0.015625)"/>
       <path id="TimesNewRomanPSMT-61" d="M 1822 413 
Q 1381 72 1269 19 
Q 1100 -59 909 -59 
Q 613 -59 420 144 
Q 228 347 228 678 
Q 228 888 322 1041 
Q 450 1253 767 1440 
Q 1084 1628 1822 1897 
L 1822 2009 
Q 1822 2438 1686 2597 
Q 1550 2756 1291 2756 
Q 1094 2756 978 2650 
Q 859 2544 859 2406 
L 866 2225 
Q 866 2081 792 2003 
Q 719 1925 600 1925 
Q 484 1925 411 2006 
Q 338 2088 338 2228 
Q 338 2497 613 2722 
Q 888 2947 1384 2947 
Q 1766 2947 2009 2819 
Q 2194 2722 2281 2516 
Q 2338 2381 2338 1966 
L 2338 994 
Q 2338 584 2353 492 
Q 2369 400 2405 369 
Q 2441 338 2488 338 
Q 2538 338 2575 359 
Q 2641 400 2828 588 
L 2828 413 
Q 2478 -56 2159 -56 
Q 2006 -56 1915 50 
Q 1825 156 1822 413 
z
M 1822 616 
L 1822 1706 
Q 1350 1519 1213 1441 
Q 966 1303 859 1153 
Q 753 1003 753 825 
Q 753 600 887 451 
Q 1022 303 1197 303 
Q 1434 303 1822 616 
z
" transform="scale(0.015625)"/>
       <path id="TimesNewRomanPSMT-67" d="M 966 1044 
Q 703 1172 562 1401 
Q 422 1631 422 1909 
Q 422 2334 742 2640 
Q 1063 2947 1563 2947 
Q 1972 2947 2272 2747 
L 2878 2747 
Q 3013 2747 3034 2739 
Q 3056 2731 3066 2713 
Q 3084 2684 3084 2613 
Q 3084 2531 3069 2500 
Q 3059 2484 3036 2475 
Q 3013 2466 2878 2466 
L 2506 2466 
Q 2681 2241 2681 1891 
Q 2681 1491 2375 1206 
Q 2069 922 1553 922 
Q 1341 922 1119 984 
Q 981 866 932 777 
Q 884 688 884 625 
Q 884 572 936 522 
Q 988 472 1138 450 
Q 1225 438 1575 428 
Q 2219 413 2409 384 
Q 2700 344 2873 169 
Q 3047 -6 3047 -263 
Q 3047 -616 2716 -925 
Q 2228 -1381 1444 -1381 
Q 841 -1381 425 -1109 
Q 191 -953 191 -784 
Q 191 -709 225 -634 
Q 278 -519 444 -313 
Q 466 -284 763 25 
Q 600 122 533 198 
Q 466 275 466 372 
Q 466 481 555 628 
Q 644 775 966 1044 
z
M 1509 2797 
Q 1278 2797 1122 2612 
Q 966 2428 966 2047 
Q 966 1553 1178 1281 
Q 1341 1075 1591 1075 
Q 1828 1075 1981 1253 
Q 2134 1431 2134 1813 
Q 2134 2309 1919 2591 
Q 1759 2797 1509 2797 
z
M 934 0 
Q 788 -159 713 -296 
Q 638 -434 638 -550 
Q 638 -700 819 -813 
Q 1131 -1006 1722 -1006 
Q 2284 -1006 2551 -807 
Q 2819 -609 2819 -384 
Q 2819 -222 2659 -153 
Q 2497 -84 2016 -72 
Q 1313 -53 934 0 
z
" transform="scale(0.015625)"/>
       <path id="TimesNewRomanPSMT-6c" d="M 1184 4444 
L 1184 647 
Q 1184 378 1223 290 
Q 1263 203 1344 158 
Q 1425 113 1647 113 
L 1647 0 
L 244 0 
L 244 113 
Q 441 113 512 153 
Q 584 194 625 287 
Q 666 381 666 647 
L 666 3247 
Q 666 3731 644 3842 
Q 622 3953 573 3993 
Q 525 4034 450 4034 
Q 369 4034 244 3984 
L 191 4094 
L 1044 4444 
L 1184 4444 
z
" transform="scale(0.015625)"/>
       <path id="TimesNewRomanPSMT-65" d="M 681 1784 
Q 678 1147 991 784 
Q 1303 422 1725 422 
Q 2006 422 2214 576 
Q 2422 731 2563 1106 
L 2659 1044 
Q 2594 616 2278 264 
Q 1963 -88 1488 -88 
Q 972 -88 605 314 
Q 238 716 238 1394 
Q 238 2128 614 2539 
Q 991 2950 1559 2950 
Q 2041 2950 2350 2633 
Q 2659 2316 2659 1784 
L 681 1784 
z
M 681 1966 
L 2006 1966 
Q 1991 2241 1941 2353 
Q 1863 2528 1708 2628 
Q 1553 2728 1384 2728 
Q 1125 2728 920 2526 
Q 716 2325 681 1966 
z
" transform="scale(0.015625)"/>
       <path id="TimesNewRomanPSMT-28" d="M 1988 -1253 
L 1988 -1369 
Q 1516 -1131 1200 -813 
Q 750 -359 506 256 
Q 263 872 263 1534 
Q 263 2503 741 3301 
Q 1219 4100 1988 4444 
L 1988 4313 
Q 1603 4100 1356 3731 
Q 1109 3363 987 2797 
Q 866 2231 866 1616 
Q 866 947 969 400 
Q 1050 -31 1165 -292 
Q 1281 -553 1476 -793 
Q 1672 -1034 1988 -1253 
z
" transform="scale(0.015625)"/>
       <path id="TimesNewRomanPSMT-29" d="M 144 4313 
L 144 4444 
Q 619 4209 934 3891 
Q 1381 3434 1625 2820 
Q 1869 2206 1869 1541 
Q 1869 572 1392 -226 
Q 916 -1025 144 -1369 
L 144 -1253 
Q 528 -1038 776 -670 
Q 1025 -303 1145 264 
Q 1266 831 1266 1447 
Q 1266 2113 1163 2663 
Q 1084 3094 967 3353 
Q 850 3613 656 3853 
Q 463 4094 144 4313 
z
" transform="scale(0.015625)"/>
      </defs>
      <use xlink:href="#TimesNewRomanPSMT-57"/>
      <use xlink:href="#TimesNewRomanPSMT-69" transform="translate(90.384766 0)"/>
      <use xlink:href="#TimesNewRomanPSMT-6e" transform="translate(118.167969 0)"/>
      <use xlink:href="#TimesNewRomanPSMT-64" transform="translate(168.167969 0)"/>
      <use xlink:href="#TimesNewRomanPSMT-20" transform="translate(218.167969 0)"/>
      <use xlink:href="#TimesNewRomanPSMT-61" transform="translate(243.167969 0)"/>
      <use xlink:href="#TimesNewRomanPSMT-6e" transform="translate(287.552734 0)"/>
      <use xlink:href="#TimesNewRomanPSMT-67" transform="translate(337.552734 0)"/>
      <use xlink:href="#TimesNewRomanPSMT-6c" transform="translate(387.552734 0)"/>
      <use xlink:href="#TimesNewRomanPSMT-65" transform="translate(415.335938 0)"/>
      <use xlink:href="#TimesNewRomanPSMT-20" transform="translate(459.720703 0)"/>
      <use xlink:href="#TimesNewRomanPSMT-28" transform="translate(484.720703 0)"/>
      <use xlink:href="#TimesNewRomanPSMT-64" transform="translate(518.021484 0)"/>
      <use xlink:href="#TimesNewRomanPSMT-65" transform="translate(568.021484 0)"/>
      <use xlink:href="#TimesNewRomanPSMT-67" transform="translate(612.40625 0)"/>
      <use xlink:href="#TimesNewRomanPSMT-29" transform="translate(662.40625 0)"/>
     </g>
    </g>
   </g>
   <g id="matplotlib.axis_2">
    <g id="ytick_1">
     <g id="line2d_9">
      <defs>
       <path id="m694ffabda8" d="M 0 0 
L -3.5 0 
" style="stroke: #000000; stroke-width: 0.8"/>
      </defs>
      <g>
       <use xlink:href="#m694ffabda8" x="63.2" y="219.786981" style="stroke: #000000; stroke-width: 0.8"/>
      </g>
     </g>
     <g id="text_10">
      <!-- −0.04 -->
      <g transform="translate(28.433125 223.953231) scale(0.12 -0.12)">
       <defs>
        <path id="TimesNewRomanPSMT-2212" d="M 3484 2000 
L 116 2000 
L 116 2256 
L 3484 2256 
L 3484 2000 
z
" transform="scale(0.015625)"/>
        <path id="TimesNewRomanPSMT-2e" d="M 800 606 
Q 947 606 1047 504 
Q 1147 403 1147 259 
Q 1147 116 1045 14 
Q 944 -88 800 -88 
Q 656 -88 554 14 
Q 453 116 453 259 
Q 453 406 554 506 
Q 656 606 800 606 
z
" transform="scale(0.015625)"/>
        <path id="TimesNewRomanPSMT-34" d="M 2978 1563 
L 2978 1119 
L 2409 1119 
L 2409 0 
L 1894 0 
L 1894 1119 
L 100 1119 
L 100 1519 
L 2066 4325 
L 2409 4325 
L 2409 1563 
L 2978 1563 
z
M 1894 1563 
L 1894 3666 
L 406 1563 
L 1894 1563 
z
" transform="scale(0.015625)"/>
       </defs>
       <use xlink:href="#TimesNewRomanPSMT-2212"/>
       <use xlink:href="#TimesNewRomanPSMT-30" transform="translate(56.396484 0)"/>
       <use xlink:href="#TimesNewRomanPSMT-2e" transform="translate(106.396484 0)"/>
       <use xlink:href="#TimesNewRomanPSMT-30" transform="translate(131.396484 0)"/>
       <use xlink:href="#TimesNewRomanPSMT-34" transform="translate(181.396484 0)"/>
      </g>
     </g>
    </g>
    <g id="ytick_2">
     <g id="line2d_10">
      <g>
       <use xlink:href="#m694ffabda8" x="63.2" y="183.870022" style="stroke: #000000; stroke-width: 0.8"/>
      </g>
     </g>
     <g id="text_11">
      <!-- −0.02 -->
      <g transform="translate(28.433125 188.036272) scale(0.12 -0.12)">
       <use xlink:href="#TimesNewRomanPSMT-2212"/>
       <use xlink:href="#TimesNewRomanPSMT-30" transform="translate(56.396484 0)"/>
       <use xlink:href="#TimesNewRomanPSMT-2e" transform="translate(106.396484 0)"/>
       <use xlink:href="#TimesNewRomanPSMT-30" transform="translate(131.396484 0)"/>
       <use xlink:href="#TimesNewRomanPSMT-32" transform="translate(181.396484 0)"/>
      </g>
     </g>
    </g>
    <g id="ytick_3">
     <g id="line2d_11">
      <g>
       <use xlink:href="#m694ffabda8" x="63.2" y="147.953063" style="stroke: #000000; stroke-width: 0.8"/>
      </g>
     </g>
     <g id="text_12">
      <!-- 0.00 -->
      <g transform="translate(35.2 152.119313) scale(0.12 -0.12)">
       <use xlink:href="#TimesNewRomanPSMT-30"/>
       <use xlink:href="#TimesNewRomanPSMT-2e" transform="translate(50 0)"/>
       <use xlink:href="#TimesNewRomanPSMT-30" transform="translate(75 0)"/>
       <use xlink:href="#TimesNewRomanPSMT-30" transform="translate(125 0)"/>
      </g>
     </g>
    </g>
    <g id="ytick_4">
     <g id="line2d_12">
      <g>
       <use xlink:href="#m694ffabda8" x="63.2" y="112.036104" style="stroke: #000000; stroke-width: 0.8"/>
      </g>
     </g>
     <g id="text_13">
      <!-- 0.02 -->
      <g transform="translate(35.2 116.202354) scale(0.12 -0.12)">
       <use xlink:href="#TimesNewRomanPSMT-30"/>
       <use xlink:href="#TimesNewRomanPSMT-2e" transform="translate(50 0)"/>
       <use xlink:href="#TimesNewRomanPSMT-30" transform="translate(75 0)"/>
       <use xlink:href="#TimesNewRomanPSMT-32" transform="translate(125 0)"/>
      </g>
     </g>
    </g>
    <g id="ytick_5">
     <g id="line2d_13">
      <g>
       <use xlink:href="#m694ffabda8" x="63.2" y="76.119145" style="stroke: #000000; stroke-width: 0.8"/>
      </g>
     </g>
     <g id="text_14">
      <!-- 0.04 -->
      <g transform="translate(35.2 80.285395) scale(0.12 -0.12)">
       <use xlink:href="#TimesNewRomanPSMT-30"/>
       <use xlink:href="#TimesNewRomanPSMT-2e" transform="translate(50 0)"/>
       <use xlink:href="#TimesNewRomanPSMT-30" transform="translate(75 0)"/>
       <use xlink:href="#TimesNewRomanPSMT-34" transform="translate(125 0)"/>
      </g>
     </g>
    </g>
    <g id="text_15">
     <!-- qpos -->
     <g transform="translate(21.86625 159.292812) rotate(-90) scale(0.12 -0.12)">
      <defs>
       <path id="TimesNewRomanPSMT-71" d="M 2734 2947 
L 2734 -734 
Q 2734 -1009 2771 -1087 
Q 2809 -1166 2889 -1209 
Q 2969 -1253 3200 -1253 
L 3200 -1369 
L 1756 -1369 
L 1756 -1253 
L 1816 -1253 
Q 1991 -1253 2081 -1203 
Q 2144 -1169 2181 -1080 
Q 2219 -991 2219 -734 
L 2219 497 
Q 1934 159 1721 35 
Q 1509 -88 1281 -88 
Q 866 -88 539 290 
Q 213 669 213 1303 
Q 213 2031 644 2489 
Q 1075 2947 1684 2947 
Q 1863 2947 2013 2897 
Q 2163 2847 2281 2747 
Q 2463 2834 2628 2947 
L 2734 2947 
z
M 2219 694 
L 2219 2038 
Q 2219 2272 2158 2406 
Q 2097 2541 1940 2634 
Q 1784 2728 1588 2728 
Q 1238 2728 988 2431 
Q 738 2134 738 1531 
Q 738 953 992 653 
Q 1247 353 1606 353 
Q 1791 353 1934 433 
Q 2078 513 2219 694 
z
" transform="scale(0.015625)"/>
       <path id="TimesNewRomanPSMT-70" d="M -6 2578 
L 875 2934 
L 994 2934 
L 994 2266 
Q 1216 2644 1439 2795 
Q 1663 2947 1909 2947 
Q 2341 2947 2628 2609 
Q 2981 2197 2981 1534 
Q 2981 794 2556 309 
Q 2206 -88 1675 -88 
Q 1444 -88 1275 -22 
Q 1150 25 994 166 
L 994 -706 
Q 994 -1000 1030 -1079 
Q 1066 -1159 1155 -1206 
Q 1244 -1253 1478 -1253 
L 1478 -1369 
L -22 -1369 
L -22 -1253 
L 56 -1253 
Q 228 -1256 350 -1188 
Q 409 -1153 442 -1076 
Q 475 -1000 475 -688 
L 475 2019 
Q 475 2297 450 2372 
Q 425 2447 370 2484 
Q 316 2522 222 2522 
Q 147 2522 31 2478 
L -6 2578 
z
M 994 2081 
L 994 1013 
Q 994 666 1022 556 
Q 1066 375 1236 237 
Q 1406 100 1666 100 
Q 1978 100 2172 344 
Q 2425 663 2425 1241 
Q 2425 1897 2138 2250 
Q 1938 2494 1663 2494 
Q 1513 2494 1366 2419 
Q 1253 2363 994 2081 
z
" transform="scale(0.015625)"/>
       <path id="TimesNewRomanPSMT-6f" d="M 1600 2947 
Q 2250 2947 2644 2453 
Q 2978 2031 2978 1484 
Q 2978 1100 2793 706 
Q 2609 313 2286 112 
Q 1963 -88 1566 -88 
Q 919 -88 538 428 
Q 216 863 216 1403 
Q 216 1797 411 2186 
Q 606 2575 925 2761 
Q 1244 2947 1600 2947 
z
M 1503 2744 
Q 1338 2744 1170 2645 
Q 1003 2547 900 2300 
Q 797 2053 797 1666 
Q 797 1041 1045 587 
Q 1294 134 1700 134 
Q 2003 134 2200 384 
Q 2397 634 2397 1244 
Q 2397 2006 2069 2444 
Q 1847 2744 1503 2744 
z
" transform="scale(0.015625)"/>
       <path id="TimesNewRomanPSMT-73" d="M 2050 2947 
L 2050 1972 
L 1947 1972 
Q 1828 2431 1642 2597 
Q 1456 2763 1169 2763 
Q 950 2763 815 2647 
Q 681 2531 681 2391 
Q 681 2216 781 2091 
Q 878 1963 1175 1819 
L 1631 1597 
Q 2266 1288 2266 781 
Q 2266 391 1970 151 
Q 1675 -88 1309 -88 
Q 1047 -88 709 6 
Q 606 38 541 38 
Q 469 38 428 -44 
L 325 -44 
L 325 978 
L 428 978 
Q 516 541 762 319 
Q 1009 97 1316 97 
Q 1531 97 1667 223 
Q 1803 350 1803 528 
Q 1803 744 1651 891 
Q 1500 1038 1047 1263 
Q 594 1488 453 1669 
Q 313 1847 313 2119 
Q 313 2472 555 2709 
Q 797 2947 1181 2947 
Q 1350 2947 1591 2875 
Q 1750 2828 1803 2828 
Q 1853 2828 1881 2850 
Q 1909 2872 1947 2947 
L 2050 2947 
z
" transform="scale(0.015625)"/>
      </defs>
      <use xlink:href="#TimesNewRomanPSMT-71"/>
      <use xlink:href="#TimesNewRomanPSMT-70" transform="translate(50 0)"/>
      <use xlink:href="#TimesNewRomanPSMT-6f" transform="translate(100 0)"/>
      <use xlink:href="#TimesNewRomanPSMT-73" transform="translate(150 0)"/>
     </g>
    </g>
   </g>
   <g id="line2d_14">
    <path d="M 79.671136 147.845985 
L 89.083214 167.150548 
L 98.495292 184.838307 
L 107.90737 198.218883 
L 117.319448 205.997201 
L 126.731526 209.810283 
L 136.143604 210.416881 
L 145.555682 210.39155 
L 154.96776 210.249681 
L 164.379838 210.137941 
L 173.791916 210.143487 
L 183.203994 209.977398 
L 192.616071 209.585541 
L 202.028149 208.63494 
L 211.440227 204.758617 
L 220.852305 197.471463 
L 230.264383 184.846288 
L 239.676461 167.885491 
L 249.088539 148.650365 
L 258.500617 129.332667 
L 267.912695 112.127787 
L 277.324773 99.138928 
L 286.736851 91.528857 
L 296.148929 87.423613 
L 305.561006 86.346003 
L 314.973084 85.9264 
L 324.385162 85.744815 
L 333.79724 85.751547 
L 343.209318 85.657101 
L 352.621396 85.529606 
L 362.033474 85.494257 
L 371.445552 85.955356 
L 380.85763 89.479414 
L 390.269708 96.895607 
L 399.681786 109.922098 
L 409.093864 127.381339 
" clip-path="url(#ped8d7788a5)" style="fill: none; stroke: #808080; stroke-linecap: square"/>
   </g>
   <g id="patch_3">
    <path d="M 63.2 240.955 
L 63.2 54.96 
" style="fill: none; stroke: #000000; stroke-width: 0.5; stroke-linejoin: miter; stroke-linecap: square"/>
   </g>
   <g id="patch_4">
    <path d="M 63.2 240.955 
L 425.565 240.955 
" style="fill: none; stroke: #000000; stroke-width: 0.5; stroke-linejoin: miter; stroke-linecap: square"/>
   </g>
   <g id="PathCollection_1">
    <defs>
     <path id="C0_0_8dbbf30476" d="M 0 2.738613 
C 0.726289 2.738613 1.422928 2.450055 1.936492 1.936492 
C 2.450055 1.422928 2.738613 0.726289 2.738613 -0 
C 2.738613 -0.726289 2.450055 -1.422928 1.936492 -1.936492 
C 1.422928 -2.450055 0.726289 -2.738613 0 -2.738613 
C -0.726289 -2.738613 -1.422928 -2.450055 -1.936492 -1.936492 
C -2.450055 -1.422928 -2.738613 -0.726289 -2.738613 0 
C -2.738613 0.726289 -2.450055 1.422928 -1.936492 1.936492 
C -1.422928 2.450055 -0.726289 2.738613 0 2.738613 
z
"/>
    </defs>
    <g clip-path="url(#ped8d7788a5)">
     <use xlink:href="#C0_0_8dbbf30476" x="79.671136" y="147.845985" style="fill: #ff0000; fill-opacity: 0.7; stroke: #ff0000; stroke-opacity: 0.7"/>
    </g>
    <g clip-path="url(#ped8d7788a5)">
     <use xlink:href="#C0_0_8dbbf30476" x="89.083214" y="167.150548" style="fill: #ff2900; fill-opacity: 0.7; stroke: #ff2900; stroke-opacity: 0.7"/>
    </g>
    <g clip-path="url(#ped8d7788a5)">
     <use xlink:href="#C0_0_8dbbf30476" x="98.495292" y="184.838307" style="fill: #ff5300; fill-opacity: 0.7; stroke: #ff5300; stroke-opacity: 0.7"/>
    </g>
    <g clip-path="url(#ped8d7788a5)">
     <use xlink:href="#C0_0_8dbbf30476" x="107.90737" y="198.218883" style="fill: #ff7c00; fill-opacity: 0.7; stroke: #ff7c00; stroke-opacity: 0.7"/>
    </g>
    <g clip-path="url(#ped8d7788a5)">
     <use xlink:href="#C0_0_8dbbf30476" x="117.319448" y="205.997201" style="fill: #ffab00; fill-opacity: 0.7; stroke: #ffab00; stroke-opacity: 0.7"/>
    </g>
    <g clip-path="url(#ped8d7788a5)">
     <use xlink:href="#C0_0_8dbbf30476" x="126.731526" y="209.810283" style="fill: #ffd500; fill-opacity: 0.7; stroke: #ffd500; stroke-opacity: 0.7"/>
    </g>
    <g clip-path="url(#ped8d7788a5)">
     <use xlink:href="#C0_0_8dbbf30476" x="136.143604" y="210.416881" style="fill: #faf900; fill-opacity: 0.7; stroke: #faf900; stroke-opacity: 0.7"/>
    </g>
    <g clip-path="url(#ped8d7788a5)">
     <use xlink:href="#C0_0_8dbbf30476" x="145.555682" y="210.39155" style="fill: #d1ff00; fill-opacity: 0.7; stroke: #d1ff00; stroke-opacity: 0.7"/>
    </g>
    <g clip-path="url(#ped8d7788a5)">
     <use xlink:href="#C0_0_8dbbf30476" x="154.96776" y="210.249681" style="fill: #a7ff00; fill-opacity: 0.7; stroke: #a7ff00; stroke-opacity: 0.7"/>
    </g>
    <g clip-path="url(#ped8d7788a5)">
     <use xlink:href="#C0_0_8dbbf30476" x="164.379838" y="210.137941" style="fill: #7eff00; fill-opacity: 0.7; stroke: #7eff00; stroke-opacity: 0.7"/>
    </g>
    <g clip-path="url(#ped8d7788a5)">
     <use xlink:href="#C0_0_8dbbf30476" x="173.791916" y="210.143487" style="fill: #4fff00; fill-opacity: 0.7; stroke: #4fff00; stroke-opacity: 0.7"/>
    </g>
    <g clip-path="url(#ped8d7788a5)">
     <use xlink:href="#C0_0_8dbbf30476" x="183.203994" y="209.977398" style="fill: #25ff00; fill-opacity: 0.7; stroke: #25ff00; stroke-opacity: 0.7"/>
    </g>
    <g clip-path="url(#ped8d7788a5)">
     <use xlink:href="#C0_0_8dbbf30476" x="192.616071" y="209.585541" style="fill: #04ff08; fill-opacity: 0.7; stroke: #04ff08; stroke-opacity: 0.7"/>
    </g>
    <g clip-path="url(#ped8d7788a5)">
     <use xlink:href="#C0_0_8dbbf30476" x="202.028149" y="208.63494" style="fill: #00ff33; fill-opacity: 0.7; stroke: #00ff33; stroke-opacity: 0.7"/>
    </g>
    <g clip-path="url(#ped8d7788a5)">
     <use xlink:href="#C0_0_8dbbf30476" x="211.440227" y="204.758617" style="fill: #00ff5c; fill-opacity: 0.7; stroke: #00ff5c; stroke-opacity: 0.7"/>
    </g>
    <g clip-path="url(#ped8d7788a5)">
     <use xlink:href="#C0_0_8dbbf30476" x="220.852305" y="197.471463" style="fill: #00ff86; fill-opacity: 0.7; stroke: #00ff86; stroke-opacity: 0.7"/>
    </g>
    <g clip-path="url(#ped8d7788a5)">
     <use xlink:href="#C0_0_8dbbf30476" x="230.264383" y="184.846288" style="fill: #00ffb5; fill-opacity: 0.7; stroke: #00ffb5; stroke-opacity: 0.7"/>
    </g>
    <g clip-path="url(#ped8d7788a5)">
     <use xlink:href="#C0_0_8dbbf30476" x="239.676461" y="167.885491" style="fill: #00ffde; fill-opacity: 0.7; stroke: #00ffde; stroke-opacity: 0.7"/>
    </g>
    <g clip-path="url(#ped8d7788a5)">
     <use xlink:href="#C0_0_8dbbf30476" x="249.088539" y="148.650365" style="fill: #00f6ff; fill-opacity: 0.7; stroke: #00f6ff; stroke-opacity: 0.7"/>
    </g>
    <g clip-path="url(#ped8d7788a5)">
     <use xlink:href="#C0_0_8dbbf30476" x="258.500617" y="129.332667" style="fill: #00cdff; fill-opacity: 0.7; stroke: #00cdff; stroke-opacity: 0.7"/>
    </g>
    <g clip-path="url(#ped8d7788a5)">
     <use xlink:href="#C0_0_8dbbf30476" x="267.912695" y="112.127787" style="fill: #009eff; fill-opacity: 0.7; stroke: #009eff; stroke-opacity: 0.7"/>
    </g>
    <g clip-path="url(#ped8d7788a5)">
     <use xlink:href="#C0_0_8dbbf30476" x="277.324773" y="99.138928" style="fill: #0074ff; fill-opacity: 0.7; stroke: #0074ff; stroke-opacity: 0.7"/>
    </g>
    <g clip-path="url(#ped8d7788a5)">
     <use xlink:href="#C0_0_8dbbf30476" x="286.736851" y="91.528857" style="fill: #004bff; fill-opacity: 0.7; stroke: #004bff; stroke-opacity: 0.7"/>
    </g>
    <g clip-path="url(#ped8d7788a5)">
     <use xlink:href="#C0_0_8dbbf30476" x="296.148929" y="87.423613" style="fill: #001cff; fill-opacity: 0.7; stroke: #001cff; stroke-opacity: 0.7"/>
    </g>
    <g clip-path="url(#ped8d7788a5)">
     <use xlink:href="#C0_0_8dbbf30476" x="305.561006" y="86.346003" style="fill: #0e00ff; fill-opacity: 0.7; stroke: #0e00ff; stroke-opacity: 0.7"/>
    </g>
    <g clip-path="url(#ped8d7788a5)">
     <use xlink:href="#C0_0_8dbbf30476" x="314.973084" y="85.9264" style="fill: #3700ff; fill-opacity: 0.7; stroke: #3700ff; stroke-opacity: 0.7"/>
    </g>
    <g clip-path="url(#ped8d7788a5)">
     <use xlink:href="#C0_0_8dbbf30476" x="324.385162" y="85.744815" style="fill: #6600ff; fill-opacity: 0.7; stroke: #6600ff; stroke-opacity: 0.7"/>
    </g>
    <g clip-path="url(#ped8d7788a5)">
     <use xlink:href="#C0_0_8dbbf30476" x="333.79724" y="85.751547" style="fill: #9000ff; fill-opacity: 0.7; stroke: #9000ff; stroke-opacity: 0.7"/>
    </g>
    <g clip-path="url(#ped8d7788a5)">
     <use xlink:href="#C0_0_8dbbf30476" x="343.209318" y="85.657101" style="fill: #b900ff; fill-opacity: 0.7; stroke: #b900ff; stroke-opacity: 0.7"/>
    </g>
    <g clip-path="url(#ped8d7788a5)">
     <use xlink:href="#C0_0_8dbbf30476" x="352.621396" y="85.529606" style="fill: #e800ff; fill-opacity: 0.7; stroke: #e800ff; stroke-opacity: 0.7"/>
    </g>
    <g clip-path="url(#ped8d7788a5)">
     <use xlink:href="#C0_0_8dbbf30476" x="362.033474" y="85.494257" style="fill: #ff00ed; fill-opacity: 0.7; stroke: #ff00ed; stroke-opacity: 0.7"/>
    </g>
    <g clip-path="url(#ped8d7788a5)">
     <use xlink:href="#C0_0_8dbbf30476" x="371.445552" y="85.955356" style="fill: #ff00c3; fill-opacity: 0.7; stroke: #ff00c3; stroke-opacity: 0.7"/>
    </g>
    <g clip-path="url(#ped8d7788a5)">
     <use xlink:href="#C0_0_8dbbf30476" x="380.85763" y="89.479414" style="fill: #ff0094; fill-opacity: 0.7; stroke: #ff0094; stroke-opacity: 0.7"/>
    </g>
    <g clip-path="url(#ped8d7788a5)">
     <use xlink:href="#C0_0_8dbbf30476" x="390.269708" y="96.895607" style="fill: #ff006b; fill-opacity: 0.7; stroke: #ff006b; stroke-opacity: 0.7"/>
    </g>
    <g clip-path="url(#ped8d7788a5)">
     <use xlink:href="#C0_0_8dbbf30476" x="399.681786" y="109.922098" style="fill: #ff0041; fill-opacity: 0.7; stroke: #ff0041; stroke-opacity: 0.7"/>
    </g>
    <g clip-path="url(#ped8d7788a5)">
     <use xlink:href="#C0_0_8dbbf30476" x="409.093864" y="127.381339" style="fill: #ff0018; fill-opacity: 0.7; stroke: #ff0018; stroke-opacity: 0.7"/>
    </g>
   </g>
   <g id="text_16">
    <!-- qposx -->
    <g transform="translate(227.180125 48.96) scale(0.144 -0.144)">
     <defs>
      <path id="TimesNewRomanPSMT-78" d="M 84 2863 
L 1431 2863 
L 1431 2747 
Q 1303 2747 1251 2703 
Q 1200 2659 1200 2588 
Q 1200 2513 1309 2356 
Q 1344 2306 1413 2200 
L 1616 1875 
L 1850 2200 
Q 2075 2509 2075 2591 
Q 2075 2656 2022 2701 
Q 1969 2747 1850 2747 
L 1850 2863 
L 2819 2863 
L 2819 2747 
Q 2666 2738 2553 2663 
Q 2400 2556 2134 2200 
L 1744 1678 
L 2456 653 
Q 2719 275 2831 198 
Q 2944 122 3122 113 
L 3122 0 
L 1772 0 
L 1772 113 
Q 1913 113 1991 175 
Q 2050 219 2050 291 
Q 2050 363 1850 653 
L 1431 1266 
L 972 653 
Q 759 369 759 316 
Q 759 241 829 180 
Q 900 119 1041 113 
L 1041 0 
L 106 0 
L 106 113 
Q 219 128 303 191 
Q 422 281 703 653 
L 1303 1450 
L 759 2238 
Q 528 2575 401 2661 
Q 275 2747 84 2747 
L 84 2863 
z
" transform="scale(0.015625)"/>
     </defs>
     <use xlink:href="#TimesNewRomanPSMT-71"/>
     <use xlink:href="#TimesNewRomanPSMT-70" transform="translate(50 0)"/>
     <use xlink:href="#TimesNewRomanPSMT-6f" transform="translate(100 0)"/>
     <use xlink:href="#TimesNewRomanPSMT-73" transform="translate(150 0)"/>
     <use xlink:href="#TimesNewRomanPSMT-78" transform="translate(188.916016 0)"/>
    </g>
   </g>
  </g>
  <g id="axes_2">
   <g id="patch_5">
    <path d="M 488.675 240.955 
L 851.04 240.955 
L 851.04 54.96 
L 488.675 54.96 
z
" style="fill: #ffffff"/>
   </g>
   <g id="FillBetweenPolyCollection_36">
    <defs>
     <path id="m75f8493174" d="M 505.146136 -223.552559 
L 505.146136 -169.213477 
L 514.558214 -180.388913 
L 514.558214 -224.585682 
L 514.558214 -224.585682 
L 505.146136 -223.552559 
z
" style="stroke: #ff1200; stroke-opacity: 0.3"/>
    </defs>
    <g clip-path="url(#p8c39f7ab79)">
     <use xlink:href="#m75f8493174" x="0" y="288" style="fill: #ff1200; fill-opacity: 0.3; stroke: #ff1200; stroke-opacity: 0.3"/>
    </g>
   </g>
   <g id="FillBetweenPolyCollection_37">
    <defs>
     <path id="mfc5796ab97" d="M 514.558214 -224.585682 
L 514.558214 -180.388913 
L 523.970292 -179.672744 
L 523.970292 -222.866029 
L 523.970292 -222.866029 
L 514.558214 -224.585682 
z
" style="stroke: #ff3b00; stroke-opacity: 0.3"/>
    </defs>
    <g clip-path="url(#p8c39f7ab79)">
     <use xlink:href="#mfc5796ab97" x="0" y="288" style="fill: #ff3b00; fill-opacity: 0.3; stroke: #ff3b00; stroke-opacity: 0.3"/>
    </g>
   </g>
   <g id="FillBetweenPolyCollection_38">
    <defs>
     <path id="me5d52d6f6b" d="M 523.970292 -222.866029 
L 523.970292 -179.672744 
L 533.38237 -178.474431 
L 533.38237 -220.25708 
L 533.38237 -220.25708 
L 523.970292 -222.866029 
z
" style="stroke: #ff6a00; stroke-opacity: 0.3"/>
    </defs>
    <g clip-path="url(#p8c39f7ab79)">
     <use xlink:href="#me5d52d6f6b" x="0" y="288" style="fill: #ff6a00; fill-opacity: 0.3; stroke: #ff6a00; stroke-opacity: 0.3"/>
    </g>
   </g>
   <g id="FillBetweenPolyCollection_39">
    <defs>
     <path id="m5f3456c9dd" d="M 533.38237 -220.25708 
L 533.38237 -178.474431 
L 542.794448 -176.885149 
L 542.794448 -216.880937 
L 542.794448 -216.880937 
L 533.38237 -220.25708 
z
" style="stroke: #ff9400; stroke-opacity: 0.3"/>
    </defs>
    <g clip-path="url(#p8c39f7ab79)">
     <use xlink:href="#m5f3456c9dd" x="0" y="288" style="fill: #ff9400; fill-opacity: 0.3; stroke: #ff9400; stroke-opacity: 0.3"/>
    </g>
   </g>
   <g id="FillBetweenPolyCollection_40">
    <defs>
     <path id="m3a7d34d2be" d="M 542.794448 -216.880937 
L 542.794448 -176.885149 
L 552.206526 -174.092518 
L 552.206526 -210.896919 
L 552.206526 -210.896919 
L 542.794448 -216.880937 
z
" style="stroke: #ffbd00; stroke-opacity: 0.3"/>
    </defs>
    <g clip-path="url(#p8c39f7ab79)">
     <use xlink:href="#m3a7d34d2be" x="0" y="288" style="fill: #ffbd00; fill-opacity: 0.3; stroke: #ffbd00; stroke-opacity: 0.3"/>
    </g>
   </g>
   <g id="FillBetweenPolyCollection_41">
    <defs>
     <path id="m23da79670b" d="M 552.206526 -210.896919 
L 552.206526 -174.092518 
L 561.618604 -169.726881 
L 561.618604 -201.488814 
L 561.618604 -201.488814 
L 552.206526 -210.896919 
z
" style="stroke: #ffec00; stroke-opacity: 0.3"/>
    </defs>
    <g clip-path="url(#p8c39f7ab79)">
     <use xlink:href="#m23da79670b" x="0" y="288" style="fill: #ffec00; fill-opacity: 0.3; stroke: #ffec00; stroke-opacity: 0.3"/>
    </g>
   </g>
   <g id="FillBetweenPolyCollection_42">
    <defs>
     <path id="m6178a1ff69" d="M 561.618604 -201.488814 
L 561.618604 -169.726881 
L 571.030682 -162.392938 
L 571.030682 -185.53452 
L 571.030682 -185.53452 
L 561.618604 -201.488814 
z
" style="stroke: #e8ff00; stroke-opacity: 0.3"/>
    </defs>
    <g clip-path="url(#p8c39f7ab79)">
     <use xlink:href="#m6178a1ff69" x="0" y="288" style="fill: #e8ff00; fill-opacity: 0.3; stroke: #e8ff00; stroke-opacity: 0.3"/>
    </g>
   </g>
   <g id="FillBetweenPolyCollection_43">
    <defs>
     <path id="mc482451669" d="M 571.030682 -185.53452 
L 571.030682 -162.392938 
L 580.44276 -152.521186 
L 580.44276 -164.421872 
L 580.44276 -164.421872 
L 571.030682 -185.53452 
z
" style="stroke: #bfff00; stroke-opacity: 0.3"/>
    </defs>
    <g clip-path="url(#p8c39f7ab79)">
     <use xlink:href="#mc482451669" x="0" y="288" style="fill: #bfff00; fill-opacity: 0.3; stroke: #bfff00; stroke-opacity: 0.3"/>
    </g>
   </g>
   <g id="FillBetweenPolyCollection_44">
    <defs>
     <path id="m9c3178cffb" d="M 580.44276 -164.421872 
L 580.44276 -152.521186 
L 589.854838 -140.740413 
L 589.854838 -141.284663 
L 589.854838 -141.284663 
L 580.44276 -164.421872 
z
" style="stroke: #90ff00; stroke-opacity: 0.3"/>
    </defs>
    <g clip-path="url(#p8c39f7ab79)">
     <use xlink:href="#m9c3178cffb" x="0" y="288" style="fill: #90ff00; fill-opacity: 0.3; stroke: #90ff00; stroke-opacity: 0.3"/>
    </g>
   </g>
   <g id="FillBetweenPolyCollection_45">
    <defs>
     <path id="me3d03f4d4e" d="M 589.854838 -141.284663 
L 589.854838 -140.740413 
L 599.266916 -117.206029 
L 599.266916 -129.947128 
L 599.266916 -129.947128 
L 589.854838 -141.284663 
z
" style="stroke: #66ff00; stroke-opacity: 0.3"/>
    </defs>
    <g clip-path="url(#p8c39f7ab79)">
     <use xlink:href="#me3d03f4d4e" x="0" y="288" style="fill: #66ff00; fill-opacity: 0.3; stroke: #66ff00; stroke-opacity: 0.3"/>
    </g>
   </g>
   <g id="FillBetweenPolyCollection_46">
    <defs>
     <path id="m2ce75c358b" d="M 599.266916 -129.947128 
L 599.266916 -117.206029 
L 608.678994 -96.460407 
L 608.678994 -119.790343 
L 608.678994 -119.790343 
L 599.266916 -129.947128 
z
" style="stroke: #3dff00; stroke-opacity: 0.3"/>
    </defs>
    <g clip-path="url(#p8c39f7ab79)">
     <use xlink:href="#m2ce75c358b" x="0" y="288" style="fill: #3dff00; fill-opacity: 0.3; stroke: #3dff00; stroke-opacity: 0.3"/>
    </g>
   </g>
   <g id="FillBetweenPolyCollection_47">
    <defs>
     <path id="mf24ff79203" d="M 608.678994 -119.790343 
L 608.678994 -96.460407 
L 618.091071 -80.829862 
L 618.091071 -111.987583 
L 618.091071 -111.987583 
L 608.678994 -119.790343 
z
" style="stroke: #0eff00; stroke-opacity: 0.3"/>
    </defs>
    <g clip-path="url(#p8c39f7ab79)">
     <use xlink:href="#mf24ff79203" x="0" y="288" style="fill: #0eff00; fill-opacity: 0.3; stroke: #0eff00; stroke-opacity: 0.3"/>
    </g>
   </g>
   <g id="FillBetweenPolyCollection_48">
    <defs>
     <path id="mbd1050795e" d="M 618.091071 -111.987583 
L 618.091071 -80.829862 
L 627.503149 -71.284373 
L 627.503149 -107.122181 
L 627.503149 -107.122181 
L 618.091071 -111.987583 
z
" style="stroke: #00ff1b; stroke-opacity: 0.3"/>
    </defs>
    <g clip-path="url(#p8c39f7ab79)">
     <use xlink:href="#mbd1050795e" x="0" y="288" style="fill: #00ff1b; fill-opacity: 0.3; stroke: #00ff1b; stroke-opacity: 0.3"/>
    </g>
   </g>
   <g id="FillBetweenPolyCollection_49">
    <defs>
     <path id="mb70ea12cf8" d="M 627.503149 -107.122181 
L 627.503149 -71.284373 
L 636.915227 -64.765577 
L 636.915227 -103.887832 
L 636.915227 -103.887832 
L 627.503149 -107.122181 
z
" style="stroke: #00ff45; stroke-opacity: 0.3"/>
    </defs>
    <g clip-path="url(#p8c39f7ab79)">
     <use xlink:href="#mb70ea12cf8" x="0" y="288" style="fill: #00ff45; fill-opacity: 0.3; stroke: #00ff45; stroke-opacity: 0.3"/>
    </g>
   </g>
   <g id="FillBetweenPolyCollection_50">
    <defs>
     <path id="mbde76972a9" d="M 636.915227 -103.887832 
L 636.915227 -64.765577 
L 646.327305 -61.011867 
L 646.327305 -102.011831 
L 646.327305 -102.011831 
L 636.915227 -103.887832 
z
" style="stroke: #00ff74; stroke-opacity: 0.3"/>
    </defs>
    <g clip-path="url(#p8c39f7ab79)">
     <use xlink:href="#mbde76972a9" x="0" y="288" style="fill: #00ff74; fill-opacity: 0.3; stroke: #00ff74; stroke-opacity: 0.3"/>
    </g>
   </g>
   <g id="FillBetweenPolyCollection_51">
    <defs>
     <path id="mcc09aee531" d="M 646.327305 -102.011831 
L 646.327305 -61.011867 
L 655.739383 -58.151538 
L 655.739383 -100.659277 
L 655.739383 -100.659277 
L 646.327305 -102.011831 
z
" style="stroke: #00ff9d; stroke-opacity: 0.3"/>
    </defs>
    <g clip-path="url(#p8c39f7ab79)">
     <use xlink:href="#mcc09aee531" x="0" y="288" style="fill: #00ff9d; fill-opacity: 0.3; stroke: #00ff9d; stroke-opacity: 0.3"/>
    </g>
   </g>
   <g id="FillBetweenPolyCollection_52">
    <defs>
     <path id="m238afc08b4" d="M 655.739383 -100.659277 
L 655.739383 -58.151538 
L 665.151461 -56.20626 
L 665.151461 -99.74334 
L 665.151461 -99.74334 
L 655.739383 -100.659277 
z
" style="stroke: #00ffc7; stroke-opacity: 0.3"/>
    </defs>
    <g clip-path="url(#p8c39f7ab79)">
     <use xlink:href="#m238afc08b4" x="0" y="288" style="fill: #00ffc7; fill-opacity: 0.3; stroke: #00ffc7; stroke-opacity: 0.3"/>
    </g>
   </g>
   <g id="FillBetweenPolyCollection_53">
    <defs>
     <path id="me75625a8b2" d="M 665.151461 -99.74334 
L 665.151461 -56.20626 
L 674.563539 -55.499318 
L 674.563539 -99.381135 
L 674.563539 -99.381135 
L 665.151461 -99.74334 
z
" style="stroke: #00fff6; stroke-opacity: 0.3"/>
    </defs>
    <g clip-path="url(#p8c39f7ab79)">
     <use xlink:href="#me75625a8b2" x="0" y="288" style="fill: #00fff6; fill-opacity: 0.3; stroke: #00fff6; stroke-opacity: 0.3"/>
    </g>
   </g>
   <g id="FillBetweenPolyCollection_54">
    <defs>
     <path id="mc255d76ab3" d="M 674.563539 -99.381135 
L 674.563539 -55.499318 
L 683.975617 -56.17978 
L 683.975617 -99.639754 
L 683.975617 -99.639754 
L 674.563539 -99.381135 
z
" style="stroke: #00dfff; stroke-opacity: 0.3"/>
    </defs>
    <g clip-path="url(#p8c39f7ab79)">
     <use xlink:href="#mc255d76ab3" x="0" y="288" style="fill: #00dfff; fill-opacity: 0.3; stroke: #00dfff; stroke-opacity: 0.3"/>
    </g>
   </g>
   <g id="FillBetweenPolyCollection_55">
    <defs>
     <path id="m1c4929a10b" d="M 683.975617 -99.639754 
L 683.975617 -56.17978 
L 693.387695 -58.105466 
L 693.387695 -100.474446 
L 693.387695 -100.474446 
L 683.975617 -99.639754 
z
" style="stroke: #00b5ff; stroke-opacity: 0.3"/>
    </defs>
    <g clip-path="url(#p8c39f7ab79)">
     <use xlink:href="#m1c4929a10b" x="0" y="288" style="fill: #00b5ff; fill-opacity: 0.3; stroke: #00b5ff; stroke-opacity: 0.3"/>
    </g>
   </g>
   <g id="FillBetweenPolyCollection_56">
    <defs>
     <path id="m68265a329e" d="M 693.387695 -100.474446 
L 693.387695 -58.105466 
L 702.799773 -60.952749 
L 702.799773 -101.760985 
L 702.799773 -101.760985 
L 693.387695 -100.474446 
z
" style="stroke: #008cff; stroke-opacity: 0.3"/>
    </defs>
    <g clip-path="url(#p8c39f7ab79)">
     <use xlink:href="#m68265a329e" x="0" y="288" style="fill: #008cff; fill-opacity: 0.3; stroke: #008cff; stroke-opacity: 0.3"/>
    </g>
   </g>
   <g id="FillBetweenPolyCollection_57">
    <defs>
     <path id="m19436b2b8a" d="M 702.799773 -101.760985 
L 702.799773 -60.952749 
L 712.211851 -64.663197 
L 712.211851 -103.475902 
L 712.211851 -103.475902 
L 702.799773 -101.760985 
z
" style="stroke: #005dff; stroke-opacity: 0.3"/>
    </defs>
    <g clip-path="url(#p8c39f7ab79)">
     <use xlink:href="#m19436b2b8a" x="0" y="288" style="fill: #005dff; fill-opacity: 0.3; stroke: #005dff; stroke-opacity: 0.3"/>
    </g>
   </g>
   <g id="FillBetweenPolyCollection_58">
    <defs>
     <path id="md860059111" d="M 712.211851 -103.475902 
L 712.211851 -64.663197 
L 721.623929 -71.119078 
L 721.623929 -106.449815 
L 721.623929 -106.449815 
L 712.211851 -103.475902 
z
" style="stroke: #0033ff; stroke-opacity: 0.3"/>
    </defs>
    <g clip-path="url(#p8c39f7ab79)">
     <use xlink:href="#md860059111" x="0" y="288" style="fill: #0033ff; fill-opacity: 0.3; stroke: #0033ff; stroke-opacity: 0.3"/>
    </g>
   </g>
   <g id="FillBetweenPolyCollection_59">
    <defs>
     <path id="me0b5bba8cb" d="M 721.623929 -106.449815 
L 721.623929 -71.119078 
L 731.036006 -80.574232 
L 731.036006 -110.908203 
L 731.036006 -110.908203 
L 721.623929 -106.449815 
z
" style="stroke: #020cff; stroke-opacity: 0.3"/>
    </defs>
    <g clip-path="url(#p8c39f7ab79)">
     <use xlink:href="#me0b5bba8cb" x="0" y="288" style="fill: #020cff; fill-opacity: 0.3; stroke: #020cff; stroke-opacity: 0.3"/>
    </g>
   </g>
   <g id="FillBetweenPolyCollection_60">
    <defs>
     <path id="m8a4b17899c" d="M 731.036006 -110.908203 
L 731.036006 -80.574232 
L 740.448084 -96.064068 
L 740.448084 -118.183766 
L 740.448084 -118.183766 
L 731.036006 -110.908203 
z
" style="stroke: #2500ff; stroke-opacity: 0.3"/>
    </defs>
    <g clip-path="url(#p8c39f7ab79)">
     <use xlink:href="#m8a4b17899c" x="0" y="288" style="fill: #2500ff; fill-opacity: 0.3; stroke: #2500ff; stroke-opacity: 0.3"/>
    </g>
   </g>
   <g id="FillBetweenPolyCollection_61">
    <defs>
     <path id="ma08b660a19" d="M 740.448084 -118.183766 
L 740.448084 -96.064068 
L 749.860162 -116.672142 
L 749.860162 -127.929496 
L 749.860162 -127.929496 
L 740.448084 -118.183766 
z
" style="stroke: #4f00ff; stroke-opacity: 0.3"/>
    </defs>
    <g clip-path="url(#p8c39f7ab79)">
     <use xlink:href="#ma08b660a19" x="0" y="288" style="fill: #4f00ff; fill-opacity: 0.3; stroke: #4f00ff; stroke-opacity: 0.3"/>
    </g>
   </g>
   <g id="FillBetweenPolyCollection_62">
    <defs>
     <path id="md462487b21" d="M 749.860162 -127.929496 
L 749.860162 -116.672142 
L 759.27224 -139.076164 
L 759.27224 -140.123275 
L 759.27224 -140.123275 
L 749.860162 -127.929496 
z
" style="stroke: #7800ff; stroke-opacity: 0.3"/>
    </defs>
    <g clip-path="url(#p8c39f7ab79)">
     <use xlink:href="#md462487b21" x="0" y="288" style="fill: #7800ff; fill-opacity: 0.3; stroke: #7800ff; stroke-opacity: 0.3"/>
    </g>
   </g>
   <g id="FillBetweenPolyCollection_63">
    <defs>
     <path id="mcb4d701ba5" d="M 759.27224 -140.123275 
L 759.27224 -139.076164 
L 768.684318 -150.403899 
L 768.684318 -163.800036 
L 768.684318 -163.800036 
L 759.27224 -140.123275 
z
" style="stroke: #a700ff; stroke-opacity: 0.3"/>
    </defs>
    <g clip-path="url(#p8c39f7ab79)">
     <use xlink:href="#mcb4d701ba5" x="0" y="288" style="fill: #a700ff; fill-opacity: 0.3; stroke: #a700ff; stroke-opacity: 0.3"/>
    </g>
   </g>
   <g id="FillBetweenPolyCollection_64">
    <defs>
     <path id="m5754140509" d="M 768.684318 -163.800036 
L 768.684318 -150.403899 
L 778.096396 -160.638124 
L 778.096396 -185.009357 
L 778.096396 -185.009357 
L 768.684318 -163.800036 
z
" style="stroke: #d000ff; stroke-opacity: 0.3"/>
    </defs>
    <g clip-path="url(#p8c39f7ab79)">
     <use xlink:href="#m5754140509" x="0" y="288" style="fill: #d000ff; fill-opacity: 0.3; stroke: #d000ff; stroke-opacity: 0.3"/>
    </g>
   </g>
   <g id="FillBetweenPolyCollection_65">
    <defs>
     <path id="m56219d751e" d="M 778.096396 -185.009357 
L 778.096396 -160.638124 
L 787.508474 -168.54909 
L 787.508474 -201.144336 
L 787.508474 -201.144336 
L 778.096396 -185.009357 
z
" style="stroke: #f800fd; stroke-opacity: 0.3"/>
    </defs>
    <g clip-path="url(#p8c39f7ab79)">
     <use xlink:href="#m56219d751e" x="0" y="288" style="fill: #f800fd; fill-opacity: 0.3; stroke: #f800fd; stroke-opacity: 0.3"/>
    </g>
   </g>
   <g id="FillBetweenPolyCollection_66">
    <defs>
     <path id="mb10633e69a" d="M 787.508474 -201.144336 
L 787.508474 -168.54909 
L 796.920552 -173.418094 
L 796.920552 -210.716176 
L 796.920552 -210.716176 
L 787.508474 -201.144336 
z
" style="stroke: #ff00d5; stroke-opacity: 0.3"/>
    </defs>
    <g clip-path="url(#p8c39f7ab79)">
     <use xlink:href="#mb10633e69a" x="0" y="288" style="fill: #ff00d5; fill-opacity: 0.3; stroke: #ff00d5; stroke-opacity: 0.3"/>
    </g>
   </g>
   <g id="FillBetweenPolyCollection_67">
    <defs>
     <path id="mcb4e966a7d" d="M 796.920552 -210.716176 
L 796.920552 -173.418094 
L 806.33263 -176.502519 
L 806.33263 -216.781784 
L 806.33263 -216.781784 
L 796.920552 -210.716176 
z
" style="stroke: #ff00ac; stroke-opacity: 0.3"/>
    </defs>
    <g clip-path="url(#p8c39f7ab79)">
     <use xlink:href="#mcb4e966a7d" x="0" y="288" style="fill: #ff00ac; fill-opacity: 0.3; stroke: #ff00ac; stroke-opacity: 0.3"/>
    </g>
   </g>
   <g id="FillBetweenPolyCollection_68">
    <defs>
     <path id="m01ca7d845f" d="M 806.33263 -216.781784 
L 806.33263 -176.502519 
L 815.744708 -178.238577 
L 815.744708 -220.189171 
L 815.744708 -220.189171 
L 806.33263 -216.781784 
z
" style="stroke: #ff0082; stroke-opacity: 0.3"/>
    </defs>
    <g clip-path="url(#p8c39f7ab79)">
     <use xlink:href="#m01ca7d845f" x="0" y="288" style="fill: #ff0082; fill-opacity: 0.3; stroke: #ff0082; stroke-opacity: 0.3"/>
    </g>
   </g>
   <g id="FillBetweenPolyCollection_69">
    <defs>
     <path id="m71438835aa" d="M 815.744708 -220.189171 
L 815.744708 -178.238577 
L 825.156786 -179.499672 
L 825.156786 -222.811297 
L 825.156786 -222.811297 
L 815.744708 -220.189171 
z
" style="stroke: #ff0053; stroke-opacity: 0.3"/>
    </defs>
    <g clip-path="url(#p8c39f7ab79)">
     <use xlink:href="#m71438835aa" x="0" y="288" style="fill: #ff0053; fill-opacity: 0.3; stroke: #ff0053; stroke-opacity: 0.3"/>
    </g>
   </g>
   <g id="FillBetweenPolyCollection_70">
    <defs>
     <path id="mf47d9f9420" d="M 825.156786 -222.811297 
L 825.156786 -179.499672 
L 834.568864 -180.344096 
L 834.568864 -224.558252 
L 834.568864 -224.558252 
L 825.156786 -222.811297 
z
" style="stroke: #ff002a; stroke-opacity: 0.3"/>
    </defs>
    <g clip-path="url(#p8c39f7ab79)">
     <use xlink:href="#mf47d9f9420" x="0" y="288" style="fill: #ff002a; fill-opacity: 0.3; stroke: #ff002a; stroke-opacity: 0.3"/>
    </g>
   </g>
   <g id="matplotlib.axis_3">
    <g id="xtick_9">
     <g id="line2d_15">
      <g>
       <use xlink:href="#ma6db86476e" x="505.146136" y="240.955" style="stroke: #000000; stroke-width: 0.8"/>
      </g>
     </g>
     <g id="text_17">
      <!-- 0 -->
      <g transform="translate(502.146136 256.2875) scale(0.12 -0.12)">
       <use xlink:href="#TimesNewRomanPSMT-30"/>
      </g>
     </g>
    </g>
    <g id="xtick_10">
     <g id="line2d_16">
      <g>
       <use xlink:href="#ma6db86476e" x="552.206526" y="240.955" style="stroke: #000000; stroke-width: 0.8"/>
      </g>
     </g>
     <g id="text_18">
      <!-- 50 -->
      <g transform="translate(546.206526 256.2875) scale(0.12 -0.12)">
       <use xlink:href="#TimesNewRomanPSMT-35"/>
       <use xlink:href="#TimesNewRomanPSMT-30" transform="translate(50 0)"/>
      </g>
     </g>
    </g>
    <g id="xtick_11">
     <g id="line2d_17">
      <g>
       <use xlink:href="#ma6db86476e" x="599.266916" y="240.955" style="stroke: #000000; stroke-width: 0.8"/>
      </g>
     </g>
     <g id="text_19">
      <!-- 100 -->
      <g transform="translate(590.266916 256.2875) scale(0.12 -0.12)">
       <use xlink:href="#TimesNewRomanPSMT-31"/>
       <use xlink:href="#TimesNewRomanPSMT-30" transform="translate(50 0)"/>
       <use xlink:href="#TimesNewRomanPSMT-30" transform="translate(100 0)"/>
      </g>
     </g>
    </g>
    <g id="xtick_12">
     <g id="line2d_18">
      <g>
       <use xlink:href="#ma6db86476e" x="646.327305" y="240.955" style="stroke: #000000; stroke-width: 0.8"/>
      </g>
     </g>
     <g id="text_20">
      <!-- 150 -->
      <g transform="translate(637.327305 256.2875) scale(0.12 -0.12)">
       <use xlink:href="#TimesNewRomanPSMT-31"/>
       <use xlink:href="#TimesNewRomanPSMT-35" transform="translate(50 0)"/>
       <use xlink:href="#TimesNewRomanPSMT-30" transform="translate(100 0)"/>
      </g>
     </g>
    </g>
    <g id="xtick_13">
     <g id="line2d_19">
      <g>
       <use xlink:href="#ma6db86476e" x="693.387695" y="240.955" style="stroke: #000000; stroke-width: 0.8"/>
      </g>
     </g>
     <g id="text_21">
      <!-- 200 -->
      <g transform="translate(684.387695 256.2875) scale(0.12 -0.12)">
       <use xlink:href="#TimesNewRomanPSMT-32"/>
       <use xlink:href="#TimesNewRomanPSMT-30" transform="translate(50 0)"/>
       <use xlink:href="#TimesNewRomanPSMT-30" transform="translate(100 0)"/>
      </g>
     </g>
    </g>
    <g id="xtick_14">
     <g id="line2d_20">
      <g>
       <use xlink:href="#ma6db86476e" x="740.448084" y="240.955" style="stroke: #000000; stroke-width: 0.8"/>
      </g>
     </g>
     <g id="text_22">
      <!-- 250 -->
      <g transform="translate(731.448084 256.2875) scale(0.12 -0.12)">
       <use xlink:href="#TimesNewRomanPSMT-32"/>
       <use xlink:href="#TimesNewRomanPSMT-35" transform="translate(50 0)"/>
       <use xlink:href="#TimesNewRomanPSMT-30" transform="translate(100 0)"/>
      </g>
     </g>
    </g>
    <g id="xtick_15">
     <g id="line2d_21">
      <g>
       <use xlink:href="#ma6db86476e" x="787.508474" y="240.955" style="stroke: #000000; stroke-width: 0.8"/>
      </g>
     </g>
     <g id="text_23">
      <!-- 300 -->
      <g transform="translate(778.508474 256.2875) scale(0.12 -0.12)">
       <use xlink:href="#TimesNewRomanPSMT-33"/>
       <use xlink:href="#TimesNewRomanPSMT-30" transform="translate(50 0)"/>
       <use xlink:href="#TimesNewRomanPSMT-30" transform="translate(100 0)"/>
      </g>
     </g>
    </g>
    <g id="xtick_16">
     <g id="line2d_22">
      <g>
       <use xlink:href="#ma6db86476e" x="834.568864" y="240.955" style="stroke: #000000; stroke-width: 0.8"/>
      </g>
     </g>
     <g id="text_24">
      <!-- 350 -->
      <g transform="translate(825.568864 256.2875) scale(0.12 -0.12)">
       <use xlink:href="#TimesNewRomanPSMT-33"/>
       <use xlink:href="#TimesNewRomanPSMT-35" transform="translate(50 0)"/>
       <use xlink:href="#TimesNewRomanPSMT-30" transform="translate(100 0)"/>
      </g>
     </g>
    </g>
    <g id="text_25">
     <!-- Wind angle (deg) -->
     <g transform="translate(628.114375 271.186875) scale(0.12 -0.12)">
      <use xlink:href="#TimesNewRomanPSMT-57"/>
      <use xlink:href="#TimesNewRomanPSMT-69" transform="translate(90.384766 0)"/>
      <use xlink:href="#TimesNewRomanPSMT-6e" transform="translate(118.167969 0)"/>
      <use xlink:href="#TimesNewRomanPSMT-64" transform="translate(168.167969 0)"/>
      <use xlink:href="#TimesNewRomanPSMT-20" transform="translate(218.167969 0)"/>
      <use xlink:href="#TimesNewRomanPSMT-61" transform="translate(243.167969 0)"/>
      <use xlink:href="#TimesNewRomanPSMT-6e" transform="translate(287.552734 0)"/>
      <use xlink:href="#TimesNewRomanPSMT-67" transform="translate(337.552734 0)"/>
      <use xlink:href="#TimesNewRomanPSMT-6c" transform="translate(387.552734 0)"/>
      <use xlink:href="#TimesNewRomanPSMT-65" transform="translate(415.335938 0)"/>
      <use xlink:href="#TimesNewRomanPSMT-20" transform="translate(459.720703 0)"/>
      <use xlink:href="#TimesNewRomanPSMT-28" transform="translate(484.720703 0)"/>
      <use xlink:href="#TimesNewRomanPSMT-64" transform="translate(518.021484 0)"/>
      <use xlink:href="#TimesNewRomanPSMT-65" transform="translate(568.021484 0)"/>
      <use xlink:href="#TimesNewRomanPSMT-67" transform="translate(612.40625 0)"/>
      <use xlink:href="#TimesNewRomanPSMT-29" transform="translate(662.40625 0)"/>
     </g>
    </g>
   </g>
   <g id="matplotlib.axis_4">
    <g id="ytick_6">
     <g id="line2d_23">
      <g>
       <use xlink:href="#m694ffabda8" x="488.675" y="229.370685" style="stroke: #000000; stroke-width: 0.8"/>
      </g>
     </g>
     <g id="text_26">
      <!-- −0.02 -->
      <g transform="translate(453.908125 233.536935) scale(0.12 -0.12)">
       <use xlink:href="#TimesNewRomanPSMT-2212"/>
       <use xlink:href="#TimesNewRomanPSMT-30" transform="translate(56.396484 0)"/>
       <use xlink:href="#TimesNewRomanPSMT-2e" transform="translate(106.396484 0)"/>
       <use xlink:href="#TimesNewRomanPSMT-30" transform="translate(131.396484 0)"/>
       <use xlink:href="#TimesNewRomanPSMT-32" transform="translate(181.396484 0)"/>
      </g>
     </g>
    </g>
    <g id="ytick_7">
     <g id="line2d_24">
      <g>
       <use xlink:href="#m694ffabda8" x="488.675" y="198.572807" style="stroke: #000000; stroke-width: 0.8"/>
      </g>
     </g>
     <g id="text_27">
      <!-- 0.00 -->
      <g transform="translate(460.675 202.739057) scale(0.12 -0.12)">
       <use xlink:href="#TimesNewRomanPSMT-30"/>
       <use xlink:href="#TimesNewRomanPSMT-2e" transform="translate(50 0)"/>
       <use xlink:href="#TimesNewRomanPSMT-30" transform="translate(75 0)"/>
       <use xlink:href="#TimesNewRomanPSMT-30" transform="translate(125 0)"/>
      </g>
     </g>
    </g>
    <g id="ytick_8">
     <g id="line2d_25">
      <g>
       <use xlink:href="#m694ffabda8" x="488.675" y="167.77493" style="stroke: #000000; stroke-width: 0.8"/>
      </g>
     </g>
     <g id="text_28">
      <!-- 0.02 -->
      <g transform="translate(460.675 171.94118) scale(0.12 -0.12)">
       <use xlink:href="#TimesNewRomanPSMT-30"/>
       <use xlink:href="#TimesNewRomanPSMT-2e" transform="translate(50 0)"/>
       <use xlink:href="#TimesNewRomanPSMT-30" transform="translate(75 0)"/>
       <use xlink:href="#TimesNewRomanPSMT-32" transform="translate(125 0)"/>
      </g>
     </g>
    </g>
    <g id="ytick_9">
     <g id="line2d_26">
      <g>
       <use xlink:href="#m694ffabda8" x="488.675" y="136.977052" style="stroke: #000000; stroke-width: 0.8"/>
      </g>
     </g>
     <g id="text_29">
      <!-- 0.04 -->
      <g transform="translate(460.675 141.143302) scale(0.12 -0.12)">
       <use xlink:href="#TimesNewRomanPSMT-30"/>
       <use xlink:href="#TimesNewRomanPSMT-2e" transform="translate(50 0)"/>
       <use xlink:href="#TimesNewRomanPSMT-30" transform="translate(75 0)"/>
       <use xlink:href="#TimesNewRomanPSMT-34" transform="translate(125 0)"/>
      </g>
     </g>
    </g>
    <g id="ytick_10">
     <g id="line2d_27">
      <g>
       <use xlink:href="#m694ffabda8" x="488.675" y="106.179175" style="stroke: #000000; stroke-width: 0.8"/>
      </g>
     </g>
     <g id="text_30">
      <!-- 0.06 -->
      <g transform="translate(460.675 110.345425) scale(0.12 -0.12)">
       <defs>
        <path id="TimesNewRomanPSMT-36" d="M 2869 4325 
L 2869 4209 
Q 2456 4169 2195 4045 
Q 1934 3922 1679 3669 
Q 1425 3416 1258 3105 
Q 1091 2794 978 2366 
Q 1428 2675 1881 2675 
Q 2316 2675 2634 2325 
Q 2953 1975 2953 1425 
Q 2953 894 2631 456 
Q 2244 -75 1606 -75 
Q 1172 -75 869 213 
Q 275 772 275 1663 
Q 275 2231 503 2743 
Q 731 3256 1154 3653 
Q 1578 4050 1965 4187 
Q 2353 4325 2688 4325 
L 2869 4325 
z
M 925 2138 
Q 869 1716 869 1456 
Q 869 1156 980 804 
Q 1091 453 1309 247 
Q 1469 100 1697 100 
Q 1969 100 2183 356 
Q 2397 613 2397 1088 
Q 2397 1622 2184 2012 
Q 1972 2403 1581 2403 
Q 1463 2403 1327 2353 
Q 1191 2303 925 2138 
z
" transform="scale(0.015625)"/>
       </defs>
       <use xlink:href="#TimesNewRomanPSMT-30"/>
       <use xlink:href="#TimesNewRomanPSMT-2e" transform="translate(50 0)"/>
       <use xlink:href="#TimesNewRomanPSMT-30" transform="translate(75 0)"/>
       <use xlink:href="#TimesNewRomanPSMT-36" transform="translate(125 0)"/>
      </g>
     </g>
    </g>
    <g id="ytick_11">
     <g id="line2d_28">
      <g>
       <use xlink:href="#m694ffabda8" x="488.675" y="75.381297" style="stroke: #000000; stroke-width: 0.8"/>
      </g>
     </g>
     <g id="text_31">
      <!-- 0.08 -->
      <g transform="translate(460.675 79.547547) scale(0.12 -0.12)">
       <defs>
        <path id="TimesNewRomanPSMT-38" d="M 1228 2134 
Q 725 2547 579 2797 
Q 434 3047 434 3316 
Q 434 3728 753 4026 
Q 1072 4325 1600 4325 
Q 2113 4325 2425 4047 
Q 2738 3769 2738 3413 
Q 2738 3175 2569 2928 
Q 2400 2681 1866 2347 
Q 2416 1922 2594 1678 
Q 2831 1359 2831 1006 
Q 2831 559 2490 242 
Q 2150 -75 1597 -75 
Q 994 -75 656 303 
Q 388 606 388 966 
Q 388 1247 577 1523 
Q 766 1800 1228 2134 
z
M 1719 2469 
Q 2094 2806 2194 3001 
Q 2294 3197 2294 3444 
Q 2294 3772 2109 3958 
Q 1925 4144 1606 4144 
Q 1288 4144 1088 3959 
Q 888 3775 888 3528 
Q 888 3366 970 3203 
Q 1053 3041 1206 2894 
L 1719 2469 
z
M 1375 2016 
Q 1116 1797 991 1539 
Q 866 1281 866 981 
Q 866 578 1086 336 
Q 1306 94 1647 94 
Q 1984 94 2187 284 
Q 2391 475 2391 747 
Q 2391 972 2272 1150 
Q 2050 1481 1375 2016 
z
" transform="scale(0.015625)"/>
       </defs>
       <use xlink:href="#TimesNewRomanPSMT-30"/>
       <use xlink:href="#TimesNewRomanPSMT-2e" transform="translate(50 0)"/>
       <use xlink:href="#TimesNewRomanPSMT-30" transform="translate(75 0)"/>
       <use xlink:href="#TimesNewRomanPSMT-38" transform="translate(125 0)"/>
      </g>
     </g>
    </g>
    <g id="text_32">
     <!-- qpos -->
     <g transform="translate(447.34125 159.292812) rotate(-90) scale(0.12 -0.12)">
      <use xlink:href="#TimesNewRomanPSMT-71"/>
      <use xlink:href="#TimesNewRomanPSMT-70" transform="translate(50 0)"/>
      <use xlink:href="#TimesNewRomanPSMT-6f" transform="translate(100 0)"/>
      <use xlink:href="#TimesNewRomanPSMT-73" transform="translate(150 0)"/>
     </g>
    </g>
   </g>
   <g id="line2d_29">
    <path d="M 505.146136 91.616982 
L 514.558214 85.512702 
L 523.970292 86.730613 
L 533.38237 88.634244 
L 542.794448 91.116957 
L 552.206526 95.505281 
L 561.618604 102.392153 
L 571.030682 114.036271 
L 580.44276 129.528471 
L 589.854838 146.987462 
L 599.266916 164.423422 
L 608.678994 179.874625 
L 618.091071 191.591277 
L 627.503149 198.796723 
L 636.915227 203.673295 
L 646.327305 206.488151 
L 655.739383 208.594593 
L 665.151461 210.0252 
L 674.563539 210.559773 
L 683.975617 210.090233 
L 693.387695 208.710044 
L 702.799773 206.643133 
L 712.211851 203.93045 
L 721.623929 199.215553 
L 731.036006 192.258783 
L 740.448084 180.876083 
L 749.860162 165.699181 
L 759.27224 148.400281 
L 768.684318 130.898032 
L 778.096396 115.17626 
L 787.508474 103.153287 
L 796.920552 95.932865 
L 806.33263 91.357848 
L 815.744708 88.786126 
L 825.156786 86.844515 
L 834.568864 85.548826 
" clip-path="url(#p8c39f7ab79)" style="fill: none; stroke: #808080; stroke-linecap: square"/>
   </g>
   <g id="patch_6">
    <path d="M 488.675 240.955 
L 488.675 54.96 
" style="fill: none; stroke: #000000; stroke-width: 0.5; stroke-linejoin: miter; stroke-linecap: square"/>
   </g>
   <g id="patch_7">
    <path d="M 488.675 240.955 
L 851.04 240.955 
" style="fill: none; stroke: #000000; stroke-width: 0.5; stroke-linejoin: miter; stroke-linecap: square"/>
   </g>
   <g id="PathCollection_2">
    <defs>
     <path id="C1_0_bc9f4945a3" d="M 0 2.738613 
C 0.726289 2.738613 1.422928 2.450055 1.936492 1.936492 
C 2.450055 1.422928 2.738613 0.726289 2.738613 -0 
C 2.738613 -0.726289 2.450055 -1.422928 1.936492 -1.936492 
C 1.422928 -2.450055 0.726289 -2.738613 0 -2.738613 
C -0.726289 -2.738613 -1.422928 -2.450055 -1.936492 -1.936492 
C -2.450055 -1.422928 -2.738613 -0.726289 -2.738613 0 
C -2.738613 0.726289 -2.450055 1.422928 -1.936492 1.936492 
C -1.422928 2.450055 -0.726289 2.738613 0 2.738613 
z
"/>
    </defs>
    <g clip-path="url(#p8c39f7ab79)">
     <use xlink:href="#C1_0_bc9f4945a3" x="505.146136" y="91.616982" style="fill: #ff0000; fill-opacity: 0.7; stroke: #ff0000; stroke-opacity: 0.7"/>
    </g>
    <g clip-path="url(#p8c39f7ab79)">
     <use xlink:href="#C1_0_bc9f4945a3" x="514.558214" y="85.512702" style="fill: #ff2900; fill-opacity: 0.7; stroke: #ff2900; stroke-opacity: 0.7"/>
    </g>
    <g clip-path="url(#p8c39f7ab79)">
     <use xlink:href="#C1_0_bc9f4945a3" x="523.970292" y="86.730613" style="fill: #ff5300; fill-opacity: 0.7; stroke: #ff5300; stroke-opacity: 0.7"/>
    </g>
    <g clip-path="url(#p8c39f7ab79)">
     <use xlink:href="#C1_0_bc9f4945a3" x="533.38237" y="88.634244" style="fill: #ff7c00; fill-opacity: 0.7; stroke: #ff7c00; stroke-opacity: 0.7"/>
    </g>
    <g clip-path="url(#p8c39f7ab79)">
     <use xlink:href="#C1_0_bc9f4945a3" x="542.794448" y="91.116957" style="fill: #ffab00; fill-opacity: 0.7; stroke: #ffab00; stroke-opacity: 0.7"/>
    </g>
    <g clip-path="url(#p8c39f7ab79)">
     <use xlink:href="#C1_0_bc9f4945a3" x="552.206526" y="95.505281" style="fill: #ffd500; fill-opacity: 0.7; stroke: #ffd500; stroke-opacity: 0.7"/>
    </g>
    <g clip-path="url(#p8c39f7ab79)">
     <use xlink:href="#C1_0_bc9f4945a3" x="561.618604" y="102.392153" style="fill: #faf900; fill-opacity: 0.7; stroke: #faf900; stroke-opacity: 0.7"/>
    </g>
    <g clip-path="url(#p8c39f7ab79)">
     <use xlink:href="#C1_0_bc9f4945a3" x="571.030682" y="114.036271" style="fill: #d1ff00; fill-opacity: 0.7; stroke: #d1ff00; stroke-opacity: 0.7"/>
    </g>
    <g clip-path="url(#p8c39f7ab79)">
     <use xlink:href="#C1_0_bc9f4945a3" x="580.44276" y="129.528471" style="fill: #a7ff00; fill-opacity: 0.7; stroke: #a7ff00; stroke-opacity: 0.7"/>
    </g>
    <g clip-path="url(#p8c39f7ab79)">
     <use xlink:href="#C1_0_bc9f4945a3" x="589.854838" y="146.987462" style="fill: #7eff00; fill-opacity: 0.7; stroke: #7eff00; stroke-opacity: 0.7"/>
    </g>
    <g clip-path="url(#p8c39f7ab79)">
     <use xlink:href="#C1_0_bc9f4945a3" x="599.266916" y="164.423422" style="fill: #4fff00; fill-opacity: 0.7; stroke: #4fff00; stroke-opacity: 0.7"/>
    </g>
    <g clip-path="url(#p8c39f7ab79)">
     <use xlink:href="#C1_0_bc9f4945a3" x="608.678994" y="179.874625" style="fill: #25ff00; fill-opacity: 0.7; stroke: #25ff00; stroke-opacity: 0.7"/>
    </g>
    <g clip-path="url(#p8c39f7ab79)">
     <use xlink:href="#C1_0_bc9f4945a3" x="618.091071" y="191.591277" style="fill: #04ff08; fill-opacity: 0.7; stroke: #04ff08; stroke-opacity: 0.7"/>
    </g>
    <g clip-path="url(#p8c39f7ab79)">
     <use xlink:href="#C1_0_bc9f4945a3" x="627.503149" y="198.796723" style="fill: #00ff33; fill-opacity: 0.7; stroke: #00ff33; stroke-opacity: 0.7"/>
    </g>
    <g clip-path="url(#p8c39f7ab79)">
     <use xlink:href="#C1_0_bc9f4945a3" x="636.915227" y="203.673295" style="fill: #00ff5c; fill-opacity: 0.7; stroke: #00ff5c; stroke-opacity: 0.7"/>
    </g>
    <g clip-path="url(#p8c39f7ab79)">
     <use xlink:href="#C1_0_bc9f4945a3" x="646.327305" y="206.488151" style="fill: #00ff86; fill-opacity: 0.7; stroke: #00ff86; stroke-opacity: 0.7"/>
    </g>
    <g clip-path="url(#p8c39f7ab79)">
     <use xlink:href="#C1_0_bc9f4945a3" x="655.739383" y="208.594593" style="fill: #00ffb5; fill-opacity: 0.7; stroke: #00ffb5; stroke-opacity: 0.7"/>
    </g>
    <g clip-path="url(#p8c39f7ab79)">
     <use xlink:href="#C1_0_bc9f4945a3" x="665.151461" y="210.0252" style="fill: #00ffde; fill-opacity: 0.7; stroke: #00ffde; stroke-opacity: 0.7"/>
    </g>
    <g clip-path="url(#p8c39f7ab79)">
     <use xlink:href="#C1_0_bc9f4945a3" x="674.563539" y="210.559773" style="fill: #00f6ff; fill-opacity: 0.7; stroke: #00f6ff; stroke-opacity: 0.7"/>
    </g>
    <g clip-path="url(#p8c39f7ab79)">
     <use xlink:href="#C1_0_bc9f4945a3" x="683.975617" y="210.090233" style="fill: #00cdff; fill-opacity: 0.7; stroke: #00cdff; stroke-opacity: 0.7"/>
    </g>
    <g clip-path="url(#p8c39f7ab79)">
     <use xlink:href="#C1_0_bc9f4945a3" x="693.387695" y="208.710044" style="fill: #009eff; fill-opacity: 0.7; stroke: #009eff; stroke-opacity: 0.7"/>
    </g>
    <g clip-path="url(#p8c39f7ab79)">
     <use xlink:href="#C1_0_bc9f4945a3" x="702.799773" y="206.643133" style="fill: #0074ff; fill-opacity: 0.7; stroke: #0074ff; stroke-opacity: 0.7"/>
    </g>
    <g clip-path="url(#p8c39f7ab79)">
     <use xlink:href="#C1_0_bc9f4945a3" x="712.211851" y="203.93045" style="fill: #004bff; fill-opacity: 0.7; stroke: #004bff; stroke-opacity: 0.7"/>
    </g>
    <g clip-path="url(#p8c39f7ab79)">
     <use xlink:href="#C1_0_bc9f4945a3" x="721.623929" y="199.215553" style="fill: #001cff; fill-opacity: 0.7; stroke: #001cff; stroke-opacity: 0.7"/>
    </g>
    <g clip-path="url(#p8c39f7ab79)">
     <use xlink:href="#C1_0_bc9f4945a3" x="731.036006" y="192.258783" style="fill: #0e00ff; fill-opacity: 0.7; stroke: #0e00ff; stroke-opacity: 0.7"/>
    </g>
    <g clip-path="url(#p8c39f7ab79)">
     <use xlink:href="#C1_0_bc9f4945a3" x="740.448084" y="180.876083" style="fill: #3700ff; fill-opacity: 0.7; stroke: #3700ff; stroke-opacity: 0.7"/>
    </g>
    <g clip-path="url(#p8c39f7ab79)">
     <use xlink:href="#C1_0_bc9f4945a3" x="749.860162" y="165.699181" style="fill: #6600ff; fill-opacity: 0.7; stroke: #6600ff; stroke-opacity: 0.7"/>
    </g>
    <g clip-path="url(#p8c39f7ab79)">
     <use xlink:href="#C1_0_bc9f4945a3" x="759.27224" y="148.400281" style="fill: #9000ff; fill-opacity: 0.7; stroke: #9000ff; stroke-opacity: 0.7"/>
    </g>
    <g clip-path="url(#p8c39f7ab79)">
     <use xlink:href="#C1_0_bc9f4945a3" x="768.684318" y="130.898032" style="fill: #b900ff; fill-opacity: 0.7; stroke: #b900ff; stroke-opacity: 0.7"/>
    </g>
    <g clip-path="url(#p8c39f7ab79)">
     <use xlink:href="#C1_0_bc9f4945a3" x="778.096396" y="115.17626" style="fill: #e800ff; fill-opacity: 0.7; stroke: #e800ff; stroke-opacity: 0.7"/>
    </g>
    <g clip-path="url(#p8c39f7ab79)">
     <use xlink:href="#C1_0_bc9f4945a3" x="787.508474" y="103.153287" style="fill: #ff00ed; fill-opacity: 0.7; stroke: #ff00ed; stroke-opacity: 0.7"/>
    </g>
    <g clip-path="url(#p8c39f7ab79)">
     <use xlink:href="#C1_0_bc9f4945a3" x="796.920552" y="95.932865" style="fill: #ff00c3; fill-opacity: 0.7; stroke: #ff00c3; stroke-opacity: 0.7"/>
    </g>
    <g clip-path="url(#p8c39f7ab79)">
     <use xlink:href="#C1_0_bc9f4945a3" x="806.33263" y="91.357848" style="fill: #ff0094; fill-opacity: 0.7; stroke: #ff0094; stroke-opacity: 0.7"/>
    </g>
    <g clip-path="url(#p8c39f7ab79)">
     <use xlink:href="#C1_0_bc9f4945a3" x="815.744708" y="88.786126" style="fill: #ff006b; fill-opacity: 0.7; stroke: #ff006b; stroke-opacity: 0.7"/>
    </g>
    <g clip-path="url(#p8c39f7ab79)">
     <use xlink:href="#C1_0_bc9f4945a3" x="825.156786" y="86.844515" style="fill: #ff0041; fill-opacity: 0.7; stroke: #ff0041; stroke-opacity: 0.7"/>
    </g>
    <g clip-path="url(#p8c39f7ab79)">
     <use xlink:href="#C1_0_bc9f4945a3" x="834.568864" y="85.548826" style="fill: #ff0018; fill-opacity: 0.7; stroke: #ff0018; stroke-opacity: 0.7"/>
    </g>
   </g>
   <g id="text_33">
    <!-- qposy -->
    <g transform="translate(652.655125 48.96) scale(0.144 -0.144)">
     <defs>
      <path id="TimesNewRomanPSMT-79" d="M 38 2863 
L 1372 2863 
L 1372 2747 
L 1306 2747 
Q 1166 2747 1095 2686 
Q 1025 2625 1025 2534 
Q 1025 2413 1128 2197 
L 1825 753 
L 2466 2334 
Q 2519 2463 2519 2588 
Q 2519 2644 2497 2672 
Q 2472 2706 2419 2726 
Q 2366 2747 2231 2747 
L 2231 2863 
L 3163 2863 
L 3163 2747 
Q 3047 2734 2984 2696 
Q 2922 2659 2847 2556 
Q 2819 2513 2741 2316 
L 1575 -541 
Q 1406 -956 1132 -1168 
Q 859 -1381 606 -1381 
Q 422 -1381 303 -1275 
Q 184 -1169 184 -1031 
Q 184 -900 270 -820 
Q 356 -741 506 -741 
Q 609 -741 788 -809 
Q 913 -856 944 -856 
Q 1038 -856 1148 -759 
Q 1259 -663 1372 -384 
L 1575 113 
L 547 2272 
Q 500 2369 397 2513 
Q 319 2622 269 2659 
Q 197 2709 38 2747 
L 38 2863 
z
" transform="scale(0.015625)"/>
     </defs>
     <use xlink:href="#TimesNewRomanPSMT-71"/>
     <use xlink:href="#TimesNewRomanPSMT-70" transform="translate(50 0)"/>
     <use xlink:href="#TimesNewRomanPSMT-6f" transform="translate(100 0)"/>
     <use xlink:href="#TimesNewRomanPSMT-73" transform="translate(150 0)"/>
     <use xlink:href="#TimesNewRomanPSMT-79" transform="translate(188.916016 0)"/>
    </g>
   </g>
  </g>
  <g id="text_34">
   <!-- Antenna qpos x/y vs Wind Angle — left+right averaged -->
   <g transform="translate(270.786375 15.759) scale(0.144 -0.144)">
    <defs>
     <path id="TimesNewRomanPSMT-41" d="M 2928 1419 
L 1288 1419 
L 1000 750 
Q 894 503 894 381 
Q 894 284 986 211 
Q 1078 138 1384 116 
L 1384 0 
L 50 0 
L 50 116 
Q 316 163 394 238 
Q 553 388 747 847 
L 2238 4334 
L 2347 4334 
L 3822 809 
Q 4000 384 4145 257 
Q 4291 131 4550 116 
L 4550 0 
L 2878 0 
L 2878 116 
Q 3131 128 3220 200 
Q 3309 272 3309 375 
Q 3309 513 3184 809 
L 2928 1419 
z
M 2841 1650 
L 2122 3363 
L 1384 1650 
L 2841 1650 
z
" transform="scale(0.015625)"/>
     <path id="TimesNewRomanPSMT-74" d="M 1031 3803 
L 1031 2863 
L 1700 2863 
L 1700 2644 
L 1031 2644 
L 1031 788 
Q 1031 509 1111 412 
Q 1191 316 1316 316 
Q 1419 316 1516 380 
Q 1613 444 1666 569 
L 1788 569 
Q 1678 263 1478 108 
Q 1278 -47 1066 -47 
Q 922 -47 784 33 
Q 647 113 581 261 
Q 516 409 516 719 
L 516 2644 
L 63 2644 
L 63 2747 
Q 234 2816 414 2980 
Q 594 3144 734 3369 
Q 806 3488 934 3803 
L 1031 3803 
z
" transform="scale(0.015625)"/>
     <path id="TimesNewRomanPSMT-2f" d="M 1794 4444 
L 259 -88 
L 9 -88 
L 1544 4444 
L 1794 4444 
z
" transform="scale(0.015625)"/>
     <path id="TimesNewRomanPSMT-76" d="M 53 2863 
L 1400 2863 
L 1400 2747 
L 1313 2747 
Q 1191 2747 1127 2687 
Q 1063 2628 1063 2528 
Q 1063 2419 1128 2269 
L 1794 688 
L 2463 2328 
Q 2534 2503 2534 2594 
Q 2534 2638 2509 2666 
Q 2475 2713 2422 2730 
Q 2369 2747 2206 2747 
L 2206 2863 
L 3141 2863 
L 3141 2747 
Q 2978 2734 2916 2681 
Q 2806 2588 2719 2369 
L 1703 -88 
L 1575 -88 
L 553 2328 
Q 484 2497 421 2570 
Q 359 2644 263 2694 
Q 209 2722 53 2747 
L 53 2863 
z
" transform="scale(0.015625)"/>
     <path id="TimesNewRomanPSMT-2014" d="M 6456 1416 
L -59 1416 
L -59 1647 
L 6456 1647 
L 6456 1416 
z
" transform="scale(0.015625)"/>
     <path id="TimesNewRomanPSMT-66" d="M 1319 2638 
L 1319 756 
Q 1319 356 1406 250 
Q 1522 113 1716 113 
L 1975 113 
L 1975 0 
L 266 0 
L 266 113 
L 394 113 
Q 519 113 622 175 
Q 725 238 764 344 
Q 803 450 803 756 
L 803 2638 
L 247 2638 
L 247 2863 
L 803 2863 
L 803 3050 
Q 803 3478 940 3775 
Q 1078 4072 1361 4255 
Q 1644 4438 1997 4438 
Q 2325 4438 2600 4225 
Q 2781 4084 2781 3909 
Q 2781 3816 2700 3733 
Q 2619 3650 2525 3650 
Q 2453 3650 2373 3701 
Q 2294 3753 2178 3923 
Q 2063 4094 1966 4153 
Q 1869 4213 1750 4213 
Q 1606 4213 1506 4136 
Q 1406 4059 1362 3898 
Q 1319 3738 1319 3069 
L 1319 2863 
L 2056 2863 
L 2056 2638 
L 1319 2638 
z
" transform="scale(0.015625)"/>
     <path id="TimesNewRomanPSMT-2b" d="M 1672 441 
L 1672 2000 
L 116 2000 
L 116 2256 
L 1672 2256 
L 1672 3809 
L 1922 3809 
L 1922 2256 
L 3484 2256 
L 3484 2000 
L 1922 2000 
L 1922 441 
L 1672 441 
z
" transform="scale(0.015625)"/>
     <path id="TimesNewRomanPSMT-72" d="M 1038 2947 
L 1038 2303 
Q 1397 2947 1775 2947 
Q 1947 2947 2059 2842 
Q 2172 2738 2172 2600 
Q 2172 2478 2090 2393 
Q 2009 2309 1897 2309 
Q 1788 2309 1652 2417 
Q 1516 2525 1450 2525 
Q 1394 2525 1328 2463 
Q 1188 2334 1038 2041 
L 1038 669 
Q 1038 431 1097 309 
Q 1138 225 1241 169 
Q 1344 113 1538 113 
L 1538 0 
L 72 0 
L 72 113 
Q 291 113 397 181 
Q 475 231 506 341 
Q 522 394 522 644 
L 522 1753 
Q 522 2253 501 2348 
Q 481 2444 426 2487 
Q 372 2531 291 2531 
Q 194 2531 72 2484 
L 41 2597 
L 906 2947 
L 1038 2947 
z
" transform="scale(0.015625)"/>
     <path id="TimesNewRomanPSMT-68" d="M 1041 4444 
L 1041 2350 
Q 1388 2731 1591 2839 
Q 1794 2947 1997 2947 
Q 2241 2947 2416 2812 
Q 2591 2678 2675 2391 
Q 2734 2191 2734 1659 
L 2734 647 
Q 2734 375 2778 275 
Q 2809 200 2884 156 
Q 2959 113 3159 113 
L 3159 0 
L 1753 0 
L 1753 113 
L 1819 113 
Q 2019 113 2097 173 
Q 2175 234 2206 353 
Q 2216 403 2216 647 
L 2216 1659 
Q 2216 2128 2167 2275 
Q 2119 2422 2012 2495 
Q 1906 2569 1756 2569 
Q 1603 2569 1437 2487 
Q 1272 2406 1041 2159 
L 1041 647 
Q 1041 353 1073 281 
Q 1106 209 1195 161 
Q 1284 113 1503 113 
L 1503 0 
L 84 0 
L 84 113 
Q 275 113 384 172 
Q 447 203 484 290 
Q 522 378 522 647 
L 522 3238 
Q 522 3728 498 3840 
Q 475 3953 426 3993 
Q 378 4034 297 4034 
Q 231 4034 84 3984 
L 41 4094 
L 897 4444 
L 1041 4444 
z
" transform="scale(0.015625)"/>
    </defs>
    <use xlink:href="#TimesNewRomanPSMT-41"/>
    <use xlink:href="#TimesNewRomanPSMT-6e" transform="translate(72.216797 0)"/>
    <use xlink:href="#TimesNewRomanPSMT-74" transform="translate(122.216797 0)"/>
    <use xlink:href="#TimesNewRomanPSMT-65" transform="translate(150 0)"/>
    <use xlink:href="#TimesNewRomanPSMT-6e" transform="translate(194.384766 0)"/>
    <use xlink:href="#TimesNewRomanPSMT-6e" transform="translate(244.384766 0)"/>
    <use xlink:href="#TimesNewRomanPSMT-61" transform="translate(294.384766 0)"/>
    <use xlink:href="#TimesNewRomanPSMT-20" transform="translate(338.769531 0)"/>
    <use xlink:href="#TimesNewRomanPSMT-71" transform="translate(363.769531 0)"/>
    <use xlink:href="#TimesNewRomanPSMT-70" transform="translate(413.769531 0)"/>
    <use xlink:href="#TimesNewRomanPSMT-6f" transform="translate(463.769531 0)"/>
    <use xlink:href="#TimesNewRomanPSMT-73" transform="translate(513.769531 0)"/>
    <use xlink:href="#TimesNewRomanPSMT-20" transform="translate(552.685547 0)"/>
    <use xlink:href="#TimesNewRomanPSMT-78" transform="translate(577.685547 0)"/>
    <use xlink:href="#TimesNewRomanPSMT-2f" transform="translate(627.685547 0)"/>
    <use xlink:href="#TimesNewRomanPSMT-79" transform="translate(655.46875 0)"/>
    <use xlink:href="#TimesNewRomanPSMT-20" transform="translate(705.46875 0)"/>
    <use xlink:href="#TimesNewRomanPSMT-76" transform="translate(730.46875 0)"/>
    <use xlink:href="#TimesNewRomanPSMT-73" transform="translate(780.46875 0)"/>
    <use xlink:href="#TimesNewRomanPSMT-20" transform="translate(819.384766 0)"/>
    <use xlink:href="#TimesNewRomanPSMT-57" transform="translate(842.634766 0)"/>
    <use xlink:href="#TimesNewRomanPSMT-69" transform="translate(933.019531 0)"/>
    <use xlink:href="#TimesNewRomanPSMT-6e" transform="translate(960.802734 0)"/>
    <use xlink:href="#TimesNewRomanPSMT-64" transform="translate(1010.802734 0)"/>
    <use xlink:href="#TimesNewRomanPSMT-20" transform="translate(1060.802734 0)"/>
    <use xlink:href="#TimesNewRomanPSMT-41" transform="translate(1080.302734 0)"/>
    <use xlink:href="#TimesNewRomanPSMT-6e" transform="translate(1152.519531 0)"/>
    <use xlink:href="#TimesNewRomanPSMT-67" transform="translate(1202.519531 0)"/>
    <use xlink:href="#TimesNewRomanPSMT-6c" transform="translate(1252.519531 0)"/>
    <use xlink:href="#TimesNewRomanPSMT-65" transform="translate(1280.302734 0)"/>
    <use xlink:href="#TimesNewRomanPSMT-20" transform="translate(1324.6875 0)"/>
    <use xlink:href="#TimesNewRomanPSMT-2014" transform="translate(1349.6875 0)"/>
    <use xlink:href="#TimesNewRomanPSMT-20" transform="translate(1449.6875 0)"/>
    <use xlink:href="#TimesNewRomanPSMT-6c" transform="translate(1474.6875 0)"/>
    <use xlink:href="#TimesNewRomanPSMT-65" transform="translate(1502.470703 0)"/>
    <use xlink:href="#TimesNewRomanPSMT-66" transform="translate(1546.855469 0)"/>
    <use xlink:href="#TimesNewRomanPSMT-74" transform="translate(1580.15625 0)"/>
    <use xlink:href="#TimesNewRomanPSMT-2b" transform="translate(1607.939453 0)"/>
    <use xlink:href="#TimesNewRomanPSMT-72" transform="translate(1664.335938 0)"/>
    <use xlink:href="#TimesNewRomanPSMT-69" transform="translate(1697.636719 0)"/>
    <use xlink:href="#TimesNewRomanPSMT-67" transform="translate(1725.419922 0)"/>
    <use xlink:href="#TimesNewRomanPSMT-68" transform="translate(1775.419922 0)"/>
    <use xlink:href="#TimesNewRomanPSMT-74" transform="translate(1825.419922 0)"/>
    <use xlink:href="#TimesNewRomanPSMT-20" transform="translate(1853.203125 0)"/>
    <use xlink:href="#TimesNewRomanPSMT-61" transform="translate(1878.203125 0)"/>
    <use xlink:href="#TimesNewRomanPSMT-76" transform="translate(1922.587891 0)"/>
    <use xlink:href="#TimesNewRomanPSMT-65" transform="translate(1972.587891 0)"/>
    <use xlink:href="#TimesNewRomanPSMT-72" transform="translate(2016.972656 0)"/>
    <use xlink:href="#TimesNewRomanPSMT-61" transform="translate(2050.273438 0)"/>
    <use xlink:href="#TimesNewRomanPSMT-67" transform="translate(2094.658203 0)"/>
    <use xlink:href="#TimesNewRomanPSMT-65" transform="translate(2144.658203 0)"/>
    <use xlink:href="#TimesNewRomanPSMT-64" transform="translate(2189.042969 0)"/>
   </g>
  </g>
 </g>
 <defs>
  <clipPath id="ped8d7788a5">
   <rect x="63.2" y="54.96" width="362.365" height="185.995"/>
  </clipPath>
  <clipPath id="p8c39f7ab79">
   <rect x="488.675" y="54.96" width="362.365" height="185.995"/>
  </clipPath>
 </defs>
</svg>
