<?xml version="1.0" encoding="utf-8" standalone="no"?>
<!DOCTYPE svg PUBLIC "-//W3C//DTD SVG 1.1//EN"
  "http://www.w3.org/Graphics/SVG/1.1/DTD/svg11.dtd">
<svg xmlns:xlink="http://www.w3.org/1999/xlink" width="864pt" height="288pt" viewBox="0 0 864 288" xmlns="http://www.w3.org/2000/svg" version="1.1">
 <metadata>
  <rdf:RDF xmlns:dc="http://purl.org/dc/elements/1.1/" xmlns:cc="http://creativecommons.org/ns#" xmlns:rdf="http://www.w3.org/1999/02/22-rdf-syntax-ns#">
   <cc:Work>
    <dc:type rdf:resource="http://purl.org/dc/dcmitype/StillImage"/>
    <dc:date>2026-05-22T16:39:29.272572</dc:date>
    <dc:format>image/svg+xml</dc:format>
    <dc:creator>
     <cc:Agent>
      <dc:title>Matplotlib v3.10.8, https://matplotlib.org/</dc:title>
     </cc:Agent>
    </dc:creator>
   </cc:Work>
  </rdf:RDF>
 </metadata>
 <defs>
  <style type="text/css">*{stroke-linejoin: round; stroke-linecap: butt}</style>
 </defs>
 <g id="figure_1">
  <g id="patch_1">
   <path d="M 0 288 
L 864 288 
L 864 0 
L 0 0 
z
" style="fill: #ffffff"/>
  </g>
  <g id="axes_1">
   <g id="patch_2">
    <path d="M 64.28 242.08 
L 851.04 242.08 
L 851.04 31.5825 
L 64.28 31.5825 
z
" style="fill: #ffffff"/>
   </g>
   <g id="matplotlib.axis_1">
    <g id="xtick_1">
     <g id="line2d_1">
      <defs>
       <path id="mdeb89376e3" d="M 0 0 
L 0 3.5 
" style="stroke: #000000; stroke-width: 0.8"/>
      </defs>
      <g>
       <use xlink:href="#mdeb89376e3" x="64.28" y="242.08" style="stroke: #000000; stroke-width: 0.8"/>
      </g>
     </g>
     <g id="text_1">
      <!-- 0 -->
      <g transform="translate(61.28 257.40875) scale(0.12 -0.12)">
       <defs>
        <path id="NewCM10-Regular-30" d="M 2944 2048 
C 2944 2560 2912 3072 2688 3546 
C 2394 4160 1869 4262 1600 4262 
C 1216 4262 749 4096 486 3501 
C 282 3059 250 2560 250 2048 
C 250 1568 275 992 538 506 
C 813 -13 1280 -141 1594 -141 
C 1939 -141 2426 -6 2707 602 
C 2912 1043 2944 1542 2944 2048 
z
M 2413 2125 
C 2413 1645 2413 1210 2342 800 
C 2246 192 1882 0 1594 0 
C 1344 0 966 160 851 774 
C 781 1158 781 1747 781 2125 
C 781 2534 781 2957 832 3302 
C 954 4064 1434 4122 1594 4122 
C 1805 4122 2227 4006 2349 3373 
C 2413 3014 2413 2528 2413 2125 
z
" transform="scale(0.015625)"/>
       </defs>
       <use xlink:href="#NewCM10-Regular-30"/>
      </g>
     </g>
    </g>
    <g id="xtick_2">
     <g id="line2d_2">
      <g>
       <use xlink:href="#mdeb89376e3" x="169.181333" y="242.08" style="stroke: #000000; stroke-width: 0.8"/>
      </g>
     </g>
     <g id="text_2">
      <!-- 2000 -->
      <g transform="translate(157.181333 257.40875) scale(0.12 -0.12)">
       <defs>
        <path id="NewCM10-Regular-32" d="M 2874 1114 
L 2714 1114 
C 2682 922 2637 640 2573 544 
C 2528 493 2106 493 1965 493 
L 813 493 
L 1491 1152 
C 2490 2035 2874 2381 2874 3021 
C 2874 3750 2298 4262 1517 4262 
C 794 4262 320 3674 320 3104 
C 320 2746 640 2746 659 2746 
C 768 2746 992 2822 992 3085 
C 992 3251 877 3418 653 3418 
C 602 3418 589 3418 570 3411 
C 717 3827 1062 4064 1434 4064 
C 2016 4064 2291 3546 2291 3021 
C 2291 2509 1971 2003 1619 1606 
L 390 237 
C 320 166 320 154 320 0 
L 2694 0 
L 2874 1114 
z
" transform="scale(0.015625)"/>
       </defs>
       <use xlink:href="#NewCM10-Regular-32"/>
       <use xlink:href="#NewCM10-Regular-30" transform="translate(49.999985 0)"/>
       <use xlink:href="#NewCM10-Regular-30" transform="translate(99.999969 0)"/>
       <use xlink:href="#NewCM10-Regular-30" transform="translate(149.999954 0)"/>
      </g>
     </g>
    </g>
    <g id="xtick_3">
     <g id="line2d_3">
      <g>
       <use xlink:href="#mdeb89376e3" x="274.082667" y="242.08" style="stroke: #000000; stroke-width: 0.8"/>
      </g>
     </g>
     <g id="text_3">
      <!-- 4000 -->
      <g transform="translate(262.082667 257.40875) scale(0.12 -0.12)">
       <defs>
        <path id="NewCM10-Regular-34" d="M 3014 1056 
L 3014 1254 
L 2374 1254 
L 2374 4166 
C 2374 4294 2374 4333 2272 4333 
C 2214 4333 2195 4333 2144 4256 
L 179 1254 
L 179 1056 
L 1882 1056 
L 1882 499 
C 1882 269 1869 198 1395 198 
L 1261 198 
L 1261 0 
C 1523 19 1856 19 2125 19 
C 2394 19 2733 19 2995 0 
L 2995 198 
L 2861 198 
C 2387 198 2374 269 2374 499 
L 2374 1056 
L 3014 1056 
z
M 1920 1254 
L 358 1254 
L 1920 3642 
L 1920 1254 
z
" transform="scale(0.015625)"/>
       </defs>
       <use xlink:href="#NewCM10-Regular-34"/>
       <use xlink:href="#NewCM10-Regular-30" transform="translate(49.999985 0)"/>
       <use xlink:href="#NewCM10-Regular-30" transform="translate(99.999969 0)"/>
       <use xlink:href="#NewCM10-Regular-30" transform="translate(149.999954 0)"/>
      </g>
     </g>
    </g>
    <g id="xtick_4">
     <g id="line2d_4">
      <g>
       <use xlink:href="#mdeb89376e3" x="378.984" y="242.08" style="stroke: #000000; stroke-width: 0.8"/>
      </g>
     </g>
     <g id="text_4">
      <!-- 6000 -->
      <g transform="translate(366.984 257.40875) scale(0.12 -0.12)">
       <defs>
        <path id="NewCM10-Regular-36" d="M 2925 1306 
C 2925 2118 2355 2733 1645 2733 
C 1210 2733 973 2406 845 2099 
L 845 2253 
C 845 3872 1638 4102 1965 4102 
C 2118 4102 2387 4064 2528 3846 
C 2432 3846 2176 3846 2176 3558 
C 2176 3360 2330 3264 2470 3264 
C 2573 3264 2765 3322 2765 3571 
C 2765 3955 2483 4262 1952 4262 
C 1133 4262 269 3437 269 2022 
C 269 314 1011 -141 1606 -141 
C 2317 -141 2925 461 2925 1306 
z
M 2349 1312 
C 2349 1005 2349 685 2240 454 
C 2048 70 1754 38 1606 38 
C 1203 38 1011 422 973 518 
C 858 819 858 1331 858 1446 
C 858 1946 1062 2586 1638 2586 
C 1741 2586 2035 2586 2234 2189 
C 2349 1952 2349 1626 2349 1312 
z
" transform="scale(0.015625)"/>
       </defs>
       <use xlink:href="#NewCM10-Regular-36"/>
       <use xlink:href="#NewCM10-Regular-30" transform="translate(49.999985 0)"/>
       <use xlink:href="#NewCM10-Regular-30" transform="translate(99.999969 0)"/>
       <use xlink:href="#NewCM10-Regular-30" transform="translate(149.999954 0)"/>
      </g>
     </g>
    </g>
    <g id="xtick_5">
     <g id="line2d_5">
      <g>
       <use xlink:href="#mdeb89376e3" x="483.885333" y="242.08" style="stroke: #000000; stroke-width: 0.8"/>
      </g>
     </g>
     <g id="text_5">
      <!-- 8000 -->
      <g transform="translate(471.885333 257.40875) scale(0.12 -0.12)">
       <defs>
        <path id="NewCM10-Regular-38" d="M 2925 1075 
C 2925 1306 2854 1594 2611 1862 
C 2490 1997 2387 2061 1978 2317 
C 2438 2554 2752 2886 2752 3309 
C 2752 3898 2182 4262 1600 4262 
C 960 4262 442 3789 442 3194 
C 442 3078 454 2790 723 2490 
C 794 2413 1030 2253 1190 2144 
C 819 1958 269 1600 269 966 
C 269 288 922 -141 1594 -141 
C 2317 -141 2925 390 2925 1075 
z
M 2470 3309 
C 2470 2944 2221 2637 1837 2413 
L 1043 2925 
C 749 3117 723 3334 723 3443 
C 723 3834 1139 4102 1594 4102 
C 2061 4102 2470 3770 2470 3309 
z
M 2605 845 
C 2605 371 2125 38 1600 38 
C 1050 38 589 435 589 966 
C 589 1338 794 1747 1338 2048 
L 2125 1549 
C 2304 1427 2605 1235 2605 845 
z
" transform="scale(0.015625)"/>
       </defs>
       <use xlink:href="#NewCM10-Regular-38"/>
       <use xlink:href="#NewCM10-Regular-30" transform="translate(49.999985 0)"/>
       <use xlink:href="#NewCM10-Regular-30" transform="translate(99.999969 0)"/>
       <use xlink:href="#NewCM10-Regular-30" transform="translate(149.999954 0)"/>
      </g>
     </g>
    </g>
    <g id="xtick_6">
     <g id="line2d_6">
      <g>
       <use xlink:href="#mdeb89376e3" x="588.786667" y="242.08" style="stroke: #000000; stroke-width: 0.8"/>
      </g>
     </g>
     <g id="text_6">
      <!-- 10000 -->
      <g transform="translate(573.786667 257.40875) scale(0.12 -0.12)">
       <defs>
        <path id="NewCM10-Regular-31" d="M 2682 0 
L 2682 198 
L 2477 198 
C 1901 198 1882 269 1882 506 
L 1882 4096 
C 1882 4250 1882 4262 1734 4262 
C 1338 3853 774 3853 570 3853 
L 570 3654 
C 698 3654 1075 3654 1408 3821 
L 1408 506 
C 1408 275 1389 198 813 198 
L 608 198 
L 608 0 
C 832 19 1389 19 1645 19 
C 1901 19 2458 19 2682 0 
z
" transform="scale(0.015625)"/>
       </defs>
       <use xlink:href="#NewCM10-Regular-31"/>
       <use xlink:href="#NewCM10-Regular-30" transform="translate(49.999985 0)"/>
       <use xlink:href="#NewCM10-Regular-30" transform="translate(99.999969 0)"/>
       <use xlink:href="#NewCM10-Regular-30" transform="translate(149.999954 0)"/>
       <use xlink:href="#NewCM10-Regular-30" transform="translate(199.999939 0)"/>
      </g>
     </g>
    </g>
    <g id="xtick_7">
     <g id="line2d_7">
      <g>
       <use xlink:href="#mdeb89376e3" x="693.688" y="242.08" style="stroke: #000000; stroke-width: 0.8"/>
      </g>
     </g>
     <g id="text_7">
      <!-- 12000 -->
      <g transform="translate(678.688 257.40875) scale(0.12 -0.12)">
       <use xlink:href="#NewCM10-Regular-31"/>
       <use xlink:href="#NewCM10-Regular-32" transform="translate(49.999985 0)"/>
       <use xlink:href="#NewCM10-Regular-30" transform="translate(99.999969 0)"/>
       <use xlink:href="#NewCM10-Regular-30" transform="translate(149.999954 0)"/>
       <use xlink:href="#NewCM10-Regular-30" transform="translate(199.999939 0)"/>
      </g>
     </g>
    </g>
    <g id="xtick_8">
     <g id="line2d_8">
      <g>
       <use xlink:href="#mdeb89376e3" x="798.589333" y="242.08" style="stroke: #000000; stroke-width: 0.8"/>
      </g>
     </g>
     <g id="text_8">
      <!-- 14000 -->
      <g transform="translate(783.589333 257.40875) scale(0.12 -0.12)">
       <use xlink:href="#NewCM10-Regular-31"/>
       <use xlink:href="#NewCM10-Regular-34" transform="translate(49.999985 0)"/>
       <use xlink:href="#NewCM10-Regular-30" transform="translate(99.999969 0)"/>
       <use xlink:href="#NewCM10-Regular-30" transform="translate(149.999954 0)"/>
       <use xlink:href="#NewCM10-Regular-30" transform="translate(199.999939 0)"/>
      </g>
     </g>
    </g>
    <g id="text_9">
     <!-- Step -->
     <g transform="translate(445.99 272.1975) scale(0.12 -0.12)">
      <defs>
       <path id="NewCM10-Regular-53" d="M 3194 1190 
C 3194 1830 2771 2355 2234 2483 
L 1414 2682 
C 1018 2778 768 3123 768 3494 
C 768 3942 1114 4333 1613 4333 
C 2682 4333 2822 3283 2861 2995 
C 2867 2957 2867 2918 2938 2918 
C 3021 2918 3021 2950 3021 3072 
L 3021 4358 
C 3021 4467 3021 4512 2950 4512 
C 2906 4512 2899 4506 2854 4429 
L 2630 4064 
C 2438 4250 2176 4512 1606 4512 
C 896 4512 358 3949 358 3270 
C 358 2739 698 2272 1197 2099 
C 1267 2074 1594 1997 2042 1888 
C 2214 1843 2406 1798 2586 1562 
C 2720 1395 2784 1184 2784 973 
C 2784 518 2464 58 1926 58 
C 1741 58 1254 90 915 403 
C 544 749 525 1158 518 1389 
C 512 1453 461 1453 442 1453 
C 358 1453 358 1408 358 1293 
L 358 13 
C 358 -96 358 -141 429 -141 
C 474 -141 480 -128 525 -58 
C 525 -58 544 -32 755 307 
C 954 90 1363 -141 1933 -141 
C 2682 -141 3194 486 3194 1190 
z
" transform="scale(0.015625)"/>
       <path id="NewCM10-Regular-74" d="M 2125 794 
L 2125 1158 
L 1965 1158 
L 1965 806 
C 1965 333 1773 90 1536 90 
C 1107 90 1107 672 1107 781 
L 1107 2560 
L 2022 2560 
L 2022 2758 
L 1107 2758 
L 1107 3936 
L 947 3936 
C 941 3411 749 2726 122 2701 
L 122 2560 
L 666 2560 
L 666 794 
C 666 6 1261 -70 1491 -70 
C 1946 -70 2125 384 2125 794 
z
" transform="scale(0.015625)"/>
       <path id="NewCM10-Regular-65" d="M 2656 762 
C 2656 826 2605 838 2573 838 
C 2515 838 2502 800 2490 749 
C 2266 90 1690 90 1626 90 
C 1306 90 1050 282 902 518 
C 710 826 710 1248 710 1478 
L 2496 1478 
C 2637 1478 2656 1478 2656 1613 
C 2656 2246 2310 2867 1510 2867 
C 768 2867 179 2208 179 1408 
C 179 550 851 -70 1587 -70 
C 2368 -70 2656 640 2656 762 
z
M 2234 1613 
L 717 1613 
C 755 2566 1293 2726 1510 2726 
C 2170 2726 2234 1862 2234 1613 
z
" transform="scale(0.015625)"/>
       <path id="NewCM10-Regular-70" d="M 3334 1382 
C 3334 2195 2714 2829 1997 2829 
C 1498 2829 1229 2547 1101 2406 
L 1101 2829 
L 179 2758 
L 179 2560 
C 634 2560 678 2522 678 2240 
L 678 -755 
C 678 -1043 608 -1043 179 -1043 
L 179 -1242 
L 896 -1222 
L 1619 -1242 
L 1619 -1043 
C 1190 -1043 1120 -1043 1120 -755 
L 1120 320 
L 1120 378 
C 1152 275 1421 -70 1907 -70 
C 2669 -70 3334 557 3334 1382 
z
M 2803 1382 
C 2803 608 2355 70 1882 70 
C 1626 70 1382 198 1210 461 
C 1120 595 1120 602 1120 730 
L 1120 2157 
C 1306 2483 1619 2669 1946 2669 
C 2413 2669 2803 2106 2803 1382 
z
" transform="scale(0.015625)"/>
      </defs>
      <use xlink:href="#NewCM10-Regular-53"/>
      <use xlink:href="#NewCM10-Regular-74" transform="translate(55.599991 0)"/>
      <use xlink:href="#NewCM10-Regular-65" transform="translate(94.499985 0)"/>
      <use xlink:href="#NewCM10-Regular-70" transform="translate(138.899979 0)"/>
     </g>
    </g>
   </g>
   <g id="matplotlib.axis_2">
    <g id="ytick_1">
     <g id="line2d_9">
      <defs>
       <path id="m18e4d4d508" d="M 0 0 
L -3.5 0 
" style="stroke: #000000; stroke-width: 0.8"/>
      </defs>
      <g>
       <use xlink:href="#m18e4d4d508" x="64.28" y="232.513423" style="stroke: #000000; stroke-width: 0.8"/>
      </g>
     </g>
     <g id="text_10">
      <!-- −180 -->
      <g transform="translate(29.944375 236.677798) scale(0.12 -0.12)">
       <defs>
        <path id="NewCM10-Regular-2212" d="M 4614 1600 
C 4614 1728 4493 1728 4403 1728 
L 570 1728 
C 480 1728 358 1728 358 1600 
C 358 1472 480 1472 576 1472 
L 4397 1472 
C 4493 1472 4614 1472 4614 1600 
z
" transform="scale(0.015625)"/>
       </defs>
       <use xlink:href="#NewCM10-Regular-2212"/>
       <use xlink:href="#NewCM10-Regular-31" transform="translate(77.799988 0)"/>
       <use xlink:href="#NewCM10-Regular-38" transform="translate(127.799973 0)"/>
       <use xlink:href="#NewCM10-Regular-30" transform="translate(177.799957 0)"/>
      </g>
     </g>
    </g>
    <g id="ytick_2">
     <g id="line2d_10">
      <g>
       <use xlink:href="#m18e4d4d508" x="64.28" y="184.671579" style="stroke: #000000; stroke-width: 0.8"/>
      </g>
     </g>
     <g id="text_11">
      <!-- −90 -->
      <g transform="translate(35.944375 188.835954) scale(0.12 -0.12)">
       <defs>
        <path id="NewCM10-Regular-39" d="M 2925 2106 
C 2925 3827 2189 4262 1619 4262 
C 1267 4262 954 4147 678 3859 
C 416 3571 269 3302 269 2822 
C 269 2022 832 1395 1549 1395 
C 1939 1395 2202 1664 2349 2035 
L 2349 1830 
C 2349 333 1683 38 1312 38 
C 1203 38 858 51 685 269 
C 966 269 1018 454 1018 563 
C 1018 762 864 858 723 858 
C 621 858 429 800 429 550 
C 429 122 774 -141 1318 -141 
C 2144 -141 2925 730 2925 2106 
z
M 2336 2694 
C 2336 2163 2118 1542 1555 1542 
C 1453 1542 1158 1542 960 1946 
C 845 2182 845 2502 845 2816 
C 845 3162 845 3462 979 3699 
C 1152 4019 1395 4102 1619 4102 
C 1914 4102 2125 3885 2234 3597 
C 2310 3392 2336 2989 2336 2694 
z
" transform="scale(0.015625)"/>
       </defs>
       <use xlink:href="#NewCM10-Regular-2212"/>
       <use xlink:href="#NewCM10-Regular-39" transform="translate(77.799988 0)"/>
       <use xlink:href="#NewCM10-Regular-30" transform="translate(127.799973 0)"/>
      </g>
     </g>
    </g>
    <g id="ytick_3">
     <g id="line2d_11">
      <g>
       <use xlink:href="#m18e4d4d508" x="64.28" y="136.829735" style="stroke: #000000; stroke-width: 0.8"/>
      </g>
     </g>
     <g id="text_12">
      <!-- 0 -->
      <g transform="translate(51.28 140.99411) scale(0.12 -0.12)">
       <use xlink:href="#NewCM10-Regular-30"/>
      </g>
     </g>
    </g>
    <g id="ytick_4">
     <g id="line2d_12">
      <g>
       <use xlink:href="#m18e4d4d508" x="64.28" y="88.987891" style="stroke: #000000; stroke-width: 0.8"/>
      </g>
     </g>
     <g id="text_13">
      <!-- 90 -->
      <g transform="translate(45.28 93.152266) scale(0.12 -0.12)">
       <use xlink:href="#NewCM10-Regular-39"/>
       <use xlink:href="#NewCM10-Regular-30" transform="translate(49.999985 0)"/>
      </g>
     </g>
    </g>
    <g id="ytick_5">
     <g id="line2d_13">
      <g>
       <use xlink:href="#m18e4d4d508" x="64.28" y="41.146047" style="stroke: #000000; stroke-width: 0.8"/>
      </g>
     </g>
     <g id="text_14">
      <!-- 180 -->
      <g transform="translate(39.28 45.310422) scale(0.12 -0.12)">
       <use xlink:href="#NewCM10-Regular-31"/>
       <use xlink:href="#NewCM10-Regular-38" transform="translate(49.999985 0)"/>
       <use xlink:href="#NewCM10-Regular-30" transform="translate(99.999969 0)"/>
      </g>
     </g>
    </g>
    <g id="text_15">
     <!-- Wind angle (°) -->
     <g transform="translate(22.944375 175.920312) rotate(-90) scale(0.12 -0.12)">
      <defs>
       <path id="NewCM10-Regular-57" d="M 6458 4173 
L 6458 4371 
C 6266 4358 6067 4352 5875 4352 
L 5114 4371 
L 5114 4173 
C 5542 4166 5670 3955 5670 3834 
C 5670 3795 5651 3744 5638 3706 
L 4678 749 
L 3654 3885 
C 3648 3910 3635 3949 3635 3981 
C 3635 4173 4006 4173 4173 4173 
L 4173 4371 
C 3942 4352 3507 4352 3264 4352 
L 2483 4371 
L 2483 4173 
C 2848 4173 2982 4173 3059 3942 
L 3200 3494 
L 2310 749 
L 1280 3898 
C 1274 3917 1267 3962 1267 3981 
C 1267 4173 1638 4173 1805 4173 
L 1805 4371 
C 1574 4352 1139 4352 896 4352 
L 115 4371 
L 115 4173 
C 595 4173 621 4141 698 3904 
L 1978 -19 
C 1997 -77 2016 -141 2099 -141 
C 2189 -141 2202 -96 2227 -13 
L 3283 3238 
L 4346 -19 
C 4365 -77 4384 -141 4467 -141 
C 4557 -141 4570 -96 4595 -13 
L 5818 3744 
C 5933 4109 6208 4173 6458 4173 
z
" transform="scale(0.015625)"/>
       <path id="NewCM10-Regular-69" d="M 1581 0 
L 1581 198 
C 1158 198 1133 230 1133 480 
L 1133 2829 
L 237 2758 
L 237 2560 
C 653 2560 710 2522 710 2208 
L 710 486 
C 710 198 640 198 211 198 
L 211 0 
L 915 19 
C 1139 19 1363 6 1581 0 
z
M 1229 3866 
C 1229 4038 1082 4205 890 4205 
C 672 4205 544 4026 544 3866 
C 544 3693 691 3526 883 3526 
C 1101 3526 1229 3706 1229 3866 
z
" transform="scale(0.015625)"/>
       <path id="NewCM10-Regular-6e" d="M 3424 0 
L 3424 198 
C 3091 198 2931 198 2925 390 
L 2925 1613 
C 2925 2163 2925 2362 2726 2592 
C 2637 2701 2426 2829 2054 2829 
C 1587 2829 1286 2554 1107 2157 
L 1107 2829 
L 205 2758 
L 205 2560 
C 653 2560 704 2515 704 2202 
L 704 486 
C 704 198 634 198 205 198 
L 205 0 
L 928 19 
L 1645 0 
L 1645 198 
C 1216 198 1146 198 1146 486 
L 1146 1664 
C 1146 2330 1600 2688 2010 2688 
C 2413 2688 2483 2342 2483 1978 
L 2483 486 
C 2483 198 2413 198 1984 198 
L 1984 0 
L 2707 19 
L 3424 0 
z
" transform="scale(0.015625)"/>
       <path id="NewCM10-Regular-64" d="M 3373 0 
L 3373 198 
C 2925 198 2874 243 2874 557 
L 2874 4442 
L 1952 4371 
L 1952 4173 
C 2400 4173 2451 4128 2451 3814 
L 2451 2432 
C 2266 2662 1990 2829 1645 2829 
C 890 2829 218 2202 218 1376 
C 218 563 845 -70 1574 -70 
C 1984 -70 2272 147 2432 352 
L 2432 -70 
L 3373 0 
z
M 2432 755 
C 2432 640 2432 627 2362 518 
C 2170 211 1882 70 1606 70 
C 1318 70 1088 237 934 480 
C 768 742 749 1107 749 1370 
C 749 1606 762 1990 947 2278 
C 1082 2477 1325 2688 1670 2688 
C 1894 2688 2163 2592 2362 2304 
C 2432 2195 2432 2182 2432 2067 
L 2432 755 
z
" transform="scale(0.015625)"/>
       <path id="NewCM10-Regular-20" transform="scale(0.015625)"/>
       <path id="NewCM10-Regular-61" d="M 3091 570 
L 3091 928 
L 2931 928 
L 2931 570 
C 2931 198 2771 160 2701 160 
C 2490 160 2464 448 2464 480 
L 2464 1760 
C 2464 2029 2464 2278 2234 2515 
C 1984 2765 1664 2867 1357 2867 
C 832 2867 390 2566 390 2144 
C 390 1952 518 1843 685 1843 
C 864 1843 979 1971 979 2138 
C 979 2214 947 2426 653 2432 
C 826 2656 1139 2726 1344 2726 
C 1658 2726 2022 2477 2022 1907 
L 2022 1670 
C 1696 1651 1248 1632 845 1440 
C 365 1222 205 890 205 608 
C 205 90 826 -70 1229 -70 
C 1651 -70 1946 186 2067 486 
C 2093 230 2266 -38 2566 -38 
C 2701 -38 3091 51 3091 570 
z
M 2022 896 
C 2022 288 1562 70 1274 70 
C 960 70 698 294 698 614 
C 698 966 966 1498 2022 1536 
L 2022 896 
z
" transform="scale(0.015625)"/>
       <path id="NewCM10-Regular-67" d="M 3104 2586 
C 3104 2694 3027 2899 2778 2899 
C 2650 2899 2368 2861 2099 2598 
C 1830 2810 1562 2829 1421 2829 
C 826 2829 384 2387 384 1894 
C 384 1613 525 1370 685 1235 
C 602 1139 486 928 486 704 
C 486 506 570 262 768 134 
C 384 26 179 -250 179 -506 
C 179 -966 813 -1318 1594 -1318 
C 2349 -1318 3014 -992 3014 -493 
C 3014 -269 2925 58 2598 237 
C 2259 416 1888 416 1498 416 
C 1338 416 1062 416 1018 422 
C 813 448 678 646 678 851 
C 678 877 678 1024 787 1152 
C 1037 973 1299 954 1421 954 
C 2016 954 2458 1395 2458 1888 
C 2458 2125 2355 2362 2195 2509 
C 2426 2726 2656 2758 2771 2758 
C 2771 2758 2816 2758 2835 2752 
C 2765 2726 2733 2656 2733 2579 
C 2733 2470 2816 2394 2918 2394 
C 2982 2394 3104 2438 3104 2586 
z
M 1978 1894 
C 1978 1722 1971 1517 1875 1357 
C 1824 1280 1677 1101 1421 1101 
C 864 1101 864 1741 864 1888 
C 864 2061 870 2266 966 2426 
C 1018 2502 1165 2682 1421 2682 
C 1978 2682 1978 2042 1978 1894 
z
M 2682 -506 
C 2682 -851 2227 -1171 1600 -1171 
C 954 -1171 512 -845 512 -506 
C 512 -211 755 26 1037 45 
L 1414 45 
C 1965 45 2682 45 2682 -506 
z
" transform="scale(0.015625)"/>
       <path id="NewCM10-Regular-6c" d="M 1632 0 
L 1632 198 
C 1203 198 1133 198 1133 486 
L 1133 4442 
L 211 4371 
L 211 4173 
C 659 4173 710 4128 710 3814 
L 710 486 
C 710 198 640 198 211 198 
L 211 0 
L 922 19 
L 1632 0 
z
" transform="scale(0.015625)"/>
       <path id="NewCM10-Regular-28" d="M 2118 -1536 
C 2118 -1517 2118 -1504 2010 -1395 
C 1210 -589 1005 621 1005 1600 
C 1005 2714 1248 3827 2035 4627 
C 2118 4704 2118 4717 2118 4736 
C 2118 4781 2093 4800 2054 4800 
C 1990 4800 1414 4365 1037 3552 
C 710 2848 634 2138 634 1600 
C 634 1101 704 326 1056 -397 
C 1440 -1184 1990 -1600 2054 -1600 
C 2093 -1600 2118 -1581 2118 -1536 
z
" transform="scale(0.015625)"/>
       <path id="NewCM10-Regular-b0" d="M 2086 3482 
C 2086 3974 1690 4371 1203 4371 
C 710 4371 314 3974 314 3482 
C 314 2995 710 2598 1203 2598 
C 1690 2598 2086 2995 2086 3482 
z
M 1830 3482 
C 1830 3136 1549 2854 1203 2854 
C 851 2854 570 3136 570 3482 
C 570 3834 851 4115 1203 4115 
C 1549 4115 1830 3834 1830 3482 
z
" transform="scale(0.015625)"/>
       <path id="NewCM10-Regular-29" d="M 1850 1600 
C 1850 2099 1779 2874 1427 3597 
C 1043 4384 493 4800 429 4800 
C 390 4800 365 4774 365 4736 
C 365 4717 365 4704 486 4589 
C 1114 3955 1478 2938 1478 1600 
C 1478 506 1242 -621 448 -1427 
C 365 -1504 365 -1517 365 -1536 
C 365 -1574 390 -1600 429 -1600 
C 493 -1600 1069 -1165 1446 -352 
C 1773 352 1850 1062 1850 1600 
z
" transform="scale(0.015625)"/>
      </defs>
      <use xlink:href="#NewCM10-Regular-57"/>
      <use xlink:href="#NewCM10-Regular-69" transform="translate(102.799988 0)"/>
      <use xlink:href="#NewCM10-Regular-6e" transform="translate(130.599976 0)"/>
      <use xlink:href="#NewCM10-Regular-64" transform="translate(186.199966 0)"/>
      <use xlink:href="#NewCM10-Regular-20" transform="translate(241.799957 0)"/>
      <use xlink:href="#NewCM10-Regular-61" transform="translate(275.099945 0)"/>
      <use xlink:href="#NewCM10-Regular-6e" transform="translate(325.09993 0)"/>
      <use xlink:href="#NewCM10-Regular-67" transform="translate(380.699921 0)"/>
      <use xlink:href="#NewCM10-Regular-6c" transform="translate(430.699905 0)"/>
      <use xlink:href="#NewCM10-Regular-65" transform="translate(458.499893 0)"/>
      <use xlink:href="#NewCM10-Regular-20" transform="translate(502.899887 0)"/>
      <use xlink:href="#NewCM10-Regular-28" transform="translate(536.199875 0)"/>
      <use xlink:href="#NewCM10-Regular-b0" transform="translate(575.099869 0)"/>
      <use xlink:href="#NewCM10-Regular-29" transform="translate(612.599854 0)"/>
     </g>
    </g>
   </g>
   <g id="line2d_14">
    <path d="M 64.28 135.963435 
L 64.332451 64.063533 
L 64.437352 64.069125 
L 65.486365 64.023858 
L 67.322139 63.987383 
L 70.783883 64.208652 
L 73.826021 64.349692 
L 80.697059 64.361741 
L 84.421056 64.187094 
L 86.519083 63.907711 
L 92.813163 62.501915 
L 97.900877 61.775922 
L 99.421947 61.805709 
L 100.890565 62.071785 
L 102.464085 62.332843 
L 107.132195 62.954641 
L 109.91208 64.039189 
L 112.115008 64.614383 
L 115.157147 65.192036 
L 116.730667 65.38994 
L 116.888019 114.035031 
L 119.458101 114.188408 
L 121.503677 114.018138 
L 127.378152 113.273757 
L 129.266376 113.04467 
L 133.672232 112.550829 
L 136.032512 112.457859 
L 138.759947 112.599002 
L 139.966312 112.709607 
L 142.064339 112.619534 
L 143.480507 112.671975 
L 151.033403 113.828907 
L 154.600048 114.265436 
L 156.226019 114.105331 
L 157.537285 114.028253 
L 161.208832 114.633185 
L 163.883816 114.904779 
L 165.876941 114.909773 
L 169.181333 114.782144 
L 169.233784 218.302724 
L 169.338685 218.29433 
L 171.174459 218.260692 
L 173.377387 218.231423 
L 177.048933 217.892379 
L 178.832256 217.598475 
L 179.619016 217.088155 
L 180.353325 216.689112 
L 182.923408 215.782618 
L 189.112587 214.598619 
L 192.102275 214.130635 
L 193.675795 214.145992 
L 197.294891 214.277787 
L 199.760072 214.487752 
L 200.861536 214.729812 
L 202.120352 215.36439 
L 204.637984 216.40355 
L 206.631109 216.978148 
L 208.204629 217.213276 
L 210.407557 217.257084 
L 212.505584 217.05122 
L 219.27172 216.100192 
L 221.632 215.767206 
L 221.789352 182.515882 
L 222.576112 182.32182 
L 224.149632 181.628567 
L 225.932955 181.167143 
L 230.968219 180.513784 
L 234.115259 179.799733 
L 237.104947 179.223466 
L 238.888269 179.103428 
L 241.143648 179.210151 
L 244.44804 179.579874 
L 246.913221 180.88 
L 249.221051 181.738454 
L 251.686232 182.442068 
L 253.312203 182.6952 
L 255.357779 182.683213 
L 257.927861 182.376392 
L 262.071464 181.696005 
L 266.215067 180.891504 
L 267.473883 180.253366 
L 268.785149 179.715316 
L 272.561597 179.151981 
L 274.082667 178.87738 
L 274.240019 109.996601 
L 277.072355 109.214918 
L 282.21252 107.836474 
L 284.5728 107.625618 
L 287.824741 107.479705 
L 288.191896 107.672957 
L 289.345811 108.359285 
L 291.234035 109.272963 
L 293.122259 109.925678 
L 295.220285 110.408908 
L 297.318312 110.67949 
L 300.465352 110.738471 
L 303.822195 110.643158 
L 308.228051 109.916215 
L 310.693232 109.37394 
L 316.987312 108.132405 
L 322.232379 107.913376 
L 325.641672 108.074274 
L 326.533333 108.173918 
L 326.585784 70.437488 
L 326.690685 70.453612 
L 328.421557 70.612 
L 331.463696 70.844809 
L 342.111181 71.927255 
L 343.055293 71.565746 
L 343.894504 71.020092 
L 345.048419 69.956928 
L 347.251347 67.562361 
L 348.562613 65.802817 
L 349.87388 63.659144 
L 351.342499 60.809276 
L 352.916019 57.239978 
L 354.541989 52.982631 
L 356.16796 48.082248 
L 357.689029 42.771538 
L 358.108635 41.156002 
L 358.161085 232.316386 
L 358.265987 231.898953 
L 360.311563 224.135944 
L 361.465477 221.335559 
L 362.514491 219.396419 
L 363.196349 218.529945 
L 363.930659 217.944006 
L 364.927221 217.455757 
L 368.546317 215.971784 
L 370.539443 214.687743 
L 372.585019 213.112505 
L 374.997749 211.27324 
L 376.204115 210.752855 
L 376.833523 210.836579 
L 377.567832 211.182775 
L 378.407043 211.836607 
L 378.984 212.425064 
L 379.036451 150.010187 
L 379.141352 150.129273 
L 380.452619 151.80452 
L 382.498195 154.425466 
L 383.075152 154.718666 
L 383.914363 154.894134 
L 387.271205 155.14734 
L 391.100104 155.303341 
L 393.303032 155.018484 
L 396.187819 154.580215 
L 399.229957 154.859306 
L 400.069168 155.003977 
L 401.170632 155.29939 
L 402.691701 155.371998 
L 404.002968 155.245355 
L 405.471587 154.875108 
L 406.887755 154.253843 
L 408.146571 153.760077 
L 409.720091 153.037301 
L 412.080371 152.041473 
L 413.181835 151.702581 
L 414.493101 151.505027 
L 417.272987 151.171032 
L 419.213661 150.753851 
L 419.843069 150.92627 
L 422.990109 152.147536 
L 425.665093 152.803808 
L 429.598893 153.398809 
L 431.434667 153.624014 
L 431.592019 154.031994 
L 433.794947 154.137297 
L 437.361592 154.183709 
L 439.616971 154.383922 
L 444.337531 154.696183 
L 445.963501 154.800791 
L 448.166429 154.713462 
L 452.362483 154.105128 
L 457.240395 153.249973 
L 459.495773 153.216262 
L 463.95408 153.332792 
L 466.31436 153.770351 
L 468.831992 154.057844 
L 471.979032 154.273972 
L 480.633392 154.721425 
L 483.885333 154.979876 
L 483.937784 109.985391 
L 484.042685 109.991744 
L 485.98336 109.900114 
L 489.340203 109.534113 
L 492.487243 109.18658 
L 494.742621 108.950083 
L 497.260253 108.687983 
L 506.019515 108.160884 
L 514.726325 107.709439 
L 516.194944 107.517642 
L 521.597363 107.245225 
L 523.852741 107.421139 
L 531.195835 108.19673 
L 534.972283 108.096122 
L 536.336 108.037047 
L 536.388451 221.45587 
L 536.493352 221.449928 
L 538.066872 221.449164 
L 539.430589 221.602506 
L 545.986923 222.801714 
L 547.665344 223.326827 
L 549.868272 223.764426 
L 551.808947 223.940291 
L 553.959424 223.892035 
L 556.005 223.572343 
L 557.683421 223.08316 
L 561.564771 221.84773 
L 562.980939 221.800613 
L 565.708373 221.856538 
L 567.176992 221.60108 
L 570.481384 220.726991 
L 571.792651 220.51091 
L 573.366171 220.598758 
L 576.146056 220.649207 
L 580.027405 220.737549 
L 581.96808 220.81379 
L 583.856304 220.488692 
L 584.800416 220.376459 
L 586.950893 220.370745 
L 587.947456 220.386244 
L 588.734216 220.499416 
L 588.944019 60.769284 
L 594.818493 60.268094 
L 595.815056 60.024402 
L 597.493477 59.597833 
L 598.962096 59.174144 
L 601.322376 58.327911 
L 603.787557 57.579209 
L 605.623331 57.2239 
L 608.980173 56.920513 
L 612.179664 57.000842 
L 614.907099 57.374977 
L 618.9458 57.874584 
L 621.935488 57.828453 
L 626.603597 58.15021 
L 627.967315 58.010775 
L 631.114355 57.424858 
L 632.478072 56.761763 
L 634.051592 55.99258 
L 636.779027 55.162325 
L 639.40156 54.55053 
L 641.237333 54.276127 
L 641.289784 82.227132 
L 641.394685 82.218836 
L 642.863304 81.975567 
L 644.069669 81.726693 
L 645.223584 81.889609 
L 646.902005 82.287295 
L 647.636315 82.399495 
L 649.62944 81.989487 
L 653.982845 81.655949 
L 655.451464 81.718229 
L 658.231349 82.125723 
L 660.853883 82.917754 
L 664.57788 83.972224 
L 666.413653 83.907476 
L 669.193539 83.544455 
L 671.291565 82.70778 
L 673.914099 81.446562 
L 675.382717 81.073925 
L 682.830712 79.835573 
L 684.771387 79.864995 
L 687.341469 79.869389 
L 688.862539 79.854872 
L 690.016453 80.068648 
L 691.799776 80.393522 
L 693.688 80.168909 
L 693.740451 90.479597 
L 693.845352 90.475769 
L 697.884053 90.466622 
L 699.98208 90.690287 
L 702.971768 91.217633 
L 708.583989 92.256866 
L 711.049171 92.178206 
L 713.566803 91.920764 
L 715.507477 91.186021 
L 717.028547 90.711956 
L 719.021672 90.324527 
L 721.591755 90.05062 
L 723.794683 89.741084 
L 726.417216 89.440727 
L 728.987299 89.445203 
L 732.344141 89.667507 
L 734.966675 89.830609 
L 736.435293 89.587203 
L 741.103403 89.149328 
L 743.148979 89.231069 
L 745.719061 89.560112 
L 746.138667 89.641499 
L 746.296019 146.169331 
L 747.764637 146.566789 
L 749.757763 147.105462 
L 751.750888 147.40832 
L 754.216069 147.488296 
L 756.156744 147.461602 
L 757.153307 147.312282 
L 760.405248 145.850444 
L 762.241021 145.324912 
L 764.916005 144.861729 
L 769.21696 144.425752 
L 771.419888 144.611853 
L 776.2978 145.192195 
L 777.923771 145.537541 
L 779.392389 145.886832 
L 781.437965 146.260941 
L 782.906584 146.202377 
L 784.899709 146.541968 
L 786.787933 147.019165 
L 792.295253 148.814443 
L 794.235928 149.369565 
L 795.861899 149.640816 
L 798.064827 149.777534 
L 798.589333 149.788047 
L 798.746685 195.965637 
L 800.949613 196.091693 
L 802.103528 196.245286 
L 804.516259 196.523768 
L 806.509384 196.591267 
L 809.708875 196.403553 
L 815.163744 196.024077 
L 826.283285 195.988142 
L 833.049421 196.247722 
L 837.927333 196.416697 
L 842.228288 196.554746 
L 844.536117 196.635197 
L 851.04 196.508817 
L 851.092451 198.447853 
L 851.092451 198.447853 
" clip-path="url(#pf9b83153da)" style="fill: none; stroke: #000000; stroke-linecap: square"/>
   </g>
   <g id="line2d_15">
    <path d="M 64.28 194.758067 
L 64.489803 194.98225 
L 64.647155 194.972948 
L 64.909408 194.628595 
L 65.538816 193.353007 
L 66.010872 192.631501 
L 66.745181 191.496804 
L 67.584392 190.250778 
L 67.951547 189.779168 
L 68.580955 188.798724 
L 69.105461 188.146376 
L 69.839771 187.282596 
L 70.626531 186.416157 
L 71.623093 185.469957 
L 72.514755 184.646595 
L 73.458867 183.921783 
L 74.402979 183.230642 
L 74.875035 182.925563 
L 75.819147 182.325912 
L 79.22844 180.537385 
L 79.595595 180.385459 
L 80.329904 180.058264 
L 80.80196 179.857781 
L 81.221565 179.733965 
L 82.270579 179.306952 
L 82.795085 179.106893 
L 83.791648 178.651239 
L 85.889675 177.931801 
L 86.728885 177.553064 
L 88.249955 177.114359 
L 93.704824 176.014178 
L 94.334232 175.924617 
L 95.697949 175.640517 
L 96.53716 175.464532 
L 97.114117 175.435601 
L 99.212144 174.694173 
L 101.362621 174.12128 
L 101.887128 174.360635 
L 102.568987 174.693854 
L 102.936141 174.682175 
L 105.034168 174.296958 
L 105.663576 174.238189 
L 106.188083 174.056848 
L 107.237096 173.128744 
L 107.709152 173.23202 
L 108.391011 173.347297 
L 109.649827 173.234085 
L 112.534613 173.61046 
L 117.307624 173.945449 
L 117.937032 174.56644 
L 119.143397 175.785719 
L 122.447789 178.507286 
L 123.811507 179.333982 
L 124.755619 179.901902 
L 125.64728 180.555989 
L 126.486491 181.228948 
L 126.958547 181.797101 
L 128.164912 182.460676 
L 129.004123 182.663597 
L 133.305077 184.896456 
L 133.51488 184.745862 
L 133.882035 184.543301 
L 134.721245 184.467505 
L 135.193301 184.552194 
L 136.242315 185.042951 
L 137.815835 186.007375 
L 138.655045 186.546528 
L 139.704059 187.163257 
L 140.753072 187.897539 
L 141.487381 188.210253 
L 143.218253 188.859582 
L 145.158928 189.663857 
L 146.155491 190.256169 
L 148.305968 190.853677 
L 149.827037 191.280961 
L 154.495147 192.462384 
L 155.701512 192.720283 
L 157.956891 193.220307 
L 158.376496 193.249476 
L 158.848552 193.358367 
L 161.785789 194.198366 
L 162.205395 194.25182 
L 162.939704 194.327904 
L 164.093619 194.505069 
L 168.079869 195.407006 
L 168.551925 195.541115 
L 169.076432 195.619583 
L 170.177896 195.491903 
L 171.122008 195.020358 
L 171.489163 194.90271 
L 171.908768 194.749481 
L 172.747979 194.385626 
L 173.167584 194.213557 
L 173.534739 193.987292 
L 173.744541 193.941225 
L 174.059245 193.820466 
L 175.370512 192.942972 
L 176.78668 192.329886 
L 178.570003 191.281854 
L 180.143523 189.755865 
L 181.769493 188.939477 
L 183.605267 188.339924 
L 184.549379 187.888315 
L 187.958672 185.930741 
L 188.640531 185.42678 
L 190.371403 184.549788 
L 193.151288 182.712928 
L 193.990499 182.167001 
L 194.462555 181.924601 
L 196.036075 180.906413 
L 196.245877 180.785023 
L 196.665483 180.469251 
L 197.137539 180.146095 
L 197.766947 179.64107 
L 198.920861 178.513839 
L 199.655171 177.354349 
L 200.022325 177.152452 
L 200.284579 176.954851 
L 200.38948 176.768407 
L 201.071339 174.494368 
L 201.333592 174.513862 
L 202.120352 174.965182 
L 202.592408 174.616054 
L 203.379168 174.034449 
L 205.319843 172.527343 
L 207.208067 170.765947 
L 209.306093 169.180186 
L 211.876176 167.468516 
L 212.243331 167.270454 
L 213.134992 166.782379 
L 213.449696 166.632857 
L 214.341357 166.083786 
L 214.708512 165.913532 
L 215.600173 165.329998 
L 215.914877 165.145858 
L 216.754088 164.534846 
L 217.068792 164.330765 
L 217.908003 163.660553 
L 218.222707 163.432792 
L 219.114368 162.662483 
L 219.429072 162.366301 
L 220.006029 161.873533 
L 221.369747 160.527206 
L 221.946704 160.212564 
L 222.156507 160.370413 
L 222.785915 161.362987 
L 223.677576 161.012108 
L 223.939829 160.840638 
L 224.831491 159.915708 
L 225.198645 159.666037 
L 225.670701 159.370428 
L 225.932955 159.422859 
L 226.142757 159.350465 
L 226.405011 159.431327 
L 226.614813 159.364704 
L 226.877067 159.402847 
L 227.034419 159.426441 
L 227.349123 159.591728 
L 227.611376 159.574975 
L 228.607939 159.717017 
L 228.71284 159.721286 
L 228.922643 159.823643 
L 229.761853 159.911741 
L 230.024107 159.929365 
L 230.181459 159.93858 
L 230.391261 160.049197 
L 230.601064 159.924039 
L 230.863317 160.031164 
L 231.020669 159.818611 
L 231.754979 158.824232 
L 232.017232 158.78821 
L 232.227035 158.750839 
L 232.594189 158.90216 
L 232.803992 159.01371 
L 233.066245 159.121182 
L 233.328499 159.098046 
L 233.590752 159.102254 
L 233.853005 159.040475 
L 234.115259 159.020849 
L 234.377512 158.96802 
L 234.692216 158.920628 
L 235.00692 158.923692 
L 235.269173 158.872509 
L 236.842693 158.369795 
L 237.472101 158.039326 
L 237.681904 157.943169 
L 237.944157 157.753079 
L 238.049059 157.67736 
L 238.311312 157.446756 
L 238.416213 157.394682 
L 238.678467 157.147354 
L 238.783368 157.103957 
L 239.202973 156.671839 
L 239.989733 155.99459 
L 240.147085 155.983849 
L 240.409339 155.739074 
L 241.143648 155.263398 
L 241.301 155.116538 
L 241.405901 155.042147 
L 241.615704 155.046593 
L 241.773056 154.897427 
L 241.877957 154.813986 
L 242.035309 154.908488 
L 242.297563 154.646573 
L 242.454915 154.695879 
L 242.612267 154.459576 
L 242.664717 154.532996 
L 242.769619 154.573464 
L 242.926971 154.429827 
L 243.084323 154.566551 
L 243.241675 154.14645 
L 243.818632 151.974404 
L 244.133336 151.951381 
L 244.238237 151.490873 
L 244.657843 146.779321 
L 244.710293 146.798362 
L 244.815195 147.131321 
L 245.182349 149.25521 
L 245.339701 149.81411 
L 245.549504 150.311976 
L 245.706856 150.538981 
L 246.178912 150.003997 
L 246.336264 149.949578 
L 246.598517 149.672986 
L 246.860771 149.457308 
L 246.965672 149.284482 
L 247.018123 149.344209 
L 247.123024 149.354439 
L 247.332827 148.793924 
L 248.014685 147.253063 
L 248.748995 146.399642 
L 248.958797 146.267257 
L 249.1686 146.200991 
L 251.214176 145.428183 
L 251.476429 145.386546 
L 251.686232 145.391157 
L 251.948485 145.389308 
L 252.158288 145.4331 
L 252.420541 145.46338 
L 252.630344 145.507524 
L 252.787696 145.758271 
L 253.154851 146.455406 
L 253.312203 146.050959 
L 253.469555 145.765603 
L 253.679357 145.893957 
L 253.88916 145.757854 
L 254.151413 145.718931 
L 254.990624 145.224622 
L 255.252877 145.08134 
L 255.567581 144.970215 
L 255.934736 145.169121 
L 256.144539 145.296791 
L 256.406792 145.490828 
L 256.669045 145.617872 
L 256.931299 145.749455 
L 257.298453 145.817573 
L 257.508256 145.787333 
L 257.770509 145.672147 
L 257.82296 50.002606 
L 257.927861 50.00708 
L 258.714621 49.57021 
L 259.501381 49.083664 
L 259.816085 48.880679 
L 260.497944 48.422129 
L 261.704309 47.814436 
L 262.386168 47.640798 
L 262.753323 47.602195 
L 263.015576 47.629746 
L 263.33028 47.617326 
L 263.487632 47.67396 
L 263.749885 47.76058 
L 264.012139 47.829762 
L 264.274392 47.967313 
L 264.484195 47.989706 
L 264.746448 48.243886 
L 265.061152 48.36786 
L 265.323405 48.587915 
L 265.69056 48.420544 
L 266.267517 44.769316 
L 266.319968 44.79645 
L 266.582221 45.387906 
L 266.634672 45.306976 
L 266.792024 45.222176 
L 267.001827 45.400898 
L 267.211629 45.09762 
L 267.421432 45.218838 
L 267.631235 44.86313 
L 268.365544 45.387329 
L 268.470445 45.438742 
L 268.575347 45.436204 
L 268.785149 45.913685 
L 269.309656 47.072188 
L 269.467008 47.820366 
L 269.519459 47.723229 
L 269.676811 47.584083 
L 269.991515 47.96271 
L 270.096416 48.153232 
L 270.253768 47.883338 
L 270.306219 47.915767 
L 270.568472 48.559224 
L 270.725824 48.747326 
L 270.778275 48.81772 
L 270.830725 48.775949 
L 270.988077 48.734217 
L 271.19788 49.119728 
L 271.355232 48.666357 
L 271.407683 48.699642 
L 271.669936 49.430168 
L 271.722387 49.242555 
L 271.827288 48.896496 
L 271.879739 48.909876 
L 272.141992 49.227077 
L 272.246893 49.017994 
L 272.299344 49.072514 
L 272.561597 49.443554 
L 272.614048 49.547365 
L 272.666499 49.467035 
L 272.823851 49.306331 
L 273.086104 49.522286 
L 273.191005 49.420026 
L 273.505709 49.814018 
L 273.55816 49.864039 
L 273.663061 49.660286 
L 274.240019 51.417647 
L 274.607173 53.326358 
L 274.764525 52.846042 
L 275.184131 50.746618 
L 275.91844 44.284762 
L 276.285595 41.341122 
L 276.338045 232.242663 
L 276.442947 231.251957 
L 277.019904 226.597123 
L 277.649312 222.340302 
L 278.173819 219.389367 
L 279.380184 214.151333 
L 280.639 211.537801 
L 281.058605 210.889766 
L 281.635563 210.316659 
L 282.422323 209.799166 
L 282.99928 209.499086 
L 283.838491 209.17592 
L 284.467899 208.990253 
L 286.198771 208.198962 
L 287.247784 207.461239 
L 287.562488 206.483699 
L 287.824741 205.876217 
L 288.244347 206.405923 
L 288.663952 206.33961 
L 289.555613 206.865593 
L 290.814429 206.493979 
L 291.496288 206.409471 
L 292.807555 205.898649 
L 296.584003 204.243459 
L 297.265861 203.432755 
L 297.895269 203.3201 
L 300.308 203.837356 
L 301.986421 203.715655 
L 303.507491 203.544287 
L 304.399152 202.768469 
L 304.976109 202.605497 
L 306.392277 202.401175 
L 307.283939 202.252856 
L 308.070699 202.081604 
L 308.385403 202.056979 
L 309.224613 201.81058 
L 309.486867 201.747506 
L 309.801571 201.720424 
L 310.693232 201.615202 
L 311.689795 201.43134 
L 312.529005 201.107709 
L 313.263315 200.97035 
L 313.840272 200.929905 
L 314.46968 200.824283 
L 315.780947 200.703588 
L 316.410355 200.661062 
L 317.354467 200.752713 
L 317.983875 200.628921 
L 318.980437 200.544115 
L 321.183365 200.435684 
L 321.707872 200.723495 
L 322.075027 200.745034 
L 323.753448 200.653633 
L 324.068152 200.618907 
L 324.645109 200.556254 
L 325.641672 200.53023 
L 327.05784 200.257434 
L 327.739699 199.756837 
L 331.201443 196.879933 
L 335.7122 193.373141 
L 336.603861 192.728231 
L 337.390621 192.190915 
L 337.810227 191.878575 
L 338.492085 191.41424 
L 340.013155 190.537643 
L 341.062168 189.955338 
L 341.429323 189.654212 
L 341.953829 189.263572 
L 342.583237 188.949505 
L 343.737152 188.32133 
L 344.995968 187.724083 
L 345.94008 187.493483 
L 347.041544 187.438941 
L 352.129259 187.104612 
L 353.80768 187.319377 
L 355.3812 187.745311 
L 356.849819 188.374743 
L 358.213536 189.202808 
L 358.633141 189.399212 
L 358.842944 189.152264 
L 359.000296 189.079904 
L 359.472352 189.12454 
L 359.629704 188.833578 
L 359.996859 187.889173 
L 360.731168 186.995379 
L 361.045872 186.786467 
L 361.570379 186.028256 
L 362.671843 182.811885 
L 364.088011 179.95009 
L 365.137024 178.247783 
L 366.238488 176.887123 
L 370.591893 172.246616 
L 373.319328 169.483302 
L 374.001187 168.280042 
L 374.420792 166.626689 
L 374.630595 166.071136 
L 375.207552 165.977995 
L 375.417355 165.924253 
L 375.574707 165.429474 
L 376.833523 159.76138 
L 377.462931 158.231333 
L 378.564395 155.702736 
L 379.665859 153.161738 
L 380.347717 152.154857 
L 381.291829 151.211543 
L 382.026139 150.721297 
L 383.127603 151.179423 
L 383.442307 151.176628 
L 383.966813 151.147229 
L 384.438869 151.113083 
L 384.596221 151.374223 
L 385.173179 152.632274 
L 385.435432 152.998825 
L 385.697685 153.402073 
L 386.8516 154.098717 
L 387.218755 154.609886 
L 387.795712 154.693565 
L 388.687373 154.533377 
L 389.21188 153.938046 
L 389.788837 153.435961 
L 390.523147 152.981019 
L 391.362357 152.751192 
L 392.201568 152.410086 
L 392.988328 151.987248 
L 394.142243 151.322111 
L 394.824101 150.82213 
L 395.50596 150.110626 
L 395.715763 148.517377 
L 395.873115 147.77284 
L 396.082917 147.212377 
L 396.135368 147.017374 
L 396.187819 147.091356 
L 396.345171 147.268859 
L 396.502523 146.87628 
L 396.607424 147.000998 
L 396.922128 147.522268 
L 397.07948 147.315317 
L 398.180944 145.224889 
L 398.495648 145.30635 
L 399.072605 145.4547 
L 399.334859 145.337944 
L 399.492211 145.259259 
L 399.649563 144.301317 
L 399.964267 142.758656 
L 400.22652 142.345231 
L 400.278971 142.374489 
L 401.432885 143.372346 
L 403.426011 142.708311 
L 403.740715 142.665631 
L 404.16032 142.523683 
L 404.579925 142.459451 
L 404.999531 142.389337 
L 405.419136 142.336001 
L 405.786291 142.394521 
L 406.205896 142.310832 
L 406.677952 142.296678 
L 406.887755 142.244599 
L 407.202459 141.908132 
L 407.517163 141.573036 
L 407.779416 141.247219 
L 407.831867 141.314197 
L 407.936768 141.420932 
L 407.989219 141.373636 
L 408.251472 141.204444 
L 408.461275 141.385876 
L 408.775979 141.012729 
L 409.038232 140.878424 
L 409.352936 140.060713 
L 409.510288 140.042808 
L 409.615189 140.118212 
L 409.929893 139.90722 
L 410.087245 139.838898 
L 410.192147 140.072152 
L 410.244597 140.029645 
L 410.716653 138.635946 
L 410.769104 138.679459 
L 410.821555 138.74217 
L 410.874005 138.663005 
L 411.398512 136.98508 
L 411.450963 137.056472 
L 411.555864 136.85561 
L 411.975469 135.23444 
L 412.02792 135.277092 
L 412.080371 135.344983 
L 412.132821 135.278042 
L 412.342624 134.063148 
L 412.709779 132.536561 
L 414.598003 124.183062 
L 416.014171 116.809252 
L 417.849944 110.058708 
L 418.322 108.946044 
L 418.741605 108.235895 
L 418.846507 108.282249 
L 419.003859 108.905816 
L 419.528365 111.38314 
L 419.685717 111.38756 
L 419.89552 111.278953 
L 420.052872 111.123207 
L 420.157773 111.012782 
L 420.944533 107.513826 
L 421.311688 106.874171 
L 421.573941 106.43574 
L 421.678843 106.326353 
L 422.203349 105.356101 
L 422.413152 104.856843 
L 423.199912 103.459378 
L 423.409715 103.150946 
L 423.82932 102.581274 
L 424.406277 101.940419 
L 425.979797 100.401906 
L 426.346952 100.201625 
L 426.661656 100.081732 
L 427.028811 99.89204 
L 427.76312 99.57732 
L 428.077824 99.476419 
L 428.497429 99.310938 
L 428.759683 99.193743 
L 429.493992 98.795126 
L 429.913597 98.561801 
L 430.857709 97.869072 
L 431.119963 97.667665 
L 431.487117 97.272277 
L 432.273877 97.274588 
L 432.850835 96.850441 
L 433.532693 96.274387 
L 434.319453 95.878528 
L 434.896411 95.027359 
L 435.211115 94.957536 
L 435.892973 95.121187 
L 436.41748 95.143357 
L 436.941987 95.184046 
L 437.361592 95.486098 
L 440.193928 95.700014 
L 440.35128 95.707133 
L 441.242941 96.586347 
L 441.9248 96.607474 
L 442.659109 96.493328 
L 443.445869 96.503309 
L 443.917925 97.787403 
L 444.28508 98.404507 
L 444.599784 98.641474 
L 445.281643 99.007724 
L 445.491445 99.06105 
L 445.806149 99.135326 
L 446.015952 99.179477 
L 446.225755 99.190424 
L 446.383107 99.24273 
L 446.802712 99.32231 
L 447.379669 99.357883 
L 448.533584 99.228269 
L 449.162992 99.101445 
L 449.477696 99.054966 
L 449.844851 98.692566 
L 450.369357 97.811807 
L 450.788963 97.194997 
L 452.205131 94.775523 
L 453.568848 94.109709 
L 453.988453 93.969545 
L 454.617861 93.714755 
L 456.453635 93.018191 
L 457.135493 92.920283 
L 457.817352 92.564453 
L 458.44676 92.251263 
L 458.918816 92.090084 
L 460.387435 91.390468 
L 460.702139 91.271441 
L 461.436448 90.933419 
L 461.803603 90.800244 
L 462.065856 90.732689 
L 462.852616 91.424799 
L 463.324672 92.054769 
L 463.586925 92.085472 
L 463.95408 91.826918 
L 464.950643 90.896645 
L 465.894755 90.455594 
L 466.629064 89.997896 
L 467.153571 89.743377 
L 467.625627 89.531655 
L 468.831992 89.116662 
L 469.566301 88.948894 
L 472.083933 88.487102 
L 472.60844 88.403504 
L 474.129509 88.077315 
L 475.703029 87.697812 
L 476.699592 87.609657 
L 478.063309 87.292611 
L 478.325563 87.054902 
L 478.692717 86.800979 
L 479.059872 86.805828 
L 480.108885 87.046184 
L 480.580941 87.094925 
L 481.210349 87.06138 
L 482.469165 87.200505 
L 482.678968 87.206292 
L 482.941221 87.305367 
L 483.151024 87.221879 
L 483.518179 87.289586 
L 483.727981 87.271362 
L 483.990235 87.34264 
L 484.252488 87.158005 
L 484.619643 87.174433 
L 484.829445 87.186418 
L 485.144149 87.294372 
L 485.353952 87.324444 
L 485.668656 87.443594 
L 485.930909 87.383464 
L 486.193163 87.405455 
L 486.455416 87.332084 
L 486.77012 87.302835 
L 487.084824 87.299376 
L 487.714232 87.297317 
L 488.238739 87.332263 
L 489.287752 87.43415 
L 490.70392 87.654808 
L 491.280877 88.65122 
L 491.438229 88.641933 
L 491.857835 88.481041 
L 492.120088 88.2769 
L 492.27744 88.236321 
L 492.487243 88.086906 
L 492.644595 88.397162 
L 492.906848 89.591359 
L 493.221552 90.847692 
L 493.431355 90.833508 
L 493.641157 90.952424 
L 493.798509 91.014972 
L 494.113213 90.844335 
L 494.375467 91.074078 
L 494.532819 91.12362 
L 494.63772 91.324188 
L 494.847523 91.792055 
L 495.057325 91.881943 
L 495.372029 92.145708 
L 495.529381 92.347088 
L 495.581832 92.482396 
L 495.739184 188.415801 
L 495.844085 188.519781 
L 496.421043 189.642953 
L 496.735747 190.035255 
L 496.893099 190.257464 
L 496.945549 190.225395 
L 497.155352 190.151197 
L 497.522507 190.249639 
L 498.256816 190.186921 
L 498.466619 189.973786 
L 498.728872 189.952653 
L 499.463181 189.359959 
L 500.984251 188.49504 
L 501.194053 188.438032 
L 501.508757 188.194047 
L 501.771011 188.070966 
L 502.033264 187.817238 
L 502.347968 187.742943 
L 502.557771 187.607124 
L 502.977376 187.685128 
L 503.187179 187.618291 
L 503.606784 187.717092 
L 503.816587 187.709545 
L 504.131291 187.751082 
L 505.180304 187.596223 
L 505.599909 187.664112 
L 506.858725 188.271715 
L 507.488133 188.187184 
L 509.953315 187.08486 
L 510.425371 186.818492 
L 510.635173 186.785458 
L 510.844976 186.66523 
L 511.054779 186.605064 
L 511.212131 186.564314 
L 511.369483 186.541052 
L 511.631736 186.42183 
L 511.789088 186.421132 
L 512.051341 186.298623 
L 512.208693 186.306671 
L 512.890552 185.579473 
L 513.152805 185.271435 
L 513.362608 185.091847 
L 513.624861 184.935105 
L 513.887115 184.648082 
L 514.516523 183.946756 
L 514.988579 183.913965 
L 516.457197 184.142502 
L 517.243957 184.065123 
L 518.188069 183.078806 
L 519.02728 182.757725 
L 519.971392 182.607778 
L 520.181195 182.559044 
L 521.020405 182.529053 
L 522.489024 182.664786 
L 522.751277 182.709019 
L 523.013531 182.727529 
L 523.642939 182.833639 
L 524.482149 182.98739 
L 525.426261 183.528873 
L 526.10812 184.117078 
L 526.580176 184.261589 
L 527.68164 184.450682 
L 529.569864 184.597289 
L 530.356624 184.725243 
L 531.195835 184.848084 
L 532.769355 185.109335 
L 533.503664 185.176707 
L 533.923269 185.087515 
L 535.024733 185.146295 
L 535.444339 185.027097 
L 535.811493 185.079521 
L 536.283549 185.159389 
L 536.545803 184.896759 
L 536.965408 184.521893 
L 537.280112 184.300152 
L 537.699717 183.605203 
L 538.119323 182.957517 
L 538.434027 182.722388 
L 538.853632 182.226607 
L 539.797744 180.347464 
L 541.05656 177.739066 
L 541.790869 176.257559 
L 542.577629 174.690628 
L 543.836445 172.127573 
L 544.99036 169.850879 
L 545.200163 169.429801 
L 546.301627 166.796385 
L 548.609456 163.349484 
L 549.553568 161.992881 
L 551.704045 158.735501 
L 552.543256 157.566002 
L 553.225115 156.599429 
L 555.060888 154.458648 
L 555.270691 154.202269 
L 555.952549 153.481013 
L 558.679984 150.757949 
L 559.256941 150.084414 
L 559.571645 149.963195 
L 559.886349 149.80634 
L 560.463307 149.202971 
L 562.403981 146.456559 
L 563.820149 145.046957 
L 565.708373 143.968251 
L 566.862288 143.602304 
L 568.121104 142.912041 
L 568.855413 142.455501 
L 569.904427 141.865605 
L 571.268144 140.875751 
L 572.107355 139.851667 
L 576.250957 138.649583 
L 578.558787 138.038619 
L 579.397997 137.5383 
L 580.919067 136.722635 
L 581.338672 136.522312 
L 582.125432 136.619076 
L 582.597488 136.921405 
L 583.331797 137.351284 
L 583.961205 137.478589 
L 584.275909 137.390511 
L 585.587176 136.300474 
L 586.426387 135.916648 
L 587.527851 135.564668 
L 587.895005 134.744604 
L 587.947456 134.808 
L 588.157259 134.921531 
L 588.471963 134.754964 
L 588.681765 134.76054 
L 588.734216 134.715031 
L 588.891568 79.517099 
L 589.04892 79.61027 
L 589.573427 79.997556 
L 589.888131 80.184002 
L 590.779792 80.834185 
L 591.251848 81.324172 
L 592.405763 82.762723 
L 594.766043 85.521071 
L 596.496915 88.458952 
L 597.545928 89.880405 
L 600.011109 93.47325 
L 600.588067 94.2559 
L 601.007672 94.769168 
L 602.004235 95.811425 
L 602.738544 96.528858 
L 603.630205 97.17174 
L 604.154712 97.560276 
L 604.889021 98.320524 
L 605.728232 99.068567 
L 606.147837 99.448369 
L 608.403216 101.867065 
L 609.032624 102.523866 
L 609.714483 103.361798 
L 610.553693 104.519242 
L 611.0782 105.395139 
L 611.602707 105.840137 
L 612.337016 106.4974 
L 613.700733 108.013583 
L 614.067888 108.971037 
L 614.487493 109.460592 
L 614.697296 109.525854 
L 614.907099 109.667778 
L 615.169352 109.708451 
L 615.431605 109.891295 
L 615.641408 109.988621 
L 616.061013 110.521038 
L 616.58552 111.139959 
L 616.952675 111.613093 
L 617.214928 111.947951 
L 618.316392 113.222941 
L 618.578645 114.054581 
L 618.840899 114.723492 
L 619.103152 114.9223 
L 619.312955 115.179992 
L 619.627659 115.142489 
L 619.837461 115.352481 
L 620.152165 115.271859 
L 620.466869 115.798428 
L 620.729123 115.851395 
L 621.043827 116.382005 
L 621.30608 116.361051 
L 621.620784 116.806583 
L 621.935488 116.756996 
L 622.250192 117.216795 
L 622.564896 117.178499 
L 622.8796 117.650246 
L 623.246755 117.699335 
L 623.509008 118.017886 
L 623.876163 118.055 
L 624.138416 118.346668 
L 624.348219 118.457641 
L 624.715373 119.09273 
L 624.820275 119.151157 
L 625.030077 119.317869 
L 625.187429 119.3373 
L 625.449683 119.71963 
L 625.607035 119.800948 
L 625.816837 120.236995 
L 626.02664 120.174034 
L 626.236443 120.386494 
L 626.341344 120.441125 
L 626.498696 120.549928 
L 626.656048 120.547159 
L 626.865851 120.672297 
L 626.970752 120.696835 
L 627.180555 120.795448 
L 627.285456 120.831735 
L 627.705061 121.150603 
L 628.229568 121.286371 
L 628.439371 121.366562 
L 630.117792 122.480255 
L 630.694749 123.040532 
L 630.904552 123.988724 
L 631.324157 125.824888 
L 632.006016 126.942935 
L 632.268269 127.078486 
L 633.002579 128.930815 
L 633.212381 128.802395 
L 633.369733 128.515469 
L 633.684437 127.934775 
L 634.523648 126.924857 
L 636.202069 126.124195 
L 637.198632 126.069186 
L 638.6148 126.324887 
L 640.922629 125.357167 
L 641.499587 125.147704 
L 641.76184 125.270139 
L 641.866741 125.197448 
L 642.076544 124.975085 
L 642.968205 125.90054 
L 643.387811 125.937198 
L 643.597613 125.816169 
L 643.807416 124.500004 
L 644.017219 123.945805 
L 644.174571 123.605414 
L 644.436824 123.047379 
L 644.594176 122.984211 
L 644.856429 122.709026 
L 645.538288 122.209755 
L 645.748091 122.193486 
L 645.852992 122.099889 
L 646.062795 122.218736 
L 646.220147 122.128394 
L 646.377499 122.182783 
L 646.534851 122.123044 
L 646.744653 122.176727 
L 647.111808 122.169939 
L 647.26916 122.49348 
L 647.478963 123.936645 
L 648.05592 128.046655 
L 648.318173 128.603605 
L 648.370624 128.566762 
L 648.84268 128.052125 
L 649.000032 127.825162 
L 649.524539 127.875414 
L 649.734341 128.063878 
L 650.049045 128.357133 
L 650.311299 128.593522 
L 650.626003 128.747669 
L 650.730904 128.788443 
L 650.993157 128.97173 
L 651.255411 128.997591 
L 651.465213 129.117546 
L 651.884819 129.192141 
L 652.251973 129.326829 
L 652.461776 129.418805 
L 652.828931 129.562163 
L 652.933832 129.611505 
L 653.091184 130.482368 
L 653.300987 131.270062 
L 653.773043 131.388007 
L 653.930395 131.065062 
L 653.982845 131.094047 
L 654.140197 131.115098 
L 654.454901 130.842525 
L 654.979408 130.748965 
L 655.189211 130.647945 
L 655.451464 130.546504 
L 655.556365 130.597511 
L 655.766168 130.765994 
L 655.975971 130.839846 
L 656.238224 131.066324 
L 656.395576 131.096752 
L 656.657829 131.342504 
L 656.920083 131.311987 
L 657.129885 131.445242 
L 657.339688 131.453666 
L 657.549491 131.733641 
L 657.811744 131.682063 
L 658.021547 131.895668 
L 658.2838 131.687165 
L 658.336251 131.773482 
L 658.546053 131.97479 
L 658.860757 131.916693 
L 659.123011 132.178962 
L 659.332813 132.043121 
L 659.385264 132.005689 
L 659.699968 132.523828 
L 659.752419 132.495595 
L 659.962221 132.425463 
L 660.276925 132.993108 
L 660.64408 133.102637 
L 660.906333 133.741397 
L 661.221037 133.765455 
L 661.588192 134.664803 
L 661.902896 134.938382 
L 662.2176 135.792604 
L 662.479853 135.931056 
L 662.951909 137.450017 
L 663.214163 137.762241 
L 663.528867 138.63261 
L 663.896021 139.153986 
L 664.525429 142.370798 
L 664.840133 144.128167 
L 665.417091 144.867057 
L 665.836696 145.750566 
L 666.1514 146.163087 
L 666.203851 146.10437 
L 666.518555 145.621499 
L 666.571005 145.67892 
L 666.990611 146.200868 
L 668.039624 149.083963 
L 668.931285 150.605378 
L 669.036187 151.121551 
L 669.29844 154.172289 
L 669.455792 155.099607 
L 669.508243 155.03428 
L 669.613144 154.523657 
L 669.665595 154.724903 
L 669.822947 155.723635 
L 669.927848 155.392261 
L 669.980299 155.103638 
L 670.032749 155.322972 
L 670.347453 156.894891 
L 670.452355 156.755329 
L 670.924411 158.923998 
L 670.976861 158.891774 
L 671.029312 158.746593 
L 671.081763 158.887368 
L 671.344016 159.475378 
L 671.396467 159.376804 
L 671.448917 159.455283 
L 671.553819 159.745257 
L 671.606269 159.712463 
L 671.711171 159.779585 
L 671.763621 159.709064 
L 671.816072 159.767129 
L 672.078325 160.239263 
L 672.235677 160.744142 
L 672.760184 161.851048 
L 673.127339 161.96181 
L 673.23224 161.899617 
L 673.389592 161.726318 
L 673.494493 161.723132 
L 673.704296 161.326875 
L 673.809197 161.391493 
L 674.071451 161.093918 
L 674.176352 161.168504 
L 674.228803 161.106018 
L 674.648408 161.044449 
L 674.753309 160.923542 
L 674.910661 161.043603 
L 675.015563 160.953015 
L 675.120464 161.090617 
L 675.172915 161.054358 
L 675.330267 160.948041 
L 675.435168 160.957719 
L 675.644971 161.022379 
L 675.802323 160.904305 
L 675.959675 161.086233 
L 676.064576 161.032735 
L 677.061139 161.55947 
L 677.533195 162.328995 
L 677.742997 162.745389 
L 678.110152 163.280601 
L 678.687109 163.814126 
L 680.522883 165.112084 
L 680.680235 164.442643 
L 681.09984 162.179131 
L 681.309643 161.651447 
L 681.571896 161.608867 
L 681.729248 161.857016 
L 682.463557 163.536169 
L 682.883163 163.925933 
L 683.092965 163.916631 
L 683.722373 163.371206 
L 683.879725 163.252737 
L 684.089528 163.089642 
L 684.299331 163.082689 
L 684.456683 163.01058 
L 684.823837 163.143512 
L 684.981189 163.280469 
L 685.190992 163.510941 
L 685.348344 163.477069 
L 685.558147 163.746208 
L 685.663048 163.830335 
L 685.715499 163.796251 
L 685.925301 163.811067 
L 686.135104 164.113331 
L 686.292456 164.737881 
L 686.816963 168.716273 
L 687.184117 169.760335 
L 687.603723 170.118975 
L 687.708624 170.136006 
L 687.761075 170.037611 
L 687.813525 170.113543 
L 687.970877 170.121568 
L 688.023328 170.073796 
L 688.338032 168.012415 
L 688.600285 166.334225 
L 688.914989 164.671972 
L 689.177243 163.103471 
L 689.387045 161.254227 
L 689.596848 160.442373 
L 689.7542 159.590344 
L 689.964003 158.624025 
L 690.121355 158.317028 
L 690.331157 157.048943 
L 690.383608 157.075016 
L 690.803213 157.851856 
L 691.065467 157.833713 
L 691.275269 158.138807 
L 691.380171 157.839045 
L 691.432621 157.919556 
L 691.642424 160.379354 
L 692.009579 163.63246 
L 692.219381 164.259285 
L 692.324283 164.355242 
L 692.691437 165.069614 
L 692.90124 165.272905 
L 693.215944 165.74275 
L 693.373296 165.671041 
L 693.635549 166.142062 
L 693.845352 166.100081 
L 694.264957 166.754944 
L 694.317408 166.742274 
L 695.051717 168.23073 
L 695.313971 168.289232 
L 695.471323 168.409529 
L 695.838477 168.278934 
L 696.153181 168.487432 
L 696.362984 168.603895 
L 697.359547 170.881516 
L 697.884053 172.524397 
L 698.146307 173.078984 
L 698.461011 173.728954 
L 698.775715 174.75579 
L 699.352672 177.255692 
L 700.663939 183.611711 
L 700.821291 183.977828 
L 701.240896 185.299011 
L 701.398248 185.754076 
L 701.712952 186.861485 
L 701.817853 186.992359 
L 702.027656 187.871369 
L 702.237459 188.684925 
L 702.289909 188.668252 
L 702.394811 188.792019 
L 702.657064 189.748491 
L 702.814416 190.276382 
L 702.866867 190.263997 
L 702.971768 190.310395 
L 703.12912 190.70251 
L 703.391373 191.548903 
L 703.496275 191.507568 
L 703.653627 191.783974 
L 703.968331 192.700121 
L 704.073232 192.656787 
L 704.178133 192.734732 
L 704.70264 193.662635 
L 704.912443 194.009434 
L 705.122245 194.446139 
L 705.279597 194.449443 
L 705.541851 194.871466 
L 705.751653 195.241812 
L 705.909005 195.245096 
L 706.223709 195.679179 
L 706.433512 195.851355 
L 706.643315 196.004747 
L 707.797229 197.053258 
L 707.954581 196.902234 
L 708.111933 196.680211 
L 708.164384 196.715299 
L 708.479088 197.107516 
L 708.63644 197.177205 
L 708.898693 197.370981 
L 709.003595 197.476289 
L 709.318299 197.940463 
L 709.4232 198.10415 
L 709.737904 198.671256 
L 709.842805 198.848279 
L 710.105059 199.206826 
L 710.367312 199.44798 
L 710.577115 199.663052 
L 711.154072 199.587652 
L 711.573677 200.087834 
L 712.727592 201.825963 
L 713.042296 201.832355 
L 713.304549 200.794501 
L 713.409451 201.022065 
L 713.461901 201.203813 
L 713.514352 201.157376 
L 713.724155 200.636727 
L 713.881507 200.740375 
L 714.301112 199.558314 
L 714.615816 199.513046 
L 714.825619 199.619576 
L 715.402576 200.42088 
L 715.507477 200.449526 
L 716.189336 201.486282 
L 716.294237 201.502319 
L 717.185899 202.793347 
L 718.025109 203.718242 
L 718.182461 203.70904 
L 718.497165 204.014773 
L 718.759419 204.327121 
L 719.179024 204.772545 
L 719.441277 204.469721 
L 719.546179 204.492671 
L 719.755981 204.339167 
L 719.913333 204.304285 
L 720.018235 204.381184 
L 720.123136 204.480327 
L 720.280488 204.385141 
L 721.644205 205.462824 
L 721.801557 205.52805 
L 722.221163 205.693723 
L 722.430965 205.717823 
L 722.693219 205.774502 
L 724.004485 206.236415 
L 724.266739 206.284116 
L 725.1584 206.88927 
L 725.787808 207.638947 
L 727.256427 209.247527 
L 728.462792 210.00425 
L 729.616707 210.506103 
L 731.924536 211.210026 
L 732.606395 211.277658 
L 732.868648 211.273041 
L 733.026 211.477064 
L 733.340704 211.962818 
L 733.917661 212.136206 
L 734.179915 212.121228 
L 734.389717 211.142819 
L 734.861773 208.89024 
L 735.124027 208.465706 
L 735.333829 208.440135 
L 735.753435 208.763752 
L 736.435293 209.44013 
L 737.956363 209.906481 
L 738.061264 209.647367 
L 738.375968 208.870931 
L 738.638221 208.766657 
L 738.795573 208.752544 
L 739.372531 209.12064 
L 739.529883 209.140856 
L 739.739685 209.472664 
L 739.792136 209.426829 
L 739.949488 209.324463 
L 740.264192 209.531697 
L 740.473995 209.562168 
L 740.683797 209.660543 
L 740.946051 209.760098 
L 741.050952 209.778944 
L 741.260755 209.736019 
L 742.781824 210.708142 
L 742.991627 210.56308 
L 743.411232 210.736206 
L 743.621035 210.841859 
L 743.830837 210.985612 
L 744.04064 210.885189 
L 744.460245 210.972956 
L 744.617597 211.005003 
L 744.932301 211.251435 
L 745.142104 211.175244 
L 745.61416 211.359187 
L 745.771512 211.36135 
L 746.138667 211.543593 
L 746.296019 211.507204 
L 746.505821 211.879192 
L 747.082779 213.586692 
L 747.502384 215.114978 
L 747.921989 216.493799 
L 749.757763 220.699188 
L 753.429309 227.262497 
L 753.953816 228.147204 
L 754.583224 229.18236 
L 755.265083 229.85114 
L 756.786152 232.294241 
L 756.891053 232.055473 
L 757.153307 231.302403 
L 757.468011 231.209644 
L 757.625363 231.399319 
L 757.730264 231.411346 
L 757.940067 231.665534 
L 757.992517 231.632264 
L 758.097419 231.746636 
L 758.254771 231.974931 
L 758.359672 231.991912 
L 758.674376 232.35367 
L 758.831728 232.50819 
L 758.884179 41.155724 
L 758.98908 41.327036 
L 760.142995 42.941116 
L 760.405248 43.246424 
L 760.772403 43.628904 
L 760.982205 43.825682 
L 761.296909 44.171931 
L 762.031219 44.946831 
L 762.503275 45.43456 
L 762.870429 45.640223 
L 763.290035 45.473784 
L 763.447387 45.613708 
L 763.604739 45.620811 
L 763.866992 45.720314 
L 764.286597 46.089355 
L 765.492963 47.332365 
L 766.541976 47.981921 
L 767.171384 48.329777 
L 767.695891 49.218454 
L 767.958144 49.384273 
L 768.325299 49.394808 
L 769.007157 49.331161 
L 769.479213 49.551095 
L 771.262536 50.696972 
L 773.570365 51.649863 
L 775.878195 52.392272 
L 777.189461 52.875677 
L 777.818869 53.51415 
L 778.133573 53.566411 
L 778.867883 53.629776 
L 780.808557 54.145063 
L 781.070811 54.106001 
L 781.857571 53.652649 
L 782.172275 53.818193 
L 783.535992 54.633732 
L 784.742357 54.724837 
L 785.004611 54.704315 
L 785.843821 54.787908 
L 787.732045 54.937669 
L 788.0992 55.018373 
L 788.361453 55.028563 
L 788.728608 55.068213 
L 788.990861 55.122615 
L 789.253115 55.125752 
L 789.725171 55.24968 
L 790.092325 55.29228 
L 790.564381 55.32715 
L 791.508493 55.330093 
L 792.924661 55.408005 
L 794.550632 55.264551 
L 798.169728 55.163674 
L 799.166291 55.300649 
L 799.953051 55.763487 
L 802.942739 57.771431 
L 803.8344 58.343074 
L 805.093216 59.259387 
L 818.153432 68.494033 
L 818.677939 68.907137 
L 819.726952 69.544665 
L 819.936755 69.615462 
L 820.566163 70.262339 
L 822.244584 71.064354 
L 822.454387 71.138757 
L 822.71664 71.294551 
L 822.978893 71.43632 
L 823.241147 71.530744 
L 823.450949 71.649268 
L 823.975456 71.927477 
L 829.115621 74.427758 
L 830.846493 75.084558 
L 831.423451 75.480087 
L 832.105309 75.975584 
L 832.892069 76.173498 
L 833.993533 76.602793 
L 837.927333 78.059982 
L 840.549867 78.948168 
L 840.917021 79.224625 
L 841.441528 79.562096 
L 841.861133 79.745467 
L 842.490541 79.808064 
L 848.365016 81.117594 
L 851.092451 81.761654 
L 851.092451 81.761654 
" clip-path="url(#pf9b83153da)" style="fill: none; stroke: #ff0000; stroke-opacity: 0.7; stroke-linecap: square"/>
   </g>
   <g id="line2d_16">
    <path d="M 588.786667 242.08 
L 588.786667 31.5825 
" clip-path="url(#pf9b83153da)" style="fill: none; stroke-dasharray: 3.7,1.6; stroke-dashoffset: 0; stroke: #000000; stroke-opacity: 0.35"/>
   </g>
   <g id="line2d_17">
    <path clip-path="url(#pf9b83153da)" style="fill: none; stroke-dasharray: 3.7,1.6; stroke-dashoffset: 0; stroke: #000000; stroke-opacity: 0.35"/>
   </g>
   <g id="line2d_18">
    <path clip-path="url(#pf9b83153da)" style="fill: none; stroke-dasharray: 3.7,1.6; stroke-dashoffset: 0; stroke: #000000; stroke-opacity: 0.35"/>
   </g>
   <g id="line2d_19">
    <path clip-path="url(#pf9b83153da)" style="fill: none; stroke-dasharray: 3.7,1.6; stroke-dashoffset: 0; stroke: #000000; stroke-opacity: 0.35"/>
   </g>
   <g id="line2d_20">
    <path clip-path="url(#pf9b83153da)" style="fill: none; stroke-dasharray: 3.7,1.6; stroke-dashoffset: 0; stroke: #000000; stroke-opacity: 0.35"/>
   </g>
   <g id="line2d_21">
    <path clip-path="url(#pf9b83153da)" style="fill: none; stroke-dasharray: 3.7,1.6; stroke-dashoffset: 0; stroke: #000000; stroke-opacity: 0.35"/>
   </g>
   <g id="patch_3">
    <path d="M 64.28 242.08 
L 64.28 31.5825 
" style="fill: none; stroke: #000000; stroke-width: 0.5; stroke-linejoin: miter; stroke-linecap: square"/>
   </g>
   <g id="patch_4">
    <path d="M 64.28 242.08 
L 851.04 242.08 
" style="fill: none; stroke: #000000; stroke-width: 0.5; stroke-linejoin: miter; stroke-linecap: square"/>
   </g>
   <g id="text_16">
    <!-- Angle estimate vs true wind angle — with wind direction jumps and locomotion noise -->
    <g transform="translate(118.167344 25.5825) scale(0.18 -0.18)">
     <defs>
      <path id="NewCM10-Regular-41" d="M 4589 0 
L 4589 198 
L 4474 198 
C 4090 198 4000 243 3930 454 
L 2547 4454 
C 2515 4538 2502 4582 2400 4582 
C 2298 4582 2278 4544 2246 4454 
L 922 627 
C 806 301 550 205 205 198 
L 205 0 
L 858 19 
L 1594 0 
L 1594 198 
C 1274 198 1114 358 1114 525 
C 1114 544 1120 608 1126 621 
L 1421 1459 
L 3002 1459 
L 3341 480 
C 3347 454 3360 416 3360 390 
C 3360 198 3002 198 2829 198 
L 2829 0 
C 3059 19 3507 19 3750 19 
L 4589 0 
z
M 2931 1658 
L 1491 1658 
L 2208 3738 
L 2931 1658 
z
" transform="scale(0.015625)"/>
      <path id="NewCM10-Regular-73" d="M 2304 819 
C 2304 1158 2112 1350 2035 1427 
C 1824 1632 1574 1683 1306 1734 
C 947 1805 518 1888 518 2259 
C 518 2483 685 2746 1235 2746 
C 1939 2746 1971 2170 1984 1971 
C 1990 1914 2061 1914 2061 1914 
C 2144 1914 2144 1946 2144 2067 
L 2144 2714 
C 2144 2822 2144 2867 2074 2867 
C 2042 2867 2029 2867 1946 2790 
C 1926 2765 1862 2707 1837 2688 
C 1594 2867 1331 2867 1235 2867 
C 454 2867 211 2438 211 2080 
C 211 1856 314 1677 486 1536 
C 691 1370 870 1331 1331 1242 
C 1472 1216 1997 1114 1997 653 
C 1997 326 1773 70 1274 70 
C 736 70 506 435 384 979 
C 365 1062 358 1088 294 1088 
C 211 1088 211 1043 211 928 
L 211 83 
C 211 -26 211 -70 282 -70 
C 314 -70 320 -64 442 58 
C 454 70 454 83 570 205 
C 851 -64 1139 -70 1274 -70 
C 2010 -70 2304 358 2304 819 
z
" transform="scale(0.015625)"/>
      <path id="NewCM10-Regular-6d" d="M 5203 0 
L 5203 198 
C 4870 198 4710 198 4704 390 
L 4704 1613 
C 4704 2163 4704 2362 4506 2592 
C 4416 2701 4205 2829 3834 2829 
C 3296 2829 3014 2445 2906 2202 
C 2816 2758 2342 2829 2054 2829 
C 1587 2829 1286 2554 1107 2157 
L 1107 2829 
L 205 2758 
L 205 2560 
C 653 2560 704 2515 704 2202 
L 704 486 
C 704 198 634 198 205 198 
L 205 0 
L 928 19 
L 1645 0 
L 1645 198 
C 1216 198 1146 198 1146 486 
L 1146 1664 
C 1146 2330 1600 2688 2010 2688 
C 2413 2688 2483 2342 2483 1978 
L 2483 486 
C 2483 198 2413 198 1984 198 
L 1984 0 
L 2707 19 
L 3424 0 
L 3424 198 
C 2995 198 2925 198 2925 486 
L 2925 1664 
C 2925 2330 3379 2688 3789 2688 
C 4192 2688 4262 2342 4262 1978 
L 4262 486 
C 4262 198 4192 198 3763 198 
L 3763 0 
L 4486 19 
L 5203 0 
z
" transform="scale(0.015625)"/>
      <path id="NewCM10-Regular-76" d="M 3251 2560 
L 3251 2758 
C 3104 2746 2918 2739 2771 2739 
L 2214 2758 
L 2214 2560 
C 2451 2554 2522 2406 2522 2285 
C 2522 2227 2509 2202 2483 2131 
L 1830 499 
L 1114 2285 
C 1075 2368 1075 2394 1075 2394 
C 1075 2560 1325 2560 1440 2560 
L 1440 2758 
L 742 2739 
C 570 2739 314 2746 122 2758 
L 122 2560 
C 525 2560 550 2522 634 2323 
L 1555 51 
C 1594 -38 1606 -70 1690 -70 
C 1773 -70 1798 -13 1824 51 
L 2662 2131 
C 2720 2278 2829 2554 3251 2560 
z
" transform="scale(0.015625)"/>
      <path id="NewCM10-Regular-72" d="M 2330 2438 
C 2330 2643 2131 2829 1856 2829 
C 1389 2829 1158 2400 1069 2125 
L 1069 2829 
L 179 2758 
L 179 2560 
C 627 2560 678 2515 678 2202 
L 678 486 
C 678 198 608 198 179 198 
L 179 0 
L 909 19 
C 1165 19 1466 19 1722 0 
L 1722 198 
L 1587 198 
C 1114 198 1101 269 1101 499 
L 1101 1485 
C 1101 2118 1370 2688 1856 2688 
C 1901 2688 1914 2688 1926 2682 
C 1907 2675 1779 2598 1779 2432 
C 1779 2253 1914 2157 2054 2157 
C 2170 2157 2330 2234 2330 2438 
z
" transform="scale(0.015625)"/>
      <path id="NewCM10-Regular-75" d="M 3424 0 
L 3424 198 
C 2976 198 2925 243 2925 557 
L 2925 2829 
L 1984 2758 
L 1984 2560 
C 2432 2560 2483 2515 2483 2202 
L 2483 1062 
C 2483 506 2176 70 1709 70 
C 1171 70 1146 371 1146 704 
L 1146 2829 
L 205 2758 
L 205 2560 
C 704 2560 704 2541 704 1971 
L 704 1011 
C 704 512 704 -70 1677 -70 
C 2035 -70 2317 109 2502 506 
L 2502 -70 
L 3424 0 
z
" transform="scale(0.015625)"/>
      <path id="NewCM10-Regular-77" d="M 4499 2560 
L 4499 2758 
C 4358 2746 4173 2739 4032 2739 
L 3437 2758 
L 3437 2560 
C 3667 2554 3808 2438 3808 2253 
C 3808 2214 3808 2202 3776 2118 
L 3194 480 
L 2560 2266 
C 2534 2342 2528 2355 2528 2387 
C 2528 2560 2778 2560 2906 2560 
L 2906 2758 
L 2240 2739 
C 2048 2739 1862 2746 1670 2758 
L 1670 2560 
C 1907 2560 2010 2547 2074 2464 
C 2106 2426 2176 2234 2221 2112 
L 1670 563 
L 1062 2272 
C 1030 2349 1030 2362 1030 2387 
C 1030 2560 1280 2560 1408 2560 
L 1408 2758 
L 710 2739 
L 115 2758 
L 115 2560 
C 435 2560 512 2541 589 2336 
L 1395 70 
C 1427 -19 1446 -70 1530 -70 
C 1613 -70 1626 -32 1658 58 
L 2304 1869 
L 2957 51 
C 2982 -19 3002 -70 3085 -70 
C 3168 -70 3187 -13 3213 51 
L 3962 2150 
C 4077 2470 4275 2554 4499 2560 
z
" transform="scale(0.015625)"/>
      <path id="NewCM10-Regular-2014" d="M 0 1626 
L 6394 1626 
L 6394 1773 
L 0 1773 
L 0 1626 
z
" transform="scale(0.015625)"/>
      <path id="NewCM10-Regular-68" d="M 3424 0 
L 3424 198 
C 3091 198 2931 198 2925 390 
L 2925 1613 
C 2925 2163 2925 2362 2726 2592 
C 2637 2701 2426 2829 2054 2829 
C 1517 2829 1235 2445 1133 2214 
L 1126 2214 
L 1126 4442 
L 205 4371 
L 205 4173 
C 653 4173 704 4128 704 3814 
L 704 486 
C 704 198 634 198 205 198 
L 205 0 
L 928 19 
L 1645 0 
L 1645 198 
C 1216 198 1146 198 1146 486 
L 1146 1664 
C 1146 2330 1600 2688 2010 2688 
C 2413 2688 2483 2342 2483 1978 
L 2483 486 
C 2483 198 2413 198 1984 198 
L 1984 0 
L 2707 19 
L 3424 0 
z
" transform="scale(0.015625)"/>
      <path id="NewCM10-Regular-63" d="M 2656 762 
C 2656 826 2592 826 2573 826 
C 2515 826 2502 800 2490 762 
C 2304 166 1888 90 1651 90 
C 1312 90 749 365 749 1395 
C 749 2438 1274 2707 1613 2707 
C 1670 2707 2074 2701 2298 2470 
C 2035 2451 1997 2259 1997 2176 
C 1997 2010 2112 1882 2291 1882 
C 2458 1882 2586 1990 2586 2182 
C 2586 2618 2099 2867 1606 2867 
C 806 2867 218 2176 218 1382 
C 218 563 851 -70 1594 -70 
C 2451 -70 2656 698 2656 762 
z
" transform="scale(0.015625)"/>
      <path id="NewCM10-Regular-6f" d="M 3014 1370 
C 3014 2189 2374 2867 1600 2867 
C 800 2867 179 2170 179 1370 
C 179 544 845 -70 1594 -70 
C 2368 -70 3014 557 3014 1370 
z
M 2483 1421 
C 2483 1190 2483 845 2342 563 
C 2202 275 1920 90 1600 90 
C 1325 90 1043 224 870 518 
C 710 800 710 1190 710 1421 
C 710 1670 710 2016 864 2298 
C 1037 2592 1338 2726 1594 2726 
C 1875 2726 2150 2586 2317 2310 
C 2483 2035 2483 1664 2483 1421 
z
" transform="scale(0.015625)"/>
      <path id="NewCM10-Regular-6a" d="M 1344 -320 
L 1344 2829 
L 371 2758 
L 371 2560 
C 864 2560 922 2515 922 2202 
L 922 -333 
C 922 -621 864 -1171 454 -1171 
C 422 -1171 275 -1171 109 -1088 
C 205 -1062 333 -973 333 -800 
C 333 -634 218 -506 38 -506 
C -141 -506 -256 -634 -256 -800 
C -256 -1133 102 -1312 467 -1312 
C 947 -1312 1344 -902 1344 -320 
z
M 1344 3866 
C 1344 4038 1197 4205 1005 4205 
C 787 4205 659 4026 659 3866 
C 659 3693 806 3526 998 3526 
C 1216 3526 1344 3706 1344 3866 
z
" transform="scale(0.015625)"/>
     </defs>
     <use xlink:href="#NewCM10-Regular-41"/>
     <use xlink:href="#NewCM10-Regular-6e" transform="translate(74.999985 0)"/>
     <use xlink:href="#NewCM10-Regular-67" transform="translate(130.599976 0)"/>
     <use xlink:href="#NewCM10-Regular-6c" transform="translate(180.59996 0)"/>
     <use xlink:href="#NewCM10-Regular-65" transform="translate(208.399948 0)"/>
     <use xlink:href="#NewCM10-Regular-20" transform="translate(252.799942 0)"/>
     <use xlink:href="#NewCM10-Regular-65" transform="translate(286.09993 0)"/>
     <use xlink:href="#NewCM10-Regular-73" transform="translate(330.499924 0)"/>
     <use xlink:href="#NewCM10-Regular-74" transform="translate(369.899918 0)"/>
     <use xlink:href="#NewCM10-Regular-69" transform="translate(408.799911 0)"/>
     <use xlink:href="#NewCM10-Regular-6d" transform="translate(436.599899 0)"/>
     <use xlink:href="#NewCM10-Regular-61" transform="translate(519.899887 0)"/>
     <use xlink:href="#NewCM10-Regular-74" transform="translate(569.899872 0)"/>
     <use xlink:href="#NewCM10-Regular-65" transform="translate(608.799866 0)"/>
     <use xlink:href="#NewCM10-Regular-20" transform="translate(653.19986 0)"/>
     <use xlink:href="#NewCM10-Regular-76" transform="translate(686.499847 0)"/>
     <use xlink:href="#NewCM10-Regular-73" transform="translate(739.299835 0)"/>
     <use xlink:href="#NewCM10-Regular-20" transform="translate(778.699829 0)"/>
     <use xlink:href="#NewCM10-Regular-74" transform="translate(811.999817 0)"/>
     <use xlink:href="#NewCM10-Regular-72" transform="translate(850.899811 0)"/>
     <use xlink:href="#NewCM10-Regular-75" transform="translate(890.099808 0)"/>
     <use xlink:href="#NewCM10-Regular-65" transform="translate(945.699799 0)"/>
     <use xlink:href="#NewCM10-Regular-20" transform="translate(990.099792 0)"/>
     <use xlink:href="#NewCM10-Regular-77" transform="translate(1023.39978 0)"/>
     <use xlink:href="#NewCM10-Regular-69" transform="translate(1095.599762 0)"/>
     <use xlink:href="#NewCM10-Regular-6e" transform="translate(1123.39975 0)"/>
     <use xlink:href="#NewCM10-Regular-64" transform="translate(1178.999741 0)"/>
     <use xlink:href="#NewCM10-Regular-20" transform="translate(1234.599731 0)"/>
     <use xlink:href="#NewCM10-Regular-61" transform="translate(1267.899719 0)"/>
     <use xlink:href="#NewCM10-Regular-6e" transform="translate(1317.899704 0)"/>
     <use xlink:href="#NewCM10-Regular-67" transform="translate(1373.499695 0)"/>
     <use xlink:href="#NewCM10-Regular-6c" transform="translate(1423.49968 0)"/>
     <use xlink:href="#NewCM10-Regular-65" transform="translate(1451.299667 0)"/>
     <use xlink:href="#NewCM10-Regular-20" transform="translate(1495.699661 0)"/>
     <use xlink:href="#NewCM10-Regular-2014" transform="translate(1528.999649 0)"/>
     <use xlink:href="#NewCM10-Regular-20" transform="translate(1628.999634 0)"/>
     <use xlink:href="#NewCM10-Regular-77" transform="translate(1662.299622 0)"/>
     <use xlink:href="#NewCM10-Regular-69" transform="translate(1734.499603 0)"/>
     <use xlink:href="#NewCM10-Regular-74" transform="translate(1762.299591 0)"/>
     <use xlink:href="#NewCM10-Regular-68" transform="translate(1801.199585 0)"/>
     <use xlink:href="#NewCM10-Regular-20" transform="translate(1856.799576 0)"/>
     <use xlink:href="#NewCM10-Regular-77" transform="translate(1890.099564 0)"/>
     <use xlink:href="#NewCM10-Regular-69" transform="translate(1962.299545 0)"/>
     <use xlink:href="#NewCM10-Regular-6e" transform="translate(1990.099533 0)"/>
     <use xlink:href="#NewCM10-Regular-64" transform="translate(2045.699524 0)"/>
     <use xlink:href="#NewCM10-Regular-20" transform="translate(2101.299515 0)"/>
     <use xlink:href="#NewCM10-Regular-64" transform="translate(2134.599503 0)"/>
     <use xlink:href="#NewCM10-Regular-69" transform="translate(2190.199493 0)"/>
     <use xlink:href="#NewCM10-Regular-72" transform="translate(2217.999481 0)"/>
     <use xlink:href="#NewCM10-Regular-65" transform="translate(2257.199478 0)"/>
     <use xlink:href="#NewCM10-Regular-63" transform="translate(2301.599472 0)"/>
     <use xlink:href="#NewCM10-Regular-74" transform="translate(2345.999466 0)"/>
     <use xlink:href="#NewCM10-Regular-69" transform="translate(2384.89946 0)"/>
     <use xlink:href="#NewCM10-Regular-6f" transform="translate(2412.699448 0)"/>
     <use xlink:href="#NewCM10-Regular-6e" transform="translate(2462.699432 0)"/>
     <use xlink:href="#NewCM10-Regular-20" transform="translate(2518.299423 0)"/>
     <use xlink:href="#NewCM10-Regular-6a" transform="translate(2551.599411 0)"/>
     <use xlink:href="#NewCM10-Regular-75" transform="translate(2582.199402 0)"/>
     <use xlink:href="#NewCM10-Regular-6d" transform="translate(2637.799393 0)"/>
     <use xlink:href="#NewCM10-Regular-70" transform="translate(2721.09938 0)"/>
     <use xlink:href="#NewCM10-Regular-73" transform="translate(2776.699371 0)"/>
     <use xlink:href="#NewCM10-Regular-20" transform="translate(2816.099365 0)"/>
     <use xlink:href="#NewCM10-Regular-61" transform="translate(2849.399353 0)"/>
     <use xlink:href="#NewCM10-Regular-6e" transform="translate(2899.399338 0)"/>
     <use xlink:href="#NewCM10-Regular-64" transform="translate(2954.999329 0)"/>
     <use xlink:href="#NewCM10-Regular-20" transform="translate(3010.599319 0)"/>
     <use xlink:href="#NewCM10-Regular-6c" transform="translate(3043.899307 0)"/>
     <use xlink:href="#NewCM10-Regular-6f" transform="translate(3071.699295 0)"/>
     <use xlink:href="#NewCM10-Regular-63" transform="translate(3121.69928 0)"/>
     <use xlink:href="#NewCM10-Regular-6f" transform="translate(3166.099274 0)"/>
     <use xlink:href="#NewCM10-Regular-6d" transform="translate(3216.099258 0)"/>
     <use xlink:href="#NewCM10-Regular-6f" transform="translate(3299.399246 0)"/>
     <use xlink:href="#NewCM10-Regular-74" transform="translate(3349.399231 0)"/>
     <use xlink:href="#NewCM10-Regular-69" transform="translate(3388.299225 0)"/>
     <use xlink:href="#NewCM10-Regular-6f" transform="translate(3416.099213 0)"/>
     <use xlink:href="#NewCM10-Regular-6e" transform="translate(3466.099197 0)"/>
     <use xlink:href="#NewCM10-Regular-20" transform="translate(3521.699188 0)"/>
     <use xlink:href="#NewCM10-Regular-6e" transform="translate(3554.999176 0)"/>
     <use xlink:href="#NewCM10-Regular-6f" transform="translate(3610.599167 0)"/>
     <use xlink:href="#NewCM10-Regular-69" transform="translate(3660.599152 0)"/>
     <use xlink:href="#NewCM10-Regular-73" transform="translate(3688.399139 0)"/>
     <use xlink:href="#NewCM10-Regular-65" transform="translate(3727.799133 0)"/>
    </g>
   </g>
   <g id="legend_1">
    <g id="line2d_22">
     <path d="M 407.606641 215.926562 
L 416.606641 215.926562 
L 425.606641 215.926562 
" style="fill: none; stroke: #000000; stroke-linecap: square"/>
    </g>
    <g id="text_17">
     <!-- true wind angle (°) -->
     <g transform="translate(432.806641 219.076562) scale(0.09 -0.09)">
      <use xlink:href="#NewCM10-Regular-74"/>
      <use xlink:href="#NewCM10-Regular-72" transform="translate(38.899994 0)"/>
      <use xlink:href="#NewCM10-Regular-75" transform="translate(78.099991 0)"/>
      <use xlink:href="#NewCM10-Regular-65" transform="translate(133.699982 0)"/>
      <use xlink:href="#NewCM10-Regular-20" transform="translate(178.099976 0)"/>
      <use xlink:href="#NewCM10-Regular-77" transform="translate(211.399963 0)"/>
      <use xlink:href="#NewCM10-Regular-69" transform="translate(283.599945 0)"/>
      <use xlink:href="#NewCM10-Regular-6e" transform="translate(311.399933 0)"/>
      <use xlink:href="#NewCM10-Regular-64" transform="translate(366.999924 0)"/>
      <use xlink:href="#NewCM10-Regular-20" transform="translate(422.599915 0)"/>
      <use xlink:href="#NewCM10-Regular-61" transform="translate(455.899902 0)"/>
      <use xlink:href="#NewCM10-Regular-6e" transform="translate(505.899887 0)"/>
      <use xlink:href="#NewCM10-Regular-67" transform="translate(561.499878 0)"/>
      <use xlink:href="#NewCM10-Regular-6c" transform="translate(611.499863 0)"/>
      <use xlink:href="#NewCM10-Regular-65" transform="translate(639.29985 0)"/>
      <use xlink:href="#NewCM10-Regular-20" transform="translate(683.699844 0)"/>
      <use xlink:href="#NewCM10-Regular-28" transform="translate(716.999832 0)"/>
      <use xlink:href="#NewCM10-Regular-b0" transform="translate(755.899826 0)"/>
      <use xlink:href="#NewCM10-Regular-29" transform="translate(793.399811 0)"/>
     </g>
    </g>
    <g id="line2d_23">
     <path d="M 407.606641 228.976562 
L 416.606641 228.976562 
L 425.606641 228.976562 
" style="fill: none; stroke: #ff0000; stroke-opacity: 0.7; stroke-linecap: square"/>
    </g>
    <g id="text_18">
     <!-- estimated angle -->
     <g transform="translate(432.806641 232.126562) scale(0.09 -0.09)">
      <use xlink:href="#NewCM10-Regular-65"/>
      <use xlink:href="#NewCM10-Regular-73" transform="translate(44.399994 0)"/>
      <use xlink:href="#NewCM10-Regular-74" transform="translate(83.799988 0)"/>
      <use xlink:href="#NewCM10-Regular-69" transform="translate(122.699982 0)"/>
      <use xlink:href="#NewCM10-Regular-6d" transform="translate(150.499969 0)"/>
      <use xlink:href="#NewCM10-Regular-61" transform="translate(233.799957 0)"/>
      <use xlink:href="#NewCM10-Regular-74" transform="translate(283.799942 0)"/>
      <use xlink:href="#NewCM10-Regular-65" transform="translate(322.699936 0)"/>
      <use xlink:href="#NewCM10-Regular-64" transform="translate(367.09993 0)"/>
      <use xlink:href="#NewCM10-Regular-20" transform="translate(422.699921 0)"/>
      <use xlink:href="#NewCM10-Regular-61" transform="translate(455.999908 0)"/>
      <use xlink:href="#NewCM10-Regular-6e" transform="translate(505.999893 0)"/>
      <use xlink:href="#NewCM10-Regular-67" transform="translate(561.599884 0)"/>
      <use xlink:href="#NewCM10-Regular-6c" transform="translate(611.599869 0)"/>
      <use xlink:href="#NewCM10-Regular-65" transform="translate(639.399857 0)"/>
     </g>
    </g>
   </g>
  </g>
 </g>
 <defs>
  <clipPath id="pf9b83153da">
   <rect x="64.28" y="31.5825" width="786.76" height="210.4975"/>
  </clipPath>
 </defs>
</svg>
