<?xml version="1.0" encoding="utf-8" standalone="no"?>
<!DOCTYPE svg PUBLIC "-//W3C//DTD SVG 1.1//EN"
  "http://www.w3.org/Graphics/SVG/1.1/DTD/svg11.dtd">
<svg xmlns:xlink="http://www.w3.org/1999/xlink" width="864pt" height="288pt" viewBox="0 0 864 288" xmlns="http://www.w3.org/2000/svg" version="1.1">
 <metadata>
  <rdf:RDF xmlns:dc="http://purl.org/dc/elements/1.1/" xmlns:cc="http://creativecommons.org/ns#" xmlns:rdf="http://www.w3.org/1999/02/22-rdf-syntax-ns#">
   <cc:Work>
    <dc:type rdf:resource="http://purl.org/dc/dcmitype/StillImage"/>
    <dc:date>2026-05-22T16:39:05.112274</dc:date>
    <dc:format>image/svg+xml</dc:format>
    <dc:creator>
     <cc:Agent>
      <dc:title>Matplotlib v3.10.8, https://matplotlib.org/</dc:title>
     </cc:Agent>
    </dc:creator>
   </cc:Work>
  </rdf:RDF>
 </metadata>
 <defs>
  <style type="text/css">*{stroke-linejoin: round; stroke-linecap: butt}</style>
 </defs>
 <g id="figure_1">
  <g id="patch_1">
   <path d="M 0 288 
L 864 288 
L 864 0 
L 0 0 
z
" style="fill: #ffffff"/>
  </g>
  <g id="axes_1">
   <g id="patch_2">
    <path d="M 64.28 242.08 
L 851.04 242.08 
L 851.04 31.5825 
L 64.28 31.5825 
z
" style="fill: #ffffff"/>
   </g>
   <g id="matplotlib.axis_1">
    <g id="xtick_1">
     <g id="line2d_1">
      <defs>
       <path id="mbfdf0cdf14" d="M 0 0 
L 0 3.5 
" style="stroke: #000000; stroke-width: 0.8"/>
      </defs>
      <g>
       <use xlink:href="#mbfdf0cdf14" x="64.28" y="242.08" style="stroke: #000000; stroke-width: 0.8"/>
      </g>
     </g>
     <g id="text_1">
      <!-- 0 -->
      <g transform="translate(61.28 257.40875) scale(0.12 -0.12)">
       <defs>
        <path id="NewCM10-Regular-30" d="M 2944 2048 
C 2944 2560 2912 3072 2688 3546 
C 2394 4160 1869 4262 1600 4262 
C 1216 4262 749 4096 486 3501 
C 282 3059 250 2560 250 2048 
C 250 1568 275 992 538 506 
C 813 -13 1280 -141 1594 -141 
C 1939 -141 2426 -6 2707 602 
C 2912 1043 2944 1542 2944 2048 
z
M 2413 2125 
C 2413 1645 2413 1210 2342 800 
C 2246 192 1882 0 1594 0 
C 1344 0 966 160 851 774 
C 781 1158 781 1747 781 2125 
C 781 2534 781 2957 832 3302 
C 954 4064 1434 4122 1594 4122 
C 1805 4122 2227 4006 2349 3373 
C 2413 3014 2413 2528 2413 2125 
z
" transform="scale(0.015625)"/>
       </defs>
       <use xlink:href="#NewCM10-Regular-30"/>
      </g>
     </g>
    </g>
    <g id="xtick_2">
     <g id="line2d_2">
      <g>
       <use xlink:href="#mbfdf0cdf14" x="169.181333" y="242.08" style="stroke: #000000; stroke-width: 0.8"/>
      </g>
     </g>
     <g id="text_2">
      <!-- 2000 -->
      <g transform="translate(157.181333 257.40875) scale(0.12 -0.12)">
       <defs>
        <path id="NewCM10-Regular-32" d="M 2874 1114 
L 2714 1114 
C 2682 922 2637 640 2573 544 
C 2528 493 2106 493 1965 493 
L 813 493 
L 1491 1152 
C 2490 2035 2874 2381 2874 3021 
C 2874 3750 2298 4262 1517 4262 
C 794 4262 320 3674 320 3104 
C 320 2746 640 2746 659 2746 
C 768 2746 992 2822 992 3085 
C 992 3251 877 3418 653 3418 
C 602 3418 589 3418 570 3411 
C 717 3827 1062 4064 1434 4064 
C 2016 4064 2291 3546 2291 3021 
C 2291 2509 1971 2003 1619 1606 
L 390 237 
C 320 166 320 154 320 0 
L 2694 0 
L 2874 1114 
z
" transform="scale(0.015625)"/>
       </defs>
       <use xlink:href="#NewCM10-Regular-32"/>
       <use xlink:href="#NewCM10-Regular-30" transform="translate(49.999985 0)"/>
       <use xlink:href="#NewCM10-Regular-30" transform="translate(99.999969 0)"/>
       <use xlink:href="#NewCM10-Regular-30" transform="translate(149.999954 0)"/>
      </g>
     </g>
    </g>
    <g id="xtick_3">
     <g id="line2d_3">
      <g>
       <use xlink:href="#mbfdf0cdf14" x="274.082667" y="242.08" style="stroke: #000000; stroke-width: 0.8"/>
      </g>
     </g>
     <g id="text_3">
      <!-- 4000 -->
      <g transform="translate(262.082667 257.40875) scale(0.12 -0.12)">
       <defs>
        <path id="NewCM10-Regular-34" d="M 3014 1056 
L 3014 1254 
L 2374 1254 
L 2374 4166 
C 2374 4294 2374 4333 2272 4333 
C 2214 4333 2195 4333 2144 4256 
L 179 1254 
L 179 1056 
L 1882 1056 
L 1882 499 
C 1882 269 1869 198 1395 198 
L 1261 198 
L 1261 0 
C 1523 19 1856 19 2125 19 
C 2394 19 2733 19 2995 0 
L 2995 198 
L 2861 198 
C 2387 198 2374 269 2374 499 
L 2374 1056 
L 3014 1056 
z
M 1920 1254 
L 358 1254 
L 1920 3642 
L 1920 1254 
z
" transform="scale(0.015625)"/>
       </defs>
       <use xlink:href="#NewCM10-Regular-34"/>
       <use xlink:href="#NewCM10-Regular-30" transform="translate(49.999985 0)"/>
       <use xlink:href="#NewCM10-Regular-30" transform="translate(99.999969 0)"/>
       <use xlink:href="#NewCM10-Regular-30" transform="translate(149.999954 0)"/>
      </g>
     </g>
    </g>
    <g id="xtick_4">
     <g id="line2d_4">
      <g>
       <use xlink:href="#mbfdf0cdf14" x="378.984" y="242.08" style="stroke: #000000; stroke-width: 0.8"/>
      </g>
     </g>
     <g id="text_4">
      <!-- 6000 -->
      <g transform="translate(366.984 257.40875) scale(0.12 -0.12)">
       <defs>
        <path id="NewCM10-Regular-36" d="M 2925 1306 
C 2925 2118 2355 2733 1645 2733 
C 1210 2733 973 2406 845 2099 
L 845 2253 
C 845 3872 1638 4102 1965 4102 
C 2118 4102 2387 4064 2528 3846 
C 2432 3846 2176 3846 2176 3558 
C 2176 3360 2330 3264 2470 3264 
C 2573 3264 2765 3322 2765 3571 
C 2765 3955 2483 4262 1952 4262 
C 1133 4262 269 3437 269 2022 
C 269 314 1011 -141 1606 -141 
C 2317 -141 2925 461 2925 1306 
z
M 2349 1312 
C 2349 1005 2349 685 2240 454 
C 2048 70 1754 38 1606 38 
C 1203 38 1011 422 973 518 
C 858 819 858 1331 858 1446 
C 858 1946 1062 2586 1638 2586 
C 1741 2586 2035 2586 2234 2189 
C 2349 1952 2349 1626 2349 1312 
z
" transform="scale(0.015625)"/>
       </defs>
       <use xlink:href="#NewCM10-Regular-36"/>
       <use xlink:href="#NewCM10-Regular-30" transform="translate(49.999985 0)"/>
       <use xlink:href="#NewCM10-Regular-30" transform="translate(99.999969 0)"/>
       <use xlink:href="#NewCM10-Regular-30" transform="translate(149.999954 0)"/>
      </g>
     </g>
    </g>
    <g id="xtick_5">
     <g id="line2d_5">
      <g>
       <use xlink:href="#mbfdf0cdf14" x="483.885333" y="242.08" style="stroke: #000000; stroke-width: 0.8"/>
      </g>
     </g>
     <g id="text_5">
      <!-- 8000 -->
      <g transform="translate(471.885333 257.40875) scale(0.12 -0.12)">
       <defs>
        <path id="NewCM10-Regular-38" d="M 2925 1075 
C 2925 1306 2854 1594 2611 1862 
C 2490 1997 2387 2061 1978 2317 
C 2438 2554 2752 2886 2752 3309 
C 2752 3898 2182 4262 1600 4262 
C 960 4262 442 3789 442 3194 
C 442 3078 454 2790 723 2490 
C 794 2413 1030 2253 1190 2144 
C 819 1958 269 1600 269 966 
C 269 288 922 -141 1594 -141 
C 2317 -141 2925 390 2925 1075 
z
M 2470 3309 
C 2470 2944 2221 2637 1837 2413 
L 1043 2925 
C 749 3117 723 3334 723 3443 
C 723 3834 1139 4102 1594 4102 
C 2061 4102 2470 3770 2470 3309 
z
M 2605 845 
C 2605 371 2125 38 1600 38 
C 1050 38 589 435 589 966 
C 589 1338 794 1747 1338 2048 
L 2125 1549 
C 2304 1427 2605 1235 2605 845 
z
" transform="scale(0.015625)"/>
       </defs>
       <use xlink:href="#NewCM10-Regular-38"/>
       <use xlink:href="#NewCM10-Regular-30" transform="translate(49.999985 0)"/>
       <use xlink:href="#NewCM10-Regular-30" transform="translate(99.999969 0)"/>
       <use xlink:href="#NewCM10-Regular-30" transform="translate(149.999954 0)"/>
      </g>
     </g>
    </g>
    <g id="xtick_6">
     <g id="line2d_6">
      <g>
       <use xlink:href="#mbfdf0cdf14" x="588.786667" y="242.08" style="stroke: #000000; stroke-width: 0.8"/>
      </g>
     </g>
     <g id="text_6">
      <!-- 10000 -->
      <g transform="translate(573.786667 257.40875) scale(0.12 -0.12)">
       <defs>
        <path id="NewCM10-Regular-31" d="M 2682 0 
L 2682 198 
L 2477 198 
C 1901 198 1882 269 1882 506 
L 1882 4096 
C 1882 4250 1882 4262 1734 4262 
C 1338 3853 774 3853 570 3853 
L 570 3654 
C 698 3654 1075 3654 1408 3821 
L 1408 506 
C 1408 275 1389 198 813 198 
L 608 198 
L 608 0 
C 832 19 1389 19 1645 19 
C 1901 19 2458 19 2682 0 
z
" transform="scale(0.015625)"/>
       </defs>
       <use xlink:href="#NewCM10-Regular-31"/>
       <use xlink:href="#NewCM10-Regular-30" transform="translate(49.999985 0)"/>
       <use xlink:href="#NewCM10-Regular-30" transform="translate(99.999969 0)"/>
       <use xlink:href="#NewCM10-Regular-30" transform="translate(149.999954 0)"/>
       <use xlink:href="#NewCM10-Regular-30" transform="translate(199.999939 0)"/>
      </g>
     </g>
    </g>
    <g id="xtick_7">
     <g id="line2d_7">
      <g>
       <use xlink:href="#mbfdf0cdf14" x="693.688" y="242.08" style="stroke: #000000; stroke-width: 0.8"/>
      </g>
     </g>
     <g id="text_7">
      <!-- 12000 -->
      <g transform="translate(678.688 257.40875) scale(0.12 -0.12)">
       <use xlink:href="#NewCM10-Regular-31"/>
       <use xlink:href="#NewCM10-Regular-32" transform="translate(49.999985 0)"/>
       <use xlink:href="#NewCM10-Regular-30" transform="translate(99.999969 0)"/>
       <use xlink:href="#NewCM10-Regular-30" transform="translate(149.999954 0)"/>
       <use xlink:href="#NewCM10-Regular-30" transform="translate(199.999939 0)"/>
      </g>
     </g>
    </g>
    <g id="xtick_8">
     <g id="line2d_8">
      <g>
       <use xlink:href="#mbfdf0cdf14" x="798.589333" y="242.08" style="stroke: #000000; stroke-width: 0.8"/>
      </g>
     </g>
     <g id="text_8">
      <!-- 14000 -->
      <g transform="translate(783.589333 257.40875) scale(0.12 -0.12)">
       <use xlink:href="#NewCM10-Regular-31"/>
       <use xlink:href="#NewCM10-Regular-34" transform="translate(49.999985 0)"/>
       <use xlink:href="#NewCM10-Regular-30" transform="translate(99.999969 0)"/>
       <use xlink:href="#NewCM10-Regular-30" transform="translate(149.999954 0)"/>
       <use xlink:href="#NewCM10-Regular-30" transform="translate(199.999939 0)"/>
      </g>
     </g>
    </g>
    <g id="text_9">
     <!-- Simulation step -->
     <g transform="translate(416.620937 272.1975) scale(0.12 -0.12)">
      <defs>
       <path id="NewCM10-Regular-53" d="M 3194 1190 
C 3194 1830 2771 2355 2234 2483 
L 1414 2682 
C 1018 2778 768 3123 768 3494 
C 768 3942 1114 4333 1613 4333 
C 2682 4333 2822 3283 2861 2995 
C 2867 2957 2867 2918 2938 2918 
C 3021 2918 3021 2950 3021 3072 
L 3021 4358 
C 3021 4467 3021 4512 2950 4512 
C 2906 4512 2899 4506 2854 4429 
L 2630 4064 
C 2438 4250 2176 4512 1606 4512 
C 896 4512 358 3949 358 3270 
C 358 2739 698 2272 1197 2099 
C 1267 2074 1594 1997 2042 1888 
C 2214 1843 2406 1798 2586 1562 
C 2720 1395 2784 1184 2784 973 
C 2784 518 2464 58 1926 58 
C 1741 58 1254 90 915 403 
C 544 749 525 1158 518 1389 
C 512 1453 461 1453 442 1453 
C 358 1453 358 1408 358 1293 
L 358 13 
C 358 -96 358 -141 429 -141 
C 474 -141 480 -128 525 -58 
C 525 -58 544 -32 755 307 
C 954 90 1363 -141 1933 -141 
C 2682 -141 3194 486 3194 1190 
z
" transform="scale(0.015625)"/>
       <path id="NewCM10-Regular-69" d="M 1581 0 
L 1581 198 
C 1158 198 1133 230 1133 480 
L 1133 2829 
L 237 2758 
L 237 2560 
C 653 2560 710 2522 710 2208 
L 710 486 
C 710 198 640 198 211 198 
L 211 0 
L 915 19 
C 1139 19 1363 6 1581 0 
z
M 1229 3866 
C 1229 4038 1082 4205 890 4205 
C 672 4205 544 4026 544 3866 
C 544 3693 691 3526 883 3526 
C 1101 3526 1229 3706 1229 3866 
z
" transform="scale(0.015625)"/>
       <path id="NewCM10-Regular-6d" d="M 5203 0 
L 5203 198 
C 4870 198 4710 198 4704 390 
L 4704 1613 
C 4704 2163 4704 2362 4506 2592 
C 4416 2701 4205 2829 3834 2829 
C 3296 2829 3014 2445 2906 2202 
C 2816 2758 2342 2829 2054 2829 
C 1587 2829 1286 2554 1107 2157 
L 1107 2829 
L 205 2758 
L 205 2560 
C 653 2560 704 2515 704 2202 
L 704 486 
C 704 198 634 198 205 198 
L 205 0 
L 928 19 
L 1645 0 
L 1645 198 
C 1216 198 1146 198 1146 486 
L 1146 1664 
C 1146 2330 1600 2688 2010 2688 
C 2413 2688 2483 2342 2483 1978 
L 2483 486 
C 2483 198 2413 198 1984 198 
L 1984 0 
L 2707 19 
L 3424 0 
L 3424 198 
C 2995 198 2925 198 2925 486 
L 2925 1664 
C 2925 2330 3379 2688 3789 2688 
C 4192 2688 4262 2342 4262 1978 
L 4262 486 
C 4262 198 4192 198 3763 198 
L 3763 0 
L 4486 19 
L 5203 0 
z
" transform="scale(0.015625)"/>
       <path id="NewCM10-Regular-75" d="M 3424 0 
L 3424 198 
C 2976 198 2925 243 2925 557 
L 2925 2829 
L 1984 2758 
L 1984 2560 
C 2432 2560 2483 2515 2483 2202 
L 2483 1062 
C 2483 506 2176 70 1709 70 
C 1171 70 1146 371 1146 704 
L 1146 2829 
L 205 2758 
L 205 2560 
C 704 2560 704 2541 704 1971 
L 704 1011 
C 704 512 704 -70 1677 -70 
C 2035 -70 2317 109 2502 506 
L 2502 -70 
L 3424 0 
z
" transform="scale(0.015625)"/>
       <path id="NewCM10-Regular-6c" d="M 1632 0 
L 1632 198 
C 1203 198 1133 198 1133 486 
L 1133 4442 
L 211 4371 
L 211 4173 
C 659 4173 710 4128 710 3814 
L 710 486 
C 710 198 640 198 211 198 
L 211 0 
L 922 19 
L 1632 0 
z
" transform="scale(0.015625)"/>
       <path id="NewCM10-Regular-61" d="M 3091 570 
L 3091 928 
L 2931 928 
L 2931 570 
C 2931 198 2771 160 2701 160 
C 2490 160 2464 448 2464 480 
L 2464 1760 
C 2464 2029 2464 2278 2234 2515 
C 1984 2765 1664 2867 1357 2867 
C 832 2867 390 2566 390 2144 
C 390 1952 518 1843 685 1843 
C 864 1843 979 1971 979 2138 
C 979 2214 947 2426 653 2432 
C 826 2656 1139 2726 1344 2726 
C 1658 2726 2022 2477 2022 1907 
L 2022 1670 
C 1696 1651 1248 1632 845 1440 
C 365 1222 205 890 205 608 
C 205 90 826 -70 1229 -70 
C 1651 -70 1946 186 2067 486 
C 2093 230 2266 -38 2566 -38 
C 2701 -38 3091 51 3091 570 
z
M 2022 896 
C 2022 288 1562 70 1274 70 
C 960 70 698 294 698 614 
C 698 966 966 1498 2022 1536 
L 2022 896 
z
" transform="scale(0.015625)"/>
       <path id="NewCM10-Regular-74" d="M 2125 794 
L 2125 1158 
L 1965 1158 
L 1965 806 
C 1965 333 1773 90 1536 90 
C 1107 90 1107 672 1107 781 
L 1107 2560 
L 2022 2560 
L 2022 2758 
L 1107 2758 
L 1107 3936 
L 947 3936 
C 941 3411 749 2726 122 2701 
L 122 2560 
L 666 2560 
L 666 794 
C 666 6 1261 -70 1491 -70 
C 1946 -70 2125 384 2125 794 
z
" transform="scale(0.015625)"/>
       <path id="NewCM10-Regular-6f" d="M 3014 1370 
C 3014 2189 2374 2867 1600 2867 
C 800 2867 179 2170 179 1370 
C 179 544 845 -70 1594 -70 
C 2368 -70 3014 557 3014 1370 
z
M 2483 1421 
C 2483 1190 2483 845 2342 563 
C 2202 275 1920 90 1600 90 
C 1325 90 1043 224 870 518 
C 710 800 710 1190 710 1421 
C 710 1670 710 2016 864 2298 
C 1037 2592 1338 2726 1594 2726 
C 1875 2726 2150 2586 2317 2310 
C 2483 2035 2483 1664 2483 1421 
z
" transform="scale(0.015625)"/>
       <path id="NewCM10-Regular-6e" d="M 3424 0 
L 3424 198 
C 3091 198 2931 198 2925 390 
L 2925 1613 
C 2925 2163 2925 2362 2726 2592 
C 2637 2701 2426 2829 2054 2829 
C 1587 2829 1286 2554 1107 2157 
L 1107 2829 
L 205 2758 
L 205 2560 
C 653 2560 704 2515 704 2202 
L 704 486 
C 704 198 634 198 205 198 
L 205 0 
L 928 19 
L 1645 0 
L 1645 198 
C 1216 198 1146 198 1146 486 
L 1146 1664 
C 1146 2330 1600 2688 2010 2688 
C 2413 2688 2483 2342 2483 1978 
L 2483 486 
C 2483 198 2413 198 1984 198 
L 1984 0 
L 2707 19 
L 3424 0 
z
" transform="scale(0.015625)"/>
       <path id="NewCM10-Regular-20" transform="scale(0.015625)"/>
       <path id="NewCM10-Regular-73" d="M 2304 819 
C 2304 1158 2112 1350 2035 1427 
C 1824 1632 1574 1683 1306 1734 
C 947 1805 518 1888 518 2259 
C 518 2483 685 2746 1235 2746 
C 1939 2746 1971 2170 1984 1971 
C 1990 1914 2061 1914 2061 1914 
C 2144 1914 2144 1946 2144 2067 
L 2144 2714 
C 2144 2822 2144 2867 2074 2867 
C 2042 2867 2029 2867 1946 2790 
C 1926 2765 1862 2707 1837 2688 
C 1594 2867 1331 2867 1235 2867 
C 454 2867 211 2438 211 2080 
C 211 1856 314 1677 486 1536 
C 691 1370 870 1331 1331 1242 
C 1472 1216 1997 1114 1997 653 
C 1997 326 1773 70 1274 70 
C 736 70 506 435 384 979 
C 365 1062 358 1088 294 1088 
C 211 1088 211 1043 211 928 
L 211 83 
C 211 -26 211 -70 282 -70 
C 314 -70 320 -64 442 58 
C 454 70 454 83 570 205 
C 851 -64 1139 -70 1274 -70 
C 2010 -70 2304 358 2304 819 
z
" transform="scale(0.015625)"/>
       <path id="NewCM10-Regular-65" d="M 2656 762 
C 2656 826 2605 838 2573 838 
C 2515 838 2502 800 2490 749 
C 2266 90 1690 90 1626 90 
C 1306 90 1050 282 902 518 
C 710 826 710 1248 710 1478 
L 2496 1478 
C 2637 1478 2656 1478 2656 1613 
C 2656 2246 2310 2867 1510 2867 
C 768 2867 179 2208 179 1408 
C 179 550 851 -70 1587 -70 
C 2368 -70 2656 640 2656 762 
z
M 2234 1613 
L 717 1613 
C 755 2566 1293 2726 1510 2726 
C 2170 2726 2234 1862 2234 1613 
z
" transform="scale(0.015625)"/>
       <path id="NewCM10-Regular-70" d="M 3334 1382 
C 3334 2195 2714 2829 1997 2829 
C 1498 2829 1229 2547 1101 2406 
L 1101 2829 
L 179 2758 
L 179 2560 
C 634 2560 678 2522 678 2240 
L 678 -755 
C 678 -1043 608 -1043 179 -1043 
L 179 -1242 
L 896 -1222 
L 1619 -1242 
L 1619 -1043 
C 1190 -1043 1120 -1043 1120 -755 
L 1120 320 
L 1120 378 
C 1152 275 1421 -70 1907 -70 
C 2669 -70 3334 557 3334 1382 
z
M 2803 1382 
C 2803 608 2355 70 1882 70 
C 1626 70 1382 198 1210 461 
C 1120 595 1120 602 1120 730 
L 1120 2157 
C 1306 2483 1619 2669 1946 2669 
C 2413 2669 2803 2106 2803 1382 
z
" transform="scale(0.015625)"/>
      </defs>
      <use xlink:href="#NewCM10-Regular-53"/>
      <use xlink:href="#NewCM10-Regular-69" transform="translate(55.599991 0)"/>
      <use xlink:href="#NewCM10-Regular-6d" transform="translate(83.399979 0)"/>
      <use xlink:href="#NewCM10-Regular-75" transform="translate(166.699966 0)"/>
      <use xlink:href="#NewCM10-Regular-6c" transform="translate(222.299957 0)"/>
      <use xlink:href="#NewCM10-Regular-61" transform="translate(250.099945 0)"/>
      <use xlink:href="#NewCM10-Regular-74" transform="translate(300.09993 0)"/>
      <use xlink:href="#NewCM10-Regular-69" transform="translate(338.999924 0)"/>
      <use xlink:href="#NewCM10-Regular-6f" transform="translate(366.799911 0)"/>
      <use xlink:href="#NewCM10-Regular-6e" transform="translate(416.799896 0)"/>
      <use xlink:href="#NewCM10-Regular-20" transform="translate(472.399887 0)"/>
      <use xlink:href="#NewCM10-Regular-73" transform="translate(505.699875 0)"/>
      <use xlink:href="#NewCM10-Regular-74" transform="translate(545.099869 0)"/>
      <use xlink:href="#NewCM10-Regular-65" transform="translate(583.999863 0)"/>
      <use xlink:href="#NewCM10-Regular-70" transform="translate(628.399857 0)"/>
     </g>
    </g>
   </g>
   <g id="matplotlib.axis_2">
    <g id="ytick_1">
     <g id="line2d_9">
      <defs>
       <path id="m38124c6ab9" d="M 0 0 
L -3.5 0 
" style="stroke: #000000; stroke-width: 0.8"/>
      </defs>
      <g>
       <use xlink:href="#m38124c6ab9" x="64.28" y="232.512302" style="stroke: #000000; stroke-width: 0.8"/>
      </g>
     </g>
     <g id="text_10">
      <!-- −180 -->
      <g transform="translate(29.944375 236.676677) scale(0.12 -0.12)">
       <defs>
        <path id="NewCM10-Regular-2212" d="M 4614 1600 
C 4614 1728 4493 1728 4403 1728 
L 570 1728 
C 480 1728 358 1728 358 1600 
C 358 1472 480 1472 576 1472 
L 4397 1472 
C 4493 1472 4614 1472 4614 1600 
z
" transform="scale(0.015625)"/>
       </defs>
       <use xlink:href="#NewCM10-Regular-2212"/>
       <use xlink:href="#NewCM10-Regular-31" transform="translate(77.799988 0)"/>
       <use xlink:href="#NewCM10-Regular-38" transform="translate(127.799973 0)"/>
       <use xlink:href="#NewCM10-Regular-30" transform="translate(177.799957 0)"/>
      </g>
     </g>
    </g>
    <g id="ytick_2">
     <g id="line2d_10">
      <g>
       <use xlink:href="#m38124c6ab9" x="64.28" y="184.671655" style="stroke: #000000; stroke-width: 0.8"/>
      </g>
     </g>
     <g id="text_11">
      <!-- −90 -->
      <g transform="translate(35.944375 188.83603) scale(0.12 -0.12)">
       <defs>
        <path id="NewCM10-Regular-39" d="M 2925 2106 
C 2925 3827 2189 4262 1619 4262 
C 1267 4262 954 4147 678 3859 
C 416 3571 269 3302 269 2822 
C 269 2022 832 1395 1549 1395 
C 1939 1395 2202 1664 2349 2035 
L 2349 1830 
C 2349 333 1683 38 1312 38 
C 1203 38 858 51 685 269 
C 966 269 1018 454 1018 563 
C 1018 762 864 858 723 858 
C 621 858 429 800 429 550 
C 429 122 774 -141 1318 -141 
C 2144 -141 2925 730 2925 2106 
z
M 2336 2694 
C 2336 2163 2118 1542 1555 1542 
C 1453 1542 1158 1542 960 1946 
C 845 2182 845 2502 845 2816 
C 845 3162 845 3462 979 3699 
C 1152 4019 1395 4102 1619 4102 
C 1914 4102 2125 3885 2234 3597 
C 2310 3392 2336 2989 2336 2694 
z
" transform="scale(0.015625)"/>
       </defs>
       <use xlink:href="#NewCM10-Regular-2212"/>
       <use xlink:href="#NewCM10-Regular-39" transform="translate(77.799988 0)"/>
       <use xlink:href="#NewCM10-Regular-30" transform="translate(127.799973 0)"/>
      </g>
     </g>
    </g>
    <g id="ytick_3">
     <g id="line2d_11">
      <g>
       <use xlink:href="#m38124c6ab9" x="64.28" y="136.831008" style="stroke: #000000; stroke-width: 0.8"/>
      </g>
     </g>
     <g id="text_12">
      <!-- 0 -->
      <g transform="translate(51.28 140.995383) scale(0.12 -0.12)">
       <use xlink:href="#NewCM10-Regular-30"/>
      </g>
     </g>
    </g>
    <g id="ytick_4">
     <g id="line2d_12">
      <g>
       <use xlink:href="#m38124c6ab9" x="64.28" y="88.990361" style="stroke: #000000; stroke-width: 0.8"/>
      </g>
     </g>
     <g id="text_13">
      <!-- 90 -->
      <g transform="translate(45.28 93.154736) scale(0.12 -0.12)">
       <use xlink:href="#NewCM10-Regular-39"/>
       <use xlink:href="#NewCM10-Regular-30" transform="translate(49.999985 0)"/>
      </g>
     </g>
    </g>
    <g id="ytick_5">
     <g id="line2d_13">
      <g>
       <use xlink:href="#m38124c6ab9" x="64.28" y="41.149714" style="stroke: #000000; stroke-width: 0.8"/>
      </g>
     </g>
     <g id="text_14">
      <!-- 180 -->
      <g transform="translate(39.28 45.314089) scale(0.12 -0.12)">
       <use xlink:href="#NewCM10-Regular-31"/>
       <use xlink:href="#NewCM10-Regular-38" transform="translate(49.999985 0)"/>
       <use xlink:href="#NewCM10-Regular-30" transform="translate(99.999969 0)"/>
      </g>
     </g>
    </g>
    <g id="text_15">
     <!-- Wind angle (°) -->
     <g transform="translate(22.944375 175.920312) rotate(-90) scale(0.12 -0.12)">
      <defs>
       <path id="NewCM10-Regular-57" d="M 6458 4173 
L 6458 4371 
C 6266 4358 6067 4352 5875 4352 
L 5114 4371 
L 5114 4173 
C 5542 4166 5670 3955 5670 3834 
C 5670 3795 5651 3744 5638 3706 
L 4678 749 
L 3654 3885 
C 3648 3910 3635 3949 3635 3981 
C 3635 4173 4006 4173 4173 4173 
L 4173 4371 
C 3942 4352 3507 4352 3264 4352 
L 2483 4371 
L 2483 4173 
C 2848 4173 2982 4173 3059 3942 
L 3200 3494 
L 2310 749 
L 1280 3898 
C 1274 3917 1267 3962 1267 3981 
C 1267 4173 1638 4173 1805 4173 
L 1805 4371 
C 1574 4352 1139 4352 896 4352 
L 115 4371 
L 115 4173 
C 595 4173 621 4141 698 3904 
L 1978 -19 
C 1997 -77 2016 -141 2099 -141 
C 2189 -141 2202 -96 2227 -13 
L 3283 3238 
L 4346 -19 
C 4365 -77 4384 -141 4467 -141 
C 4557 -141 4570 -96 4595 -13 
L 5818 3744 
C 5933 4109 6208 4173 6458 4173 
z
" transform="scale(0.015625)"/>
       <path id="NewCM10-Regular-64" d="M 3373 0 
L 3373 198 
C 2925 198 2874 243 2874 557 
L 2874 4442 
L 1952 4371 
L 1952 4173 
C 2400 4173 2451 4128 2451 3814 
L 2451 2432 
C 2266 2662 1990 2829 1645 2829 
C 890 2829 218 2202 218 1376 
C 218 563 845 -70 1574 -70 
C 1984 -70 2272 147 2432 352 
L 2432 -70 
L 3373 0 
z
M 2432 755 
C 2432 640 2432 627 2362 518 
C 2170 211 1882 70 1606 70 
C 1318 70 1088 237 934 480 
C 768 742 749 1107 749 1370 
C 749 1606 762 1990 947 2278 
C 1082 2477 1325 2688 1670 2688 
C 1894 2688 2163 2592 2362 2304 
C 2432 2195 2432 2182 2432 2067 
L 2432 755 
z
" transform="scale(0.015625)"/>
       <path id="NewCM10-Regular-67" d="M 3104 2586 
C 3104 2694 3027 2899 2778 2899 
C 2650 2899 2368 2861 2099 2598 
C 1830 2810 1562 2829 1421 2829 
C 826 2829 384 2387 384 1894 
C 384 1613 525 1370 685 1235 
C 602 1139 486 928 486 704 
C 486 506 570 262 768 134 
C 384 26 179 -250 179 -506 
C 179 -966 813 -1318 1594 -1318 
C 2349 -1318 3014 -992 3014 -493 
C 3014 -269 2925 58 2598 237 
C 2259 416 1888 416 1498 416 
C 1338 416 1062 416 1018 422 
C 813 448 678 646 678 851 
C 678 877 678 1024 787 1152 
C 1037 973 1299 954 1421 954 
C 2016 954 2458 1395 2458 1888 
C 2458 2125 2355 2362 2195 2509 
C 2426 2726 2656 2758 2771 2758 
C 2771 2758 2816 2758 2835 2752 
C 2765 2726 2733 2656 2733 2579 
C 2733 2470 2816 2394 2918 2394 
C 2982 2394 3104 2438 3104 2586 
z
M 1978 1894 
C 1978 1722 1971 1517 1875 1357 
C 1824 1280 1677 1101 1421 1101 
C 864 1101 864 1741 864 1888 
C 864 2061 870 2266 966 2426 
C 1018 2502 1165 2682 1421 2682 
C 1978 2682 1978 2042 1978 1894 
z
M 2682 -506 
C 2682 -851 2227 -1171 1600 -1171 
C 954 -1171 512 -845 512 -506 
C 512 -211 755 26 1037 45 
L 1414 45 
C 1965 45 2682 45 2682 -506 
z
" transform="scale(0.015625)"/>
       <path id="NewCM10-Regular-28" d="M 2118 -1536 
C 2118 -1517 2118 -1504 2010 -1395 
C 1210 -589 1005 621 1005 1600 
C 1005 2714 1248 3827 2035 4627 
C 2118 4704 2118 4717 2118 4736 
C 2118 4781 2093 4800 2054 4800 
C 1990 4800 1414 4365 1037 3552 
C 710 2848 634 2138 634 1600 
C 634 1101 704 326 1056 -397 
C 1440 -1184 1990 -1600 2054 -1600 
C 2093 -1600 2118 -1581 2118 -1536 
z
" transform="scale(0.015625)"/>
       <path id="NewCM10-Regular-b0" d="M 2086 3482 
C 2086 3974 1690 4371 1203 4371 
C 710 4371 314 3974 314 3482 
C 314 2995 710 2598 1203 2598 
C 1690 2598 2086 2995 2086 3482 
z
M 1830 3482 
C 1830 3136 1549 2854 1203 2854 
C 851 2854 570 3136 570 3482 
C 570 3834 851 4115 1203 4115 
C 1549 4115 1830 3834 1830 3482 
z
" transform="scale(0.015625)"/>
       <path id="NewCM10-Regular-29" d="M 1850 1600 
C 1850 2099 1779 2874 1427 3597 
C 1043 4384 493 4800 429 4800 
C 390 4800 365 4774 365 4736 
C 365 4717 365 4704 486 4589 
C 1114 3955 1478 2938 1478 1600 
C 1478 506 1242 -621 448 -1427 
C 365 -1504 365 -1517 365 -1536 
C 365 -1574 390 -1600 429 -1600 
C 493 -1600 1069 -1165 1446 -352 
C 1773 352 1850 1062 1850 1600 
z
" transform="scale(0.015625)"/>
      </defs>
      <use xlink:href="#NewCM10-Regular-57"/>
      <use xlink:href="#NewCM10-Regular-69" transform="translate(102.799988 0)"/>
      <use xlink:href="#NewCM10-Regular-6e" transform="translate(130.599976 0)"/>
      <use xlink:href="#NewCM10-Regular-64" transform="translate(186.199966 0)"/>
      <use xlink:href="#NewCM10-Regular-20" transform="translate(241.799957 0)"/>
      <use xlink:href="#NewCM10-Regular-61" transform="translate(275.099945 0)"/>
      <use xlink:href="#NewCM10-Regular-6e" transform="translate(325.09993 0)"/>
      <use xlink:href="#NewCM10-Regular-67" transform="translate(380.699921 0)"/>
      <use xlink:href="#NewCM10-Regular-6c" transform="translate(430.699905 0)"/>
      <use xlink:href="#NewCM10-Regular-65" transform="translate(458.499893 0)"/>
      <use xlink:href="#NewCM10-Regular-20" transform="translate(502.899887 0)"/>
      <use xlink:href="#NewCM10-Regular-28" transform="translate(536.199875 0)"/>
      <use xlink:href="#NewCM10-Regular-b0" transform="translate(575.099869 0)"/>
      <use xlink:href="#NewCM10-Regular-29" transform="translate(612.599854 0)"/>
     </g>
    </g>
   </g>
   <g id="line2d_14">
    <path d="M 64.28 84.406069 
L 106.188083 84.406069 
L 106.345435 148.527388 
L 148.148616 148.527388 
L 148.305968 68.208782 
L 190.109149 68.208782 
L 190.266501 99.062151 
L 232.069683 99.062151 
L 232.227035 214.490281 
L 274.030216 214.490281 
L 274.187568 45.814684 
L 315.990749 45.814684 
L 316.148101 86.858639 
L 357.951283 86.858639 
L 358.108635 82.089002 
L 399.911816 82.089002 
L 400.069168 207.996146 
L 441.872349 207.996146 
L 442.029701 146.325283 
L 483.832883 146.325283 
L 483.990235 161.555432 
L 525.793416 161.555432 
L 525.950768 55.164155 
L 567.753949 55.164155 
L 567.911301 109.300606 
L 609.714483 109.300606 
L 609.871835 75.06651 
L 651.675016 75.06651 
L 651.832368 147.659413 
L 693.635549 147.659413 
L 693.792901 189.027312 
L 735.596083 189.027312 
L 735.753435 126.385522 
L 777.556616 126.385522 
L 777.713968 220.300067 
L 819.517149 220.300067 
L 819.674501 74.134659 
L 851.092451 74.134659 
L 851.092451 74.134659 
" clip-path="url(#p2bda6d35fa)" style="fill: none; stroke: #000000; stroke-linecap: square"/>
   </g>
   <g id="line2d_15">
    <path d="M 64.28 224.10978 
L 64.437352 224.223995 
L 64.594704 224.629733 
L 64.856957 226.250708 
L 65.433915 232.201322 
L 65.486365 41.350604 
L 65.591267 42.302238 
L 66.063323 45.412556 
L 67.217237 51.764812 
L 68.056448 56.256279 
L 69.157912 60.693804 
L 70.102024 63.683492 
L 71.098587 66.089923 
L 72.1476 68.053313 
L 73.249064 69.648753 
L 74.455429 71.01248 
L 75.819147 72.212675 
L 77.340216 73.252842 
L 79.123539 74.195329 
L 81.221565 75.042818 
L 83.739197 75.809974 
L 86.781336 76.498153 
L 90.610235 77.126838 
L 95.488147 77.690629 
L 101.834677 78.188127 
L 106.660139 78.581781 
L 107.184645 79.103334 
L 110.961093 83.70278 
L 112.324811 85.926357 
L 113.688528 88.577699 
L 115.052245 91.73054 
L 116.520864 95.721646 
L 118.304187 101.276046 
L 122.919845 116.003142 
L 124.808069 121.091834 
L 126.643843 125.411686 
L 128.427165 129.062442 
L 130.210488 132.21877 
L 131.993811 134.925007 
L 133.777133 137.231301 
L 135.612907 139.244423 
L 137.553581 141.037394 
L 139.599157 142.620564 
L 141.802085 144.041727 
L 144.214816 145.330715 
L 146.8898 146.505126 
L 148.253517 146.951471 
L 148.987827 146.49056 
L 151.348107 143.840343 
L 153.498584 140.778545 
L 155.019653 138.086154 
L 156.540723 134.897051 
L 158.114243 131.068494 
L 159.687763 126.667417 
L 161.05148 122.22058 
L 162.152944 117.888489 
L 163.097056 113.291933 
L 164.093619 107.256382 
L 166.663701 90.84594 
L 167.555363 87.041869 
L 168.447024 84.1831 
L 169.391136 81.87954 
L 170.440149 79.910994 
L 171.594064 78.228845 
L 172.85288 76.78491 
L 174.269048 75.495376 
L 175.895019 74.318096 
L 177.783243 73.234051 
L 179.986171 72.236576 
L 182.556253 71.324702 
L 185.598392 70.486333 
L 189.269939 69.710883 
L 190.318952 69.607266 
L 190.686107 69.896602 
L 193.990499 73.597151 
L 198.134101 77.692535 
L 201.438493 80.639457 
L 204.637984 83.198837 
L 207.837475 85.472512 
L 211.089416 87.508522 
L 214.446259 89.346698 
L 217.960453 91.017959 
L 221.736901 92.56493 
L 225.775603 93.977704 
L 230.181459 95.282113 
L 232.279485 95.756507 
L 232.699091 95.548146 
L 233.380949 94.877668 
L 234.639765 93.726533 
L 236.108384 92.173036 
L 237.681904 90.226252 
L 239.202973 87.987302 
L 240.671592 85.422261 
L 242.140211 82.395725 
L 243.66128 78.73078 
L 245.339701 74.082632 
L 247.647531 66.965627 
L 251.476429 55.16505 
L 253.469555 49.787606 
L 255.252877 45.607092 
L 256.931299 42.229556 
L 257.508256 41.187883 
L 257.560707 232.45867 
L 257.665608 232.276494 
L 259.291579 229.684645 
L 260.97 227.422403 
L 262.700872 225.45997 
L 264.536645 223.716357 
L 266.47732 222.178049 
L 268.575347 220.795035 
L 270.935627 219.511183 
L 273.55816 218.34487 
L 274.187568 218.182634 
L 274.607173 218.430079 
L 275.341483 219.262717 
L 276.075792 219.905714 
L 282.21252 224.298109 
L 285.044856 225.857951 
L 288.086995 227.27375 
L 291.391387 228.564904 
L 295.115384 229.775692 
L 299.258987 230.885468 
L 303.979547 231.915889 
L 307.231488 232.511932 
L 307.283939 41.158305 
L 307.38884 41.176171 
L 313.368216 42.07891 
L 316.567707 42.590812 
L 318.298579 44.086294 
L 319.347592 44.935929 
L 337.600424 59.421098 
L 341.848928 62.392701 
L 345.835179 64.910407 
L 349.716528 67.099696 
L 353.650328 69.062402 
L 357.689029 70.828674 
L 358.633141 71.095248 
L 368.651219 72.564354 
L 375.889411 73.317502 
L 384.543771 73.986604 
L 395.086355 74.570373 
L 400.22652 74.704484 
L 400.541224 74.419611 
L 407.517163 65.086274 
L 411.136259 59.578496 
L 419.161211 47.230326 
L 422.045997 43.283373 
L 423.724419 41.184328 
L 423.776869 232.483804 
L 423.881771 232.358037 
L 426.399403 229.52275 
L 428.864584 227.080694 
L 431.329765 224.946942 
L 433.899848 223.016373 
L 436.574832 221.284244 
L 439.459619 219.685366 
L 442.71156 217.913929 
L 443.393419 217.158541 
L 444.914488 215.461628 
L 446.960064 212.935363 
L 449.372795 209.626041 
L 452.362483 205.127599 
L 458.709013 195.040252 
L 466.209459 183.333563 
L 469.985907 177.804709 
L 472.713341 174.187504 
L 475.126072 171.343524 
L 477.433901 168.960602 
L 479.741731 166.897121 
L 482.102011 165.086294 
L 484.304939 163.647549 
L 484.672093 163.71675 
L 485.458853 163.928919 
L 489.497555 163.881126 
L 505.337656 163.693509 
L 526.527725 163.513062 
L 528.206147 164.097803 
L 531.038483 165.117131 
L 533.346312 166.168621 
L 535.391888 167.333082 
L 537.175211 168.593999 
L 538.801181 170.015978 
L 540.2698 171.603397 
L 541.581067 173.351105 
L 542.787432 175.336151 
L 543.888896 177.588096 
L 544.885459 180.140652 
L 545.77712 183.026368 
L 546.616331 186.499484 
L 547.403091 190.692292 
L 548.242301 196.39026 
L 551.074637 216.959341 
L 552.018749 221.370025 
L 553.015312 224.968583 
L 554.116776 228.108391 
L 555.323141 230.862034 
L 556.162352 232.466924 
L 556.214803 41.197573 
L 556.319704 41.38174 
L 557.683421 43.524292 
L 559.099589 45.340441 
L 560.620659 46.936768 
L 562.29908 48.372562 
L 564.134853 49.645902 
L 566.180429 50.790157 
L 568.226005 51.901002 
L 568.645611 52.902438 
L 569.432371 54.777013 
L 570.481384 56.883469 
L 572.789213 62.705385 
L 575.569099 70.601786 
L 578.03428 77.362628 
L 579.765152 81.470762 
L 581.391123 84.762737 
L 583.017093 87.551828 
L 584.695515 89.986182 
L 586.426387 92.111521 
L 588.314611 94.073326 
L 590.307736 95.82322 
L 592.458213 97.418797 
L 594.818493 98.894084 
L 597.441027 100.26715 
L 600.325813 101.524853 
L 603.577755 102.696878 
L 607.249301 103.780123 
L 609.819384 104.371859 
L 610.238989 104.109604 
L 610.815947 103.408925 
L 611.760059 102.314684 
L 614.749747 99.229942 
L 618.526195 95.553326 
L 621.987939 92.485429 
L 625.292331 89.848191 
L 628.596723 87.496041 
L 631.901115 85.415589 
L 635.310408 83.530755 
L 638.877053 81.813025 
L 642.653501 80.241356 
L 646.744653 78.783764 
L 651.150509 77.453007 
L 652.094621 77.304474 
L 652.566677 77.597038 
L 653.877944 78.532989 
L 655.451464 79.6435 
L 657.601941 81.440796 
L 659.437715 83.282183 
L 661.116136 85.287491 
L 662.689656 87.523482 
L 664.158275 89.999774 
L 665.574443 92.820292 
L 667.043061 96.261725 
L 668.616581 100.548006 
L 670.767059 107.133869 
L 673.704296 116.019735 
L 675.435168 120.523309 
L 677.061139 124.1575 
L 678.73956 127.369224 
L 680.470432 130.201805 
L 682.253755 132.702165 
L 684.141979 134.969786 
L 686.135104 137.014251 
L 688.233131 138.847317 
L 690.488509 140.518658 
L 692.90124 142.027236 
L 694.212507 142.854731 
L 694.737013 143.993379 
L 695.313971 145.016635 
L 696.520336 146.742445 
L 700.401685 153.250244 
L 705.069795 161.003114 
L 707.692328 164.912533 
L 710.052608 168.035417 
L 712.307987 170.6594 
L 714.615816 173.00366 
L 716.976096 175.084073 
L 719.441277 176.961809 
L 722.063811 178.679957 
L 724.896147 180.266847 
L 727.990736 181.739528 
L 731.347579 183.087677 
L 735.071576 184.340691 
L 735.910787 184.482642 
L 736.225491 184.223614 
L 736.802448 183.315083 
L 737.536757 182.318793 
L 738.585771 180.978086 
L 741.260755 176.900579 
L 743.411232 173.147614 
L 746.191117 167.804498 
L 751.593536 157.339864 
L 754.006267 153.221743 
L 756.261645 149.806238 
L 758.464573 146.863087 
L 760.719952 144.215928 
L 763.027781 141.846528 
L 765.440512 139.689191 
L 767.958144 137.738375 
L 770.633128 135.951999 
L 773.465464 134.331495 
L 776.507603 132.849289 
L 777.766419 132.384967 
L 778.081123 132.569696 
L 779.287488 133.504988 
L 780.021797 133.960138 
L 782.119824 135.805928 
L 783.640893 137.493887 
L 784.95216 139.280888 
L 786.210976 141.377396 
L 787.364891 143.728046 
L 788.466355 146.468946 
L 789.515368 149.66565 
L 790.564381 153.600146 
L 791.613395 158.449132 
L 792.767309 164.910151 
L 795.9668 183.626157 
L 797.068264 188.301894 
L 798.169728 192.013311 
L 799.271192 194.981421 
L 800.477557 197.594001 
L 801.736373 199.789619 
L 803.100091 201.713025 
L 804.568709 203.389322 
L 806.142229 204.846015 
L 807.873101 206.146029 
L 809.813776 207.323949 
L 812.016704 208.397437 
L 814.534336 209.374706 
L 817.471573 210.27372 
L 819.726952 210.981596 
L 820.199008 211.698381 
L 821.510275 213.972475 
L 822.506837 215.562554 
L 825.129371 219.879761 
L 829.115621 226.173786 
L 832.052859 230.402205 
L 833.626379 232.485465 
L 833.678829 41.190017 
L 833.783731 41.323848 
L 836.353813 44.414837 
L 838.871445 47.097608 
L 841.389077 49.457408 
L 843.95916 51.562354 
L 846.634144 53.463636 
L 849.414029 55.167856 
L 851.092451 56.079918 
L 851.092451 56.079918 
" clip-path="url(#p2bda6d35fa)" style="fill: none; stroke: #ff0000; stroke-linecap: square"/>
   </g>
   <g id="patch_3">
    <path d="M 64.28 242.08 
L 64.28 31.5825 
" style="fill: none; stroke: #000000; stroke-width: 0.5; stroke-linejoin: miter; stroke-linecap: square"/>
   </g>
   <g id="patch_4">
    <path d="M 64.28 242.08 
L 851.04 242.08 
" style="fill: none; stroke: #000000; stroke-width: 0.5; stroke-linejoin: miter; stroke-linecap: square"/>
   </g>
   <g id="text_16">
    <!-- Angle estimate versus true wind angle — with wind direction jumps -->
    <g transform="translate(188.139531 25.5825) scale(0.18 -0.18)">
     <defs>
      <path id="NewCM10-Regular-41" d="M 4589 0 
L 4589 198 
L 4474 198 
C 4090 198 4000 243 3930 454 
L 2547 4454 
C 2515 4538 2502 4582 2400 4582 
C 2298 4582 2278 4544 2246 4454 
L 922 627 
C 806 301 550 205 205 198 
L 205 0 
L 858 19 
L 1594 0 
L 1594 198 
C 1274 198 1114 358 1114 525 
C 1114 544 1120 608 1126 621 
L 1421 1459 
L 3002 1459 
L 3341 480 
C 3347 454 3360 416 3360 390 
C 3360 198 3002 198 2829 198 
L 2829 0 
C 3059 19 3507 19 3750 19 
L 4589 0 
z
M 2931 1658 
L 1491 1658 
L 2208 3738 
L 2931 1658 
z
" transform="scale(0.015625)"/>
      <path id="NewCM10-Regular-76" d="M 3251 2560 
L 3251 2758 
C 3104 2746 2918 2739 2771 2739 
L 2214 2758 
L 2214 2560 
C 2451 2554 2522 2406 2522 2285 
C 2522 2227 2509 2202 2483 2131 
L 1830 499 
L 1114 2285 
C 1075 2368 1075 2394 1075 2394 
C 1075 2560 1325 2560 1440 2560 
L 1440 2758 
L 742 2739 
C 570 2739 314 2746 122 2758 
L 122 2560 
C 525 2560 550 2522 634 2323 
L 1555 51 
C 1594 -38 1606 -70 1690 -70 
C 1773 -70 1798 -13 1824 51 
L 2662 2131 
C 2720 2278 2829 2554 3251 2560 
z
" transform="scale(0.015625)"/>
      <path id="NewCM10-Regular-72" d="M 2330 2438 
C 2330 2643 2131 2829 1856 2829 
C 1389 2829 1158 2400 1069 2125 
L 1069 2829 
L 179 2758 
L 179 2560 
C 627 2560 678 2515 678 2202 
L 678 486 
C 678 198 608 198 179 198 
L 179 0 
L 909 19 
C 1165 19 1466 19 1722 0 
L 1722 198 
L 1587 198 
C 1114 198 1101 269 1101 499 
L 1101 1485 
C 1101 2118 1370 2688 1856 2688 
C 1901 2688 1914 2688 1926 2682 
C 1907 2675 1779 2598 1779 2432 
C 1779 2253 1914 2157 2054 2157 
C 2170 2157 2330 2234 2330 2438 
z
" transform="scale(0.015625)"/>
      <path id="NewCM10-Regular-77" d="M 4499 2560 
L 4499 2758 
C 4358 2746 4173 2739 4032 2739 
L 3437 2758 
L 3437 2560 
C 3667 2554 3808 2438 3808 2253 
C 3808 2214 3808 2202 3776 2118 
L 3194 480 
L 2560 2266 
C 2534 2342 2528 2355 2528 2387 
C 2528 2560 2778 2560 2906 2560 
L 2906 2758 
L 2240 2739 
C 2048 2739 1862 2746 1670 2758 
L 1670 2560 
C 1907 2560 2010 2547 2074 2464 
C 2106 2426 2176 2234 2221 2112 
L 1670 563 
L 1062 2272 
C 1030 2349 1030 2362 1030 2387 
C 1030 2560 1280 2560 1408 2560 
L 1408 2758 
L 710 2739 
L 115 2758 
L 115 2560 
C 435 2560 512 2541 589 2336 
L 1395 70 
C 1427 -19 1446 -70 1530 -70 
C 1613 -70 1626 -32 1658 58 
L 2304 1869 
L 2957 51 
C 2982 -19 3002 -70 3085 -70 
C 3168 -70 3187 -13 3213 51 
L 3962 2150 
C 4077 2470 4275 2554 4499 2560 
z
" transform="scale(0.015625)"/>
      <path id="NewCM10-Regular-2014" d="M 0 1626 
L 6394 1626 
L 6394 1773 
L 0 1773 
L 0 1626 
z
" transform="scale(0.015625)"/>
      <path id="NewCM10-Regular-68" d="M 3424 0 
L 3424 198 
C 3091 198 2931 198 2925 390 
L 2925 1613 
C 2925 2163 2925 2362 2726 2592 
C 2637 2701 2426 2829 2054 2829 
C 1517 2829 1235 2445 1133 2214 
L 1126 2214 
L 1126 4442 
L 205 4371 
L 205 4173 
C 653 4173 704 4128 704 3814 
L 704 486 
C 704 198 634 198 205 198 
L 205 0 
L 928 19 
L 1645 0 
L 1645 198 
C 1216 198 1146 198 1146 486 
L 1146 1664 
C 1146 2330 1600 2688 2010 2688 
C 2413 2688 2483 2342 2483 1978 
L 2483 486 
C 2483 198 2413 198 1984 198 
L 1984 0 
L 2707 19 
L 3424 0 
z
" transform="scale(0.015625)"/>
      <path id="NewCM10-Regular-63" d="M 2656 762 
C 2656 826 2592 826 2573 826 
C 2515 826 2502 800 2490 762 
C 2304 166 1888 90 1651 90 
C 1312 90 749 365 749 1395 
C 749 2438 1274 2707 1613 2707 
C 1670 2707 2074 2701 2298 2470 
C 2035 2451 1997 2259 1997 2176 
C 1997 2010 2112 1882 2291 1882 
C 2458 1882 2586 1990 2586 2182 
C 2586 2618 2099 2867 1606 2867 
C 806 2867 218 2176 218 1382 
C 218 563 851 -70 1594 -70 
C 2451 -70 2656 698 2656 762 
z
" transform="scale(0.015625)"/>
      <path id="NewCM10-Regular-6a" d="M 1344 -320 
L 1344 2829 
L 371 2758 
L 371 2560 
C 864 2560 922 2515 922 2202 
L 922 -333 
C 922 -621 864 -1171 454 -1171 
C 422 -1171 275 -1171 109 -1088 
C 205 -1062 333 -973 333 -800 
C 333 -634 218 -506 38 -506 
C -141 -506 -256 -634 -256 -800 
C -256 -1133 102 -1312 467 -1312 
C 947 -1312 1344 -902 1344 -320 
z
M 1344 3866 
C 1344 4038 1197 4205 1005 4205 
C 787 4205 659 4026 659 3866 
C 659 3693 806 3526 998 3526 
C 1216 3526 1344 3706 1344 3866 
z
" transform="scale(0.015625)"/>
     </defs>
     <use xlink:href="#NewCM10-Regular-41"/>
     <use xlink:href="#NewCM10-Regular-6e" transform="translate(74.999985 0)"/>
     <use xlink:href="#NewCM10-Regular-67" transform="translate(130.599976 0)"/>
     <use xlink:href="#NewCM10-Regular-6c" transform="translate(180.59996 0)"/>
     <use xlink:href="#NewCM10-Regular-65" transform="translate(208.399948 0)"/>
     <use xlink:href="#NewCM10-Regular-20" transform="translate(252.799942 0)"/>
     <use xlink:href="#NewCM10-Regular-65" transform="translate(286.09993 0)"/>
     <use xlink:href="#NewCM10-Regular-73" transform="translate(330.499924 0)"/>
     <use xlink:href="#NewCM10-Regular-74" transform="translate(369.899918 0)"/>
     <use xlink:href="#NewCM10-Regular-69" transform="translate(408.799911 0)"/>
     <use xlink:href="#NewCM10-Regular-6d" transform="translate(436.599899 0)"/>
     <use xlink:href="#NewCM10-Regular-61" transform="translate(519.899887 0)"/>
     <use xlink:href="#NewCM10-Regular-74" transform="translate(569.899872 0)"/>
     <use xlink:href="#NewCM10-Regular-65" transform="translate(608.799866 0)"/>
     <use xlink:href="#NewCM10-Regular-20" transform="translate(653.19986 0)"/>
     <use xlink:href="#NewCM10-Regular-76" transform="translate(686.499847 0)"/>
     <use xlink:href="#NewCM10-Regular-65" transform="translate(739.299835 0)"/>
     <use xlink:href="#NewCM10-Regular-72" transform="translate(783.699829 0)"/>
     <use xlink:href="#NewCM10-Regular-73" transform="translate(822.899826 0)"/>
     <use xlink:href="#NewCM10-Regular-75" transform="translate(862.29982 0)"/>
     <use xlink:href="#NewCM10-Regular-73" transform="translate(917.899811 0)"/>
     <use xlink:href="#NewCM10-Regular-20" transform="translate(957.299805 0)"/>
     <use xlink:href="#NewCM10-Regular-74" transform="translate(990.599792 0)"/>
     <use xlink:href="#NewCM10-Regular-72" transform="translate(1029.499786 0)"/>
     <use xlink:href="#NewCM10-Regular-75" transform="translate(1068.699783 0)"/>
     <use xlink:href="#NewCM10-Regular-65" transform="translate(1124.299774 0)"/>
     <use xlink:href="#NewCM10-Regular-20" transform="translate(1168.699768 0)"/>
     <use xlink:href="#NewCM10-Regular-77" transform="translate(1201.999756 0)"/>
     <use xlink:href="#NewCM10-Regular-69" transform="translate(1274.199738 0)"/>
     <use xlink:href="#NewCM10-Regular-6e" transform="translate(1301.999725 0)"/>
     <use xlink:href="#NewCM10-Regular-64" transform="translate(1357.599716 0)"/>
     <use xlink:href="#NewCM10-Regular-20" transform="translate(1413.199707 0)"/>
     <use xlink:href="#NewCM10-Regular-61" transform="translate(1446.499695 0)"/>
     <use xlink:href="#NewCM10-Regular-6e" transform="translate(1496.49968 0)"/>
     <use xlink:href="#NewCM10-Regular-67" transform="translate(1552.09967 0)"/>
     <use xlink:href="#NewCM10-Regular-6c" transform="translate(1602.099655 0)"/>
     <use xlink:href="#NewCM10-Regular-65" transform="translate(1629.899643 0)"/>
     <use xlink:href="#NewCM10-Regular-20" transform="translate(1674.299637 0)"/>
     <use xlink:href="#NewCM10-Regular-2014" transform="translate(1707.599625 0)"/>
     <use xlink:href="#NewCM10-Regular-20" transform="translate(1807.599609 0)"/>
     <use xlink:href="#NewCM10-Regular-77" transform="translate(1840.899597 0)"/>
     <use xlink:href="#NewCM10-Regular-69" transform="translate(1913.099579 0)"/>
     <use xlink:href="#NewCM10-Regular-74" transform="translate(1940.899567 0)"/>
     <use xlink:href="#NewCM10-Regular-68" transform="translate(1979.799561 0)"/>
     <use xlink:href="#NewCM10-Regular-20" transform="translate(2035.399551 0)"/>
     <use xlink:href="#NewCM10-Regular-77" transform="translate(2068.699539 0)"/>
     <use xlink:href="#NewCM10-Regular-69" transform="translate(2140.899521 0)"/>
     <use xlink:href="#NewCM10-Regular-6e" transform="translate(2168.699509 0)"/>
     <use xlink:href="#NewCM10-Regular-64" transform="translate(2224.2995 0)"/>
     <use xlink:href="#NewCM10-Regular-20" transform="translate(2279.89949 0)"/>
     <use xlink:href="#NewCM10-Regular-64" transform="translate(2313.199478 0)"/>
     <use xlink:href="#NewCM10-Regular-69" transform="translate(2368.799469 0)"/>
     <use xlink:href="#NewCM10-Regular-72" transform="translate(2396.599457 0)"/>
     <use xlink:href="#NewCM10-Regular-65" transform="translate(2435.799454 0)"/>
     <use xlink:href="#NewCM10-Regular-63" transform="translate(2480.199448 0)"/>
     <use xlink:href="#NewCM10-Regular-74" transform="translate(2524.599442 0)"/>
     <use xlink:href="#NewCM10-Regular-69" transform="translate(2563.499435 0)"/>
     <use xlink:href="#NewCM10-Regular-6f" transform="translate(2591.299423 0)"/>
     <use xlink:href="#NewCM10-Regular-6e" transform="translate(2641.299408 0)"/>
     <use xlink:href="#NewCM10-Regular-20" transform="translate(2696.899399 0)"/>
     <use xlink:href="#NewCM10-Regular-6a" transform="translate(2730.199387 0)"/>
     <use xlink:href="#NewCM10-Regular-75" transform="translate(2760.799377 0)"/>
     <use xlink:href="#NewCM10-Regular-6d" transform="translate(2816.399368 0)"/>
     <use xlink:href="#NewCM10-Regular-70" transform="translate(2899.699356 0)"/>
     <use xlink:href="#NewCM10-Regular-73" transform="translate(2955.299347 0)"/>
    </g>
   </g>
   <g id="legend_1">
    <g id="line2d_16">
     <path d="M 72.38 216.033437 
L 81.38 216.033437 
L 90.38 216.033437 
" style="fill: none; stroke: #000000; stroke-linecap: square"/>
    </g>
    <g id="text_17">
     <!-- True Wind Angle (°) -->
     <g transform="translate(97.58 219.183437) scale(0.09 -0.09)">
      <defs>
       <path id="NewCM10-Regular-54" d="M 4384 2893 
L 4262 4333 
L 352 4333 
L 230 2893 
L 390 2893 
C 480 3923 576 4134 1542 4134 
C 1658 4134 1824 4134 1888 4122 
C 2022 4096 2022 4026 2022 3878 
L 2022 506 
C 2022 288 2022 198 1350 198 
L 1094 198 
L 1094 0 
C 1357 19 2010 19 2304 19 
C 2598 19 3258 19 3520 0 
L 3520 198 
L 3264 198 
C 2592 198 2592 288 2592 506 
L 2592 3878 
C 2592 4006 2592 4096 2707 4122 
C 2778 4134 2950 4134 3072 4134 
C 4038 4134 4134 3923 4224 2893 
L 4384 2893 
z
" transform="scale(0.015625)"/>
      </defs>
      <use xlink:href="#NewCM10-Regular-54"/>
      <use xlink:href="#NewCM10-Regular-72" transform="translate(72.199982 0)"/>
      <use xlink:href="#NewCM10-Regular-75" transform="translate(111.399979 0)"/>
      <use xlink:href="#NewCM10-Regular-65" transform="translate(166.999969 0)"/>
      <use xlink:href="#NewCM10-Regular-20" transform="translate(211.399963 0)"/>
      <use xlink:href="#NewCM10-Regular-57" transform="translate(244.699951 0)"/>
      <use xlink:href="#NewCM10-Regular-69" transform="translate(347.499939 0)"/>
      <use xlink:href="#NewCM10-Regular-6e" transform="translate(375.299927 0)"/>
      <use xlink:href="#NewCM10-Regular-64" transform="translate(430.899918 0)"/>
      <use xlink:href="#NewCM10-Regular-20" transform="translate(486.499908 0)"/>
      <use xlink:href="#NewCM10-Regular-41" transform="translate(519.799896 0)"/>
      <use xlink:href="#NewCM10-Regular-6e" transform="translate(594.799881 0)"/>
      <use xlink:href="#NewCM10-Regular-67" transform="translate(650.399872 0)"/>
      <use xlink:href="#NewCM10-Regular-6c" transform="translate(700.399857 0)"/>
      <use xlink:href="#NewCM10-Regular-65" transform="translate(728.199844 0)"/>
      <use xlink:href="#NewCM10-Regular-20" transform="translate(772.599838 0)"/>
      <use xlink:href="#NewCM10-Regular-28" transform="translate(805.899826 0)"/>
      <use xlink:href="#NewCM10-Regular-b0" transform="translate(844.79982 0)"/>
      <use xlink:href="#NewCM10-Regular-29" transform="translate(882.299805 0)"/>
     </g>
    </g>
    <g id="line2d_17">
     <path d="M 72.38 229.083437 
L 81.38 229.083437 
L 90.38 229.083437 
" style="fill: none; stroke: #ff0000; stroke-linecap: square"/>
    </g>
    <g id="text_18">
     <!-- Raw Estimate -->
     <g transform="translate(97.58 232.233437) scale(0.09 -0.09)">
      <defs>
       <path id="NewCM10-Regular-52" d="M 4685 563 
C 4685 602 4685 672 4602 672 
C 4531 672 4531 614 4525 570 
C 4486 115 4262 0 4102 0 
C 3789 0 3738 326 3648 922 
L 3565 1434 
C 3450 1843 3136 2054 2784 2176 
C 3405 2330 3904 2720 3904 3219 
C 3904 3834 3174 4371 2234 4371 
L 224 4371 
L 224 4173 
L 378 4173 
C 870 4173 883 4102 883 3872 
L 883 499 
C 883 269 870 198 378 198 
L 224 198 
L 224 0 
C 454 19 909 19 1158 19 
C 1408 19 1862 19 2093 0 
L 2093 198 
L 1939 198 
C 1446 198 1434 269 1434 499 
L 1434 2118 
L 2170 2118 
C 2272 2118 2541 2118 2765 1901 
C 3008 1670 3008 1472 3008 1043 
C 3008 627 3008 371 3270 128 
C 3533 -102 3885 -141 4077 -141 
C 4576 -141 4685 384 4685 563 
z
M 3245 3219 
C 3245 2778 3091 2259 2144 2259 
L 1434 2259 
L 1434 3917 
C 1434 4064 1434 4141 1574 4160 
C 1638 4173 1824 4173 1952 4173 
C 2528 4173 3245 4147 3245 3219 
z
" transform="scale(0.015625)"/>
       <path id="NewCM10-Regular-45" d="M 4173 1651 
L 4013 1651 
C 3853 666 3706 198 2605 198 
L 1754 198 
C 1453 198 1440 243 1440 454 
L 1440 2163 
L 2016 2163 
C 2637 2163 2707 1958 2707 1414 
L 2867 1414 
L 2867 3110 
L 2707 3110 
C 2707 2560 2637 2362 2016 2362 
L 1440 2362 
L 1440 3898 
C 1440 4109 1453 4154 1754 4154 
L 2579 4154 
C 3558 4154 3731 3802 3834 2912 
L 3994 2912 
L 3814 4352 
L 211 4352 
L 211 4154 
L 365 4154 
C 858 4154 870 4083 870 3853 
L 870 499 
C 870 269 858 198 365 198 
L 211 198 
L 211 0 
L 3904 0 
L 4173 1651 
z
" transform="scale(0.015625)"/>
      </defs>
      <use xlink:href="#NewCM10-Regular-52"/>
      <use xlink:href="#NewCM10-Regular-61" transform="translate(73.599991 0)"/>
      <use xlink:href="#NewCM10-Regular-77" transform="translate(123.599976 0)"/>
      <use xlink:href="#NewCM10-Regular-20" transform="translate(195.799957 0)"/>
      <use xlink:href="#NewCM10-Regular-45" transform="translate(229.099945 0)"/>
      <use xlink:href="#NewCM10-Regular-73" transform="translate(297.199936 0)"/>
      <use xlink:href="#NewCM10-Regular-74" transform="translate(336.59993 0)"/>
      <use xlink:href="#NewCM10-Regular-69" transform="translate(375.499924 0)"/>
      <use xlink:href="#NewCM10-Regular-6d" transform="translate(403.299911 0)"/>
      <use xlink:href="#NewCM10-Regular-61" transform="translate(486.599899 0)"/>
      <use xlink:href="#NewCM10-Regular-74" transform="translate(536.599884 0)"/>
      <use xlink:href="#NewCM10-Regular-65" transform="translate(575.499878 0)"/>
     </g>
    </g>
   </g>
  </g>
 </g>
 <defs>
  <clipPath id="p2bda6d35fa">
   <rect x="64.28" y="31.5825" width="786.76" height="210.4975"/>
  </clipPath>
 </defs>
</svg>
