<?xml version="1.0" encoding="utf-8" standalone="no"?>
<!DOCTYPE svg PUBLIC "-//W3C//DTD SVG 1.1//EN"
  "http://www.w3.org/Graphics/SVG/1.1/DTD/svg11.dtd">
<svg xmlns:xlink="http://www.w3.org/1999/xlink" width="504pt" height="360pt" viewBox="0 0 504 360" xmlns="http://www.w3.org/2000/svg" version="1.1">
 <metadata>
  <rdf:RDF xmlns:dc="http://purl.org/dc/elements/1.1/" xmlns:cc="http://creativecommons.org/ns#" xmlns:rdf="http://www.w3.org/1999/02/22-rdf-syntax-ns#">
   <cc:Work>
    <dc:type rdf:resource="http://purl.org/dc/dcmitype/StillImage"/>
    <dc:date>2026-05-22T19:03:59.502278</dc:date>
    <dc:format>image/svg+xml</dc:format>
    <dc:creator>
     <cc:Agent>
      <dc:title>Matplotlib v3.10.8, https://matplotlib.org/</dc:title>
     </cc:Agent>
    </dc:creator>
   </cc:Work>
  </rdf:RDF>
 </metadata>
 <defs>
  <style type="text/css">*{stroke-linejoin: round; stroke-linecap: butt}</style>
 </defs>
 <g id="figure_1">
  <g id="patch_1">
   <path d="M 0 360 
L 504 360 
L 504 0 
L 0 0 
z
" style="fill: #ffffff"/>
  </g>
  <g id="axes_1">
   <g id="patch_2">
    <path d="M 67.07 313.72 
L 491.04 313.72 
L 491.04 29.2875 
L 67.07 29.2875 
z
" style="fill: #ffffff"/>
   </g>
   <g id="matplotlib.axis_1">
    <g id="xtick_1">
     <g id="line2d_1">
      <defs>
       <path id="m1cdea71c0e" d="M 0 0 
L 0 3.5 
" style="stroke: #000000; stroke-width: 0.8"/>
      </defs>
      <g>
       <use xlink:href="#m1cdea71c0e" x="120.06625" y="313.72" style="stroke: #000000; stroke-width: 0.8"/>
      </g>
     </g>
     <g id="text_1">
      <!-- 0 -->
      <g transform="translate(117.06625 329.04875) scale(0.12 -0.12)">
       <defs>
        <path id="NewCM10-Regular-30" d="M 2944 2048 
C 2944 2560 2912 3072 2688 3546 
C 2394 4160 1869 4262 1600 4262 
C 1216 4262 749 4096 486 3501 
C 282 3059 250 2560 250 2048 
C 250 1568 275 992 538 506 
C 813 -13 1280 -141 1594 -141 
C 1939 -141 2426 -6 2707 602 
C 2912 1043 2944 1542 2944 2048 
z
M 2413 2125 
C 2413 1645 2413 1210 2342 800 
C 2246 192 1882 0 1594 0 
C 1344 0 966 160 851 774 
C 781 1158 781 1747 781 2125 
C 781 2534 781 2957 832 3302 
C 954 4064 1434 4122 1594 4122 
C 1805 4122 2227 4006 2349 3373 
C 2413 3014 2413 2528 2413 2125 
z
" transform="scale(0.015625)"/>
       </defs>
       <use xlink:href="#NewCM10-Regular-30"/>
      </g>
     </g>
    </g>
    <g id="xtick_2">
     <g id="line2d_2">
      <g>
       <use xlink:href="#m1cdea71c0e" x="226.05875" y="313.72" style="stroke: #000000; stroke-width: 0.8"/>
      </g>
     </g>
     <g id="text_2">
      <!-- 3 -->
      <g transform="translate(223.05875 329.04875) scale(0.12 -0.12)">
       <defs>
        <path id="NewCM10-Regular-33" d="M 2925 1094 
C 2925 1619 2522 2118 1856 2253 
C 2381 2426 2752 2874 2752 3379 
C 2752 3904 2189 4262 1574 4262 
C 928 4262 442 3878 442 3392 
C 442 3181 582 3059 768 3059 
C 966 3059 1094 3200 1094 3386 
C 1094 3706 794 3706 698 3706 
C 896 4019 1318 4102 1549 4102 
C 1811 4102 2163 3962 2163 3386 
C 2163 3309 2150 2938 1984 2656 
C 1792 2349 1574 2330 1414 2323 
C 1363 2317 1210 2304 1165 2304 
C 1114 2298 1069 2291 1069 2227 
C 1069 2157 1114 2157 1222 2157 
L 1504 2157 
C 2029 2157 2266 1722 2266 1094 
C 2266 224 1824 38 1542 38 
C 1267 38 787 147 563 525 
C 787 493 986 634 986 877 
C 986 1107 813 1235 627 1235 
C 474 1235 269 1146 269 864 
C 269 282 864 -141 1562 -141 
C 2342 -141 2925 442 2925 1094 
z
" transform="scale(0.015625)"/>
       </defs>
       <use xlink:href="#NewCM10-Regular-33"/>
      </g>
     </g>
    </g>
    <g id="xtick_3">
     <g id="line2d_3">
      <g>
       <use xlink:href="#m1cdea71c0e" x="332.05125" y="313.72" style="stroke: #000000; stroke-width: 0.8"/>
      </g>
     </g>
     <g id="text_3">
      <!-- 5 -->
      <g transform="translate(329.05125 329.04875) scale(0.12 -0.12)">
       <defs>
        <path id="NewCM10-Regular-35" d="M 2874 1286 
C 2874 2048 2349 2688 1658 2688 
C 1350 2688 1075 2586 845 2362 
L 845 3610 
C 973 3571 1184 3526 1389 3526 
C 2176 3526 2624 4109 2624 4192 
C 2624 4230 2605 4262 2560 4262 
C 2560 4262 2541 4262 2509 4243 
C 2381 4186 2067 4058 1638 4058 
C 1382 4058 1088 4102 787 4237 
C 736 4256 710 4256 710 4256 
C 646 4256 646 4205 646 4102 
L 646 2208 
C 646 2093 646 2042 736 2042 
C 781 2042 794 2061 819 2099 
C 890 2202 1126 2547 1645 2547 
C 1978 2547 2138 2253 2189 2138 
C 2291 1901 2304 1651 2304 1331 
C 2304 1107 2304 723 2150 454 
C 1997 205 1760 38 1466 38 
C 998 38 634 378 525 755 
C 544 749 563 742 634 742 
C 845 742 954 902 954 1056 
C 954 1210 845 1370 634 1370 
C 544 1370 320 1325 320 1030 
C 320 480 762 -141 1478 -141 
C 2221 -141 2874 474 2874 1286 
z
" transform="scale(0.015625)"/>
       </defs>
       <use xlink:href="#NewCM10-Regular-35"/>
      </g>
     </g>
    </g>
    <g id="xtick_4">
     <g id="line2d_4">
      <g>
       <use xlink:href="#m1cdea71c0e" x="438.04375" y="313.72" style="stroke: #000000; stroke-width: 0.8"/>
      </g>
     </g>
     <g id="text_4">
      <!-- 7 -->
      <g transform="translate(435.04375 329.04875) scale(0.12 -0.12)">
       <defs>
        <path id="NewCM10-Regular-37" d="M 3104 4122 
L 1549 4122 
C 768 4122 755 4205 730 4326 
L 570 4326 
L 358 3008 
L 518 3008 
C 538 3110 595 3514 678 3590 
C 723 3629 1222 3629 1306 3629 
L 2630 3629 
L 1914 2618 
C 1338 1754 1126 864 1126 211 
C 1126 147 1126 -141 1421 -141 
C 1715 -141 1715 147 1715 211 
L 1715 538 
C 1715 890 1734 1242 1786 1587 
C 1811 1734 1901 2285 2182 2682 
L 3046 3898 
C 3104 3974 3104 3987 3104 4122 
z
" transform="scale(0.015625)"/>
       </defs>
       <use xlink:href="#NewCM10-Regular-37"/>
      </g>
     </g>
    </g>
    <g id="text_5">
     <!-- dropoff -->
     <g transform="translate(260.360313 343.8375) scale(0.12 -0.12)">
      <defs>
       <path id="NewCM10-Regular-64" d="M 3373 0 
L 3373 198 
C 2925 198 2874 243 2874 557 
L 2874 4442 
L 1952 4371 
L 1952 4173 
C 2400 4173 2451 4128 2451 3814 
L 2451 2432 
C 2266 2662 1990 2829 1645 2829 
C 890 2829 218 2202 218 1376 
C 218 563 845 -70 1574 -70 
C 1984 -70 2272 147 2432 352 
L 2432 -70 
L 3373 0 
z
M 2432 755 
C 2432 640 2432 627 2362 518 
C 2170 211 1882 70 1606 70 
C 1318 70 1088 237 934 480 
C 768 742 749 1107 749 1370 
C 749 1606 762 1990 947 2278 
C 1082 2477 1325 2688 1670 2688 
C 1894 2688 2163 2592 2362 2304 
C 2432 2195 2432 2182 2432 2067 
L 2432 755 
z
" transform="scale(0.015625)"/>
       <path id="NewCM10-Regular-72" d="M 2330 2438 
C 2330 2643 2131 2829 1856 2829 
C 1389 2829 1158 2400 1069 2125 
L 1069 2829 
L 179 2758 
L 179 2560 
C 627 2560 678 2515 678 2202 
L 678 486 
C 678 198 608 198 179 198 
L 179 0 
L 909 19 
C 1165 19 1466 19 1722 0 
L 1722 198 
L 1587 198 
C 1114 198 1101 269 1101 499 
L 1101 1485 
C 1101 2118 1370 2688 1856 2688 
C 1901 2688 1914 2688 1926 2682 
C 1907 2675 1779 2598 1779 2432 
C 1779 2253 1914 2157 2054 2157 
C 2170 2157 2330 2234 2330 2438 
z
" transform="scale(0.015625)"/>
       <path id="NewCM10-Regular-6f" d="M 3014 1370 
C 3014 2189 2374 2867 1600 2867 
C 800 2867 179 2170 179 1370 
C 179 544 845 -70 1594 -70 
C 2368 -70 3014 557 3014 1370 
z
M 2483 1421 
C 2483 1190 2483 845 2342 563 
C 2202 275 1920 90 1600 90 
C 1325 90 1043 224 870 518 
C 710 800 710 1190 710 1421 
C 710 1670 710 2016 864 2298 
C 1037 2592 1338 2726 1594 2726 
C 1875 2726 2150 2586 2317 2310 
C 2483 2035 2483 1664 2483 1421 
z
" transform="scale(0.015625)"/>
       <path id="NewCM10-Regular-70" d="M 3334 1382 
C 3334 2195 2714 2829 1997 2829 
C 1498 2829 1229 2547 1101 2406 
L 1101 2829 
L 179 2758 
L 179 2560 
C 634 2560 678 2522 678 2240 
L 678 -755 
C 678 -1043 608 -1043 179 -1043 
L 179 -1242 
L 896 -1222 
L 1619 -1242 
L 1619 -1043 
C 1190 -1043 1120 -1043 1120 -755 
L 1120 320 
L 1120 378 
C 1152 275 1421 -70 1907 -70 
C 2669 -70 3334 557 3334 1382 
z
M 2803 1382 
C 2803 608 2355 70 1882 70 
C 1626 70 1382 198 1210 461 
C 1120 595 1120 602 1120 730 
L 1120 2157 
C 1306 2483 1619 2669 1946 2669 
C 2413 2669 2803 2106 2803 1382 
z
" transform="scale(0.015625)"/>
       <path id="NewCM10-Regular-66" d="M 2285 4064 
C 2285 4301 2048 4512 1709 4512 
C 1261 4512 717 4173 717 3494 
L 717 2758 
L 211 2758 
L 211 2560 
L 717 2560 
L 717 486 
C 717 198 646 198 218 198 
L 218 0 
L 947 19 
C 1203 19 1504 19 1760 0 
L 1760 198 
L 1626 198 
C 1152 198 1139 269 1139 499 
L 1139 2560 
L 1869 2560 
L 1869 2758 
L 1120 2758 
L 1120 3501 
C 1120 4064 1427 4371 1709 4371 
C 1728 4371 1824 4371 1920 4326 
C 1843 4301 1728 4218 1728 4058 
C 1728 3910 1830 3782 2003 3782 
C 2189 3782 2285 3910 2285 4064 
z
" transform="scale(0.015625)"/>
      </defs>
      <use xlink:href="#NewCM10-Regular-64"/>
      <use xlink:href="#NewCM10-Regular-72" transform="translate(55.599991 0)"/>
      <use xlink:href="#NewCM10-Regular-6f" transform="translate(94.799988 0)"/>
      <use xlink:href="#NewCM10-Regular-70" transform="translate(144.799973 0)"/>
      <use xlink:href="#NewCM10-Regular-6f" transform="translate(200.399963 0)"/>
      <use xlink:href="#NewCM10-Regular-66" transform="translate(250.399948 0)"/>
      <use xlink:href="#NewCM10-Regular-66" transform="translate(280.999939 0)"/>
     </g>
    </g>
   </g>
   <g id="matplotlib.axis_2">
    <g id="ytick_1">
     <g id="line2d_5">
      <defs>
       <path id="m1de34149ca" d="M 0 0 
L -3.5 0 
" style="stroke: #000000; stroke-width: 0.8"/>
      </defs>
      <g>
       <use xlink:href="#m1de34149ca" x="67.07" y="260.011187" style="stroke: #000000; stroke-width: 0.8"/>
      </g>
     </g>
     <g id="text_6">
      <!-- 30000 -->
      <g transform="translate(30.07 264.175562) scale(0.12 -0.12)">
       <use xlink:href="#NewCM10-Regular-33"/>
       <use xlink:href="#NewCM10-Regular-30" transform="translate(49.999985 0)"/>
       <use xlink:href="#NewCM10-Regular-30" transform="translate(99.999969 0)"/>
       <use xlink:href="#NewCM10-Regular-30" transform="translate(149.999954 0)"/>
       <use xlink:href="#NewCM10-Regular-30" transform="translate(199.999939 0)"/>
      </g>
     </g>
    </g>
    <g id="ytick_2">
     <g id="line2d_6">
      <g>
       <use xlink:href="#m1de34149ca" x="67.07" y="205.565175" style="stroke: #000000; stroke-width: 0.8"/>
      </g>
     </g>
     <g id="text_7">
      <!-- 35000 -->
      <g transform="translate(30.07 209.72955) scale(0.12 -0.12)">
       <use xlink:href="#NewCM10-Regular-33"/>
       <use xlink:href="#NewCM10-Regular-35" transform="translate(49.999985 0)"/>
       <use xlink:href="#NewCM10-Regular-30" transform="translate(99.999969 0)"/>
       <use xlink:href="#NewCM10-Regular-30" transform="translate(149.999954 0)"/>
       <use xlink:href="#NewCM10-Regular-30" transform="translate(199.999939 0)"/>
      </g>
     </g>
    </g>
    <g id="ytick_3">
     <g id="line2d_7">
      <g>
       <use xlink:href="#m1de34149ca" x="67.07" y="151.119163" style="stroke: #000000; stroke-width: 0.8"/>
      </g>
     </g>
     <g id="text_8">
      <!-- 40000 -->
      <g transform="translate(30.07 155.283538) scale(0.12 -0.12)">
       <defs>
        <path id="NewCM10-Regular-34" d="M 3014 1056 
L 3014 1254 
L 2374 1254 
L 2374 4166 
C 2374 4294 2374 4333 2272 4333 
C 2214 4333 2195 4333 2144 4256 
L 179 1254 
L 179 1056 
L 1882 1056 
L 1882 499 
C 1882 269 1869 198 1395 198 
L 1261 198 
L 1261 0 
C 1523 19 1856 19 2125 19 
C 2394 19 2733 19 2995 0 
L 2995 198 
L 2861 198 
C 2387 198 2374 269 2374 499 
L 2374 1056 
L 3014 1056 
z
M 1920 1254 
L 358 1254 
L 1920 3642 
L 1920 1254 
z
" transform="scale(0.015625)"/>
       </defs>
       <use xlink:href="#NewCM10-Regular-34"/>
       <use xlink:href="#NewCM10-Regular-30" transform="translate(49.999985 0)"/>
       <use xlink:href="#NewCM10-Regular-30" transform="translate(99.999969 0)"/>
       <use xlink:href="#NewCM10-Regular-30" transform="translate(149.999954 0)"/>
       <use xlink:href="#NewCM10-Regular-30" transform="translate(199.999939 0)"/>
      </g>
     </g>
    </g>
    <g id="ytick_4">
     <g id="line2d_8">
      <g>
       <use xlink:href="#m1de34149ca" x="67.07" y="96.673151" style="stroke: #000000; stroke-width: 0.8"/>
      </g>
     </g>
     <g id="text_9">
      <!-- 45000 -->
      <g transform="translate(30.07 100.837526) scale(0.12 -0.12)">
       <use xlink:href="#NewCM10-Regular-34"/>
       <use xlink:href="#NewCM10-Regular-35" transform="translate(49.999985 0)"/>
       <use xlink:href="#NewCM10-Regular-30" transform="translate(99.999969 0)"/>
       <use xlink:href="#NewCM10-Regular-30" transform="translate(149.999954 0)"/>
       <use xlink:href="#NewCM10-Regular-30" transform="translate(199.999939 0)"/>
      </g>
     </g>
    </g>
    <g id="ytick_5">
     <g id="line2d_9">
      <g>
       <use xlink:href="#m1de34149ca" x="67.07" y="42.227139" style="stroke: #000000; stroke-width: 0.8"/>
      </g>
     </g>
     <g id="text_10">
      <!-- 50000 -->
      <g transform="translate(30.07 46.391514) scale(0.12 -0.12)">
       <use xlink:href="#NewCM10-Regular-35"/>
       <use xlink:href="#NewCM10-Regular-30" transform="translate(49.999985 0)"/>
       <use xlink:href="#NewCM10-Regular-30" transform="translate(99.999969 0)"/>
       <use xlink:href="#NewCM10-Regular-30" transform="translate(149.999954 0)"/>
       <use xlink:href="#NewCM10-Regular-30" transform="translate(199.999939 0)"/>
      </g>
     </g>
    </g>
    <g id="text_11">
     <!-- trajectory length / number of positions -->
     <g transform="translate(23.07 274.462812) rotate(-90) scale(0.12 -0.12)">
      <defs>
       <path id="NewCM10-Regular-74" d="M 2125 794 
L 2125 1158 
L 1965 1158 
L 1965 806 
C 1965 333 1773 90 1536 90 
C 1107 90 1107 672 1107 781 
L 1107 2560 
L 2022 2560 
L 2022 2758 
L 1107 2758 
L 1107 3936 
L 947 3936 
C 941 3411 749 2726 122 2701 
L 122 2560 
L 666 2560 
L 666 794 
C 666 6 1261 -70 1491 -70 
C 1946 -70 2125 384 2125 794 
z
" transform="scale(0.015625)"/>
       <path id="NewCM10-Regular-61" d="M 3091 570 
L 3091 928 
L 2931 928 
L 2931 570 
C 2931 198 2771 160 2701 160 
C 2490 160 2464 448 2464 480 
L 2464 1760 
C 2464 2029 2464 2278 2234 2515 
C 1984 2765 1664 2867 1357 2867 
C 832 2867 390 2566 390 2144 
C 390 1952 518 1843 685 1843 
C 864 1843 979 1971 979 2138 
C 979 2214 947 2426 653 2432 
C 826 2656 1139 2726 1344 2726 
C 1658 2726 2022 2477 2022 1907 
L 2022 1670 
C 1696 1651 1248 1632 845 1440 
C 365 1222 205 890 205 608 
C 205 90 826 -70 1229 -70 
C 1651 -70 1946 186 2067 486 
C 2093 230 2266 -38 2566 -38 
C 2701 -38 3091 51 3091 570 
z
M 2022 896 
C 2022 288 1562 70 1274 70 
C 960 70 698 294 698 614 
C 698 966 966 1498 2022 1536 
L 2022 896 
z
" transform="scale(0.015625)"/>
       <path id="NewCM10-Regular-6a" d="M 1344 -320 
L 1344 2829 
L 371 2758 
L 371 2560 
C 864 2560 922 2515 922 2202 
L 922 -333 
C 922 -621 864 -1171 454 -1171 
C 422 -1171 275 -1171 109 -1088 
C 205 -1062 333 -973 333 -800 
C 333 -634 218 -506 38 -506 
C -141 -506 -256 -634 -256 -800 
C -256 -1133 102 -1312 467 -1312 
C 947 -1312 1344 -902 1344 -320 
z
M 1344 3866 
C 1344 4038 1197 4205 1005 4205 
C 787 4205 659 4026 659 3866 
C 659 3693 806 3526 998 3526 
C 1216 3526 1344 3706 1344 3866 
z
" transform="scale(0.015625)"/>
       <path id="NewCM10-Regular-65" d="M 2656 762 
C 2656 826 2605 838 2573 838 
C 2515 838 2502 800 2490 749 
C 2266 90 1690 90 1626 90 
C 1306 90 1050 282 902 518 
C 710 826 710 1248 710 1478 
L 2496 1478 
C 2637 1478 2656 1478 2656 1613 
C 2656 2246 2310 2867 1510 2867 
C 768 2867 179 2208 179 1408 
C 179 550 851 -70 1587 -70 
C 2368 -70 2656 640 2656 762 
z
M 2234 1613 
L 717 1613 
C 755 2566 1293 2726 1510 2726 
C 2170 2726 2234 1862 2234 1613 
z
" transform="scale(0.015625)"/>
       <path id="NewCM10-Regular-63" d="M 2656 762 
C 2656 826 2592 826 2573 826 
C 2515 826 2502 800 2490 762 
C 2304 166 1888 90 1651 90 
C 1312 90 749 365 749 1395 
C 749 2438 1274 2707 1613 2707 
C 1670 2707 2074 2701 2298 2470 
C 2035 2451 1997 2259 1997 2176 
C 1997 2010 2112 1882 2291 1882 
C 2458 1882 2586 1990 2586 2182 
C 2586 2618 2099 2867 1606 2867 
C 806 2867 218 2176 218 1382 
C 218 563 851 -70 1594 -70 
C 2451 -70 2656 698 2656 762 
z
" transform="scale(0.015625)"/>
       <path id="NewCM10-Regular-79" d="M 3251 2560 
L 3251 2758 
C 3104 2746 2918 2739 2771 2739 
L 2214 2758 
L 2214 2560 
C 2413 2554 2515 2445 2515 2285 
C 2515 2221 2509 2208 2477 2131 
L 1830 557 
L 1120 2278 
C 1094 2342 1082 2368 1082 2394 
C 1082 2560 1318 2560 1440 2560 
L 1440 2758 
L 742 2739 
C 570 2739 314 2746 122 2758 
L 122 2560 
C 429 2560 550 2560 640 2336 
L 1600 0 
L 1440 -378 
C 1299 -730 1120 -1171 710 -1171 
C 678 -1171 531 -1171 410 -1056 
C 608 -1030 659 -890 659 -787 
C 659 -621 538 -518 390 -518 
C 262 -518 122 -602 122 -794 
C 122 -1082 390 -1312 710 -1312 
C 1114 -1312 1376 -947 1530 -582 
L 2656 2150 
C 2822 2554 3149 2560 3251 2560 
z
" transform="scale(0.015625)"/>
       <path id="NewCM10-Regular-20" transform="scale(0.015625)"/>
       <path id="NewCM10-Regular-6c" d="M 1632 0 
L 1632 198 
C 1203 198 1133 198 1133 486 
L 1133 4442 
L 211 4371 
L 211 4173 
C 659 4173 710 4128 710 3814 
L 710 486 
C 710 198 640 198 211 198 
L 211 0 
L 922 19 
L 1632 0 
z
" transform="scale(0.015625)"/>
       <path id="NewCM10-Regular-6e" d="M 3424 0 
L 3424 198 
C 3091 198 2931 198 2925 390 
L 2925 1613 
C 2925 2163 2925 2362 2726 2592 
C 2637 2701 2426 2829 2054 2829 
C 1587 2829 1286 2554 1107 2157 
L 1107 2829 
L 205 2758 
L 205 2560 
C 653 2560 704 2515 704 2202 
L 704 486 
C 704 198 634 198 205 198 
L 205 0 
L 928 19 
L 1645 0 
L 1645 198 
C 1216 198 1146 198 1146 486 
L 1146 1664 
C 1146 2330 1600 2688 2010 2688 
C 2413 2688 2483 2342 2483 1978 
L 2483 486 
C 2483 198 2413 198 1984 198 
L 1984 0 
L 2707 19 
L 3424 0 
z
" transform="scale(0.015625)"/>
       <path id="NewCM10-Regular-67" d="M 3104 2586 
C 3104 2694 3027 2899 2778 2899 
C 2650 2899 2368 2861 2099 2598 
C 1830 2810 1562 2829 1421 2829 
C 826 2829 384 2387 384 1894 
C 384 1613 525 1370 685 1235 
C 602 1139 486 928 486 704 
C 486 506 570 262 768 134 
C 384 26 179 -250 179 -506 
C 179 -966 813 -1318 1594 -1318 
C 2349 -1318 3014 -992 3014 -493 
C 3014 -269 2925 58 2598 237 
C 2259 416 1888 416 1498 416 
C 1338 416 1062 416 1018 422 
C 813 448 678 646 678 851 
C 678 877 678 1024 787 1152 
C 1037 973 1299 954 1421 954 
C 2016 954 2458 1395 2458 1888 
C 2458 2125 2355 2362 2195 2509 
C 2426 2726 2656 2758 2771 2758 
C 2771 2758 2816 2758 2835 2752 
C 2765 2726 2733 2656 2733 2579 
C 2733 2470 2816 2394 2918 2394 
C 2982 2394 3104 2438 3104 2586 
z
M 1978 1894 
C 1978 1722 1971 1517 1875 1357 
C 1824 1280 1677 1101 1421 1101 
C 864 1101 864 1741 864 1888 
C 864 2061 870 2266 966 2426 
C 1018 2502 1165 2682 1421 2682 
C 1978 2682 1978 2042 1978 1894 
z
M 2682 -506 
C 2682 -851 2227 -1171 1600 -1171 
C 954 -1171 512 -845 512 -506 
C 512 -211 755 26 1037 45 
L 1414 45 
C 1965 45 2682 45 2682 -506 
z
" transform="scale(0.015625)"/>
       <path id="NewCM10-Regular-68" d="M 3424 0 
L 3424 198 
C 3091 198 2931 198 2925 390 
L 2925 1613 
C 2925 2163 2925 2362 2726 2592 
C 2637 2701 2426 2829 2054 2829 
C 1517 2829 1235 2445 1133 2214 
L 1126 2214 
L 1126 4442 
L 205 4371 
L 205 4173 
C 653 4173 704 4128 704 3814 
L 704 486 
C 704 198 634 198 205 198 
L 205 0 
L 928 19 
L 1645 0 
L 1645 198 
C 1216 198 1146 198 1146 486 
L 1146 1664 
C 1146 2330 1600 2688 2010 2688 
C 2413 2688 2483 2342 2483 1978 
L 2483 486 
C 2483 198 2413 198 1984 198 
L 1984 0 
L 2707 19 
L 3424 0 
z
" transform="scale(0.015625)"/>
       <path id="NewCM10-Regular-2f" d="M 2835 4672 
C 2835 4742 2778 4800 2707 4800 
C 2618 4800 2592 4736 2573 4672 
L 390 -1357 
C 358 -1440 358 -1472 358 -1472 
C 358 -1542 416 -1600 486 -1600 
C 576 -1600 602 -1536 621 -1472 
L 2803 4557 
C 2835 4640 2835 4672 2835 4672 
z
" transform="scale(0.015625)"/>
       <path id="NewCM10-Regular-75" d="M 3424 0 
L 3424 198 
C 2976 198 2925 243 2925 557 
L 2925 2829 
L 1984 2758 
L 1984 2560 
C 2432 2560 2483 2515 2483 2202 
L 2483 1062 
C 2483 506 2176 70 1709 70 
C 1171 70 1146 371 1146 704 
L 1146 2829 
L 205 2758 
L 205 2560 
C 704 2560 704 2541 704 1971 
L 704 1011 
C 704 512 704 -70 1677 -70 
C 2035 -70 2317 109 2502 506 
L 2502 -70 
L 3424 0 
z
" transform="scale(0.015625)"/>
       <path id="NewCM10-Regular-6d" d="M 5203 0 
L 5203 198 
C 4870 198 4710 198 4704 390 
L 4704 1613 
C 4704 2163 4704 2362 4506 2592 
C 4416 2701 4205 2829 3834 2829 
C 3296 2829 3014 2445 2906 2202 
C 2816 2758 2342 2829 2054 2829 
C 1587 2829 1286 2554 1107 2157 
L 1107 2829 
L 205 2758 
L 205 2560 
C 653 2560 704 2515 704 2202 
L 704 486 
C 704 198 634 198 205 198 
L 205 0 
L 928 19 
L 1645 0 
L 1645 198 
C 1216 198 1146 198 1146 486 
L 1146 1664 
C 1146 2330 1600 2688 2010 2688 
C 2413 2688 2483 2342 2483 1978 
L 2483 486 
C 2483 198 2413 198 1984 198 
L 1984 0 
L 2707 19 
L 3424 0 
L 3424 198 
C 2995 198 2925 198 2925 486 
L 2925 1664 
C 2925 2330 3379 2688 3789 2688 
C 4192 2688 4262 2342 4262 1978 
L 4262 486 
C 4262 198 4192 198 3763 198 
L 3763 0 
L 4486 19 
L 5203 0 
z
" transform="scale(0.015625)"/>
       <path id="NewCM10-Regular-62" d="M 3334 1382 
C 3334 2195 2707 2829 1978 2829 
C 1478 2829 1203 2528 1101 2413 
L 1101 4442 
L 179 4371 
L 179 4173 
C 627 4173 678 4128 678 3814 
L 678 0 
L 838 0 
L 1069 397 
C 1165 250 1434 -70 1907 -70 
C 2669 -70 3334 557 3334 1382 
z
M 2803 1389 
C 2803 1152 2790 768 2605 480 
C 2470 282 2227 70 1882 70 
C 1594 70 1363 224 1210 461 
C 1120 595 1120 614 1120 730 
L 1120 2048 
C 1120 2170 1120 2176 1190 2278 
C 1440 2637 1792 2688 1946 2688 
C 2234 2688 2464 2522 2618 2278 
C 2784 2016 2803 1651 2803 1389 
z
" transform="scale(0.015625)"/>
       <path id="NewCM10-Regular-73" d="M 2304 819 
C 2304 1158 2112 1350 2035 1427 
C 1824 1632 1574 1683 1306 1734 
C 947 1805 518 1888 518 2259 
C 518 2483 685 2746 1235 2746 
C 1939 2746 1971 2170 1984 1971 
C 1990 1914 2061 1914 2061 1914 
C 2144 1914 2144 1946 2144 2067 
L 2144 2714 
C 2144 2822 2144 2867 2074 2867 
C 2042 2867 2029 2867 1946 2790 
C 1926 2765 1862 2707 1837 2688 
C 1594 2867 1331 2867 1235 2867 
C 454 2867 211 2438 211 2080 
C 211 1856 314 1677 486 1536 
C 691 1370 870 1331 1331 1242 
C 1472 1216 1997 1114 1997 653 
C 1997 326 1773 70 1274 70 
C 736 70 506 435 384 979 
C 365 1062 358 1088 294 1088 
C 211 1088 211 1043 211 928 
L 211 83 
C 211 -26 211 -70 282 -70 
C 314 -70 320 -64 442 58 
C 454 70 454 83 570 205 
C 851 -64 1139 -70 1274 -70 
C 2010 -70 2304 358 2304 819 
z
" transform="scale(0.015625)"/>
       <path id="NewCM10-Regular-69" d="M 1581 0 
L 1581 198 
C 1158 198 1133 230 1133 480 
L 1133 2829 
L 237 2758 
L 237 2560 
C 653 2560 710 2522 710 2208 
L 710 486 
C 710 198 640 198 211 198 
L 211 0 
L 915 19 
C 1139 19 1363 6 1581 0 
z
M 1229 3866 
C 1229 4038 1082 4205 890 4205 
C 672 4205 544 4026 544 3866 
C 544 3693 691 3526 883 3526 
C 1101 3526 1229 3706 1229 3866 
z
" transform="scale(0.015625)"/>
      </defs>
      <use xlink:href="#NewCM10-Regular-74"/>
      <use xlink:href="#NewCM10-Regular-72" transform="translate(38.899994 0)"/>
      <use xlink:href="#NewCM10-Regular-61" transform="translate(78.099991 0)"/>
      <use xlink:href="#NewCM10-Regular-6a" transform="translate(128.099976 0)"/>
      <use xlink:href="#NewCM10-Regular-65" transform="translate(158.699966 0)"/>
      <use xlink:href="#NewCM10-Regular-63" transform="translate(203.09996 0)"/>
      <use xlink:href="#NewCM10-Regular-74" transform="translate(247.499954 0)"/>
      <use xlink:href="#NewCM10-Regular-6f" transform="translate(286.399948 0)"/>
      <use xlink:href="#NewCM10-Regular-72" transform="translate(336.399933 0)"/>
      <use xlink:href="#NewCM10-Regular-79" transform="translate(375.59993 0)"/>
      <use xlink:href="#NewCM10-Regular-20" transform="translate(428.399918 0)"/>
      <use xlink:href="#NewCM10-Regular-6c" transform="translate(461.699905 0)"/>
      <use xlink:href="#NewCM10-Regular-65" transform="translate(489.499893 0)"/>
      <use xlink:href="#NewCM10-Regular-6e" transform="translate(533.899887 0)"/>
      <use xlink:href="#NewCM10-Regular-67" transform="translate(589.499878 0)"/>
      <use xlink:href="#NewCM10-Regular-74" transform="translate(639.499863 0)"/>
      <use xlink:href="#NewCM10-Regular-68" transform="translate(678.399857 0)"/>
      <use xlink:href="#NewCM10-Regular-20" transform="translate(733.999847 0)"/>
      <use xlink:href="#NewCM10-Regular-2f" transform="translate(767.299835 0)"/>
      <use xlink:href="#NewCM10-Regular-20" transform="translate(817.29982 0)"/>
      <use xlink:href="#NewCM10-Regular-6e" transform="translate(850.599808 0)"/>
      <use xlink:href="#NewCM10-Regular-75" transform="translate(906.199799 0)"/>
      <use xlink:href="#NewCM10-Regular-6d" transform="translate(961.799789 0)"/>
      <use xlink:href="#NewCM10-Regular-62" transform="translate(1045.099777 0)"/>
      <use xlink:href="#NewCM10-Regular-65" transform="translate(1100.699768 0)"/>
      <use xlink:href="#NewCM10-Regular-72" transform="translate(1145.099762 0)"/>
      <use xlink:href="#NewCM10-Regular-20" transform="translate(1184.299759 0)"/>
      <use xlink:href="#NewCM10-Regular-6f" transform="translate(1217.599747 0)"/>
      <use xlink:href="#NewCM10-Regular-66" transform="translate(1267.599731 0)"/>
      <use xlink:href="#NewCM10-Regular-20" transform="translate(1298.199722 0)"/>
      <use xlink:href="#NewCM10-Regular-70" transform="translate(1331.49971 0)"/>
      <use xlink:href="#NewCM10-Regular-6f" transform="translate(1387.099701 0)"/>
      <use xlink:href="#NewCM10-Regular-73" transform="translate(1437.099686 0)"/>
      <use xlink:href="#NewCM10-Regular-69" transform="translate(1476.49968 0)"/>
      <use xlink:href="#NewCM10-Regular-74" transform="translate(1504.299667 0)"/>
      <use xlink:href="#NewCM10-Regular-69" transform="translate(1543.199661 0)"/>
      <use xlink:href="#NewCM10-Regular-6f" transform="translate(1570.999649 0)"/>
      <use xlink:href="#NewCM10-Regular-6e" transform="translate(1620.999634 0)"/>
      <use xlink:href="#NewCM10-Regular-73" transform="translate(1676.599625 0)"/>
     </g>
    </g>
   </g>
   <g id="line2d_10">
    <path d="M 96.217938 262.412256 
L 143.914563 262.412256 
L 143.914563 142.424135 
L 96.217938 142.424135 
L 96.217938 262.412256 
" clip-path="url(#pe696dcfaad)" style="fill: none; stroke: #000000; stroke-linecap: square"/>
   </g>
   <g id="line2d_11">
    <path d="M 120.06625 262.412256 
L 120.06625 282.192492 
" clip-path="url(#pe696dcfaad)" style="fill: none; stroke: #000000; stroke-linecap: square"/>
   </g>
   <g id="line2d_12">
    <path d="M 120.06625 142.424135 
L 120.06625 42.21625 
" clip-path="url(#pe696dcfaad)" style="fill: none; stroke: #000000; stroke-linecap: square"/>
   </g>
   <g id="line2d_13">
    <path d="M 108.142094 282.192492 
L 131.990406 282.192492 
" clip-path="url(#pe696dcfaad)" style="fill: none; stroke: #000000; stroke-linecap: square"/>
   </g>
   <g id="line2d_14">
    <path d="M 108.142094 42.21625 
L 131.990406 42.21625 
" clip-path="url(#pe696dcfaad)" style="fill: none; stroke: #000000; stroke-linecap: square"/>
   </g>
   <g id="line2d_15"/>
   <g id="line2d_16">
    <path d="M 202.210438 277.597249 
L 249.907063 277.597249 
L 249.907063 220.080482 
L 202.210438 220.080482 
L 202.210438 277.597249 
" clip-path="url(#pe696dcfaad)" style="fill: none; stroke: #000000; stroke-linecap: square"/>
   </g>
   <g id="line2d_17">
    <path d="M 226.05875 277.597249 
L 226.05875 300.79125 
" clip-path="url(#pe696dcfaad)" style="fill: none; stroke: #000000; stroke-linecap: square"/>
   </g>
   <g id="line2d_18">
    <path d="M 226.05875 220.080482 
L 226.05875 185.757716 
" clip-path="url(#pe696dcfaad)" style="fill: none; stroke: #000000; stroke-linecap: square"/>
   </g>
   <g id="line2d_19">
    <path d="M 214.134594 300.79125 
L 237.982906 300.79125 
" clip-path="url(#pe696dcfaad)" style="fill: none; stroke: #000000; stroke-linecap: square"/>
   </g>
   <g id="line2d_20">
    <path d="M 214.134594 185.757716 
L 237.982906 185.757716 
" clip-path="url(#pe696dcfaad)" style="fill: none; stroke: #000000; stroke-linecap: square"/>
   </g>
   <g id="line2d_21"/>
   <g id="line2d_22">
    <path d="M 308.202938 282.916624 
L 355.899563 282.916624 
L 355.899563 261.448562 
L 308.202938 261.448562 
L 308.202938 282.916624 
" clip-path="url(#pe696dcfaad)" style="fill: none; stroke: #000000; stroke-linecap: square"/>
   </g>
   <g id="line2d_23">
    <path d="M 332.05125 282.916624 
L 332.05125 300.79125 
" clip-path="url(#pe696dcfaad)" style="fill: none; stroke: #000000; stroke-linecap: square"/>
   </g>
   <g id="line2d_24">
    <path d="M 332.05125 261.448562 
L 332.05125 257.855125 
" clip-path="url(#pe696dcfaad)" style="fill: none; stroke: #000000; stroke-linecap: square"/>
   </g>
   <g id="line2d_25">
    <path d="M 320.127094 300.79125 
L 343.975406 300.79125 
" clip-path="url(#pe696dcfaad)" style="fill: none; stroke: #000000; stroke-linecap: square"/>
   </g>
   <g id="line2d_26">
    <path d="M 320.127094 257.855125 
L 343.975406 257.855125 
" clip-path="url(#pe696dcfaad)" style="fill: none; stroke: #000000; stroke-linecap: square"/>
   </g>
   <g id="line2d_27"/>
   <g id="line2d_28">
    <path d="M 414.195438 287.669761 
L 461.892063 287.669761 
L 461.892063 267.666296 
L 414.195438 267.666296 
L 414.195438 287.669761 
" clip-path="url(#pe696dcfaad)" style="fill: none; stroke: #000000; stroke-linecap: square"/>
   </g>
   <g id="line2d_29">
    <path d="M 438.04375 287.669761 
L 438.04375 300.79125 
" clip-path="url(#pe696dcfaad)" style="fill: none; stroke: #000000; stroke-linecap: square"/>
   </g>
   <g id="line2d_30">
    <path d="M 438.04375 267.666296 
L 438.04375 260.78432 
" clip-path="url(#pe696dcfaad)" style="fill: none; stroke: #000000; stroke-linecap: square"/>
   </g>
   <g id="line2d_31">
    <path d="M 426.119594 300.79125 
L 449.967906 300.79125 
" clip-path="url(#pe696dcfaad)" style="fill: none; stroke: #000000; stroke-linecap: square"/>
   </g>
   <g id="line2d_32">
    <path d="M 426.119594 260.78432 
L 449.967906 260.78432 
" clip-path="url(#pe696dcfaad)" style="fill: none; stroke: #000000; stroke-linecap: square"/>
   </g>
   <g id="line2d_33"/>
   <g id="line2d_34">
    <path d="M 96.217938 242.63202 
L 143.914563 242.63202 
" clip-path="url(#pe696dcfaad)" style="fill: none; stroke: #1f77b4"/>
   </g>
   <g id="line2d_35">
    <defs>
     <path id="m4d70b23478" d="M 0 -3 
L -3 3 
L 3 3 
z
" style="stroke: #ff7f0e; stroke-linejoin: miter"/>
    </defs>
    <g clip-path="url(#pe696dcfaad)">
     <use xlink:href="#m4d70b23478" x="120.06625" y="189.013587" style="fill: #ff7f0e; stroke: #ff7f0e; stroke-linejoin: miter"/>
    </g>
   </g>
   <g id="line2d_36">
    <path d="M 202.210438 254.403248 
L 249.907063 254.403248 
" clip-path="url(#pe696dcfaad)" style="fill: none; stroke: #1f77b4"/>
   </g>
   <g id="line2d_37">
    <g clip-path="url(#pe696dcfaad)">
     <use xlink:href="#m4d70b23478" x="226.05875" y="246.984071" style="fill: #ff7f0e; stroke: #ff7f0e; stroke-linejoin: miter"/>
    </g>
   </g>
   <g id="line2d_38">
    <path d="M 308.202938 265.041999 
L 355.899563 265.041999 
" clip-path="url(#pe696dcfaad)" style="fill: none; stroke: #1f77b4"/>
   </g>
   <g id="line2d_39">
    <g clip-path="url(#pe696dcfaad)">
     <use xlink:href="#m4d70b23478" x="332.05125" y="274.562791" style="fill: #ff7f0e; stroke: #ff7f0e; stroke-linejoin: miter"/>
    </g>
   </g>
   <g id="line2d_40">
    <path d="M 414.195438 274.548272 
L 461.892063 274.548272 
" clip-path="url(#pe696dcfaad)" style="fill: none; stroke: #1f77b4"/>
   </g>
   <g id="line2d_41">
    <g clip-path="url(#pe696dcfaad)">
     <use xlink:href="#m4d70b23478" x="438.04375" y="278.707948" style="fill: #ff7f0e; stroke: #ff7f0e; stroke-linejoin: miter"/>
    </g>
   </g>
   <g id="patch_3">
    <path d="M 67.07 313.72 
L 67.07 29.2875 
" style="fill: none; stroke: #000000; stroke-width: 0.5; stroke-linejoin: miter; stroke-linecap: square"/>
   </g>
   <g id="patch_4">
    <path d="M 67.07 313.72 
L 491.04 313.72 
" style="fill: none; stroke: #000000; stroke-width: 0.5; stroke-linejoin: miter; stroke-linecap: square"/>
   </g>
   <g id="text_12">
    <!-- Trajectory length by dropoff across seeds -->
    <g transform="translate(149.015125 23.2875) scale(0.144 -0.144)">
     <defs>
      <path id="NewCM10-Regular-54" d="M 4384 2893 
L 4262 4333 
L 352 4333 
L 230 2893 
L 390 2893 
C 480 3923 576 4134 1542 4134 
C 1658 4134 1824 4134 1888 4122 
C 2022 4096 2022 4026 2022 3878 
L 2022 506 
C 2022 288 2022 198 1350 198 
L 1094 198 
L 1094 0 
C 1357 19 2010 19 2304 19 
C 2598 19 3258 19 3520 0 
L 3520 198 
L 3264 198 
C 2592 198 2592 288 2592 506 
L 2592 3878 
C 2592 4006 2592 4096 2707 4122 
C 2778 4134 2950 4134 3072 4134 
C 4038 4134 4134 3923 4224 2893 
L 4384 2893 
z
" transform="scale(0.015625)"/>
     </defs>
     <use xlink:href="#NewCM10-Regular-54"/>
     <use xlink:href="#NewCM10-Regular-72" transform="translate(72.199982 0)"/>
     <use xlink:href="#NewCM10-Regular-61" transform="translate(111.399979 0)"/>
     <use xlink:href="#NewCM10-Regular-6a" transform="translate(161.399963 0)"/>
     <use xlink:href="#NewCM10-Regular-65" transform="translate(191.999954 0)"/>
     <use xlink:href="#NewCM10-Regular-63" transform="translate(236.399948 0)"/>
     <use xlink:href="#NewCM10-Regular-74" transform="translate(280.799942 0)"/>
     <use xlink:href="#NewCM10-Regular-6f" transform="translate(319.699936 0)"/>
     <use xlink:href="#NewCM10-Regular-72" transform="translate(369.699921 0)"/>
     <use xlink:href="#NewCM10-Regular-79" transform="translate(408.899918 0)"/>
     <use xlink:href="#NewCM10-Regular-20" transform="translate(461.699905 0)"/>
     <use xlink:href="#NewCM10-Regular-6c" transform="translate(494.999893 0)"/>
     <use xlink:href="#NewCM10-Regular-65" transform="translate(522.799881 0)"/>
     <use xlink:href="#NewCM10-Regular-6e" transform="translate(567.199875 0)"/>
     <use xlink:href="#NewCM10-Regular-67" transform="translate(622.799866 0)"/>
     <use xlink:href="#NewCM10-Regular-74" transform="translate(672.79985 0)"/>
     <use xlink:href="#NewCM10-Regular-68" transform="translate(711.699844 0)"/>
     <use xlink:href="#NewCM10-Regular-20" transform="translate(767.299835 0)"/>
     <use xlink:href="#NewCM10-Regular-62" transform="translate(800.599823 0)"/>
     <use xlink:href="#NewCM10-Regular-79" transform="translate(856.199814 0)"/>
     <use xlink:href="#NewCM10-Regular-20" transform="translate(908.999802 0)"/>
     <use xlink:href="#NewCM10-Regular-64" transform="translate(942.299789 0)"/>
     <use xlink:href="#NewCM10-Regular-72" transform="translate(997.89978 0)"/>
     <use xlink:href="#NewCM10-Regular-6f" transform="translate(1037.099777 0)"/>
     <use xlink:href="#NewCM10-Regular-70" transform="translate(1087.099762 0)"/>
     <use xlink:href="#NewCM10-Regular-6f" transform="translate(1142.699753 0)"/>
     <use xlink:href="#NewCM10-Regular-66" transform="translate(1192.699738 0)"/>
     <use xlink:href="#NewCM10-Regular-66" transform="translate(1223.299728 0)"/>
     <use xlink:href="#NewCM10-Regular-20" transform="translate(1253.899719 0)"/>
     <use xlink:href="#NewCM10-Regular-61" transform="translate(1287.199707 0)"/>
     <use xlink:href="#NewCM10-Regular-63" transform="translate(1337.199692 0)"/>
     <use xlink:href="#NewCM10-Regular-72" transform="translate(1381.599686 0)"/>
     <use xlink:href="#NewCM10-Regular-6f" transform="translate(1420.799683 0)"/>
     <use xlink:href="#NewCM10-Regular-73" transform="translate(1470.799667 0)"/>
     <use xlink:href="#NewCM10-Regular-73" transform="translate(1510.199661 0)"/>
     <use xlink:href="#NewCM10-Regular-20" transform="translate(1549.599655 0)"/>
     <use xlink:href="#NewCM10-Regular-73" transform="translate(1582.899643 0)"/>
     <use xlink:href="#NewCM10-Regular-65" transform="translate(1622.299637 0)"/>
     <use xlink:href="#NewCM10-Regular-65" transform="translate(1666.699631 0)"/>
     <use xlink:href="#NewCM10-Regular-64" transform="translate(1711.099625 0)"/>
     <use xlink:href="#NewCM10-Regular-73" transform="translate(1766.699615 0)"/>
    </g>
   </g>
  </g>
 </g>
 <defs>
  <clipPath id="pe696dcfaad">
   <rect x="67.07" y="29.2875" width="423.97" height="284.4325"/>
  </clipPath>
 </defs>
</svg>
